%TF.GenerationSoftware,KiCad,Pcbnew,8.0.6*%
%TF.CreationDate,2025-01-18T20:05:51-05:00*%
%TF.ProjectId,twistedCharlieplex,74776973-7465-4644-9368-61726c696570,rev?*%
%TF.SameCoordinates,Original*%
%TF.FileFunction,Legend,Bot*%
%TF.FilePolarity,Positive*%
%FSLAX46Y46*%
G04 Gerber Fmt 4.6, Leading zero omitted, Abs format (unit mm)*
G04 Created by KiCad (PCBNEW 8.0.6) date 2025-01-18 20:05:51*
%MOMM*%
%LPD*%
G01*
G04 APERTURE LIST*
%ADD10C,0.150000*%
%ADD11C,0.120000*%
G04 APERTURE END LIST*
D10*
X5534819Y3539999D02*
X4534819Y3539999D01*
X4534819Y2873333D02*
X4534819Y2682857D01*
X4534819Y2682857D02*
X4582438Y2587619D01*
X4582438Y2587619D02*
X4677676Y2492381D01*
X4677676Y2492381D02*
X4868152Y2444762D01*
X4868152Y2444762D02*
X5201485Y2444762D01*
X5201485Y2444762D02*
X5391961Y2492381D01*
X5391961Y2492381D02*
X5487200Y2587619D01*
X5487200Y2587619D02*
X5534819Y2682857D01*
X5534819Y2682857D02*
X5534819Y2873333D01*
X5534819Y2873333D02*
X5487200Y2968571D01*
X5487200Y2968571D02*
X5391961Y3063809D01*
X5391961Y3063809D02*
X5201485Y3111428D01*
X5201485Y3111428D02*
X4868152Y3111428D01*
X4868152Y3111428D02*
X4677676Y3063809D01*
X4677676Y3063809D02*
X4582438Y2968571D01*
X4582438Y2968571D02*
X4534819Y2873333D01*
X4534819Y1587619D02*
X4534819Y1778095D01*
X4534819Y1778095D02*
X4582438Y1873333D01*
X4582438Y1873333D02*
X4630057Y1920952D01*
X4630057Y1920952D02*
X4772914Y2016190D01*
X4772914Y2016190D02*
X4963390Y2063809D01*
X4963390Y2063809D02*
X5344342Y2063809D01*
X5344342Y2063809D02*
X5439580Y2016190D01*
X5439580Y2016190D02*
X5487200Y1968571D01*
X5487200Y1968571D02*
X5534819Y1873333D01*
X5534819Y1873333D02*
X5534819Y1682857D01*
X5534819Y1682857D02*
X5487200Y1587619D01*
X5487200Y1587619D02*
X5439580Y1540000D01*
X5439580Y1540000D02*
X5344342Y1492381D01*
X5344342Y1492381D02*
X5106247Y1492381D01*
X5106247Y1492381D02*
X5011009Y1540000D01*
X5011009Y1540000D02*
X4963390Y1587619D01*
X4963390Y1587619D02*
X4915771Y1682857D01*
X4915771Y1682857D02*
X4915771Y1873333D01*
X4915771Y1873333D02*
X4963390Y1968571D01*
X4963390Y1968571D02*
X5011009Y2016190D01*
X5011009Y2016190D02*
X5106247Y2063809D01*
X-4625180Y3539999D02*
X-5625180Y3539999D01*
X-5625180Y2873333D02*
X-5625180Y2682857D01*
X-5625180Y2682857D02*
X-5577561Y2587619D01*
X-5577561Y2587619D02*
X-5482323Y2492381D01*
X-5482323Y2492381D02*
X-5291847Y2444762D01*
X-5291847Y2444762D02*
X-4958514Y2444762D01*
X-4958514Y2444762D02*
X-4768038Y2492381D01*
X-4768038Y2492381D02*
X-4672800Y2587619D01*
X-4672800Y2587619D02*
X-4625180Y2682857D01*
X-4625180Y2682857D02*
X-4625180Y2873333D01*
X-4625180Y2873333D02*
X-4672800Y2968571D01*
X-4672800Y2968571D02*
X-4768038Y3063809D01*
X-4768038Y3063809D02*
X-4958514Y3111428D01*
X-4958514Y3111428D02*
X-5291847Y3111428D01*
X-5291847Y3111428D02*
X-5482323Y3063809D01*
X-5482323Y3063809D02*
X-5577561Y2968571D01*
X-5577561Y2968571D02*
X-5625180Y2873333D01*
X-5529942Y2063809D02*
X-5577561Y2016190D01*
X-5577561Y2016190D02*
X-5625180Y1920952D01*
X-5625180Y1920952D02*
X-5625180Y1682857D01*
X-5625180Y1682857D02*
X-5577561Y1587619D01*
X-5577561Y1587619D02*
X-5529942Y1540000D01*
X-5529942Y1540000D02*
X-5434704Y1492381D01*
X-5434704Y1492381D02*
X-5339466Y1492381D01*
X-5339466Y1492381D02*
X-5196609Y1540000D01*
X-5196609Y1540000D02*
X-4625180Y2111428D01*
X-4625180Y2111428D02*
X-4625180Y1492381D01*
X10614819Y3539999D02*
X9614819Y3539999D01*
X9614819Y2873333D02*
X9614819Y2682857D01*
X9614819Y2682857D02*
X9662438Y2587619D01*
X9662438Y2587619D02*
X9757676Y2492381D01*
X9757676Y2492381D02*
X9948152Y2444762D01*
X9948152Y2444762D02*
X10281485Y2444762D01*
X10281485Y2444762D02*
X10471961Y2492381D01*
X10471961Y2492381D02*
X10567200Y2587619D01*
X10567200Y2587619D02*
X10614819Y2682857D01*
X10614819Y2682857D02*
X10614819Y2873333D01*
X10614819Y2873333D02*
X10567200Y2968571D01*
X10567200Y2968571D02*
X10471961Y3063809D01*
X10471961Y3063809D02*
X10281485Y3111428D01*
X10281485Y3111428D02*
X9948152Y3111428D01*
X9948152Y3111428D02*
X9757676Y3063809D01*
X9757676Y3063809D02*
X9662438Y2968571D01*
X9662438Y2968571D02*
X9614819Y2873333D01*
X10043390Y1873333D02*
X9995771Y1968571D01*
X9995771Y1968571D02*
X9948152Y2016190D01*
X9948152Y2016190D02*
X9852914Y2063809D01*
X9852914Y2063809D02*
X9805295Y2063809D01*
X9805295Y2063809D02*
X9710057Y2016190D01*
X9710057Y2016190D02*
X9662438Y1968571D01*
X9662438Y1968571D02*
X9614819Y1873333D01*
X9614819Y1873333D02*
X9614819Y1682857D01*
X9614819Y1682857D02*
X9662438Y1587619D01*
X9662438Y1587619D02*
X9710057Y1540000D01*
X9710057Y1540000D02*
X9805295Y1492381D01*
X9805295Y1492381D02*
X9852914Y1492381D01*
X9852914Y1492381D02*
X9948152Y1540000D01*
X9948152Y1540000D02*
X9995771Y1587619D01*
X9995771Y1587619D02*
X10043390Y1682857D01*
X10043390Y1682857D02*
X10043390Y1873333D01*
X10043390Y1873333D02*
X10091009Y1968571D01*
X10091009Y1968571D02*
X10138628Y2016190D01*
X10138628Y2016190D02*
X10233866Y2063809D01*
X10233866Y2063809D02*
X10424342Y2063809D01*
X10424342Y2063809D02*
X10519580Y2016190D01*
X10519580Y2016190D02*
X10567200Y1968571D01*
X10567200Y1968571D02*
X10614819Y1873333D01*
X10614819Y1873333D02*
X10614819Y1682857D01*
X10614819Y1682857D02*
X10567200Y1587619D01*
X10567200Y1587619D02*
X10519580Y1540000D01*
X10519580Y1540000D02*
X10424342Y1492381D01*
X10424342Y1492381D02*
X10233866Y1492381D01*
X10233866Y1492381D02*
X10138628Y1540000D01*
X10138628Y1540000D02*
X10091009Y1587619D01*
X10091009Y1587619D02*
X10043390Y1682857D01*
X454819Y3539999D02*
X-545180Y3539999D01*
X-545180Y2873333D02*
X-545180Y2682857D01*
X-545180Y2682857D02*
X-497561Y2587619D01*
X-497561Y2587619D02*
X-402323Y2492381D01*
X-402323Y2492381D02*
X-211847Y2444762D01*
X-211847Y2444762D02*
X121485Y2444762D01*
X121485Y2444762D02*
X311961Y2492381D01*
X311961Y2492381D02*
X407200Y2587619D01*
X407200Y2587619D02*
X454819Y2682857D01*
X454819Y2682857D02*
X454819Y2873333D01*
X454819Y2873333D02*
X407200Y2968571D01*
X407200Y2968571D02*
X311961Y3063809D01*
X311961Y3063809D02*
X121485Y3111428D01*
X121485Y3111428D02*
X-211847Y3111428D01*
X-211847Y3111428D02*
X-402323Y3063809D01*
X-402323Y3063809D02*
X-497561Y2968571D01*
X-497561Y2968571D02*
X-545180Y2873333D01*
X-211847Y1587619D02*
X454819Y1587619D01*
X-592800Y1825714D02*
X121485Y2063809D01*
X121485Y2063809D02*
X121485Y1444762D01*
X2994819Y3539999D02*
X1994819Y3539999D01*
X1994819Y2873333D02*
X1994819Y2682857D01*
X1994819Y2682857D02*
X2042438Y2587619D01*
X2042438Y2587619D02*
X2137676Y2492381D01*
X2137676Y2492381D02*
X2328152Y2444762D01*
X2328152Y2444762D02*
X2661485Y2444762D01*
X2661485Y2444762D02*
X2851961Y2492381D01*
X2851961Y2492381D02*
X2947200Y2587619D01*
X2947200Y2587619D02*
X2994819Y2682857D01*
X2994819Y2682857D02*
X2994819Y2873333D01*
X2994819Y2873333D02*
X2947200Y2968571D01*
X2947200Y2968571D02*
X2851961Y3063809D01*
X2851961Y3063809D02*
X2661485Y3111428D01*
X2661485Y3111428D02*
X2328152Y3111428D01*
X2328152Y3111428D02*
X2137676Y3063809D01*
X2137676Y3063809D02*
X2042438Y2968571D01*
X2042438Y2968571D02*
X1994819Y2873333D01*
X1994819Y1540000D02*
X1994819Y2016190D01*
X1994819Y2016190D02*
X2471009Y2063809D01*
X2471009Y2063809D02*
X2423390Y2016190D01*
X2423390Y2016190D02*
X2375771Y1920952D01*
X2375771Y1920952D02*
X2375771Y1682857D01*
X2375771Y1682857D02*
X2423390Y1587619D01*
X2423390Y1587619D02*
X2471009Y1540000D01*
X2471009Y1540000D02*
X2566247Y1492381D01*
X2566247Y1492381D02*
X2804342Y1492381D01*
X2804342Y1492381D02*
X2899580Y1540000D01*
X2899580Y1540000D02*
X2947200Y1587619D01*
X2947200Y1587619D02*
X2994819Y1682857D01*
X2994819Y1682857D02*
X2994819Y1920952D01*
X2994819Y1920952D02*
X2947200Y2016190D01*
X2947200Y2016190D02*
X2899580Y2063809D01*
X-2085180Y3539999D02*
X-3085180Y3539999D01*
X-3085180Y2873333D02*
X-3085180Y2682857D01*
X-3085180Y2682857D02*
X-3037561Y2587619D01*
X-3037561Y2587619D02*
X-2942323Y2492381D01*
X-2942323Y2492381D02*
X-2751847Y2444762D01*
X-2751847Y2444762D02*
X-2418514Y2444762D01*
X-2418514Y2444762D02*
X-2228038Y2492381D01*
X-2228038Y2492381D02*
X-2132800Y2587619D01*
X-2132800Y2587619D02*
X-2085180Y2682857D01*
X-2085180Y2682857D02*
X-2085180Y2873333D01*
X-2085180Y2873333D02*
X-2132800Y2968571D01*
X-2132800Y2968571D02*
X-2228038Y3063809D01*
X-2228038Y3063809D02*
X-2418514Y3111428D01*
X-2418514Y3111428D02*
X-2751847Y3111428D01*
X-2751847Y3111428D02*
X-2942323Y3063809D01*
X-2942323Y3063809D02*
X-3037561Y2968571D01*
X-3037561Y2968571D02*
X-3085180Y2873333D01*
X-3085180Y2111428D02*
X-3085180Y1492381D01*
X-3085180Y1492381D02*
X-2704228Y1825714D01*
X-2704228Y1825714D02*
X-2704228Y1682857D01*
X-2704228Y1682857D02*
X-2656609Y1587619D01*
X-2656609Y1587619D02*
X-2608990Y1540000D01*
X-2608990Y1540000D02*
X-2513752Y1492381D01*
X-2513752Y1492381D02*
X-2275657Y1492381D01*
X-2275657Y1492381D02*
X-2180419Y1540000D01*
X-2180419Y1540000D02*
X-2132800Y1587619D01*
X-2132800Y1587619D02*
X-2085180Y1682857D01*
X-2085180Y1682857D02*
X-2085180Y1968571D01*
X-2085180Y1968571D02*
X-2132800Y2063809D01*
X-2132800Y2063809D02*
X-2180419Y2111428D01*
X-7165180Y3539999D02*
X-8165180Y3539999D01*
X-8165180Y2873333D02*
X-8165180Y2682857D01*
X-8165180Y2682857D02*
X-8117561Y2587619D01*
X-8117561Y2587619D02*
X-8022323Y2492381D01*
X-8022323Y2492381D02*
X-7831847Y2444762D01*
X-7831847Y2444762D02*
X-7498514Y2444762D01*
X-7498514Y2444762D02*
X-7308038Y2492381D01*
X-7308038Y2492381D02*
X-7212800Y2587619D01*
X-7212800Y2587619D02*
X-7165180Y2682857D01*
X-7165180Y2682857D02*
X-7165180Y2873333D01*
X-7165180Y2873333D02*
X-7212800Y2968571D01*
X-7212800Y2968571D02*
X-7308038Y3063809D01*
X-7308038Y3063809D02*
X-7498514Y3111428D01*
X-7498514Y3111428D02*
X-7831847Y3111428D01*
X-7831847Y3111428D02*
X-8022323Y3063809D01*
X-8022323Y3063809D02*
X-8117561Y2968571D01*
X-8117561Y2968571D02*
X-8165180Y2873333D01*
X-7165180Y1492381D02*
X-7165180Y2063809D01*
X-7165180Y1778095D02*
X-8165180Y1778095D01*
X-8165180Y1778095D02*
X-8022323Y1873333D01*
X-8022323Y1873333D02*
X-7927085Y1968571D01*
X-7927085Y1968571D02*
X-7879466Y2063809D01*
X8074819Y3539999D02*
X7074819Y3539999D01*
X7074819Y2873333D02*
X7074819Y2682857D01*
X7074819Y2682857D02*
X7122438Y2587619D01*
X7122438Y2587619D02*
X7217676Y2492381D01*
X7217676Y2492381D02*
X7408152Y2444762D01*
X7408152Y2444762D02*
X7741485Y2444762D01*
X7741485Y2444762D02*
X7931961Y2492381D01*
X7931961Y2492381D02*
X8027200Y2587619D01*
X8027200Y2587619D02*
X8074819Y2682857D01*
X8074819Y2682857D02*
X8074819Y2873333D01*
X8074819Y2873333D02*
X8027200Y2968571D01*
X8027200Y2968571D02*
X7931961Y3063809D01*
X7931961Y3063809D02*
X7741485Y3111428D01*
X7741485Y3111428D02*
X7408152Y3111428D01*
X7408152Y3111428D02*
X7217676Y3063809D01*
X7217676Y3063809D02*
X7122438Y2968571D01*
X7122438Y2968571D02*
X7074819Y2873333D01*
X7074819Y2111428D02*
X7074819Y1444762D01*
X7074819Y1444762D02*
X8074819Y1873333D01*
X-9705180Y3539999D02*
X-10705180Y3539999D01*
X-10705180Y2873333D02*
X-10705180Y2682857D01*
X-10705180Y2682857D02*
X-10657561Y2587619D01*
X-10657561Y2587619D02*
X-10562323Y2492381D01*
X-10562323Y2492381D02*
X-10371847Y2444762D01*
X-10371847Y2444762D02*
X-10038514Y2444762D01*
X-10038514Y2444762D02*
X-9848038Y2492381D01*
X-9848038Y2492381D02*
X-9752800Y2587619D01*
X-9752800Y2587619D02*
X-9705180Y2682857D01*
X-9705180Y2682857D02*
X-9705180Y2873333D01*
X-9705180Y2873333D02*
X-9752800Y2968571D01*
X-9752800Y2968571D02*
X-9848038Y3063809D01*
X-9848038Y3063809D02*
X-10038514Y3111428D01*
X-10038514Y3111428D02*
X-10371847Y3111428D01*
X-10371847Y3111428D02*
X-10562323Y3063809D01*
X-10562323Y3063809D02*
X-10657561Y2968571D01*
X-10657561Y2968571D02*
X-10705180Y2873333D01*
X-10705180Y1825714D02*
X-10705180Y1730476D01*
X-10705180Y1730476D02*
X-10657561Y1635238D01*
X-10657561Y1635238D02*
X-10609942Y1587619D01*
X-10609942Y1587619D02*
X-10514704Y1540000D01*
X-10514704Y1540000D02*
X-10324228Y1492381D01*
X-10324228Y1492381D02*
X-10086133Y1492381D01*
X-10086133Y1492381D02*
X-9895657Y1540000D01*
X-9895657Y1540000D02*
X-9800419Y1587619D01*
X-9800419Y1587619D02*
X-9752800Y1635238D01*
X-9752800Y1635238D02*
X-9705180Y1730476D01*
X-9705180Y1730476D02*
X-9705180Y1825714D01*
X-9705180Y1825714D02*
X-9752800Y1920952D01*
X-9752800Y1920952D02*
X-9800419Y1968571D01*
X-9800419Y1968571D02*
X-9895657Y2016190D01*
X-9895657Y2016190D02*
X-10086133Y2063809D01*
X-10086133Y2063809D02*
X-10324228Y2063809D01*
X-10324228Y2063809D02*
X-10514704Y2016190D01*
X-10514704Y2016190D02*
X-10609942Y1968571D01*
X-10609942Y1968571D02*
X-10657561Y1920952D01*
X-10657561Y1920952D02*
X-10705180Y1825714D01*
D11*
%TO.C,IO6*%
X6030000Y0D02*
G75*
G02*
X4130000Y0I-950000J0D01*
G01*
X4130000Y0D02*
G75*
G02*
X6030000Y0I950000J0D01*
G01*
%TO.C,IO2*%
X-4130000Y0D02*
G75*
G02*
X-6030000Y0I-950000J0D01*
G01*
X-6030000Y0D02*
G75*
G02*
X-4130000Y0I950000J0D01*
G01*
%TO.C,IO8*%
X11110000Y0D02*
G75*
G02*
X9210000Y0I-950000J0D01*
G01*
X9210000Y0D02*
G75*
G02*
X11110000Y0I950000J0D01*
G01*
%TO.C,IO4*%
X950000Y0D02*
G75*
G02*
X-950000Y0I-950000J0D01*
G01*
X-950000Y0D02*
G75*
G02*
X950000Y0I950000J0D01*
G01*
%TO.C,IO5*%
X3490000Y0D02*
G75*
G02*
X1590000Y0I-950000J0D01*
G01*
X1590000Y0D02*
G75*
G02*
X3490000Y0I950000J0D01*
G01*
%TO.C,IO3*%
X-1590000Y0D02*
G75*
G02*
X-3490000Y0I-950000J0D01*
G01*
X-3490000Y0D02*
G75*
G02*
X-1590000Y0I950000J0D01*
G01*
%TO.C,IO1*%
X-6670000Y0D02*
G75*
G02*
X-8570000Y0I-950000J0D01*
G01*
X-8570000Y0D02*
G75*
G02*
X-6670000Y0I950000J0D01*
G01*
%TO.C,IO7*%
X8570000Y0D02*
G75*
G02*
X6670000Y0I-950000J0D01*
G01*
X6670000Y0D02*
G75*
G02*
X8570000Y0I950000J0D01*
G01*
%TO.C,IO0*%
X-9210000Y0D02*
G75*
G02*
X-11110000Y0I-950000J0D01*
G01*
X-11110000Y0D02*
G75*
G02*
X-9210000Y0I950000J0D01*
G01*
%TD*%
M02*
