%TF.GenerationSoftware,KiCad,Pcbnew,8.0.6*%
%TF.CreationDate,2025-01-18T20:05:51-05:00*%
%TF.ProjectId,twistedCharlieplex,74776973-7465-4644-9368-61726c696570,rev?*%
%TF.SameCoordinates,Original*%
%TF.FileFunction,Soldermask,Top*%
%TF.FilePolarity,Negative*%
%FSLAX46Y46*%
G04 Gerber Fmt 4.6, Leading zero omitted, Abs format (unit mm)*
G04 Created by KiCad (PCBNEW 8.0.6) date 2025-01-18 20:05:51*
%MOMM*%
%LPD*%
G01*
G04 APERTURE LIST*
G04 Aperture macros list*
%AMRoundRect*
0 Rectangle with rounded corners*
0 $1 Rounding radius*
0 $2 $3 $4 $5 $6 $7 $8 $9 X,Y pos of 4 corners*
0 Add a 4 corners polygon primitive as box body*
4,1,4,$2,$3,$4,$5,$6,$7,$8,$9,$2,$3,0*
0 Add four circle primitives for the rounded corners*
1,1,$1+$1,$2,$3*
1,1,$1+$1,$4,$5*
1,1,$1+$1,$6,$7*
1,1,$1+$1,$8,$9*
0 Add four rect primitives between the rounded corners*
20,1,$1+$1,$2,$3,$4,$5,0*
20,1,$1+$1,$4,$5,$6,$7,0*
20,1,$1+$1,$6,$7,$8,$9,0*
20,1,$1+$1,$8,$9,$2,$3,0*%
G04 Aperture macros list end*
%ADD10RoundRect,0.218750X0.304064X0.145122X-0.095612X0.323070X-0.304064X-0.145122X0.095612X-0.323070X0*%
%ADD11RoundRect,0.218750X-0.112544X0.317568X-0.331294X-0.061318X0.112544X-0.317568X0.331294X0.061318X0*%
%ADD12RoundRect,0.218750X0.008902X-0.336803X0.334028X-0.044059X-0.008902X0.336803X-0.334028X0.044059X0*%
%ADD13RoundRect,0.218750X0.287229X0.176111X-0.128858X0.311306X-0.287229X-0.176111X0.128858X-0.311306X0*%
%ADD14RoundRect,0.218750X0.244337X0.231981X-0.190766X0.277712X-0.244337X-0.231981X0.190766X-0.277712X0*%
%ADD15RoundRect,0.218750X-0.061318X-0.331294X0.317568X-0.112544X0.061318X0.331294X-0.317568X0.112544X0*%
%ADD16RoundRect,0.218750X-0.287229X-0.176111X0.128858X-0.311306X0.287229X0.176111X-0.128858X0.311306X0*%
%ADD17RoundRect,0.218750X0.160692X0.296131X-0.267247X0.205170X-0.160692X-0.296131X0.267247X-0.205170X0*%
%ADD18RoundRect,0.218750X0.112544X-0.317568X0.331294X0.061318X-0.112544X0.317568X-0.331294X-0.061318X0*%
%ADD19RoundRect,0.218750X0.061318X0.331294X-0.317568X0.112544X-0.061318X-0.331294X0.317568X-0.112544X0*%
%ADD20RoundRect,0.218750X-0.334028X-0.044059X-0.008902X-0.336803X0.334028X0.044059X0.008902X0.336803X0*%
%ADD21RoundRect,0.218750X0.026352X0.335889X-0.327592X0.078733X-0.026352X-0.335889X0.327592X-0.078733X0*%
%ADD22RoundRect,0.218750X0.334028X0.044059X0.008902X0.336803X-0.334028X-0.044059X-0.008902X-0.336803X0*%
%ADD23RoundRect,0.218750X-0.277712X0.190766X-0.231981X-0.244337X0.277712X-0.190766X0.231981X0.244337X0*%
%ADD24RoundRect,0.218750X0.323070X-0.095612X0.145122X0.304064X-0.323070X0.095612X-0.145122X-0.304064X0*%
%ADD25RoundRect,0.218750X-0.078733X0.327592X-0.335889X-0.026352X0.078733X-0.327592X0.335889X0.026352X0*%
%ADD26RoundRect,0.218750X0.231981X-0.244337X0.277712X0.190766X-0.231981X0.244337X-0.277712X-0.190766X0*%
%ADD27RoundRect,0.218750X-0.205170X0.267247X-0.296131X-0.160692X0.205170X-0.267247X0.296131X0.160692X0*%
%ADD28RoundRect,0.218750X-0.304064X-0.145122X0.095612X-0.323070X0.304064X0.145122X-0.095612X0.323070X0*%
%ADD29RoundRect,0.218750X-0.160692X-0.296131X0.267247X-0.205170X0.160692X0.296131X-0.267247X0.205170X0*%
%ADD30RoundRect,0.218750X-0.267247X-0.205170X0.160692X-0.296131X0.267247X0.205170X-0.160692X0.296131X0*%
%ADD31RoundRect,0.218750X0.277712X-0.190766X0.231981X0.244337X-0.277712X0.190766X-0.231981X-0.244337X0*%
%ADD32RoundRect,0.218750X-0.190766X-0.277712X0.244337X-0.231981X0.190766X0.277712X-0.244337X0.231981X0*%
%ADD33RoundRect,0.218750X-0.176111X0.287229X-0.311306X-0.128858X0.176111X-0.287229X0.311306X0.128858X0*%
%ADD34RoundRect,0.218750X-0.244337X-0.231981X0.190766X-0.277712X0.244337X0.231981X-0.190766X0.277712X0*%
%ADD35RoundRect,0.218750X-0.218750X-0.256250X0.218750X-0.256250X0.218750X0.256250X-0.218750X0.256250X0*%
%ADD36RoundRect,0.218750X-0.128858X-0.311306X0.287229X-0.176111X0.128858X0.311306X-0.287229X0.176111X0*%
%ADD37RoundRect,0.218750X0.317568X0.112544X-0.061318X0.331294X-0.317568X-0.112544X0.061318X-0.331294X0*%
%ADD38RoundRect,0.218750X-0.231981X0.244337X-0.277712X-0.190766X0.231981X-0.244337X0.277712X0.190766X0*%
%ADD39RoundRect,0.218750X-0.145122X0.304064X-0.323070X-0.095612X0.145122X-0.304064X0.323070X0.095612X0*%
%ADD40RoundRect,0.218750X0.145122X-0.304064X0.323070X0.095612X-0.145122X0.304064X-0.323070X-0.095612X0*%
%ADD41RoundRect,0.218750X0.176111X-0.287229X0.311306X0.128858X-0.176111X0.287229X-0.311306X-0.128858X0*%
%ADD42RoundRect,0.218750X-0.331294X0.061318X-0.112544X-0.317568X0.331294X-0.061318X0.112544X0.317568X0*%
%ADD43RoundRect,0.218750X0.256250X-0.218750X0.256250X0.218750X-0.256250X0.218750X-0.256250X-0.218750X0*%
%ADD44RoundRect,0.218750X0.095612X0.323070X-0.304064X0.145122X-0.095612X-0.323070X0.304064X-0.145122X0*%
%ADD45RoundRect,0.218750X-0.336803X-0.008902X-0.044059X-0.334028X0.336803X0.008902X0.044059X0.334028X0*%
%ADD46RoundRect,0.218750X-0.311306X0.128858X-0.176111X-0.287229X0.311306X-0.128858X0.176111X0.287229X0*%
%ADD47RoundRect,0.218750X0.335889X-0.026352X0.078733X0.327592X-0.335889X0.026352X-0.078733X-0.327592X0*%
%ADD48RoundRect,0.218750X-0.026352X-0.335889X0.327592X-0.078733X0.026352X0.335889X-0.327592X0.078733X0*%
%ADD49RoundRect,0.218750X-0.044059X0.334028X-0.336803X0.008902X0.044059X-0.334028X0.336803X-0.008902X0*%
%ADD50RoundRect,0.218750X0.218750X0.256250X-0.218750X0.256250X-0.218750X-0.256250X0.218750X-0.256250X0*%
%ADD51RoundRect,0.218750X-0.327592X-0.078733X0.026352X-0.335889X0.327592X0.078733X-0.026352X0.335889X0*%
%ADD52RoundRect,0.218750X0.190766X0.277712X-0.244337X0.231981X-0.190766X-0.277712X0.244337X-0.231981X0*%
%ADD53RoundRect,0.218750X0.128858X0.311306X-0.287229X0.176111X-0.128858X-0.311306X0.287229X-0.176111X0*%
%ADD54RoundRect,0.218750X0.331294X-0.061318X0.112544X0.317568X-0.331294X0.061318X-0.112544X-0.317568X0*%
%ADD55RoundRect,0.218750X-0.335889X0.026352X-0.078733X-0.327592X0.335889X-0.026352X0.078733X0.327592X0*%
%ADD56RoundRect,0.218750X-0.095612X-0.323070X0.304064X-0.145122X0.095612X0.323070X-0.304064X0.145122X0*%
%ADD57RoundRect,0.218750X0.327592X0.078733X-0.026352X0.335889X-0.327592X-0.078733X0.026352X-0.335889X0*%
%ADD58RoundRect,0.218750X0.205170X-0.267247X0.296131X0.160692X-0.205170X0.267247X-0.296131X-0.160692X0*%
%ADD59RoundRect,0.218750X-0.296131X0.160692X-0.205170X-0.267247X0.296131X-0.160692X0.205170X0.267247X0*%
%ADD60RoundRect,0.218750X0.311306X-0.128858X0.176111X0.287229X-0.311306X0.128858X-0.176111X-0.287229X0*%
%ADD61RoundRect,0.218750X-0.008902X0.336803X-0.334028X0.044059X0.008902X-0.336803X0.334028X-0.044059X0*%
%ADD62RoundRect,0.218750X-0.256250X0.218750X-0.256250X-0.218750X0.256250X-0.218750X0.256250X0.218750X0*%
%ADD63RoundRect,0.218750X-0.323070X0.095612X-0.145122X-0.304064X0.323070X-0.095612X0.145122X0.304064X0*%
%ADD64RoundRect,0.218750X0.044059X-0.334028X0.336803X-0.008902X-0.044059X0.334028X-0.336803X0.008902X0*%
%ADD65RoundRect,0.218750X0.267247X0.205170X-0.160692X0.296131X-0.267247X-0.205170X0.160692X-0.296131X0*%
%ADD66RoundRect,0.218750X0.078733X-0.327592X0.335889X0.026352X-0.078733X0.327592X-0.335889X-0.026352X0*%
%ADD67RoundRect,0.218750X0.296131X-0.160692X0.205170X0.267247X-0.296131X0.160692X-0.205170X-0.267247X0*%
%ADD68RoundRect,0.218750X-0.317568X-0.112544X0.061318X-0.331294X0.317568X0.112544X-0.061318X0.331294X0*%
%ADD69RoundRect,0.218750X0.336803X0.008902X0.044059X0.334028X-0.336803X-0.008902X-0.044059X-0.334028X0*%
G04 APERTURE END LIST*
D10*
%TO.C,D12*%
X-23923472Y10651416D03*
X-22484638Y10010806D03*
%TD*%
D11*
%TO.C,D26*%
X-13093750Y-22679040D03*
X-12306250Y-21315050D03*
%TD*%
D12*
%TO.C,D53*%
X19461106Y17522857D03*
X18290652Y16468977D03*
%TD*%
D13*
%TO.C,D13*%
X-24905793Y8092383D03*
X-23407879Y7605681D03*
%TD*%
D14*
%TO.C,D15*%
X-26044042Y2737339D03*
X-24477670Y2572707D03*
%TD*%
D15*
%TO.C,D51*%
X22679040Y13093750D03*
X21315050Y12306250D03*
%TD*%
D16*
%TO.C,D43*%
X24905793Y-8092383D03*
X23407879Y-7605681D03*
%TD*%
D17*
%TO.C,D18*%
X-25615240Y-5444687D03*
X-24074658Y-5117227D03*
%TD*%
D18*
%TO.C,D56*%
X13093750Y22679040D03*
X12306250Y21315050D03*
%TD*%
D19*
%TO.C,D21*%
X-22679040Y-13093750D03*
X-21315050Y-12306250D03*
%TD*%
D20*
%TO.C,D39*%
X19461106Y-17522857D03*
X18290652Y-16468977D03*
%TD*%
D21*
%TO.C,D22*%
X-21186133Y-15392626D03*
X-19911931Y-14466864D03*
%TD*%
D22*
%TO.C,D9*%
X-19461106Y17522857D03*
X-18290652Y16468977D03*
%TD*%
D23*
%TO.C,D32*%
X2737339Y-26044042D03*
X2572707Y-24477670D03*
%TD*%
D24*
%TO.C,D5*%
X-10651416Y23923472D03*
X-10010806Y22484638D03*
%TD*%
D25*
%TO.C,D25*%
X-15392626Y-21186133D03*
X-14466864Y-19911931D03*
%TD*%
D26*
%TO.C,D60*%
X2737339Y26044042D03*
X2572707Y24477670D03*
%TD*%
D27*
%TO.C,D29*%
X-5444687Y-25615240D03*
X-5117227Y-24074658D03*
%TD*%
D28*
%TO.C,D42*%
X23923472Y-10651416D03*
X22484638Y-10010806D03*
%TD*%
D29*
%TO.C,D48*%
X25615240Y5444687D03*
X24074658Y5117227D03*
%TD*%
D30*
%TO.C,D44*%
X25615240Y-5444687D03*
X24074658Y-5117227D03*
%TD*%
D31*
%TO.C,D2*%
X-2737339Y26044042D03*
X-2572707Y24477670D03*
%TD*%
D32*
%TO.C,D47*%
X26044042Y2737339D03*
X24477670Y2572707D03*
%TD*%
D33*
%TO.C,D28*%
X-8092383Y-24905793D03*
X-7605681Y-23407879D03*
%TD*%
D34*
%TO.C,D45*%
X26044042Y-2737339D03*
X24477670Y-2572707D03*
%TD*%
D35*
%TO.C,D46*%
X26187500Y0D03*
X24612500Y0D03*
%TD*%
D36*
%TO.C,D49*%
X24905793Y8092383D03*
X23407879Y7605681D03*
%TD*%
D37*
%TO.C,D11*%
X-22679040Y13093750D03*
X-21315050Y12306250D03*
%TD*%
D38*
%TO.C,D30*%
X-2737339Y-26044042D03*
X-2572707Y-24477670D03*
%TD*%
D39*
%TO.C,D27*%
X-10651416Y-23923472D03*
X-10010806Y-22484638D03*
%TD*%
D40*
%TO.C,D57*%
X10651416Y23923472D03*
X10010806Y22484638D03*
%TD*%
D41*
%TO.C,D58*%
X8092383Y24905793D03*
X7605681Y23407879D03*
%TD*%
D42*
%TO.C,D36*%
X13093750Y-22679040D03*
X12306250Y-21315050D03*
%TD*%
D43*
%TO.C,D1*%
X0Y26187500D03*
X0Y24612500D03*
%TD*%
D44*
%TO.C,D20*%
X-23923472Y-10651416D03*
X-22484638Y-10010806D03*
%TD*%
D45*
%TO.C,D38*%
X17522857Y-19461106D03*
X16468977Y-18290652D03*
%TD*%
D46*
%TO.C,D34*%
X8092383Y-24905793D03*
X7605681Y-23407879D03*
%TD*%
D47*
%TO.C,D7*%
X-15392626Y21186133D03*
X-14466864Y19911931D03*
%TD*%
D48*
%TO.C,D52*%
X21186133Y15392626D03*
X19911931Y14466864D03*
%TD*%
D49*
%TO.C,D24*%
X-17522857Y-19461106D03*
X-16468977Y-18290652D03*
%TD*%
D50*
%TO.C,D16*%
X-26187500Y0D03*
X-24612500Y0D03*
%TD*%
D51*
%TO.C,D40*%
X21186133Y-15392626D03*
X19911931Y-14466864D03*
%TD*%
D52*
%TO.C,D17*%
X-26044042Y-2737339D03*
X-24477670Y-2572707D03*
%TD*%
D53*
%TO.C,D19*%
X-24905793Y-8092383D03*
X-23407879Y-7605681D03*
%TD*%
D54*
%TO.C,D6*%
X-13093750Y22679040D03*
X-12306250Y21315050D03*
%TD*%
D55*
%TO.C,D37*%
X15392626Y-21186133D03*
X14466864Y-19911931D03*
%TD*%
D56*
%TO.C,D50*%
X23923472Y10651416D03*
X22484638Y10010806D03*
%TD*%
D57*
%TO.C,D10*%
X-21186133Y15392626D03*
X-19911931Y14466864D03*
%TD*%
D58*
%TO.C,D59*%
X5444687Y25615240D03*
X5117227Y24074658D03*
%TD*%
D59*
%TO.C,D33*%
X5444687Y-25615240D03*
X5117227Y-24074658D03*
%TD*%
D60*
%TO.C,D4*%
X-8092383Y24905793D03*
X-7605681Y23407879D03*
%TD*%
D61*
%TO.C,D23*%
X-19461106Y-17522857D03*
X-18290652Y-16468977D03*
%TD*%
D62*
%TO.C,D31*%
X0Y-26187500D03*
X0Y-24612500D03*
%TD*%
D63*
%TO.C,D35*%
X10651416Y-23923472D03*
X10010806Y-22484638D03*
%TD*%
D64*
%TO.C,D54*%
X17522857Y19461106D03*
X16468977Y18290652D03*
%TD*%
D65*
%TO.C,D14*%
X-25615240Y5444687D03*
X-24074658Y5117227D03*
%TD*%
D66*
%TO.C,D55*%
X15392626Y21186133D03*
X14466864Y19911931D03*
%TD*%
D67*
%TO.C,D3*%
X-5444687Y25615240D03*
X-5117227Y24074658D03*
%TD*%
D68*
%TO.C,D41*%
X22679040Y-13093750D03*
X21315050Y-12306250D03*
%TD*%
D69*
%TO.C,D8*%
X-17522857Y19461106D03*
X-16468977Y18290652D03*
%TD*%
M02*
