%TF.GenerationSoftware,KiCad,Pcbnew,8.0.6*%
%TF.CreationDate,2025-01-18T20:05:51-05:00*%
%TF.ProjectId,twistedCharlieplex,74776973-7465-4644-9368-61726c696570,rev?*%
%TF.SameCoordinates,Original*%
%TF.FileFunction,Legend,Top*%
%TF.FilePolarity,Positive*%
%FSLAX46Y46*%
G04 Gerber Fmt 4.6, Leading zero omitted, Abs format (unit mm)*
G04 Created by KiCad (PCBNEW 8.0.6) date 2025-01-18 20:05:51*
%MOMM*%
%LPD*%
G01*
G04 APERTURE LIST*
%ADD10C,0.100000*%
G04 APERTURE END LIST*
D10*
G36*
X-17522851Y-8715034D02*
G01*
X-17421351Y-8739076D01*
X-17282033Y-8798204D01*
X-17227178Y-8832866D01*
X-17115895Y-8930685D01*
X-17085029Y-8967688D01*
X-17003802Y-9096356D01*
X-16989041Y-9127422D01*
X-16940065Y-9269946D01*
X-16934087Y-9296683D01*
X-16916570Y-9446391D01*
X-16916501Y-9455685D01*
X-16916501Y-9696752D01*
X-16928473Y-9852239D01*
X-16968144Y-9999941D01*
X-16989041Y-10047729D01*
X-16872477Y-10142312D01*
X-16865210Y-10149579D01*
X-16775130Y-10265625D01*
X-16764094Y-10284401D01*
X-16706420Y-10421292D01*
X-16696683Y-10456592D01*
X-16673741Y-10604416D01*
X-16671770Y-10667618D01*
X-16671770Y-10906487D01*
X-16687226Y-11057097D01*
X-16689355Y-11067688D01*
X-16733637Y-11209361D01*
X-16745043Y-11235482D01*
X-16821470Y-11366383D01*
X-16843228Y-11395217D01*
X-16950723Y-11503552D01*
X-16986110Y-11530039D01*
X-17119435Y-11602190D01*
X-17178818Y-11623829D01*
X-17325593Y-11654054D01*
X-17423549Y-11659000D01*
X-18635482Y-11659000D01*
X-18782715Y-11643830D01*
X-18878748Y-11620165D01*
X-19021098Y-11559887D01*
X-19123480Y-11491205D01*
X-19232254Y-11380557D01*
X-19311058Y-11258197D01*
X-19362149Y-11120192D01*
X-19383972Y-10969943D01*
X-19385796Y-10906487D01*
X-19385796Y-10667618D01*
X-18850172Y-10667618D01*
X-18850172Y-10906487D01*
X-18803609Y-11049301D01*
X-18789355Y-11064757D01*
X-18652647Y-11122860D01*
X-18635482Y-11123375D01*
X-17423549Y-11123375D01*
X-17281618Y-11076251D01*
X-17267478Y-11061826D01*
X-17213733Y-10923665D01*
X-17213256Y-10906487D01*
X-17213256Y-10667618D01*
X-17257014Y-10523442D01*
X-17270409Y-10508616D01*
X-17405769Y-10451965D01*
X-17423549Y-10451463D01*
X-18635482Y-10451463D01*
X-18777174Y-10499147D01*
X-18792286Y-10513745D01*
X-18849663Y-10650578D01*
X-18850172Y-10667618D01*
X-19385796Y-10667618D01*
X-19371354Y-10518895D01*
X-19368211Y-10502754D01*
X-19323929Y-10358414D01*
X-19312524Y-10332028D01*
X-19240020Y-10204588D01*
X-19215071Y-10170828D01*
X-19106431Y-10064282D01*
X-19070723Y-10038937D01*
X-19118648Y-9896985D01*
X-19126410Y-9863815D01*
X-19144442Y-9716513D01*
X-19144729Y-9696752D01*
X-19144729Y-9455685D01*
X-18604708Y-9455685D01*
X-18604708Y-9696752D01*
X-18566106Y-9839914D01*
X-18550486Y-9857953D01*
X-18412968Y-9910972D01*
X-18394415Y-9911442D01*
X-17669013Y-9911442D01*
X-17524423Y-9872841D01*
X-17506348Y-9857220D01*
X-17453329Y-9716092D01*
X-17452859Y-9696752D01*
X-17452859Y-9460081D01*
X-17489621Y-9317980D01*
X-17508546Y-9295217D01*
X-17649799Y-9240019D01*
X-17669013Y-9239530D01*
X-18390018Y-9239530D01*
X-18534087Y-9279174D01*
X-18551951Y-9295217D01*
X-18604244Y-9436470D01*
X-18604708Y-9455685D01*
X-19144729Y-9455685D01*
X-19132273Y-9298552D01*
X-19091000Y-9152052D01*
X-19069258Y-9105441D01*
X-18984628Y-8975198D01*
X-18881679Y-8873166D01*
X-18756981Y-8792613D01*
X-18637681Y-8744205D01*
X-18488293Y-8710556D01*
X-18394415Y-8703905D01*
X-17669013Y-8703905D01*
X-17522851Y-8715034D01*
G37*
G36*
X10838250Y16792577D02*
G01*
X10300427Y16792577D01*
X10300427Y19212046D01*
X9816093Y19212046D01*
X9816093Y19747671D01*
X10838250Y19747671D01*
X10838250Y16792577D01*
G37*
G36*
X22065579Y-492487D02*
G01*
X22054966Y-639491D01*
X22015756Y-788075D01*
X21990108Y-844197D01*
X21905844Y-973890D01*
X21802529Y-1077205D01*
X21677832Y-1158123D01*
X21558531Y-1206165D01*
X21408626Y-1238590D01*
X21313799Y-1245000D01*
X19594818Y-1245000D01*
X19594818Y-709375D01*
X21313799Y-709375D01*
X21457347Y-669730D01*
X21475000Y-653688D01*
X21527292Y-511833D01*
X21527756Y-492487D01*
X21527756Y-37463D01*
X19594818Y-37463D01*
X19594818Y502557D01*
X21527756Y502557D01*
X21527756Y953918D01*
X21492445Y1096716D01*
X21363945Y1171023D01*
X21313799Y1174469D01*
X19594818Y1174469D01*
X19594818Y1710094D01*
X21313799Y1710094D01*
X21467307Y1697695D01*
X21560729Y1674923D01*
X21698725Y1615795D01*
X21753436Y1581133D01*
X21865132Y1483314D01*
X21896319Y1446311D01*
X21975888Y1322771D01*
X21993039Y1286577D01*
X22042015Y1144053D01*
X22047993Y1117316D01*
X22065510Y967608D01*
X22065579Y958314D01*
X22065579Y-492487D01*
G37*
G36*
X19390194Y9169000D02*
G01*
X16676168Y9169000D01*
X16676168Y10160381D01*
X16691624Y10310991D01*
X16693753Y10321581D01*
X16736991Y10465206D01*
X16747975Y10491575D01*
X16822728Y10623889D01*
X16843962Y10652775D01*
X16951010Y10761110D01*
X16986112Y10787597D01*
X17119436Y10859748D01*
X17178819Y10881386D01*
X17326739Y10911611D01*
X17426482Y10916557D01*
X18634018Y10916557D01*
X18778087Y10955158D01*
X18795951Y10970779D01*
X18848244Y11111907D01*
X18848708Y11131247D01*
X18848708Y11367918D01*
X18810106Y11514074D01*
X18794486Y11532782D01*
X18657217Y11587980D01*
X18638415Y11588469D01*
X16917235Y11588469D01*
X16917235Y12124094D01*
X18638415Y12124094D01*
X18790087Y12111695D01*
X18883146Y12088923D01*
X19021142Y12029795D01*
X19075854Y11995133D01*
X19187549Y11897314D01*
X19218736Y11860311D01*
X19299200Y11736771D01*
X19316921Y11700577D01*
X19366612Y11558053D01*
X19372609Y11531316D01*
X19390125Y11381608D01*
X19390194Y11372314D01*
X19390194Y11131247D01*
X19379581Y10983899D01*
X19340371Y10835436D01*
X19314723Y10779537D01*
X19230276Y10649844D01*
X19126412Y10546529D01*
X19001349Y10465405D01*
X18882413Y10416836D01*
X18733121Y10383187D01*
X18638415Y10376536D01*
X17426482Y10376536D01*
X17320969Y10358218D01*
X17260152Y10308392D01*
X17228645Y10238050D01*
X17211792Y10160381D01*
X17211792Y9704624D01*
X19390194Y9704624D01*
X19390194Y9169000D01*
G37*
G36*
X-1155511Y19583000D02*
G01*
X-1693334Y19583000D01*
X-1693334Y22002469D01*
X-2177668Y22002469D01*
X-2177668Y22538094D01*
X-1155511Y22538094D01*
X-1155511Y19583000D01*
G37*
G36*
X2097070Y19583000D02*
G01*
X-616956Y19583000D01*
X-616956Y20574381D01*
X-601500Y20724991D01*
X-599371Y20735581D01*
X-556132Y20879206D01*
X-545149Y20905575D01*
X-470396Y21037889D01*
X-449161Y21066775D01*
X-342114Y21175110D01*
X-307012Y21201597D01*
X-173687Y21273748D01*
X-114304Y21295386D01*
X33614Y21325611D01*
X133357Y21330557D01*
X1340894Y21330557D01*
X1484963Y21369158D01*
X1502827Y21384779D01*
X1555119Y21525907D01*
X1555583Y21545247D01*
X1555583Y21781918D01*
X1516982Y21928074D01*
X1501361Y21946782D01*
X1364093Y22001980D01*
X1345290Y22002469D01*
X-375888Y22002469D01*
X-375888Y22538094D01*
X1345290Y22538094D01*
X1496962Y22525695D01*
X1590021Y22502923D01*
X1728018Y22443795D01*
X1782729Y22409133D01*
X1894424Y22311314D01*
X1925611Y22274311D01*
X2006075Y22150771D01*
X2023797Y22114577D01*
X2073488Y21972053D01*
X2079484Y21945316D01*
X2097001Y21795608D01*
X2097070Y21786314D01*
X2097070Y21545247D01*
X2086456Y21397899D01*
X2047247Y21249436D01*
X2021598Y21193537D01*
X1937152Y21063844D01*
X1833287Y20960529D01*
X1708225Y20879405D01*
X1589289Y20830836D01*
X1439996Y20797187D01*
X1345290Y20790536D01*
X133357Y20790536D01*
X27844Y20772218D01*
X-32971Y20722392D01*
X-64479Y20652050D01*
X-81331Y20574381D01*
X-81331Y20118624D01*
X2097070Y20118624D01*
X2097070Y19583000D01*
G37*
G36*
X-19556522Y9169000D02*
G01*
X-20094345Y9169000D01*
X-20094345Y11588469D01*
X-20578679Y11588469D01*
X-20578679Y12124094D01*
X-19556522Y12124094D01*
X-19556522Y9169000D01*
G37*
G36*
X-16410186Y11353263D02*
G01*
X-16334715Y11279258D01*
X-16293682Y11181072D01*
X-16293682Y11078490D01*
X-16333982Y10983235D01*
X-16410919Y10908497D01*
X-17857325Y9942028D01*
X-17929865Y9904659D01*
X-18006069Y9894401D01*
X-18132098Y9925175D01*
X-18228818Y10013836D01*
X-18269851Y10111288D01*
X-18271317Y10214603D01*
X-18233215Y10309125D01*
X-18156278Y10384596D01*
X-16705476Y11351065D01*
X-16608023Y11392831D01*
X-16504708Y11392831D01*
X-16410186Y11353263D01*
G37*
G36*
X-16649017Y12115078D02*
G01*
X-16502722Y12088030D01*
X-16483459Y12083061D01*
X-16342380Y12036543D01*
X-16209029Y11973924D01*
X-16191833Y11964359D01*
X-16067681Y11885147D01*
X-15953510Y11791767D01*
X-15939042Y11778246D01*
X-15837429Y11669453D01*
X-15749663Y11547780D01*
X-15739007Y11530584D01*
X-15668381Y11396127D01*
X-15614500Y11251045D01*
X-15608581Y11230898D01*
X-15576524Y11085560D01*
X-15562419Y10932929D01*
X-15561686Y10887981D01*
X-15561686Y10405845D01*
X-15570662Y10250630D01*
X-15597590Y10102988D01*
X-15608581Y10062196D01*
X-15660230Y9915696D01*
X-15728623Y9779823D01*
X-15739007Y9762510D01*
X-15824927Y9639484D01*
X-15924693Y9528695D01*
X-15939042Y9514847D01*
X-16051881Y9419578D01*
X-16174703Y9338477D01*
X-16191833Y9328734D01*
X-16324153Y9264334D01*
X-16464202Y9215390D01*
X-16483459Y9210032D01*
X-16629325Y9180580D01*
X-16778411Y9169160D01*
X-16798532Y9169000D01*
X-17765001Y9169000D01*
X-17915729Y9178015D01*
X-18062915Y9205063D01*
X-18082273Y9210032D01*
X-18223352Y9256915D01*
X-18356702Y9319255D01*
X-18373899Y9328734D01*
X-18497686Y9407946D01*
X-18612136Y9501326D01*
X-18626690Y9514847D01*
X-18727615Y9624005D01*
X-18814695Y9745399D01*
X-18825259Y9762510D01*
X-18895359Y9896966D01*
X-18949036Y10042048D01*
X-18954952Y10062196D01*
X-18986508Y10207674D01*
X-19000393Y10360725D01*
X-19001114Y10405845D01*
X-19001114Y10887981D01*
X-18465490Y10887981D01*
X-18465490Y10405845D01*
X-18451201Y10252522D01*
X-18408337Y10114952D01*
X-18330928Y9980871D01*
X-18253731Y9892935D01*
X-18134823Y9803110D01*
X-18029516Y9751519D01*
X-17883431Y9712518D01*
X-17765001Y9704624D01*
X-16798532Y9704624D01*
X-16647224Y9717813D01*
X-16511303Y9757381D01*
X-16378278Y9829251D01*
X-16291484Y9902461D01*
X-16198314Y10025365D01*
X-16151533Y10123745D01*
X-16112655Y10267589D01*
X-16101707Y10405845D01*
X-16101707Y10887981D01*
X-16116179Y11039106D01*
X-16159593Y11175943D01*
X-16231850Y11303767D01*
X-16313466Y11398692D01*
X-16430365Y11489471D01*
X-16534750Y11540842D01*
X-16679882Y11580435D01*
X-16798532Y11588469D01*
X-17765001Y11588469D01*
X-17913533Y11574945D01*
X-18025853Y11542307D01*
X-18159418Y11473992D01*
X-18250800Y11401623D01*
X-18348147Y11286064D01*
X-18406871Y11178874D01*
X-18452610Y11031818D01*
X-18465490Y10887981D01*
X-19001114Y10887981D01*
X-18993058Y11037298D01*
X-18965208Y11194778D01*
X-18917467Y11343384D01*
X-18899265Y11386236D01*
X-18828883Y11521977D01*
X-18745049Y11645267D01*
X-18647762Y11756107D01*
X-18626690Y11776780D01*
X-18514448Y11872278D01*
X-18392045Y11953608D01*
X-18259481Y12020770D01*
X-18231749Y12032503D01*
X-18090141Y12080803D01*
X-17944669Y12111214D01*
X-17795332Y12123736D01*
X-17765001Y12124094D01*
X-16798532Y12124094D01*
X-16649017Y12115078D01*
G37*
G36*
X-10734201Y16792577D02*
G01*
X-11272024Y16792577D01*
X-11272024Y19212046D01*
X-11756358Y19212046D01*
X-11756358Y19747671D01*
X-10734201Y19747671D01*
X-10734201Y16792577D01*
G37*
G36*
X-9245297Y16792577D02*
G01*
X-9783120Y16792577D01*
X-9783120Y19212046D01*
X-10267453Y19212046D01*
X-10267453Y19747671D01*
X-9245297Y19747671D01*
X-9245297Y16792577D01*
G37*
G36*
X11816442Y-18530064D02*
G01*
X11800986Y-18680674D01*
X11798857Y-18691265D01*
X11754575Y-18832938D01*
X11743169Y-18859059D01*
X11667710Y-18989960D01*
X11646449Y-19018794D01*
X11539653Y-19127129D01*
X11504300Y-19153616D01*
X11370976Y-19225767D01*
X11311592Y-19247406D01*
X11164531Y-19277631D01*
X11066128Y-19282577D01*
X9102416Y-19282577D01*
X9102416Y-18746952D01*
X11066128Y-18746952D01*
X11207179Y-18699828D01*
X11221467Y-18685403D01*
X11275938Y-18547242D01*
X11276421Y-18530064D01*
X11276421Y-18291195D01*
X11238342Y-18149328D01*
X11222932Y-18130727D01*
X11082053Y-18075529D01*
X11062465Y-18075040D01*
X9854928Y-18075040D01*
X9707924Y-18064530D01*
X9559341Y-18025701D01*
X9503218Y-18000302D01*
X9373892Y-17915305D01*
X9271676Y-17811258D01*
X9191123Y-17685416D01*
X9142716Y-17565794D01*
X9109067Y-17415631D01*
X9102416Y-17320329D01*
X9102416Y-16327482D01*
X11570978Y-16327482D01*
X11570978Y-16863107D01*
X9638040Y-16863107D01*
X9638040Y-17320329D01*
X9677685Y-17463491D01*
X9693728Y-17481530D01*
X9835582Y-17534549D01*
X9854928Y-17535019D01*
X11066128Y-17535019D01*
X11213361Y-17550761D01*
X11309394Y-17575319D01*
X11451512Y-17636190D01*
X11553393Y-17705012D01*
X11662532Y-17815502D01*
X11740971Y-17938752D01*
X11792563Y-18077258D01*
X11814600Y-18227721D01*
X11816442Y-18291195D01*
X11816442Y-18530064D01*
G37*
G36*
X1024354Y-19653530D02*
G01*
X-319469Y-19653530D01*
X-468823Y-19682671D01*
X-506315Y-19696761D01*
X-633821Y-19775701D01*
X-649197Y-19789817D01*
X-735833Y-19913867D01*
X-742253Y-19929036D01*
X-774067Y-20073778D01*
X-775226Y-20110752D01*
X-775226Y-20325442D01*
X651395Y-20325442D01*
X799601Y-20341184D01*
X895394Y-20365742D01*
X1037151Y-20426613D01*
X1139393Y-20495435D01*
X1249104Y-20605925D01*
X1327704Y-20729175D01*
X1379295Y-20867681D01*
X1401332Y-21018144D01*
X1403175Y-21081618D01*
X1403175Y-21320487D01*
X1387719Y-21471097D01*
X1385589Y-21481688D01*
X1341308Y-21623361D01*
X1329902Y-21649482D01*
X1254442Y-21780383D01*
X1233182Y-21809217D01*
X1126385Y-21917552D01*
X1091033Y-21944039D01*
X957708Y-22016190D01*
X898325Y-22037829D01*
X750692Y-22068054D01*
X651395Y-22073000D01*
X-319469Y-22073000D01*
X-468856Y-22061265D01*
X-531227Y-22050285D01*
X-677106Y-22008481D01*
X-752511Y-21977012D01*
X-886120Y-21903510D01*
X-963537Y-21849517D01*
X-1075442Y-21745919D01*
X-1141590Y-21661939D01*
X-1218046Y-21527034D01*
X-1264689Y-21407682D01*
X-1297822Y-21264145D01*
X-1310445Y-21115361D01*
X-1310851Y-21081618D01*
X-775226Y-21081618D01*
X-755030Y-21227522D01*
X-739322Y-21270662D01*
X-659763Y-21394213D01*
X-641137Y-21413544D01*
X-516435Y-21497373D01*
X-496056Y-21505868D01*
X-351128Y-21536267D01*
X-315073Y-21537375D01*
X651395Y-21537375D01*
X793888Y-21490251D01*
X808199Y-21475826D01*
X862671Y-21337665D01*
X863154Y-21320487D01*
X863154Y-21081618D01*
X825074Y-20939751D01*
X809665Y-20921150D01*
X673423Y-20866333D01*
X646999Y-20865463D01*
X-775226Y-20865463D01*
X-775226Y-21081618D01*
X-1310851Y-21081618D01*
X-1310851Y-20110752D01*
X-1302015Y-19959404D01*
X-1272938Y-19812808D01*
X-1264689Y-19785421D01*
X-1206591Y-19641771D01*
X-1141590Y-19531164D01*
X-1047747Y-19417125D01*
X-963537Y-19342853D01*
X-840008Y-19259567D01*
X-752511Y-19213893D01*
X-614896Y-19161571D01*
X-531227Y-19140620D01*
X-382652Y-19120124D01*
X-319469Y-19117905D01*
X1024354Y-19117905D01*
X1024354Y-19653530D01*
G37*
G36*
X-9185213Y-16463037D02*
G01*
X-9150042Y-16598592D01*
X-9185213Y-16733414D01*
X-10671187Y-19282577D01*
X-11291808Y-19282577D01*
X-9885702Y-16863107D01*
X-11621536Y-16863107D01*
X-11621536Y-16327482D01*
X-9418221Y-16327482D01*
X-9283399Y-16363386D01*
X-9185213Y-16463037D01*
G37*
G36*
X-20346686Y1698359D02*
G01*
X-20284315Y1687379D01*
X-20136828Y1645575D01*
X-20060832Y1614106D01*
X-19926251Y1540032D01*
X-19849074Y1485146D01*
X-19737522Y1381290D01*
X-19671021Y1296835D01*
X-19593612Y1162290D01*
X-19547190Y1042578D01*
X-19514056Y899202D01*
X-19501434Y750859D01*
X-19501028Y717247D01*
X-19501028Y-253618D01*
X-19509864Y-405467D01*
X-19538940Y-552288D01*
X-19547190Y-579682D01*
X-19605129Y-722967D01*
X-19671021Y-833939D01*
X-19765225Y-947386D01*
X-19849074Y-1021517D01*
X-19972508Y-1103580D01*
X-20060832Y-1149012D01*
X-20199650Y-1201333D01*
X-20284315Y-1222285D01*
X-20432890Y-1242781D01*
X-20496073Y-1245000D01*
X-21834036Y-1245000D01*
X-21834036Y-709375D01*
X-20496073Y-709375D01*
X-20349259Y-680878D01*
X-20312158Y-667609D01*
X-20183370Y-591955D01*
X-20167811Y-578217D01*
X-20080449Y-455495D01*
X-20074022Y-440464D01*
X-20042208Y-292335D01*
X-20041049Y-253618D01*
X-20041049Y-37463D01*
X-21462542Y-37463D01*
X-21613152Y-22007D01*
X-21623742Y-19877D01*
X-21765416Y24403D01*
X-21791537Y35809D01*
X-21922438Y111269D01*
X-21951272Y132529D01*
X-22059607Y239773D01*
X-22086094Y275411D01*
X-22158245Y410085D01*
X-22179883Y469584D01*
X-22210108Y617504D01*
X-22215054Y717247D01*
X-22215054Y958314D01*
X-21679430Y958314D01*
X-21679430Y717247D01*
X-21639785Y575187D01*
X-21623742Y556779D01*
X-21485337Y503404D01*
X-21458879Y502557D01*
X-20041049Y502557D01*
X-20041049Y717247D01*
X-20060832Y862876D01*
X-20076220Y906290D01*
X-20153113Y1031465D01*
X-20171474Y1050638D01*
X-20295294Y1133906D01*
X-20315822Y1142229D01*
X-20460267Y1173336D01*
X-20496073Y1174469D01*
X-21462542Y1174469D01*
X-21605356Y1126785D01*
X-21620812Y1112187D01*
X-21678915Y975354D01*
X-21679430Y958314D01*
X-22215054Y958314D01*
X-22199598Y1106735D01*
X-22197469Y1117316D01*
X-22154231Y1260419D01*
X-22143247Y1286577D01*
X-22068011Y1417477D01*
X-22046527Y1446311D01*
X-21943212Y1550725D01*
X-21902912Y1581133D01*
X-21769588Y1653581D01*
X-21710204Y1674923D01*
X-21562285Y1705148D01*
X-21462542Y1710094D01*
X-20496073Y1710094D01*
X-20346686Y1698359D01*
G37*
G36*
X19350626Y-11659000D02*
G01*
X18810606Y-11659000D01*
X18810606Y-10451463D01*
X16906244Y-10451463D01*
X16798533Y-10430214D01*
X16713536Y-10372328D01*
X16657116Y-10286599D01*
X16636600Y-10181086D01*
X16636600Y-8703905D01*
X17172225Y-8703905D01*
X17172225Y-9911442D01*
X18810606Y-9911442D01*
X18810606Y-8703905D01*
X19350626Y-8703905D01*
X19350626Y-11659000D01*
G37*
%TO.C,D12*%
X-22146391Y9055651D02*
G75*
G02*
X-21548488Y10398563I17078634J-6799340D01*
G01*
%TO.C,D26*%
X-11320971Y-21078497D02*
G75*
G02*
X-12594029Y-20343497I8547922J16275435D01*
G01*
%TO.C,D53*%
X17280498Y16548469D02*
G75*
G02*
X18264120Y15456047I-13158013J-12836568D01*
G01*
%TO.C,D13*%
X-22971645Y6691115D02*
G75*
G02*
X-22517390Y8089168I17695801J-4976889D01*
G01*
%TO.C,D15*%
X-23860819Y1768825D02*
G75*
G02*
X-23707162Y3230772I18343858J-1188969D01*
G01*
%TO.C,D51*%
X20343497Y12594029D02*
G75*
G02*
X21078497Y11320971I-15539351J-9820354D01*
G01*
%TO.C,D43*%
X22971645Y-6691115D02*
G75*
G02*
X22517390Y-8089168I-17695801J4976889D01*
G01*
%TO.C,D18*%
X-23239585Y-5691147D02*
G75*
G02*
X-23545215Y-4253270I17811012J4537268D01*
G01*
%TO.C,D56*%
X11320971Y21078497D02*
G75*
G02*
X12594029Y20343497I-8547922J-16275435D01*
G01*
%TO.C,D21*%
X-20343497Y-12594029D02*
G75*
G02*
X-21078497Y-11320971I15539351J9820354D01*
G01*
%TO.C,D39*%
X18264120Y-15456047D02*
G75*
G02*
X17280498Y-16548469I-14141635J11744146D01*
G01*
%TO.C,D22*%
X-18915620Y-14651511D02*
G75*
G02*
X-19779664Y-13462256I14427699J11390846D01*
G01*
%TO.C,D9*%
X-18264120Y15456047D02*
G75*
G02*
X-17280498Y16548469I14141635J-11744146D01*
G01*
%TO.C,D32*%
X3230772Y-23707163D02*
G75*
G02*
X1768825Y-23860820I-2650524J18186472D01*
G01*
%TO.C,D5*%
X-10398563Y21548489D02*
G75*
G02*
X-9055651Y22146392I8141744J-16479590D01*
G01*
%TO.C,D25*%
X-13462256Y-19779664D02*
G75*
G02*
X-14651511Y-18915620I10201592J15291742D01*
G01*
%TO.C,D60*%
X1768825Y23860819D02*
G75*
G02*
X3230772Y23707162I-1188969J-18343858D01*
G01*
%TO.C,D29*%
X-4253270Y-23545215D02*
G75*
G02*
X-5691147Y-23239585I3099391J18116642D01*
G01*
%TO.C,D42*%
X22146391Y-9055651D02*
G75*
G02*
X21548488Y-10398563I-17078634J6799340D01*
G01*
%TO.C,D48*%
X23239585Y5691147D02*
G75*
G02*
X23545215Y4253270I-17811012J-4537268D01*
G01*
%TO.C,D44*%
X23545215Y-4253270D02*
G75*
G02*
X23239585Y-5691147I-18116642J3099391D01*
G01*
%TO.C,D2*%
X-3230772Y23707163D02*
G75*
G02*
X-1768825Y23860820I2650524J-18186472D01*
G01*
%TO.C,D47*%
X23707163Y3230772D02*
G75*
G02*
X23860820Y1768825I-18186472J-2650524D01*
G01*
%TO.C,D28*%
X-6691115Y-22971645D02*
G75*
G02*
X-8089168Y-22517390I4976889J17695801D01*
G01*
%TO.C,D45*%
X23860819Y-1768825D02*
G75*
G02*
X23707162Y-3230772I-18343858J1188969D01*
G01*
%TO.C,D46*%
X23915000Y735000D02*
G75*
G02*
X23915000Y-735000I-18367650J-735000D01*
G01*
%TO.C,D49*%
X22517390Y8089168D02*
G75*
G02*
X22971645Y6691115I-17241546J-6374942D01*
G01*
%TO.C,D11*%
X-21078497Y11320971D02*
G75*
G02*
X-20343497Y12594029I16275435J-8547921D01*
G01*
%TO.C,D30*%
X-1768825Y-23860819D02*
G75*
G02*
X-3230772Y-23707162I1188969J18343858D01*
G01*
%TO.C,D27*%
X-9055651Y-22146391D02*
G75*
G02*
X-10398563Y-21548488I6799340J17078634D01*
G01*
%TO.C,D57*%
X9055651Y22146391D02*
G75*
G02*
X10398563Y21548488I-6799340J-17078634D01*
G01*
%TO.C,D58*%
X6691115Y22971645D02*
G75*
G02*
X8089168Y22517390I-4976889J-17695801D01*
G01*
%TO.C,D36*%
X12594029Y-20343497D02*
G75*
G02*
X11320971Y-21078497I-9820354J15539351D01*
G01*
%TO.C,D1*%
X-735000Y23915000D02*
G75*
G02*
X735000Y23915000I735000J-18367650D01*
G01*
%TO.C,D20*%
X-21548489Y-10398563D02*
G75*
G02*
X-22146392Y-9055651I16479590J8141744D01*
G01*
%TO.C,D38*%
X16548469Y-17280498D02*
G75*
G02*
X15456047Y-18264120I-12836568J13158013D01*
G01*
%TO.C,D34*%
X8089168Y-22517390D02*
G75*
G02*
X6691115Y-22971645I-6374942J17241546D01*
G01*
%TO.C,D7*%
X-14651511Y18915620D02*
G75*
G02*
X-13462256Y19779664I11390846J-14427699D01*
G01*
%TO.C,D52*%
X18915620Y14651511D02*
G75*
G02*
X19779664Y13462256I-14427699J-11390846D01*
G01*
%TO.C,D24*%
X-15456047Y-18264120D02*
G75*
G02*
X-16548469Y-17280498I11744146J14141635D01*
G01*
%TO.C,D16*%
X-23915000Y-735000D02*
G75*
G02*
X-23915000Y735000I18367650J735000D01*
G01*
%TO.C,D40*%
X19779664Y-13462256D02*
G75*
G02*
X18915620Y-14651511I-15291742J10201592D01*
G01*
%TO.C,D17*%
X-23707163Y-3230772D02*
G75*
G02*
X-23860820Y-1768825I18186472J2650524D01*
G01*
%TO.C,D19*%
X-22517390Y-8089168D02*
G75*
G02*
X-22971645Y-6691115I17241546J6374942D01*
G01*
%TO.C,D6*%
X-12594029Y20343497D02*
G75*
G02*
X-11320971Y21078497I9820354J-15539351D01*
G01*
%TO.C,D37*%
X14651511Y-18915620D02*
G75*
G02*
X13462256Y-19779664I-11390846J14427699D01*
G01*
%TO.C,D50*%
X21548489Y10398563D02*
G75*
G02*
X22146392Y9055651I-16479590J-8141744D01*
G01*
%TO.C,D10*%
X-19779664Y13462256D02*
G75*
G02*
X-18915620Y14651511I15291742J-10201592D01*
G01*
%TO.C,D59*%
X4253270Y23545215D02*
G75*
G02*
X5691147Y23239585I-3099391J-18116642D01*
G01*
%TO.C,D33*%
X5691147Y-23239585D02*
G75*
G02*
X4253270Y-23545215I-4537268J17811012D01*
G01*
%TO.C,D4*%
X-8089168Y22517390D02*
G75*
G02*
X-6691115Y22971645I6374942J-17241546D01*
G01*
%TO.C,D23*%
X-17280498Y-16548469D02*
G75*
G02*
X-18264120Y-15456047I13158013J12836568D01*
G01*
%TO.C,D31*%
X735000Y-23915000D02*
G75*
G02*
X-735000Y-23915000I-735000J18367650D01*
G01*
%TO.C,D35*%
X10398563Y-21548489D02*
G75*
G02*
X9055651Y-22146392I-8141744J16479590D01*
G01*
%TO.C,D54*%
X15456047Y18264120D02*
G75*
G02*
X16548469Y17280498I-11744146J-14141635D01*
G01*
%TO.C,D14*%
X-23545215Y4253270D02*
G75*
G02*
X-23239585Y5691147I18116642J-3099391D01*
G01*
%TO.C,D55*%
X13462256Y19779664D02*
G75*
G02*
X14651511Y18915620I-10201592J-15291742D01*
G01*
%TO.C,D3*%
X-5691147Y23239585D02*
G75*
G02*
X-4253270Y23545215I4537268J-17811012D01*
G01*
%TO.C,D41*%
X21078497Y-11320971D02*
G75*
G02*
X20343497Y-12594029I-16275435J8547922D01*
G01*
%TO.C,D8*%
X-16548469Y17280498D02*
G75*
G02*
X-15456047Y18264120I12836568J-13158013D01*
G01*
%TD*%
M02*
