M48
; DRILL file {KiCad 8.0.6} date 2025-01-18T20:05:52-0500
; FORMAT={-:-/ absolute / inch / decimal}
; #@! TF.CreationDate,2025-01-18T20:05:52-05:00
; #@! TF.GenerationSoftware,Kicad,Pcbnew,8.0.6
; #@! TF.FileFunction,Plated,1,2,PTH
FMAT,2
INCH
; #@! TA.AperFunction,Plated,PTH,ViaDrill
T1C0.0118
%
G90
G05
T1
X-0.89Y-0.191
X-0.855Y-0.092
X-0.809Y-0.358
X-0.793Y0.264
X-0.78Y0.085
X-0.77Y-0.251
X-0.754Y0.464
X-0.744Y0.16
X-0.736Y0.338
X-0.734Y-0.044
X-0.71Y0.0
X-0.678Y0.531
X-0.676Y0.61
X-0.676Y-0.489
X-0.654Y-0.388
X-0.533Y-0.467
X-0.526Y-0.582
X-0.504Y-0.697
X-0.498Y0.506
X-0.486Y0.552
X-0.462Y-0.571
X-0.438Y0.622
X-0.427Y-0.688
X-0.4Y-0.555
X-0.399Y0.676
X-0.371Y-0.833
X-0.319Y0.745
X-0.3Y-0.615
X-0.3Y-0.832
X-0.256Y0.795
X-0.234Y-0.723
X-0.2Y-0.655
X-0.2Y-0.836
X-0.185Y-0.866
X-0.18Y0.84
X-0.114Y-0.827
X-0.1Y-0.675
X-0.095Y0.88
X-0.078Y-0.706
X0.0Y0.91
X0.0Y-0.685
X0.0Y-0.835
X0.047Y0.859
X0.058Y-0.807
X0.075Y-0.731
X0.08Y0.731
X0.1Y-0.675
X0.128Y-0.774
X0.168Y0.793
X0.175Y-0.791
X0.2Y-0.655
X0.2Y-0.733
X0.216Y0.677
X0.264Y-0.818
X0.3Y-0.615
X0.301Y0.699
X0.304Y-0.696
X0.329Y-0.657
X0.369Y0.749
X0.412Y-0.578
X0.441Y0.768
X0.452Y0.641
X0.455Y-0.788
X0.539Y0.499
X0.54Y-0.498
X0.591Y-0.658
X0.607Y0.679
X0.614Y0.355
X0.657Y-0.429
X0.675Y-0.491
X0.692Y-0.42
X0.693Y-0.157
X0.694Y0.507
X0.694Y-0.309
X0.722Y0.236
X0.735Y0.0
X0.74Y0.329
X0.768Y0.162
X0.806Y0.218
X0.816Y-0.274
X0.88Y0.094
X0.905Y-0.096
M30
