%TF.GenerationSoftware,KiCad,Pcbnew,9.0.5*%
%TF.CreationDate,2025-12-07T10:21:42-05:00*%
%TF.ProjectId,WristWatch,57726973-7457-4617-9463-682e6b696361,rev?*%
%TF.SameCoordinates,Original*%
%TF.FileFunction,Legend,Top*%
%TF.FilePolarity,Positive*%
%FSLAX46Y46*%
G04 Gerber Fmt 4.6, Leading zero omitted, Abs format (unit mm)*
G04 Created by KiCad (PCBNEW 9.0.5) date 2025-12-07 10:21:42*
%MOMM*%
%LPD*%
G01*
G04 APERTURE LIST*
%ADD10C,0.120000*%
%ADD11C,0.127000*%
G04 APERTURE END LIST*
D10*
%TO.C,Q1*%
X8066800Y-4097915D02*
X6766800Y-4097915D01*
X8066800Y-5897915D02*
X6766800Y-5897915D01*
%TO.C,R14*%
X-3148359Y4954000D02*
X-3455641Y4954000D01*
X-3148359Y5714000D02*
X-3455641Y5714000D01*
%TO.C,R13*%
X-5180359Y4954000D02*
X-5487641Y4954000D01*
X-5180359Y5714000D02*
X-5487641Y5714000D01*
%TO.C,C19*%
X-1968246Y-5139427D02*
X-1752574Y-5139427D01*
X-1968246Y-5859427D02*
X-1752574Y-5859427D01*
%TO.C,C10*%
X996836Y6792085D02*
X781164Y6792085D01*
X996836Y6072085D02*
X781164Y6072085D01*
%TO.C,R3*%
X432800Y-4844274D02*
X432800Y-5151556D01*
X1192800Y-4844274D02*
X1192800Y-5151556D01*
%TO.C,R7*%
X-7822200Y309444D02*
X-7822200Y616726D01*
X-7062200Y309444D02*
X-7062200Y616726D01*
%TO.C,C26*%
X-5308574Y-6917427D02*
X-5524246Y-6917427D01*
X-5308574Y-7637427D02*
X-5524246Y-7637427D01*
%TO.C,C7*%
X4768964Y3998085D02*
X4984636Y3998085D01*
X4768964Y3278085D02*
X4984636Y3278085D01*
%TO.C,R10*%
X-6933200Y-1288274D02*
X-6933200Y-1595556D01*
X-6173200Y-1288274D02*
X-6173200Y-1595556D01*
%TO.C,C6*%
X-1212964Y2265000D02*
X-1428636Y2265000D01*
X-1212964Y1545000D02*
X-1428636Y1545000D01*
%TO.C,R6*%
X5385800Y-4844274D02*
X5385800Y-5151556D01*
X6145800Y-4844274D02*
X6145800Y-5151556D01*
%TO.C,C25*%
X-8691200Y-1334079D02*
X-8691200Y-1549751D01*
X-7971200Y-1334079D02*
X-7971200Y-1549751D01*
%TO.C,C8*%
X4768964Y6792085D02*
X4984636Y6792085D01*
X4768964Y6072085D02*
X4984636Y6072085D01*
%TO.C,R5*%
X458441Y3738685D02*
X151159Y3738685D01*
X458441Y2978685D02*
X151159Y2978685D01*
%TO.C,C11*%
X7308964Y-1462915D02*
X7524636Y-1462915D01*
X7308964Y-2182915D02*
X7524636Y-2182915D01*
%TO.C,C15*%
X-6978764Y4043000D02*
X-7194436Y4043000D01*
X-6978764Y3323000D02*
X-7194436Y3323000D01*
%TO.C,U1*%
X-5202600Y4735000D02*
X-3382600Y4735000D01*
X-5202600Y4685000D02*
X-5202600Y4735000D01*
X-5202600Y1615000D02*
X-5202600Y1665000D01*
X-3382600Y4735000D02*
X-3382600Y4685000D01*
X-3382600Y3565000D02*
X-3382600Y2785000D01*
X-3382600Y1665000D02*
X-3382600Y1615000D01*
X-3382600Y1615000D02*
X-5202600Y1615000D01*
%TO.C,C13*%
X-1968246Y-6028427D02*
X-1752574Y-6028427D01*
X-1968246Y-6748427D02*
X-1752574Y-6748427D01*
%TO.C,R8*%
X-8711200Y309444D02*
X-8711200Y616726D01*
X-7951200Y309444D02*
X-7951200Y616726D01*
%TO.C,C3*%
X5431200Y2196521D02*
X5431200Y1980849D01*
X6151200Y2196521D02*
X6151200Y1980849D01*
%TO.C,C24*%
X-7802200Y-1334079D02*
X-7802200Y-1549751D01*
X-7082200Y-1334079D02*
X-7082200Y-1549751D01*
%TO.C,C27*%
X-5308574Y-6028427D02*
X-5524246Y-6028427D01*
X-5308574Y-6748427D02*
X-5524246Y-6748427D01*
%TO.C,C12*%
X7524636Y2347085D02*
X7308964Y2347085D01*
X7524636Y1627085D02*
X7308964Y1627085D01*
%TO.C,C2*%
X-2406764Y3535000D02*
X-2622436Y3535000D01*
X-2406764Y2815000D02*
X-2622436Y2815000D01*
%TO.C,Y2*%
X6350000Y1402885D02*
X6350000Y-1238715D01*
X6350000Y-1238715D02*
X8483600Y-1238715D01*
X8483600Y1402885D02*
X6350000Y1402885D01*
X8483600Y-1238715D02*
X8483600Y1402885D01*
%TO.C,C18*%
X-3746246Y-6028427D02*
X-3530574Y-6028427D01*
X-3746246Y-6748427D02*
X-3530574Y-6748427D01*
%TO.C,C21*%
X-3746246Y-5139427D02*
X-3530574Y-5139427D01*
X-3746246Y-5859427D02*
X-3530574Y-5859427D01*
%TO.C,R4*%
X506759Y-2839915D02*
X814041Y-2839915D01*
X506759Y-3599915D02*
X814041Y-3599915D01*
%TO.C,R11*%
X-3477939Y1350785D02*
X-3785221Y1350785D01*
X-3477939Y590785D02*
X-3785221Y590785D01*
D11*
%TO.C,U5*%
X2386800Y-6811085D02*
G75*
G02*
X2286800Y-6811085I-50000J0D01*
G01*
X2286800Y-6811085D02*
G75*
G02*
X2386800Y-6811085I50000J0D01*
G01*
D10*
%TO.C,Y1*%
X128800Y4008085D02*
X128800Y5808085D01*
X3528800Y5808085D02*
X128800Y5808085D01*
X3528800Y4008085D02*
X128800Y4008085D01*
X3528800Y4008085D02*
X3528800Y5808085D01*
%TO.C,R1*%
X2437159Y-2839915D02*
X2744441Y-2839915D01*
X2437159Y-3599915D02*
X2744441Y-3599915D01*
%TO.C,C17*%
X-1968246Y-6917427D02*
X-1752574Y-6917427D01*
X-1968246Y-7637427D02*
X-1752574Y-7637427D01*
%TO.C,C1*%
X-7194436Y3027000D02*
X-6978764Y3027000D01*
X-7194436Y2307000D02*
X-6978764Y2307000D01*
%TO.C,R9*%
X-6933200Y309444D02*
X-6933200Y616726D01*
X-6173200Y309444D02*
X-6173200Y616726D01*
%TO.C,C4*%
X4387964Y-2859915D02*
X4603636Y-2859915D01*
X4387964Y-3579915D02*
X4603636Y-3579915D01*
%TO.C,R2*%
X3988800Y-4844274D02*
X3988800Y-5151556D01*
X4748800Y-4844274D02*
X4748800Y-5151556D01*
%TO.C,C5*%
X-1428636Y1249000D02*
X-1212964Y1249000D01*
X-1428636Y529000D02*
X-1212964Y529000D01*
%TO.C,C9*%
X2660764Y6792085D02*
X2876436Y6792085D01*
X2660764Y6072085D02*
X2876436Y6072085D01*
%TO.C,C23*%
X-5308574Y-5139427D02*
X-5524246Y-5139427D01*
X-5308574Y-5859427D02*
X-5524246Y-5859427D01*
%TD*%
M02*
