%TF.GenerationSoftware,KiCad,Pcbnew,9.0.5*%
%TF.CreationDate,2025-12-07T10:21:42-05:00*%
%TF.ProjectId,WristWatch,57726973-7457-4617-9463-682e6b696361,rev?*%
%TF.SameCoordinates,Original*%
%TF.FileFunction,Paste,Top*%
%TF.FilePolarity,Positive*%
%FSLAX46Y46*%
G04 Gerber Fmt 4.6, Leading zero omitted, Abs format (unit mm)*
G04 Created by KiCad (PCBNEW 9.0.5) date 2025-12-07 10:21:42*
%MOMM*%
%LPD*%
G01*
G04 APERTURE LIST*
G04 Aperture macros list*
%AMRoundRect*
0 Rectangle with rounded corners*
0 $1 Rounding radius*
0 $2 $3 $4 $5 $6 $7 $8 $9 X,Y pos of 4 corners*
0 Add a 4 corners polygon primitive as box body*
4,1,4,$2,$3,$4,$5,$6,$7,$8,$9,$2,$3,0*
0 Add four circle primitives for the rounded corners*
1,1,$1+$1,$2,$3*
1,1,$1+$1,$4,$5*
1,1,$1+$1,$6,$7*
1,1,$1+$1,$8,$9*
0 Add four rect primitives between the rounded corners*
20,1,$1+$1,$2,$3,$4,$5,0*
20,1,$1+$1,$4,$5,$6,$7,0*
20,1,$1+$1,$6,$7,$8,$9,0*
20,1,$1+$1,$8,$9,$2,$3,0*%
G04 Aperture macros list end*
%ADD10RoundRect,0.100000X0.155000X0.100000X-0.155000X0.100000X-0.155000X-0.100000X0.155000X-0.100000X0*%
%ADD11RoundRect,0.135000X0.135000X0.185000X-0.135000X0.185000X-0.135000X-0.185000X0.135000X-0.185000X0*%
%ADD12RoundRect,0.140000X-0.140000X-0.170000X0.140000X-0.170000X0.140000X0.170000X-0.140000X0.170000X0*%
%ADD13RoundRect,0.100000X0.100000X-0.100000X0.100000X0.100000X-0.100000X0.100000X-0.100000X-0.100000X0*%
%ADD14RoundRect,0.140000X0.140000X0.170000X-0.140000X0.170000X-0.140000X-0.170000X0.140000X-0.170000X0*%
%ADD15RoundRect,0.100000X-0.132028X0.050681X-0.050681X-0.132028X0.132028X-0.050681X0.050681X0.132028X0*%
%ADD16RoundRect,0.100000X0.136603X-0.036603X0.036603X0.136603X-0.136603X0.036603X-0.036603X-0.136603X0*%
%ADD17RoundRect,0.100000X-0.022123X-0.139680X0.139680X-0.022123X0.022123X0.139680X-0.139680X0.022123X0*%
%ADD18RoundRect,0.100000X-0.050681X-0.132028X0.132028X-0.050681X0.050681X0.132028X-0.132028X0.050681X0*%
%ADD19RoundRect,0.135000X-0.185000X0.135000X-0.185000X-0.135000X0.185000X-0.135000X0.185000X0.135000X0*%
%ADD20RoundRect,0.135000X0.185000X-0.135000X0.185000X0.135000X-0.185000X0.135000X-0.185000X-0.135000X0*%
%ADD21RoundRect,0.100000X0.118606X0.077024X-0.077024X0.118606X-0.118606X-0.077024X0.077024X-0.118606X0*%
%ADD22R,0.350000X0.375000*%
%ADD23R,0.375000X0.350000*%
%ADD24RoundRect,0.100000X-0.022123X0.139680X-0.139680X-0.022123X0.022123X-0.139680X0.139680X0.022123X0*%
%ADD25RoundRect,0.100000X0.050681X0.132028X-0.132028X0.050681X-0.050681X-0.132028X0.132028X-0.050681X0*%
%ADD26RoundRect,0.100000X-0.126007X0.064204X-0.064204X-0.126007X0.126007X-0.064204X0.064204X0.126007X0*%
%ADD27RoundRect,0.100000X0.022123X-0.139680X0.139680X0.022123X-0.022123X0.139680X-0.139680X-0.022123X0*%
%ADD28RoundRect,0.100000X0.077024X-0.118606X0.118606X0.077024X-0.077024X0.118606X-0.118606X-0.077024X0*%
%ADD29RoundRect,0.100000X-0.036603X-0.136603X0.136603X-0.036603X0.036603X0.136603X-0.136603X0.036603X0*%
%ADD30R,0.920000X0.850000*%
%ADD31R,0.750000X0.250000*%
%ADD32RoundRect,0.050400X0.069600X0.249600X-0.069600X0.249600X-0.069600X-0.249600X0.069600X-0.249600X0*%
%ADD33RoundRect,0.050400X0.249600X0.069600X-0.249600X0.069600X-0.249600X-0.069600X0.249600X-0.069600X0*%
%ADD34RoundRect,0.050000X0.050000X0.250000X-0.050000X0.250000X-0.050000X-0.250000X0.050000X-0.250000X0*%
%ADD35RoundRect,0.100000X0.141228X-0.007401X0.007401X0.141228X-0.141228X0.007401X-0.007401X-0.141228X0*%
%ADD36RoundRect,0.100000X-0.141228X0.007401X-0.007401X-0.141228X0.141228X-0.007401X0.007401X0.141228X0*%
%ADD37RoundRect,0.100000X0.064204X0.126007X-0.126007X0.064204X-0.064204X-0.126007X0.126007X-0.064204X0*%
%ADD38RoundRect,0.100000X-0.126007X-0.064204X0.064204X-0.126007X0.126007X0.064204X-0.064204X0.126007X0*%
%ADD39RoundRect,0.140000X-0.170000X0.140000X-0.170000X-0.140000X0.170000X-0.140000X0.170000X0.140000X0*%
%ADD40RoundRect,0.100000X0.050681X-0.132028X0.132028X0.050681X-0.050681X0.132028X-0.132028X-0.050681X0*%
%ADD41RoundRect,0.216443X-0.428557X0.428557X-0.428557X-0.428557X0.428557X-0.428557X0.428557X0.428557X0*%
%ADD42RoundRect,0.062500X-0.062500X0.187500X-0.062500X-0.187500X0.062500X-0.187500X0.062500X0.187500X0*%
%ADD43RoundRect,0.062500X-0.187500X0.062500X-0.187500X-0.062500X0.187500X-0.062500X0.187500X0.062500X0*%
%ADD44RoundRect,0.100000X0.077024X0.118606X-0.118606X0.077024X-0.077024X-0.118606X0.118606X-0.077024X0*%
%ADD45RoundRect,0.100000X-0.139680X0.022123X-0.022123X-0.139680X0.139680X-0.022123X0.022123X0.139680X0*%
%ADD46RoundRect,0.100000X0.088999X0.109905X-0.109905X0.088999X-0.088999X-0.109905X0.109905X-0.088999X0*%
%ADD47RoundRect,0.100000X-0.118606X-0.077024X0.077024X-0.118606X0.118606X0.077024X-0.077024X0.118606X0*%
%ADD48RoundRect,0.147500X0.172500X-0.147500X0.172500X0.147500X-0.172500X0.147500X-0.172500X-0.147500X0*%
%ADD49RoundRect,0.100000X0.109905X0.088999X-0.088999X0.109905X-0.109905X-0.088999X0.088999X-0.109905X0*%
%ADD50RoundRect,0.100000X-0.109905X-0.088999X0.088999X-0.109905X0.109905X0.088999X-0.088999X0.109905X0*%
%ADD51RoundRect,0.100000X0.064204X-0.126007X0.126007X0.064204X-0.064204X0.126007X-0.126007X-0.064204X0*%
%ADD52RoundRect,0.100000X0.036603X-0.136603X0.136603X0.036603X-0.036603X0.136603X-0.136603X-0.036603X0*%
%ADD53RoundRect,0.100000X-0.100000X-0.100000X0.100000X-0.100000X0.100000X0.100000X-0.100000X0.100000X0*%
%ADD54RoundRect,0.100000X0.036603X0.136603X-0.136603X0.036603X-0.036603X-0.136603X0.136603X-0.036603X0*%
%ADD55RoundRect,0.100000X-0.136603X-0.036603X0.036603X-0.136603X0.136603X0.036603X-0.036603X0.136603X0*%
%ADD56RoundRect,0.100000X-0.100000X0.100000X-0.100000X-0.100000X0.100000X-0.100000X0.100000X0.100000X0*%
%ADD57RoundRect,0.150000X-0.512500X-0.150000X0.512500X-0.150000X0.512500X0.150000X-0.512500X0.150000X0*%
%ADD58RoundRect,0.100000X0.022123X0.139680X-0.139680X0.022123X-0.022123X-0.139680X0.139680X-0.022123X0*%
%ADD59RoundRect,0.100000X0.136603X0.036603X-0.036603X0.136603X-0.136603X-0.036603X0.036603X-0.136603X0*%
%ADD60RoundRect,0.100000X-0.118606X0.077024X-0.077024X-0.118606X0.118606X-0.077024X0.077024X0.118606X0*%
%ADD61RoundRect,0.100000X-0.141228X-0.007401X0.007401X-0.141228X0.141228X0.007401X-0.007401X0.141228X0*%
%ADD62RoundRect,0.100000X-0.077024X0.118606X-0.118606X-0.077024X0.077024X-0.118606X0.118606X0.077024X0*%
%ADD63RoundRect,0.100000X-0.064204X0.126007X-0.126007X-0.064204X0.064204X-0.126007X0.126007X0.064204X0*%
%ADD64RoundRect,0.038260X-0.344340X0.421340X-0.344340X-0.421340X0.344340X-0.421340X0.344340X0.421340X0*%
%ADD65RoundRect,0.100000X0.088999X-0.109905X0.109905X0.088999X-0.088999X0.109905X-0.109905X-0.088999X0*%
%ADD66RoundRect,0.135000X-0.135000X-0.185000X0.135000X-0.185000X0.135000X0.185000X-0.135000X0.185000X0*%
%ADD67RoundRect,0.100000X0.126007X0.064204X-0.064204X0.126007X-0.126007X-0.064204X0.064204X-0.126007X0*%
%ADD68RoundRect,0.100000X-0.088999X0.109905X-0.109905X-0.088999X0.088999X-0.109905X0.109905X0.088999X0*%
%ADD69RoundRect,0.100000X0.139680X0.022123X-0.022123X0.139680X-0.139680X-0.022123X0.022123X-0.139680X0*%
%ADD70RoundRect,0.100000X-0.088999X-0.109905X0.109905X-0.088999X0.088999X0.109905X-0.109905X0.088999X0*%
%ADD71R,0.500000X0.400000*%
%ADD72RoundRect,0.100000X-0.136603X0.036603X-0.036603X-0.136603X0.136603X-0.036603X0.036603X0.136603X0*%
%ADD73RoundRect,0.100000X0.132028X0.050681X-0.050681X0.132028X-0.132028X-0.050681X0.050681X-0.132028X0*%
%ADD74RoundRect,0.212500X0.212500X0.587500X-0.212500X0.587500X-0.212500X-0.587500X0.212500X-0.587500X0*%
%ADD75RoundRect,0.100000X-0.132028X-0.050681X0.050681X-0.132028X0.132028X0.050681X-0.050681X0.132028X0*%
%ADD76RoundRect,0.100000X-0.007401X-0.141228X0.141228X-0.007401X0.007401X0.141228X-0.141228X0.007401X0*%
%ADD77RoundRect,0.100000X0.126007X-0.064204X0.064204X0.126007X-0.126007X0.064204X-0.064204X-0.126007X0*%
%ADD78RoundRect,0.100000X0.118606X-0.077024X0.077024X0.118606X-0.118606X0.077024X-0.077024X-0.118606X0*%
%ADD79RoundRect,0.100000X-0.036603X0.136603X-0.136603X-0.036603X0.036603X-0.136603X0.136603X0.036603X0*%
%ADD80RoundRect,0.100000X0.007401X-0.141228X0.141228X0.007401X-0.007401X0.141228X-0.141228X-0.007401X0*%
%ADD81RoundRect,0.100000X0.109905X-0.088999X0.088999X0.109905X-0.109905X0.088999X-0.088999X-0.109905X0*%
%ADD82RoundRect,0.100000X-0.077024X-0.118606X0.118606X-0.077024X0.077024X0.118606X-0.118606X0.077024X0*%
%ADD83RoundRect,0.100000X-0.109905X0.088999X-0.088999X-0.109905X0.109905X-0.088999X0.088999X0.109905X0*%
%ADD84RoundRect,0.100000X0.141228X0.007401X-0.007401X0.141228X-0.141228X-0.007401X0.007401X-0.141228X0*%
%ADD85RoundRect,0.100000X-0.007401X0.141228X-0.141228X-0.007401X0.007401X-0.141228X0.141228X0.007401X0*%
%ADD86RoundRect,0.100000X-0.064204X-0.126007X0.126007X-0.064204X0.064204X0.126007X-0.126007X0.064204X0*%
%ADD87RoundRect,0.100000X-0.050681X0.132028X-0.132028X-0.050681X0.050681X-0.132028X0.132028X0.050681X0*%
%ADD88RoundRect,0.100000X0.139680X-0.022123X0.022123X0.139680X-0.139680X0.022123X-0.022123X-0.139680X0*%
%ADD89RoundRect,0.100000X0.132028X-0.050681X0.050681X0.132028X-0.132028X0.050681X-0.050681X-0.132028X0*%
%ADD90RoundRect,0.100000X0.007401X0.141228X-0.141228X0.007401X-0.007401X-0.141228X0.141228X-0.007401X0*%
%ADD91RoundRect,0.100000X0.100000X0.100000X-0.100000X0.100000X-0.100000X-0.100000X0.100000X-0.100000X0*%
%ADD92RoundRect,0.100000X-0.139680X-0.022123X0.022123X-0.139680X0.139680X0.022123X-0.022123X0.139680X0*%
%ADD93RoundRect,0.075000X-0.075000X0.225000X-0.075000X-0.225000X0.075000X-0.225000X0.075000X0.225000X0*%
%ADD94RoundRect,0.087500X0.312500X0.087500X-0.312500X0.087500X-0.312500X-0.087500X0.312500X-0.087500X0*%
G04 APERTURE END LIST*
D10*
%TO.C,Q1*%
X6771800Y-4497915D03*
X6771800Y-5497915D03*
X8061800Y-4997915D03*
%TD*%
D11*
%TO.C,R14*%
X-2792000Y5334000D03*
X-3812000Y5334000D03*
%TD*%
%TO.C,R13*%
X-4824000Y5334000D03*
X-5844000Y5334000D03*
%TD*%
D12*
%TO.C,C19*%
X-2340410Y-5499427D03*
X-1380410Y-5499427D03*
%TD*%
D13*
%TO.C,D16*%
X-15235200Y300000D03*
X-15235200Y-300000D03*
X-14635200Y-300000D03*
X-14635200Y300000D03*
%TD*%
D14*
%TO.C,C10*%
X1369000Y6432085D03*
X409000Y6432085D03*
%TD*%
D15*
%TO.C,D50*%
X14040069Y5922650D03*
X13796027Y6470778D03*
X13247899Y6226736D03*
X13491941Y5678608D03*
%TD*%
D16*
%TO.C,D21*%
X-13344071Y-7357792D03*
X-13044071Y-7877408D03*
X-12524455Y-7577408D03*
X-12824455Y-7057792D03*
%TD*%
D17*
%TO.C,D7*%
X-8712320Y12501872D03*
X-9197731Y12149201D03*
X-8845060Y11663790D03*
X-8359649Y12016461D03*
%TD*%
D18*
%TO.C,D5*%
X-5922650Y14040069D03*
X-6470778Y13796027D03*
X-6226736Y13247899D03*
X-5678608Y13491941D03*
%TD*%
D19*
%TO.C,R3*%
X812800Y-4487915D03*
X812800Y-5507915D03*
%TD*%
D20*
%TO.C,R7*%
X-7442200Y-46915D03*
X-7442200Y973085D03*
%TD*%
D14*
%TO.C,C26*%
X-4936410Y-7277427D03*
X-5896410Y-7277427D03*
%TD*%
D21*
%TO.C,D29*%
X-3461021Y-14839901D03*
X-2874132Y-14964648D03*
X-2749385Y-14377759D03*
X-3336274Y-14253012D03*
%TD*%
D12*
%TO.C,C7*%
X4396800Y3638085D03*
X5356800Y3638085D03*
%TD*%
D22*
%TO.C,U2*%
X3340800Y-4235415D03*
X2840800Y-4235415D03*
X1840800Y-4235415D03*
D23*
X1828300Y-4747915D03*
X1828300Y-5247915D03*
D22*
X1840800Y-5760415D03*
X2340800Y-5760415D03*
X2840800Y-5760415D03*
X3340800Y-5760415D03*
D23*
X3353300Y-5247915D03*
X3353300Y-4747915D03*
%TD*%
D24*
%TO.C,D40*%
X12149201Y-9197731D03*
X12501872Y-8712320D03*
X12016461Y-8359649D03*
X11663790Y-8845060D03*
%TD*%
D25*
%TO.C,D35*%
X5922650Y-14040069D03*
X6470778Y-13796027D03*
X6226736Y-13247899D03*
X5678608Y-13491941D03*
%TD*%
D26*
%TO.C,D49*%
X14582241Y4422619D03*
X14396831Y4993253D03*
X13826197Y4807843D03*
X14011607Y4237209D03*
%TD*%
D19*
%TO.C,R10*%
X-6553200Y-931915D03*
X-6553200Y-1951915D03*
%TD*%
D27*
%TO.C,D10*%
X-12149201Y9197731D03*
X-12501872Y8712320D03*
X-12016461Y8359649D03*
X-11663790Y8845060D03*
%TD*%
D14*
%TO.C,C6*%
X-840800Y1905000D03*
X-1800800Y1905000D03*
%TD*%
D28*
%TO.C,D14*%
X-14839901Y3461021D03*
X-14964648Y2874132D03*
X-14377759Y2749385D03*
X-14253012Y3336274D03*
%TD*%
D29*
%TO.C,D6*%
X-7357792Y13344071D03*
X-7877408Y13044071D03*
X-7577408Y12524455D03*
X-7057792Y12824455D03*
%TD*%
D30*
%TO.C,U4*%
X-3078410Y-3374427D03*
X-3078410Y-2324427D03*
X-3078410Y-1274427D03*
D31*
X-3638410Y-4124427D03*
X-3638410Y-524427D03*
D30*
X-4198410Y-3374427D03*
X-4198410Y-2324427D03*
X-4198410Y-1274427D03*
D32*
X-2888410Y-4474427D03*
D33*
X-1988410Y-4074427D03*
X-1988410Y-3574427D03*
X-1988410Y-3074427D03*
X-1988410Y-2574427D03*
X-1988410Y-2074427D03*
X-1988410Y-1574427D03*
X-1988410Y-1074427D03*
X-1988410Y-574427D03*
D32*
X-2888410Y-174427D03*
X-4388410Y-174427D03*
D33*
X-5288410Y-574427D03*
X-5288410Y-1074427D03*
X-5288410Y-1574427D03*
X-5288410Y-2074427D03*
X-5288410Y-2574427D03*
X-5288410Y-3074427D03*
X-5288410Y-3574427D03*
X-5288410Y-4074427D03*
D32*
X-4388410Y-4474427D03*
D34*
X-3363410Y-4474427D03*
X-3363410Y-174427D03*
X-3913410Y-4474427D03*
X-3913410Y-174427D03*
%TD*%
D19*
%TO.C,R6*%
X5765800Y-4487915D03*
X5765800Y-5507915D03*
%TD*%
D35*
%TO.C,D23*%
X-11522700Y-9971395D03*
X-11121221Y-10417282D03*
X-10675334Y-10015803D03*
X-11076813Y-9569916D03*
%TD*%
D36*
%TO.C,D53*%
X11522700Y9971395D03*
X11121221Y10417282D03*
X10675334Y10015803D03*
X11076813Y9569916D03*
%TD*%
D37*
%TO.C,D34*%
X4422619Y-14582241D03*
X4993253Y-14396831D03*
X4807843Y-13826197D03*
X4237209Y-14011607D03*
%TD*%
D38*
%TO.C,D58*%
X4993253Y14396831D03*
X4422619Y14582241D03*
X4237209Y14011607D03*
X4807843Y13826197D03*
%TD*%
D39*
%TO.C,C25*%
X-8331200Y-961915D03*
X-8331200Y-1921915D03*
%TD*%
D12*
%TO.C,C8*%
X4396800Y6432085D03*
X5356800Y6432085D03*
%TD*%
D40*
%TO.C,D12*%
X-13796027Y6470778D03*
X-14040069Y5922650D03*
X-13491941Y5678608D03*
X-13247899Y6226736D03*
%TD*%
D41*
%TO.C,U3*%
X2590800Y82085D03*
D42*
X4343400Y2393485D03*
X3835400Y2393485D03*
X3352800Y2393485D03*
X2852800Y2393485D03*
X2352800Y2393485D03*
X1852800Y2393485D03*
X1352800Y2393485D03*
X852800Y2393485D03*
D43*
X279400Y1834685D03*
X279400Y1326685D03*
X279400Y826685D03*
X279400Y326685D03*
X279400Y-173315D03*
X279400Y-673315D03*
X279400Y-1173315D03*
X279400Y-1673315D03*
D42*
X835400Y-2229315D03*
X1335400Y-2229315D03*
D43*
X4902200Y-1671915D03*
X4902200Y-1171915D03*
X4902200Y-671915D03*
X4902200Y-171915D03*
X4902200Y328085D03*
X4902200Y828085D03*
X4902200Y1328085D03*
X4902200Y1828085D03*
%TD*%
D44*
%TO.C,D33*%
X2874132Y-14964648D03*
X3461021Y-14839901D03*
X3336274Y-14253012D03*
X2749385Y-14377759D03*
%TD*%
D45*
%TO.C,D52*%
X12501872Y8712320D03*
X12149201Y9197731D03*
X11663790Y8845060D03*
X12016461Y8359649D03*
%TD*%
D46*
%TO.C,D32*%
X1294156Y-15183098D03*
X1890869Y-15120381D03*
X1828152Y-14523668D03*
X1231439Y-14586385D03*
%TD*%
D11*
%TO.C,R5*%
X814800Y3358685D03*
X-205200Y3358685D03*
%TD*%
D47*
%TO.C,D59*%
X3461021Y14839901D03*
X2874132Y14964648D03*
X2749385Y14377759D03*
X3336274Y14253012D03*
%TD*%
D48*
%TO.C,L1*%
X4368800Y4550085D03*
X4368800Y5520085D03*
%TD*%
D49*
%TO.C,D30*%
X-1890869Y-15120381D03*
X-1294156Y-15183098D03*
X-1231439Y-14586385D03*
X-1828152Y-14523668D03*
%TD*%
D50*
%TO.C,D60*%
X1890869Y15120381D03*
X1294156Y15183098D03*
X1231439Y14586385D03*
X1828152Y14523668D03*
%TD*%
D51*
%TO.C,D13*%
X-14396831Y4993253D03*
X-14582241Y4422619D03*
X-14011607Y4237209D03*
X-13826197Y4807843D03*
%TD*%
D52*
%TO.C,D11*%
X-13044071Y7877408D03*
X-13344071Y7357792D03*
X-12824455Y7057792D03*
X-12524455Y7577408D03*
%TD*%
D53*
%TO.C,D1*%
X300000Y15235200D03*
X-300000Y15235200D03*
X-300000Y14635200D03*
X300000Y14635200D03*
%TD*%
D54*
%TO.C,D36*%
X7357792Y-13344071D03*
X7877408Y-13044071D03*
X7577408Y-12524455D03*
X7057792Y-12824455D03*
%TD*%
D55*
%TO.C,D56*%
X7877408Y13044071D03*
X7357792Y13344071D03*
X7057792Y12824455D03*
X7577408Y12524455D03*
%TD*%
D56*
%TO.C,D46*%
X15235200Y-300000D03*
X15235200Y300000D03*
X14635200Y300000D03*
X14635200Y-300000D03*
%TD*%
D12*
%TO.C,C11*%
X6936800Y-1822915D03*
X7896800Y-1822915D03*
%TD*%
D14*
%TO.C,C15*%
X-6606600Y3683000D03*
X-7566600Y3683000D03*
%TD*%
D57*
%TO.C,U1*%
X-5430100Y4125000D03*
X-5430100Y3175000D03*
X-5430100Y2225000D03*
X-3155100Y2225000D03*
X-3155100Y4125000D03*
%TD*%
D58*
%TO.C,D37*%
X8712320Y-12501872D03*
X9197731Y-12149201D03*
X8845060Y-11663790D03*
X8359649Y-12016461D03*
%TD*%
D12*
%TO.C,C13*%
X-2340410Y-6388427D03*
X-1380410Y-6388427D03*
%TD*%
D20*
%TO.C,R8*%
X-8331200Y-46915D03*
X-8331200Y973085D03*
%TD*%
D59*
%TO.C,D26*%
X-7877408Y-13044071D03*
X-7357792Y-13344071D03*
X-7057792Y-12824455D03*
X-7577408Y-12524455D03*
%TD*%
D39*
%TO.C,C3*%
X5791200Y2568685D03*
X5791200Y1608685D03*
%TD*%
%TO.C,C24*%
X-7442200Y-961915D03*
X-7442200Y-1921915D03*
%TD*%
D14*
%TO.C,C27*%
X-4936410Y-6388427D03*
X-5896410Y-6388427D03*
%TD*%
D60*
%TO.C,D48*%
X14964648Y2874132D03*
X14839901Y3461021D03*
X14253012Y3336274D03*
X14377759Y2749385D03*
%TD*%
D14*
%TO.C,C12*%
X7896800Y1987085D03*
X6936800Y1987085D03*
%TD*%
D61*
%TO.C,D54*%
X10417282Y11121221D03*
X9971395Y11522700D03*
X9569916Y11076813D03*
X10015803Y10675334D03*
%TD*%
D62*
%TO.C,D44*%
X14839901Y-3461021D03*
X14964648Y-2874132D03*
X14377759Y-2749385D03*
X14253012Y-3336274D03*
%TD*%
D14*
%TO.C,C2*%
X-2034600Y3175000D03*
X-2994600Y3175000D03*
%TD*%
D63*
%TO.C,D43*%
X14396831Y-4993253D03*
X14582241Y-4422619D03*
X14011607Y-4237209D03*
X13826197Y-4807843D03*
%TD*%
D64*
%TO.C,Y2*%
X6834200Y841685D03*
X6834200Y-677515D03*
X7999400Y-677515D03*
X7999400Y841685D03*
%TD*%
D65*
%TO.C,D15*%
X-15120381Y1890869D03*
X-15183098Y1294156D03*
X-14586385Y1231439D03*
X-14523668Y1828152D03*
%TD*%
D12*
%TO.C,C18*%
X-4118410Y-6388427D03*
X-3158410Y-6388427D03*
%TD*%
%TO.C,C21*%
X-4118410Y-5499427D03*
X-3158410Y-5499427D03*
%TD*%
D66*
%TO.C,R4*%
X150400Y-3219915D03*
X1170400Y-3219915D03*
%TD*%
D11*
%TO.C,R11*%
X-3121580Y970785D03*
X-4141580Y970785D03*
%TD*%
D67*
%TO.C,D28*%
X-4993253Y-14396831D03*
X-4422619Y-14582241D03*
X-4237209Y-14011607D03*
X-4807843Y-13826197D03*
%TD*%
D68*
%TO.C,D45*%
X15120381Y-1890869D03*
X15183098Y-1294156D03*
X14586385Y-1231439D03*
X14523668Y-1828152D03*
%TD*%
D69*
%TO.C,D25*%
X-9197731Y-12149201D03*
X-8712320Y-12501872D03*
X-8359649Y-12016461D03*
X-8845060Y-11663790D03*
%TD*%
D70*
%TO.C,D2*%
X-1294156Y15183098D03*
X-1890869Y15120381D03*
X-1828152Y14523668D03*
X-1231439Y14586385D03*
%TD*%
D71*
%TO.C,U5*%
X1790656Y-6795665D03*
X1789921Y-7444981D03*
X1789921Y-8094981D03*
X3389638Y-8094981D03*
X3389638Y-7444981D03*
X3389638Y-6794981D03*
%TD*%
D72*
%TO.C,D51*%
X13344071Y7357792D03*
X13044071Y7877408D03*
X12524455Y7577408D03*
X12824455Y7057792D03*
%TD*%
D73*
%TO.C,D27*%
X-6470778Y-13796027D03*
X-5922650Y-14040069D03*
X-5678608Y-13491941D03*
X-6226736Y-13247899D03*
%TD*%
D74*
%TO.C,Y1*%
X3003800Y4908085D03*
X653800Y4908085D03*
%TD*%
D75*
%TO.C,D57*%
X6470778Y13796027D03*
X5922650Y14040069D03*
X5678608Y13491941D03*
X6226736Y13247899D03*
%TD*%
D76*
%TO.C,D8*%
X-9971395Y11522700D03*
X-10417282Y11121221D03*
X-10015803Y10675334D03*
X-9569916Y11076813D03*
%TD*%
D66*
%TO.C,R1*%
X2080800Y-3219915D03*
X3100800Y-3219915D03*
%TD*%
D77*
%TO.C,D19*%
X-14582241Y-4422619D03*
X-14396831Y-4993253D03*
X-13826197Y-4807843D03*
X-14011607Y-4237209D03*
%TD*%
D78*
%TO.C,D18*%
X-14964648Y-2874132D03*
X-14839901Y-3461021D03*
X-14253012Y-3336274D03*
X-14377759Y-2749385D03*
%TD*%
D12*
%TO.C,C17*%
X-2340410Y-7277427D03*
X-1380410Y-7277427D03*
%TD*%
D79*
%TO.C,D41*%
X13044071Y-7877408D03*
X13344071Y-7357792D03*
X12824455Y-7057792D03*
X12524455Y-7577408D03*
%TD*%
D80*
%TO.C,D9*%
X-11121221Y10417282D03*
X-11522700Y9971395D03*
X-11076813Y9569916D03*
X-10675334Y10015803D03*
%TD*%
D12*
%TO.C,C1*%
X-7566600Y2667000D03*
X-6606600Y2667000D03*
%TD*%
D81*
%TO.C,D17*%
X-15183098Y-1294156D03*
X-15120381Y-1890869D03*
X-14523668Y-1828152D03*
X-14586385Y-1231439D03*
%TD*%
D82*
%TO.C,D3*%
X-2874132Y14964648D03*
X-3461021Y14839901D03*
X-3336274Y14253012D03*
X-2749385Y14377759D03*
%TD*%
D20*
%TO.C,R9*%
X-6553200Y-46915D03*
X-6553200Y973085D03*
%TD*%
D12*
%TO.C,C4*%
X4015800Y-3219915D03*
X4975800Y-3219915D03*
%TD*%
D83*
%TO.C,D47*%
X15183098Y1294156D03*
X15120381Y1890869D03*
X14523668Y1828152D03*
X14586385Y1231439D03*
%TD*%
D84*
%TO.C,D24*%
X-10417282Y-11121221D03*
X-9971395Y-11522700D03*
X-9569916Y-11076813D03*
X-10015803Y-10675334D03*
%TD*%
D19*
%TO.C,R2*%
X4368800Y-4487915D03*
X4368800Y-5507915D03*
%TD*%
D12*
%TO.C,C5*%
X-1800800Y889000D03*
X-840800Y889000D03*
%TD*%
D85*
%TO.C,D39*%
X11121221Y-10417282D03*
X11522700Y-9971395D03*
X11076813Y-9569916D03*
X10675334Y-10015803D03*
%TD*%
D86*
%TO.C,D4*%
X-4422619Y14582241D03*
X-4993253Y14396831D03*
X-4807843Y13826197D03*
X-4237209Y14011607D03*
%TD*%
D87*
%TO.C,D42*%
X13796027Y-6470778D03*
X14040069Y-5922650D03*
X13491941Y-5678608D03*
X13247899Y-6226736D03*
%TD*%
D88*
%TO.C,D22*%
X-12501872Y-8712320D03*
X-12149201Y-9197731D03*
X-11663790Y-8845060D03*
X-12016461Y-8359649D03*
%TD*%
D12*
%TO.C,C9*%
X2288600Y6432085D03*
X3248600Y6432085D03*
%TD*%
D89*
%TO.C,D20*%
X-14040069Y-5922650D03*
X-13796027Y-6470778D03*
X-13247899Y-6226736D03*
X-13491941Y-5678608D03*
%TD*%
D90*
%TO.C,D38*%
X9971395Y-11522700D03*
X10417282Y-11121221D03*
X10015803Y-10675334D03*
X9569916Y-11076813D03*
%TD*%
D91*
%TO.C,D31*%
X-300000Y-15235200D03*
X300000Y-15235200D03*
X300000Y-14635200D03*
X-300000Y-14635200D03*
%TD*%
D92*
%TO.C,D55*%
X9197731Y12149201D03*
X8712320Y12501872D03*
X8359649Y12016461D03*
X8845060Y11663790D03*
%TD*%
D14*
%TO.C,C23*%
X-4936410Y-5499427D03*
X-5896410Y-5499427D03*
%TD*%
D93*
%TO.C,AE1*%
X2032000Y8127600D03*
D94*
X1778000Y7493000D03*
X1778000Y8743000D03*
D93*
X1524000Y8127600D03*
%TD*%
M02*
