%TF.GenerationSoftware,KiCad,Pcbnew,9.0.5*%
%TF.CreationDate,2025-12-07T10:21:42-05:00*%
%TF.ProjectId,WristWatch,57726973-7457-4617-9463-682e6b696361,rev?*%
%TF.SameCoordinates,Original*%
%TF.FileFunction,Legend,Bot*%
%TF.FilePolarity,Positive*%
%FSLAX46Y46*%
G04 Gerber Fmt 4.6, Leading zero omitted, Abs format (unit mm)*
G04 Created by KiCad (PCBNEW 9.0.5) date 2025-12-07 10:21:42*
%MOMM*%
%LPD*%
G01*
G04 APERTURE LIST*
%ADD10C,0.100000*%
%ADD11C,0.125000*%
%ADD12C,0.093750*%
%ADD13C,0.000000*%
%ADD14C,0.120000*%
G04 APERTURE END LIST*
D10*
X-13716000Y-1143000D02*
X-13716000Y-3429000D01*
X-13716000Y3429000D02*
G75*
G02*
X-11684000Y3429000I1016000J0D01*
G01*
X-11684000Y1143000D02*
G75*
G02*
X-13716000Y1143000I-1016000J0D01*
G01*
X-11684000Y-3429000D02*
G75*
G02*
X-13716000Y-3429000I-1016000J0D01*
G01*
X-13716000Y3429000D02*
X-13716000Y1143000D01*
X-11684000Y-1143000D02*
X-11684000Y-3429000D01*
X-13716000Y-1143000D02*
G75*
G02*
X-11684000Y-1143000I1016000J0D01*
G01*
X-11684000Y3429000D02*
X-11684000Y1143000D01*
D11*
X-10104476Y-1503880D02*
X-10056857Y-1551500D01*
X-10056857Y-1551500D02*
X-9914000Y-1599119D01*
X-9914000Y-1599119D02*
X-9818762Y-1599119D01*
X-9818762Y-1599119D02*
X-9675905Y-1551500D01*
X-9675905Y-1551500D02*
X-9580667Y-1456261D01*
X-9580667Y-1456261D02*
X-9533048Y-1361023D01*
X-9533048Y-1361023D02*
X-9485429Y-1170547D01*
X-9485429Y-1170547D02*
X-9485429Y-1027690D01*
X-9485429Y-1027690D02*
X-9533048Y-837214D01*
X-9533048Y-837214D02*
X-9580667Y-741976D01*
X-9580667Y-741976D02*
X-9675905Y-646738D01*
X-9675905Y-646738D02*
X-9818762Y-599119D01*
X-9818762Y-599119D02*
X-9914000Y-599119D01*
X-9914000Y-599119D02*
X-10056857Y-646738D01*
X-10056857Y-646738D02*
X-10104476Y-694357D01*
X-10533048Y-1218166D02*
X-11294953Y-1218166D01*
X-10914000Y-1599119D02*
X-10914000Y-837214D01*
X10363525Y-3266119D02*
X9792097Y-3266119D01*
X10077811Y-4266119D02*
X10077811Y-3266119D01*
X9554001Y-3266119D02*
X8887335Y-4266119D01*
X8887335Y-3266119D02*
X9554001Y-4266119D01*
D12*
X13252517Y4446428D02*
X13216803Y4410714D01*
X13216803Y4410714D02*
X13181089Y4339286D01*
X13181089Y4339286D02*
X13181089Y4160714D01*
X13181089Y4160714D02*
X13216803Y4089286D01*
X13216803Y4089286D02*
X13252517Y4053571D01*
X13252517Y4053571D02*
X13323946Y4017857D01*
X13323946Y4017857D02*
X13395375Y4017857D01*
X13395375Y4017857D02*
X13502517Y4053571D01*
X13502517Y4053571D02*
X13931089Y4482143D01*
X13931089Y4482143D02*
X13931089Y4017857D01*
X13859660Y3696428D02*
X13895375Y3660714D01*
X13895375Y3660714D02*
X13931089Y3696428D01*
X13931089Y3696428D02*
X13895375Y3732142D01*
X13895375Y3732142D02*
X13859660Y3696428D01*
X13859660Y3696428D02*
X13931089Y3696428D01*
X13181089Y2982142D02*
X13181089Y3339285D01*
X13181089Y3339285D02*
X13538232Y3374999D01*
X13538232Y3374999D02*
X13502517Y3339285D01*
X13502517Y3339285D02*
X13466803Y3267857D01*
X13466803Y3267857D02*
X13466803Y3089285D01*
X13466803Y3089285D02*
X13502517Y3017857D01*
X13502517Y3017857D02*
X13538232Y2982142D01*
X13538232Y2982142D02*
X13609660Y2946428D01*
X13609660Y2946428D02*
X13788232Y2946428D01*
X13788232Y2946428D02*
X13859660Y2982142D01*
X13859660Y2982142D02*
X13895375Y3017857D01*
X13895375Y3017857D02*
X13931089Y3089285D01*
X13931089Y3089285D02*
X13931089Y3267857D01*
X13931089Y3267857D02*
X13895375Y3339285D01*
X13895375Y3339285D02*
X13859660Y3374999D01*
X13431089Y2303571D02*
X13931089Y2303571D01*
X13145375Y2482142D02*
X13681089Y2660713D01*
X13681089Y2660713D02*
X13681089Y2196428D01*
X13931089Y1910713D02*
X13431089Y1910713D01*
X13502517Y1910713D02*
X13466803Y1874999D01*
X13466803Y1874999D02*
X13431089Y1803570D01*
X13431089Y1803570D02*
X13431089Y1696427D01*
X13431089Y1696427D02*
X13466803Y1624999D01*
X13466803Y1624999D02*
X13538232Y1589285D01*
X13538232Y1589285D02*
X13931089Y1589285D01*
X13538232Y1589285D02*
X13466803Y1553570D01*
X13466803Y1553570D02*
X13431089Y1482142D01*
X13431089Y1482142D02*
X13431089Y1374999D01*
X13431089Y1374999D02*
X13466803Y1303570D01*
X13466803Y1303570D02*
X13538232Y1267856D01*
X13538232Y1267856D02*
X13931089Y1267856D01*
X13931089Y910713D02*
X13431089Y910713D01*
X13502517Y910713D02*
X13466803Y874999D01*
X13466803Y874999D02*
X13431089Y803570D01*
X13431089Y803570D02*
X13431089Y696427D01*
X13431089Y696427D02*
X13466803Y624999D01*
X13466803Y624999D02*
X13538232Y589285D01*
X13538232Y589285D02*
X13931089Y589285D01*
X13538232Y589285D02*
X13466803Y553570D01*
X13466803Y553570D02*
X13431089Y482142D01*
X13431089Y482142D02*
X13431089Y374999D01*
X13431089Y374999D02*
X13466803Y303570D01*
X13466803Y303570D02*
X13538232Y267856D01*
X13538232Y267856D02*
X13931089Y267856D01*
X13895375Y-982144D02*
X13931089Y-910715D01*
X13931089Y-910715D02*
X13931089Y-767858D01*
X13931089Y-767858D02*
X13895375Y-696429D01*
X13895375Y-696429D02*
X13859660Y-660715D01*
X13859660Y-660715D02*
X13788232Y-625001D01*
X13788232Y-625001D02*
X13573946Y-625001D01*
X13573946Y-625001D02*
X13502517Y-660715D01*
X13502517Y-660715D02*
X13466803Y-696429D01*
X13466803Y-696429D02*
X13431089Y-767858D01*
X13431089Y-767858D02*
X13431089Y-910715D01*
X13431089Y-910715D02*
X13466803Y-982144D01*
X13895375Y-1589286D02*
X13931089Y-1517858D01*
X13931089Y-1517858D02*
X13931089Y-1375001D01*
X13931089Y-1375001D02*
X13895375Y-1303572D01*
X13895375Y-1303572D02*
X13823946Y-1267858D01*
X13823946Y-1267858D02*
X13538232Y-1267858D01*
X13538232Y-1267858D02*
X13466803Y-1303572D01*
X13466803Y-1303572D02*
X13431089Y-1375001D01*
X13431089Y-1375001D02*
X13431089Y-1517858D01*
X13431089Y-1517858D02*
X13466803Y-1589286D01*
X13466803Y-1589286D02*
X13538232Y-1625001D01*
X13538232Y-1625001D02*
X13609660Y-1625001D01*
X13609660Y-1625001D02*
X13681089Y-1267858D01*
X13431089Y-1946429D02*
X13931089Y-1946429D01*
X13502517Y-1946429D02*
X13466803Y-1982143D01*
X13466803Y-1982143D02*
X13431089Y-2053572D01*
X13431089Y-2053572D02*
X13431089Y-2160715D01*
X13431089Y-2160715D02*
X13466803Y-2232143D01*
X13466803Y-2232143D02*
X13538232Y-2267858D01*
X13538232Y-2267858D02*
X13931089Y-2267858D01*
X13431089Y-2517857D02*
X13431089Y-2803571D01*
X13181089Y-2625000D02*
X13823946Y-2625000D01*
X13823946Y-2625000D02*
X13895375Y-2660714D01*
X13895375Y-2660714D02*
X13931089Y-2732143D01*
X13931089Y-2732143D02*
X13931089Y-2803571D01*
X13895375Y-3339285D02*
X13931089Y-3267857D01*
X13931089Y-3267857D02*
X13931089Y-3125000D01*
X13931089Y-3125000D02*
X13895375Y-3053571D01*
X13895375Y-3053571D02*
X13823946Y-3017857D01*
X13823946Y-3017857D02*
X13538232Y-3017857D01*
X13538232Y-3017857D02*
X13466803Y-3053571D01*
X13466803Y-3053571D02*
X13431089Y-3125000D01*
X13431089Y-3125000D02*
X13431089Y-3267857D01*
X13431089Y-3267857D02*
X13466803Y-3339285D01*
X13466803Y-3339285D02*
X13538232Y-3375000D01*
X13538232Y-3375000D02*
X13609660Y-3375000D01*
X13609660Y-3375000D02*
X13681089Y-3017857D01*
X13931089Y-3696428D02*
X13431089Y-3696428D01*
X13573946Y-3696428D02*
X13502517Y-3732142D01*
X13502517Y-3732142D02*
X13466803Y-3767857D01*
X13466803Y-3767857D02*
X13431089Y-3839285D01*
X13431089Y-3839285D02*
X13431089Y-3910714D01*
X13895375Y-4125000D02*
X13931089Y-4196428D01*
X13931089Y-4196428D02*
X13931089Y-4339285D01*
X13931089Y-4339285D02*
X13895375Y-4410714D01*
X13895375Y-4410714D02*
X13823946Y-4446428D01*
X13823946Y-4446428D02*
X13788232Y-4446428D01*
X13788232Y-4446428D02*
X13716803Y-4410714D01*
X13716803Y-4410714D02*
X13681089Y-4339285D01*
X13681089Y-4339285D02*
X13681089Y-4232143D01*
X13681089Y-4232143D02*
X13645375Y-4160714D01*
X13645375Y-4160714D02*
X13573946Y-4125000D01*
X13573946Y-4125000D02*
X13538232Y-4125000D01*
X13538232Y-4125000D02*
X13466803Y-4160714D01*
X13466803Y-4160714D02*
X13431089Y-4232143D01*
X13431089Y-4232143D02*
X13431089Y-4339285D01*
X13431089Y-4339285D02*
X13466803Y-4410714D01*
D11*
X-9294904Y3496690D02*
X-9437761Y3449071D01*
X-9437761Y3449071D02*
X-9485380Y3401452D01*
X-9485380Y3401452D02*
X-9532999Y3306214D01*
X-9532999Y3306214D02*
X-9532999Y3163357D01*
X-9532999Y3163357D02*
X-9485380Y3068119D01*
X-9485380Y3068119D02*
X-9437761Y3020500D01*
X-9437761Y3020500D02*
X-9342523Y2972880D01*
X-9342523Y2972880D02*
X-8961571Y2972880D01*
X-8961571Y2972880D02*
X-8961571Y3972880D01*
X-8961571Y3972880D02*
X-9294904Y3972880D01*
X-9294904Y3972880D02*
X-9390142Y3925261D01*
X-9390142Y3925261D02*
X-9437761Y3877642D01*
X-9437761Y3877642D02*
X-9485380Y3782404D01*
X-9485380Y3782404D02*
X-9485380Y3687166D01*
X-9485380Y3687166D02*
X-9437761Y3591928D01*
X-9437761Y3591928D02*
X-9390142Y3544309D01*
X-9390142Y3544309D02*
X-9294904Y3496690D01*
X-9294904Y3496690D02*
X-8961571Y3496690D01*
X-9913952Y3258595D02*
X-10390142Y3258595D01*
X-9818714Y2972880D02*
X-10152047Y3972880D01*
X-10152047Y3972880D02*
X-10485380Y2972880D01*
X-10675857Y3972880D02*
X-11247285Y3972880D01*
X-10961571Y2972880D02*
X-10961571Y3972880D01*
X-10104476Y-3789880D02*
X-10056857Y-3837500D01*
X-10056857Y-3837500D02*
X-9914000Y-3885119D01*
X-9914000Y-3885119D02*
X-9818762Y-3885119D01*
X-9818762Y-3885119D02*
X-9675905Y-3837500D01*
X-9675905Y-3837500D02*
X-9580667Y-3742261D01*
X-9580667Y-3742261D02*
X-9533048Y-3647023D01*
X-9533048Y-3647023D02*
X-9485429Y-3456547D01*
X-9485429Y-3456547D02*
X-9485429Y-3313690D01*
X-9485429Y-3313690D02*
X-9533048Y-3123214D01*
X-9533048Y-3123214D02*
X-9580667Y-3027976D01*
X-9580667Y-3027976D02*
X-9675905Y-2932738D01*
X-9675905Y-2932738D02*
X-9818762Y-2885119D01*
X-9818762Y-2885119D02*
X-9914000Y-2885119D01*
X-9914000Y-2885119D02*
X-10056857Y-2932738D01*
X-10056857Y-2932738D02*
X-10104476Y-2980357D01*
X-10533048Y-3504166D02*
X-11294953Y-3504166D01*
X-9271095Y1639261D02*
X-9175857Y1686880D01*
X-9175857Y1686880D02*
X-9033000Y1686880D01*
X-9033000Y1686880D02*
X-8890143Y1639261D01*
X-8890143Y1639261D02*
X-8794905Y1544023D01*
X-8794905Y1544023D02*
X-8747286Y1448785D01*
X-8747286Y1448785D02*
X-8699667Y1258309D01*
X-8699667Y1258309D02*
X-8699667Y1115452D01*
X-8699667Y1115452D02*
X-8747286Y924976D01*
X-8747286Y924976D02*
X-8794905Y829738D01*
X-8794905Y829738D02*
X-8890143Y734500D01*
X-8890143Y734500D02*
X-9033000Y686880D01*
X-9033000Y686880D02*
X-9128238Y686880D01*
X-9128238Y686880D02*
X-9271095Y734500D01*
X-9271095Y734500D02*
X-9318714Y782119D01*
X-9318714Y782119D02*
X-9318714Y1115452D01*
X-9318714Y1115452D02*
X-9128238Y1115452D01*
X-9747286Y686880D02*
X-9747286Y1686880D01*
X-9747286Y1686880D02*
X-10318714Y686880D01*
X-10318714Y686880D02*
X-10318714Y1686880D01*
X-10794905Y686880D02*
X-10794905Y1686880D01*
X-10794905Y1686880D02*
X-11033000Y1686880D01*
X-11033000Y1686880D02*
X-11175857Y1639261D01*
X-11175857Y1639261D02*
X-11271095Y1544023D01*
X-11271095Y1544023D02*
X-11318714Y1448785D01*
X-11318714Y1448785D02*
X-11366333Y1258309D01*
X-11366333Y1258309D02*
X-11366333Y1115452D01*
X-11366333Y1115452D02*
X-11318714Y924976D01*
X-11318714Y924976D02*
X-11271095Y829738D01*
X-11271095Y829738D02*
X-11175857Y734500D01*
X-11175857Y734500D02*
X-11033000Y686880D01*
X-11033000Y686880D02*
X-10794905Y686880D01*
X3809523Y-5847175D02*
X3571428Y-6847175D01*
X3571428Y-6847175D02*
X3380952Y-6132889D01*
X3380952Y-6132889D02*
X3190476Y-6847175D01*
X3190476Y-6847175D02*
X2952381Y-5847175D01*
X2571428Y-6847175D02*
X2571428Y-6180508D01*
X2571428Y-6370984D02*
X2523809Y-6275746D01*
X2523809Y-6275746D02*
X2476190Y-6228127D01*
X2476190Y-6228127D02*
X2380952Y-6180508D01*
X2380952Y-6180508D02*
X2285714Y-6180508D01*
X1952380Y-6847175D02*
X1952380Y-6180508D01*
X1952380Y-5847175D02*
X1999999Y-5894794D01*
X1999999Y-5894794D02*
X1952380Y-5942413D01*
X1952380Y-5942413D02*
X1904761Y-5894794D01*
X1904761Y-5894794D02*
X1952380Y-5847175D01*
X1952380Y-5847175D02*
X1952380Y-5942413D01*
X1523809Y-6799556D02*
X1428571Y-6847175D01*
X1428571Y-6847175D02*
X1238095Y-6847175D01*
X1238095Y-6847175D02*
X1142857Y-6799556D01*
X1142857Y-6799556D02*
X1095238Y-6704317D01*
X1095238Y-6704317D02*
X1095238Y-6656698D01*
X1095238Y-6656698D02*
X1142857Y-6561460D01*
X1142857Y-6561460D02*
X1238095Y-6513841D01*
X1238095Y-6513841D02*
X1380952Y-6513841D01*
X1380952Y-6513841D02*
X1476190Y-6466222D01*
X1476190Y-6466222D02*
X1523809Y-6370984D01*
X1523809Y-6370984D02*
X1523809Y-6323365D01*
X1523809Y-6323365D02*
X1476190Y-6228127D01*
X1476190Y-6228127D02*
X1380952Y-6180508D01*
X1380952Y-6180508D02*
X1238095Y-6180508D01*
X1238095Y-6180508D02*
X1142857Y-6228127D01*
X809523Y-6180508D02*
X428571Y-6180508D01*
X666666Y-5847175D02*
X666666Y-6704317D01*
X666666Y-6704317D02*
X619047Y-6799556D01*
X619047Y-6799556D02*
X523809Y-6847175D01*
X523809Y-6847175D02*
X428571Y-6847175D01*
X190475Y-6180508D02*
X0Y-6847175D01*
X0Y-6847175D02*
X-190476Y-6370984D01*
X-190476Y-6370984D02*
X-380952Y-6847175D01*
X-380952Y-6847175D02*
X-571428Y-6180508D01*
X-1380952Y-6847175D02*
X-1380952Y-6323365D01*
X-1380952Y-6323365D02*
X-1333333Y-6228127D01*
X-1333333Y-6228127D02*
X-1238095Y-6180508D01*
X-1238095Y-6180508D02*
X-1047619Y-6180508D01*
X-1047619Y-6180508D02*
X-952381Y-6228127D01*
X-1380952Y-6799556D02*
X-1285714Y-6847175D01*
X-1285714Y-6847175D02*
X-1047619Y-6847175D01*
X-1047619Y-6847175D02*
X-952381Y-6799556D01*
X-952381Y-6799556D02*
X-904762Y-6704317D01*
X-904762Y-6704317D02*
X-904762Y-6609079D01*
X-904762Y-6609079D02*
X-952381Y-6513841D01*
X-952381Y-6513841D02*
X-1047619Y-6466222D01*
X-1047619Y-6466222D02*
X-1285714Y-6466222D01*
X-1285714Y-6466222D02*
X-1380952Y-6418603D01*
X-1714286Y-6180508D02*
X-2095238Y-6180508D01*
X-1857143Y-5847175D02*
X-1857143Y-6704317D01*
X-1857143Y-6704317D02*
X-1904762Y-6799556D01*
X-1904762Y-6799556D02*
X-2000000Y-6847175D01*
X-2000000Y-6847175D02*
X-2095238Y-6847175D01*
X-2857143Y-6799556D02*
X-2761905Y-6847175D01*
X-2761905Y-6847175D02*
X-2571429Y-6847175D01*
X-2571429Y-6847175D02*
X-2476191Y-6799556D01*
X-2476191Y-6799556D02*
X-2428572Y-6751936D01*
X-2428572Y-6751936D02*
X-2380953Y-6656698D01*
X-2380953Y-6656698D02*
X-2380953Y-6370984D01*
X-2380953Y-6370984D02*
X-2428572Y-6275746D01*
X-2428572Y-6275746D02*
X-2476191Y-6228127D01*
X-2476191Y-6228127D02*
X-2571429Y-6180508D01*
X-2571429Y-6180508D02*
X-2761905Y-6180508D01*
X-2761905Y-6180508D02*
X-2857143Y-6228127D01*
X-3285715Y-6847175D02*
X-3285715Y-5847175D01*
X-3714286Y-6847175D02*
X-3714286Y-6323365D01*
X-3714286Y-6323365D02*
X-3666667Y-6228127D01*
X-3666667Y-6228127D02*
X-3571429Y-6180508D01*
X-3571429Y-6180508D02*
X-3428572Y-6180508D01*
X-3428572Y-6180508D02*
X-3333334Y-6228127D01*
X-3333334Y-6228127D02*
X-3285715Y-6275746D01*
X3309524Y-8457119D02*
X3309524Y-7457119D01*
X3309524Y-7457119D02*
X2928572Y-7457119D01*
X2928572Y-7457119D02*
X2833334Y-7504738D01*
X2833334Y-7504738D02*
X2785715Y-7552357D01*
X2785715Y-7552357D02*
X2738096Y-7647595D01*
X2738096Y-7647595D02*
X2738096Y-7790452D01*
X2738096Y-7790452D02*
X2785715Y-7885690D01*
X2785715Y-7885690D02*
X2833334Y-7933309D01*
X2833334Y-7933309D02*
X2928572Y-7980928D01*
X2928572Y-7980928D02*
X3309524Y-7980928D01*
X2309524Y-8457119D02*
X2309524Y-7790452D01*
X2309524Y-7980928D02*
X2261905Y-7885690D01*
X2261905Y-7885690D02*
X2214286Y-7838071D01*
X2214286Y-7838071D02*
X2119048Y-7790452D01*
X2119048Y-7790452D02*
X2023810Y-7790452D01*
X1547619Y-8457119D02*
X1642857Y-8409500D01*
X1642857Y-8409500D02*
X1690476Y-8361880D01*
X1690476Y-8361880D02*
X1738095Y-8266642D01*
X1738095Y-8266642D02*
X1738095Y-7980928D01*
X1738095Y-7980928D02*
X1690476Y-7885690D01*
X1690476Y-7885690D02*
X1642857Y-7838071D01*
X1642857Y-7838071D02*
X1547619Y-7790452D01*
X1547619Y-7790452D02*
X1404762Y-7790452D01*
X1404762Y-7790452D02*
X1309524Y-7838071D01*
X1309524Y-7838071D02*
X1261905Y-7885690D01*
X1261905Y-7885690D02*
X1214286Y-7980928D01*
X1214286Y-7980928D02*
X1214286Y-8266642D01*
X1214286Y-8266642D02*
X1261905Y-8361880D01*
X1261905Y-8361880D02*
X1309524Y-8409500D01*
X1309524Y-8409500D02*
X1404762Y-8457119D01*
X1404762Y-8457119D02*
X1547619Y-8457119D01*
X928571Y-7790452D02*
X547619Y-7790452D01*
X785714Y-7457119D02*
X785714Y-8314261D01*
X785714Y-8314261D02*
X738095Y-8409500D01*
X738095Y-8409500D02*
X642857Y-8457119D01*
X642857Y-8457119D02*
X547619Y-8457119D01*
X71428Y-8457119D02*
X166666Y-8409500D01*
X166666Y-8409500D02*
X214285Y-8361880D01*
X214285Y-8361880D02*
X261904Y-8266642D01*
X261904Y-8266642D02*
X261904Y-7980928D01*
X261904Y-7980928D02*
X214285Y-7885690D01*
X214285Y-7885690D02*
X166666Y-7838071D01*
X166666Y-7838071D02*
X71428Y-7790452D01*
X71428Y-7790452D02*
X-71428Y-7790452D01*
X-71428Y-7790452D02*
X-166666Y-7838071D01*
X-166666Y-7838071D02*
X-214285Y-7885690D01*
X-214285Y-7885690D02*
X-261904Y-7980928D01*
X-261904Y-7980928D02*
X-261904Y-8266642D01*
X-261904Y-8266642D02*
X-214285Y-8361880D01*
X-214285Y-8361880D02*
X-166666Y-8409500D01*
X-166666Y-8409500D02*
X-71428Y-8457119D01*
X-71428Y-8457119D02*
X71428Y-8457119D01*
X-547619Y-7790452D02*
X-928571Y-7790452D01*
X-690476Y-7457119D02*
X-690476Y-8314261D01*
X-690476Y-8314261D02*
X-738095Y-8409500D01*
X-738095Y-8409500D02*
X-833333Y-8457119D01*
X-833333Y-8457119D02*
X-928571Y-8457119D01*
X-1166667Y-7790452D02*
X-1404762Y-8457119D01*
X-1642857Y-7790452D02*
X-1404762Y-8457119D01*
X-1404762Y-8457119D02*
X-1309524Y-8695214D01*
X-1309524Y-8695214D02*
X-1261905Y-8742833D01*
X-1261905Y-8742833D02*
X-1166667Y-8790452D01*
X-2023810Y-7790452D02*
X-2023810Y-8790452D01*
X-2023810Y-7838071D02*
X-2119048Y-7790452D01*
X-2119048Y-7790452D02*
X-2309524Y-7790452D01*
X-2309524Y-7790452D02*
X-2404762Y-7838071D01*
X-2404762Y-7838071D02*
X-2452381Y-7885690D01*
X-2452381Y-7885690D02*
X-2500000Y-7980928D01*
X-2500000Y-7980928D02*
X-2500000Y-8266642D01*
X-2500000Y-8266642D02*
X-2452381Y-8361880D01*
X-2452381Y-8361880D02*
X-2404762Y-8409500D01*
X-2404762Y-8409500D02*
X-2309524Y-8457119D01*
X-2309524Y-8457119D02*
X-2119048Y-8457119D01*
X-2119048Y-8457119D02*
X-2023810Y-8409500D01*
X-3309524Y-8409500D02*
X-3214286Y-8457119D01*
X-3214286Y-8457119D02*
X-3023810Y-8457119D01*
X-3023810Y-8457119D02*
X-2928572Y-8409500D01*
X-2928572Y-8409500D02*
X-2880953Y-8314261D01*
X-2880953Y-8314261D02*
X-2880953Y-7933309D01*
X-2880953Y-7933309D02*
X-2928572Y-7838071D01*
X-2928572Y-7838071D02*
X-3023810Y-7790452D01*
X-3023810Y-7790452D02*
X-3214286Y-7790452D01*
X-3214286Y-7790452D02*
X-3309524Y-7838071D01*
X-3309524Y-7838071D02*
X-3357143Y-7933309D01*
X-3357143Y-7933309D02*
X-3357143Y-8028547D01*
X-3357143Y-8028547D02*
X-2880953Y-8123785D01*
X1619047Y-10067063D02*
X1952380Y-9590872D01*
X2190475Y-10067063D02*
X2190475Y-9067063D01*
X2190475Y-9067063D02*
X1809523Y-9067063D01*
X1809523Y-9067063D02*
X1714285Y-9114682D01*
X1714285Y-9114682D02*
X1666666Y-9162301D01*
X1666666Y-9162301D02*
X1619047Y-9257539D01*
X1619047Y-9257539D02*
X1619047Y-9400396D01*
X1619047Y-9400396D02*
X1666666Y-9495634D01*
X1666666Y-9495634D02*
X1714285Y-9543253D01*
X1714285Y-9543253D02*
X1809523Y-9590872D01*
X1809523Y-9590872D02*
X2190475Y-9590872D01*
X809523Y-10019444D02*
X904761Y-10067063D01*
X904761Y-10067063D02*
X1095237Y-10067063D01*
X1095237Y-10067063D02*
X1190475Y-10019444D01*
X1190475Y-10019444D02*
X1238094Y-9924205D01*
X1238094Y-9924205D02*
X1238094Y-9543253D01*
X1238094Y-9543253D02*
X1190475Y-9448015D01*
X1190475Y-9448015D02*
X1095237Y-9400396D01*
X1095237Y-9400396D02*
X904761Y-9400396D01*
X904761Y-9400396D02*
X809523Y-9448015D01*
X809523Y-9448015D02*
X761904Y-9543253D01*
X761904Y-9543253D02*
X761904Y-9638491D01*
X761904Y-9638491D02*
X1238094Y-9733729D01*
X428570Y-9400396D02*
X190475Y-10067063D01*
X190475Y-10067063D02*
X-47619Y-9400396D01*
X-428572Y-9971824D02*
X-476191Y-10019444D01*
X-476191Y-10019444D02*
X-428572Y-10067063D01*
X-428572Y-10067063D02*
X-380953Y-10019444D01*
X-380953Y-10019444D02*
X-428572Y-9971824D01*
X-428572Y-9971824D02*
X-428572Y-10067063D01*
X-2238095Y-9971824D02*
X-2190476Y-10019444D01*
X-2190476Y-10019444D02*
X-2047619Y-10067063D01*
X-2047619Y-10067063D02*
X-1952381Y-10067063D01*
X-1952381Y-10067063D02*
X-1809524Y-10019444D01*
X-1809524Y-10019444D02*
X-1714286Y-9924205D01*
X-1714286Y-9924205D02*
X-1666667Y-9828967D01*
X-1666667Y-9828967D02*
X-1619048Y-9638491D01*
X-1619048Y-9638491D02*
X-1619048Y-9495634D01*
X-1619048Y-9495634D02*
X-1666667Y-9305158D01*
X-1666667Y-9305158D02*
X-1714286Y-9209920D01*
X-1714286Y-9209920D02*
X-1809524Y-9114682D01*
X-1809524Y-9114682D02*
X-1952381Y-9067063D01*
X-1952381Y-9067063D02*
X-2047619Y-9067063D01*
X-2047619Y-9067063D02*
X-2190476Y-9114682D01*
X-2190476Y-9114682D02*
X-2238095Y-9162301D01*
X9887335Y-1202309D02*
X9744478Y-1249928D01*
X9744478Y-1249928D02*
X9696859Y-1297547D01*
X9696859Y-1297547D02*
X9649240Y-1392785D01*
X9649240Y-1392785D02*
X9649240Y-1535642D01*
X9649240Y-1535642D02*
X9696859Y-1630880D01*
X9696859Y-1630880D02*
X9744478Y-1678500D01*
X9744478Y-1678500D02*
X9839716Y-1726119D01*
X9839716Y-1726119D02*
X10220668Y-1726119D01*
X10220668Y-1726119D02*
X10220668Y-726119D01*
X10220668Y-726119D02*
X9887335Y-726119D01*
X9887335Y-726119D02*
X9792097Y-773738D01*
X9792097Y-773738D02*
X9744478Y-821357D01*
X9744478Y-821357D02*
X9696859Y-916595D01*
X9696859Y-916595D02*
X9696859Y-1011833D01*
X9696859Y-1011833D02*
X9744478Y-1107071D01*
X9744478Y-1107071D02*
X9792097Y-1154690D01*
X9792097Y-1154690D02*
X9887335Y-1202309D01*
X9887335Y-1202309D02*
X10220668Y-1202309D01*
X9030192Y-726119D02*
X8839716Y-726119D01*
X8839716Y-726119D02*
X8744478Y-773738D01*
X8744478Y-773738D02*
X8649240Y-868976D01*
X8649240Y-868976D02*
X8601621Y-1059452D01*
X8601621Y-1059452D02*
X8601621Y-1392785D01*
X8601621Y-1392785D02*
X8649240Y-1583261D01*
X8649240Y-1583261D02*
X8744478Y-1678500D01*
X8744478Y-1678500D02*
X8839716Y-1726119D01*
X8839716Y-1726119D02*
X9030192Y-1726119D01*
X9030192Y-1726119D02*
X9125430Y-1678500D01*
X9125430Y-1678500D02*
X9220668Y-1583261D01*
X9220668Y-1583261D02*
X9268287Y-1392785D01*
X9268287Y-1392785D02*
X9268287Y-1059452D01*
X9268287Y-1059452D02*
X9220668Y-868976D01*
X9220668Y-868976D02*
X9125430Y-773738D01*
X9125430Y-773738D02*
X9030192Y-726119D01*
X7982573Y-726119D02*
X7792097Y-726119D01*
X7792097Y-726119D02*
X7696859Y-773738D01*
X7696859Y-773738D02*
X7601621Y-868976D01*
X7601621Y-868976D02*
X7554002Y-1059452D01*
X7554002Y-1059452D02*
X7554002Y-1392785D01*
X7554002Y-1392785D02*
X7601621Y-1583261D01*
X7601621Y-1583261D02*
X7696859Y-1678500D01*
X7696859Y-1678500D02*
X7792097Y-1726119D01*
X7792097Y-1726119D02*
X7982573Y-1726119D01*
X7982573Y-1726119D02*
X8077811Y-1678500D01*
X8077811Y-1678500D02*
X8173049Y-1583261D01*
X8173049Y-1583261D02*
X8220668Y-1392785D01*
X8220668Y-1392785D02*
X8220668Y-1059452D01*
X8220668Y-1059452D02*
X8173049Y-868976D01*
X8173049Y-868976D02*
X8077811Y-773738D01*
X8077811Y-773738D02*
X7982573Y-726119D01*
X7268287Y-726119D02*
X6696859Y-726119D01*
X6982573Y-1726119D02*
X6982573Y-726119D01*
X9569859Y4306261D02*
X9665097Y4353880D01*
X9665097Y4353880D02*
X9807954Y4353880D01*
X9807954Y4353880D02*
X9950811Y4306261D01*
X9950811Y4306261D02*
X10046049Y4211023D01*
X10046049Y4211023D02*
X10093668Y4115785D01*
X10093668Y4115785D02*
X10141287Y3925309D01*
X10141287Y3925309D02*
X10141287Y3782452D01*
X10141287Y3782452D02*
X10093668Y3591976D01*
X10093668Y3591976D02*
X10046049Y3496738D01*
X10046049Y3496738D02*
X9950811Y3401500D01*
X9950811Y3401500D02*
X9807954Y3353880D01*
X9807954Y3353880D02*
X9712716Y3353880D01*
X9712716Y3353880D02*
X9569859Y3401500D01*
X9569859Y3401500D02*
X9522240Y3449119D01*
X9522240Y3449119D02*
X9522240Y3782452D01*
X9522240Y3782452D02*
X9712716Y3782452D01*
X9093668Y3353880D02*
X9093668Y4353880D01*
X9093668Y4353880D02*
X8522240Y3353880D01*
X8522240Y3353880D02*
X8522240Y4353880D01*
X8046049Y3353880D02*
X8046049Y4353880D01*
X8046049Y4353880D02*
X7807954Y4353880D01*
X7807954Y4353880D02*
X7665097Y4306261D01*
X7665097Y4306261D02*
X7569859Y4211023D01*
X7569859Y4211023D02*
X7522240Y4115785D01*
X7522240Y4115785D02*
X7474621Y3925309D01*
X7474621Y3925309D02*
X7474621Y3782452D01*
X7474621Y3782452D02*
X7522240Y3591976D01*
X7522240Y3591976D02*
X7569859Y3496738D01*
X7569859Y3496738D02*
X7665097Y3401500D01*
X7665097Y3401500D02*
X7807954Y3353880D01*
X7807954Y3353880D02*
X8046049Y3353880D01*
X9649240Y-6806119D02*
X9982573Y-6329928D01*
X10220668Y-6806119D02*
X10220668Y-5806119D01*
X10220668Y-5806119D02*
X9839716Y-5806119D01*
X9839716Y-5806119D02*
X9744478Y-5853738D01*
X9744478Y-5853738D02*
X9696859Y-5901357D01*
X9696859Y-5901357D02*
X9649240Y-5996595D01*
X9649240Y-5996595D02*
X9649240Y-6139452D01*
X9649240Y-6139452D02*
X9696859Y-6234690D01*
X9696859Y-6234690D02*
X9744478Y-6282309D01*
X9744478Y-6282309D02*
X9839716Y-6329928D01*
X9839716Y-6329928D02*
X10220668Y-6329928D01*
X9315906Y-5806119D02*
X8649240Y-6806119D01*
X8649240Y-5806119D02*
X9315906Y-6806119D01*
X9649240Y813880D02*
X9982573Y1290071D01*
X10220668Y813880D02*
X10220668Y1813880D01*
X10220668Y1813880D02*
X9839716Y1813880D01*
X9839716Y1813880D02*
X9744478Y1766261D01*
X9744478Y1766261D02*
X9696859Y1718642D01*
X9696859Y1718642D02*
X9649240Y1623404D01*
X9649240Y1623404D02*
X9649240Y1480547D01*
X9649240Y1480547D02*
X9696859Y1385309D01*
X9696859Y1385309D02*
X9744478Y1337690D01*
X9744478Y1337690D02*
X9839716Y1290071D01*
X9839716Y1290071D02*
X10220668Y1290071D01*
X9268287Y861500D02*
X9125430Y813880D01*
X9125430Y813880D02*
X8887335Y813880D01*
X8887335Y813880D02*
X8792097Y861500D01*
X8792097Y861500D02*
X8744478Y909119D01*
X8744478Y909119D02*
X8696859Y1004357D01*
X8696859Y1004357D02*
X8696859Y1099595D01*
X8696859Y1099595D02*
X8744478Y1194833D01*
X8744478Y1194833D02*
X8792097Y1242452D01*
X8792097Y1242452D02*
X8887335Y1290071D01*
X8887335Y1290071D02*
X9077811Y1337690D01*
X9077811Y1337690D02*
X9173049Y1385309D01*
X9173049Y1385309D02*
X9220668Y1432928D01*
X9220668Y1432928D02*
X9268287Y1528166D01*
X9268287Y1528166D02*
X9268287Y1623404D01*
X9268287Y1623404D02*
X9220668Y1718642D01*
X9220668Y1718642D02*
X9173049Y1766261D01*
X9173049Y1766261D02*
X9077811Y1813880D01*
X9077811Y1813880D02*
X8839716Y1813880D01*
X8839716Y1813880D02*
X8696859Y1766261D01*
X8411144Y1813880D02*
X7839716Y1813880D01*
X8125430Y813880D02*
X8125430Y1813880D01*
X10188906Y6893880D02*
X9569859Y6893880D01*
X9569859Y6893880D02*
X9903192Y6512928D01*
X9903192Y6512928D02*
X9760335Y6512928D01*
X9760335Y6512928D02*
X9665097Y6465309D01*
X9665097Y6465309D02*
X9617478Y6417690D01*
X9617478Y6417690D02*
X9569859Y6322452D01*
X9569859Y6322452D02*
X9569859Y6084357D01*
X9569859Y6084357D02*
X9617478Y5989119D01*
X9617478Y5989119D02*
X9665097Y5941500D01*
X9665097Y5941500D02*
X9760335Y5893880D01*
X9760335Y5893880D02*
X10046049Y5893880D01*
X10046049Y5893880D02*
X10141287Y5941500D01*
X10141287Y5941500D02*
X10188906Y5989119D01*
X9236525Y6560547D02*
X8998430Y5893880D01*
X8998430Y5893880D02*
X8760335Y6560547D01*
X8188906Y6893880D02*
X8093668Y6893880D01*
X8093668Y6893880D02*
X7998430Y6846261D01*
X7998430Y6846261D02*
X7950811Y6798642D01*
X7950811Y6798642D02*
X7903192Y6703404D01*
X7903192Y6703404D02*
X7855573Y6512928D01*
X7855573Y6512928D02*
X7855573Y6274833D01*
X7855573Y6274833D02*
X7903192Y6084357D01*
X7903192Y6084357D02*
X7950811Y5989119D01*
X7950811Y5989119D02*
X7998430Y5941500D01*
X7998430Y5941500D02*
X8093668Y5893880D01*
X8093668Y5893880D02*
X8188906Y5893880D01*
X8188906Y5893880D02*
X8284144Y5941500D01*
X8284144Y5941500D02*
X8331763Y5989119D01*
X8331763Y5989119D02*
X8379382Y6084357D01*
X8379382Y6084357D02*
X8427001Y6274833D01*
X8427001Y6274833D02*
X8427001Y6512928D01*
X8427001Y6512928D02*
X8379382Y6703404D01*
X8379382Y6703404D02*
X8331763Y6798642D01*
X8331763Y6798642D02*
X8284144Y6846261D01*
X8284144Y6846261D02*
X8188906Y6893880D01*
D13*
%TO.C,G\u002A\u002A\u002A*%
G36*
X7117106Y-9581587D02*
G01*
X7182320Y-9632243D01*
X7195369Y-9642732D01*
X7243579Y-9684426D01*
X7301897Y-9737766D01*
X7360479Y-9793823D01*
X7384966Y-9818104D01*
X7430548Y-9866255D01*
X7457427Y-9901957D01*
X7470189Y-9932107D01*
X7473423Y-9963603D01*
X7471298Y-9985030D01*
X7470419Y-9993895D01*
X7443296Y-10048083D01*
X7389761Y-10082289D01*
X7369176Y-10087169D01*
X7306791Y-10081061D01*
X7239234Y-10050317D01*
X7171968Y-9999577D01*
X7110454Y-9933480D01*
X7060156Y-9856665D01*
X7041141Y-9809781D01*
X7142590Y-9809781D01*
X7149269Y-9844241D01*
X7163618Y-9893022D01*
X7172327Y-9917176D01*
X7201686Y-9971333D01*
X7239788Y-10002867D01*
X7241250Y-10003620D01*
X7278172Y-10020213D01*
X7301084Y-10026324D01*
X7302301Y-10026198D01*
X7341344Y-10012174D01*
X7356295Y-9985030D01*
X7347379Y-9968912D01*
X7319589Y-9938166D01*
X7279842Y-9900190D01*
X7235249Y-9861175D01*
X7192923Y-9827310D01*
X7159975Y-9804788D01*
X7143517Y-9799800D01*
X7142590Y-9809781D01*
X7041141Y-9809781D01*
X7026536Y-9773772D01*
X7022814Y-9760588D01*
X7006448Y-9712543D01*
X6985534Y-9678293D01*
X6951984Y-9647563D01*
X6897713Y-9610077D01*
X6795755Y-9543009D01*
X6785179Y-9593588D01*
X6761226Y-9654967D01*
X6718335Y-9696153D01*
X6662362Y-9709007D01*
X6598048Y-9691060D01*
X6573588Y-9674846D01*
X6531000Y-9640323D01*
X6484361Y-9597783D01*
X6407223Y-9523173D01*
X6397203Y-9573273D01*
X6383964Y-9607767D01*
X6349803Y-9635237D01*
X6335321Y-9637817D01*
X6308607Y-9630777D01*
X6278952Y-9605944D01*
X6243669Y-9560130D01*
X6200073Y-9490149D01*
X6145479Y-9392816D01*
X6116673Y-9341425D01*
X6082824Y-9285155D01*
X6430417Y-9285155D01*
X6462493Y-9340456D01*
X6476575Y-9362564D01*
X6514540Y-9414087D01*
X6557098Y-9464897D01*
X6619626Y-9534035D01*
X6592999Y-9467105D01*
X6582905Y-9442504D01*
X6557948Y-9393456D01*
X6527433Y-9357564D01*
X6480712Y-9320968D01*
X6430417Y-9285155D01*
X6082824Y-9285155D01*
X6082692Y-9284935D01*
X6056032Y-9245331D01*
X6040776Y-9229002D01*
X6039255Y-9228879D01*
X6023091Y-9244185D01*
X6000426Y-9282574D01*
X5975663Y-9336756D01*
X5930358Y-9445767D01*
X5884431Y-9549712D01*
X5845707Y-9627726D01*
X5812244Y-9682946D01*
X5782100Y-9718507D01*
X5753334Y-9737543D01*
X5724005Y-9743192D01*
X5690437Y-9738614D01*
X5665138Y-9716465D01*
X5662122Y-9673430D01*
X5680504Y-9606732D01*
X5689025Y-9583377D01*
X5740358Y-9449608D01*
X5789920Y-9331766D01*
X5835827Y-9233904D01*
X5876197Y-9160078D01*
X5909147Y-9114343D01*
X5964216Y-9069995D01*
X6023607Y-9054282D01*
X6084427Y-9071719D01*
X6147924Y-9122347D01*
X6165729Y-9140340D01*
X6197830Y-9168063D01*
X6219879Y-9175499D01*
X6239934Y-9166517D01*
X6257552Y-9145012D01*
X6268680Y-9104674D01*
X6275471Y-9065793D01*
X6305828Y-9034052D01*
X6361581Y-9023693D01*
X6373932Y-9024265D01*
X6443304Y-9046662D01*
X6517066Y-9101045D01*
X6594046Y-9186593D01*
X6650103Y-9246860D01*
X6732077Y-9317079D01*
X6833404Y-9391248D01*
X7004912Y-9508394D01*
X7004912Y-9460635D01*
X7006847Y-9432717D01*
X7013552Y-9376378D01*
X7023921Y-9303346D01*
X7036770Y-9222468D01*
X7042846Y-9186238D01*
X7060085Y-9083454D01*
X7072155Y-9007875D01*
X7079022Y-8954976D01*
X7080649Y-8920229D01*
X7077003Y-8899108D01*
X7068049Y-8887084D01*
X7053751Y-8879632D01*
X7034075Y-8872224D01*
X7032901Y-8871757D01*
X6930715Y-8829572D01*
X6822354Y-8782198D01*
X6713114Y-8732217D01*
X6608288Y-8682207D01*
X6513172Y-8634750D01*
X6433061Y-8592427D01*
X6373249Y-8557817D01*
X6339033Y-8533500D01*
X6314738Y-8501646D01*
X6304500Y-8459878D01*
X6316206Y-8425262D01*
X6349081Y-8407487D01*
X6376186Y-8407435D01*
X6407645Y-8418093D01*
X6407939Y-8418318D01*
X6429299Y-8429915D01*
X6475359Y-8452485D01*
X6540529Y-8483444D01*
X6619218Y-8520211D01*
X6705836Y-8560205D01*
X6794793Y-8600843D01*
X6880498Y-8639544D01*
X6957361Y-8673725D01*
X7019792Y-8700806D01*
X7076503Y-8724903D01*
X7065842Y-8658238D01*
X7063966Y-8647003D01*
X7054176Y-8598323D01*
X7044989Y-8565011D01*
X7042745Y-8548576D01*
X7061256Y-8538449D01*
X7067657Y-8539332D01*
X7096578Y-8562937D01*
X7126314Y-8616829D01*
X7155394Y-8698509D01*
X7156156Y-8701058D01*
X7167275Y-8732884D01*
X7182367Y-8755622D01*
X7208322Y-8774349D01*
X7252027Y-8794142D01*
X7320372Y-8820076D01*
X7375313Y-8839589D01*
X7467980Y-8870490D01*
X7568904Y-8902425D01*
X7664250Y-8930933D01*
X7752629Y-8957604D01*
X7824746Y-8983531D01*
X7869297Y-9006759D01*
X7889071Y-9029370D01*
X7886856Y-9053444D01*
X7865443Y-9081062D01*
X7844362Y-9095814D01*
X7802696Y-9107334D01*
X7772231Y-9104230D01*
X7712001Y-9092902D01*
X7634559Y-9075240D01*
X7548044Y-9053323D01*
X7460597Y-9029232D01*
X7380358Y-9005046D01*
X7315465Y-8982844D01*
X7309623Y-8980652D01*
X7253060Y-8960103D01*
X7209803Y-8945553D01*
X7188807Y-8940030D01*
X7187910Y-8940310D01*
X7180514Y-8959378D01*
X7173271Y-9002491D01*
X7167628Y-9061341D01*
X7163978Y-9109332D01*
X7156671Y-9193682D01*
X7147697Y-9288895D01*
X7138234Y-9382119D01*
X7122143Y-9534035D01*
X7117106Y-9581587D01*
G37*
G36*
X7155660Y-11364098D02*
G01*
X7192326Y-11415323D01*
X7205703Y-11453776D01*
X7207362Y-11467656D01*
X7216361Y-11487778D01*
X7235807Y-11511666D01*
X7268632Y-11541733D01*
X7317771Y-11580396D01*
X7386156Y-11630069D01*
X7476723Y-11693166D01*
X7592403Y-11772103D01*
X7668814Y-11822127D01*
X7753106Y-11874145D01*
X7837830Y-11923806D01*
X7917280Y-11967944D01*
X7985753Y-12003392D01*
X8037546Y-12026983D01*
X8066952Y-12035551D01*
X8076716Y-12022719D01*
X8071232Y-11986049D01*
X8051399Y-11930580D01*
X8018619Y-11861359D01*
X7980684Y-11793619D01*
X7927736Y-11710859D01*
X7862506Y-11619782D01*
X7783001Y-11517929D01*
X7687227Y-11402842D01*
X7573190Y-11272062D01*
X7438896Y-11123132D01*
X7282352Y-10953593D01*
X7279288Y-10950304D01*
X7174987Y-10836759D01*
X7092771Y-10743429D01*
X7030594Y-10667474D01*
X6986409Y-10606057D01*
X6958168Y-10556337D01*
X6943825Y-10515476D01*
X6941332Y-10480635D01*
X6943290Y-10460656D01*
X6951486Y-10432951D01*
X6973181Y-10420760D01*
X7018346Y-10415672D01*
X7067251Y-10419226D01*
X7150218Y-10443629D01*
X7255748Y-10490596D01*
X7384341Y-10560357D01*
X7536500Y-10653141D01*
X7672366Y-10741966D01*
X7796578Y-10828951D01*
X7895114Y-10904982D01*
X7966867Y-10969143D01*
X8010730Y-11020517D01*
X8025597Y-11058189D01*
X8023132Y-11081496D01*
X8011833Y-11097731D01*
X7988627Y-11099566D01*
X7950544Y-11085865D01*
X7894610Y-11055488D01*
X7817854Y-11007299D01*
X7717305Y-10940159D01*
X7670089Y-10908351D01*
X7568077Y-10841120D01*
X7468236Y-10777148D01*
X7374823Y-10719018D01*
X7292097Y-10669312D01*
X7224315Y-10630611D01*
X7175736Y-10605497D01*
X7150618Y-10596552D01*
X7147076Y-10598953D01*
X7152515Y-10612926D01*
X7172526Y-10640841D01*
X7208564Y-10684378D01*
X7262085Y-10745216D01*
X7334543Y-10825035D01*
X7427394Y-10925513D01*
X7542093Y-11048331D01*
X7590888Y-11100703D01*
X7760949Y-11289167D01*
X7904314Y-11458525D01*
X8021262Y-11609257D01*
X8112071Y-11741839D01*
X8177019Y-11856749D01*
X8216386Y-11954466D01*
X8230448Y-12035466D01*
X8219486Y-12100227D01*
X8183776Y-12149227D01*
X8153859Y-12171283D01*
X8115685Y-12183384D01*
X8062200Y-12181419D01*
X8051465Y-12179868D01*
X7982049Y-12160026D01*
X7891675Y-12122089D01*
X7784591Y-12068515D01*
X7665044Y-12001759D01*
X7537278Y-11924278D01*
X7405541Y-11838529D01*
X7274079Y-11746967D01*
X7147139Y-11652051D01*
X7137648Y-11644822D01*
X7069107Y-11597516D01*
X6988331Y-11547680D01*
X6910848Y-11504980D01*
X6892938Y-11495802D01*
X6818537Y-11456391D01*
X6747720Y-11417144D01*
X6693716Y-11385352D01*
X6658239Y-11364337D01*
X6622302Y-11345960D01*
X6605707Y-11341563D01*
X6605259Y-11349452D01*
X6610132Y-11384063D01*
X6620745Y-11439278D01*
X6635769Y-11507746D01*
X6652123Y-11584632D01*
X6661507Y-11653007D01*
X6659191Y-11700009D01*
X6644761Y-11731240D01*
X6617808Y-11752304D01*
X6612121Y-11755084D01*
X6572730Y-11758689D01*
X6534006Y-11733089D01*
X6494578Y-11676923D01*
X6453075Y-11588831D01*
X6404836Y-11473079D01*
X6364563Y-11380138D01*
X6334484Y-11315633D01*
X6313888Y-11278045D01*
X6302063Y-11265854D01*
X6299355Y-11267248D01*
X6289409Y-11289681D01*
X6281106Y-11330816D01*
X6271942Y-11382812D01*
X6249168Y-11445666D01*
X6214568Y-11482333D01*
X6165321Y-11496856D01*
X6104031Y-11501970D01*
X5983723Y-11300769D01*
X5970121Y-11278133D01*
X5925905Y-11206087D01*
X5887368Y-11145530D01*
X5858256Y-11102255D01*
X5842317Y-11082058D01*
X5836150Y-11080570D01*
X5833637Y-11099453D01*
X5839906Y-11146085D01*
X5855160Y-11222681D01*
X5855705Y-11225224D01*
X5870858Y-11298309D01*
X5878735Y-11346855D01*
X5879563Y-11378709D01*
X5873569Y-11401718D01*
X5860982Y-11423729D01*
X5854755Y-11432557D01*
X5814647Y-11464269D01*
X5767776Y-11464069D01*
X5715089Y-11432479D01*
X5657532Y-11370024D01*
X5596050Y-11277227D01*
X5591480Y-11269519D01*
X5548206Y-11203157D01*
X5502023Y-11141482D01*
X5462183Y-11096954D01*
X5444946Y-11078652D01*
X5410640Y-11031979D01*
X5370371Y-10964648D01*
X5322105Y-10873140D01*
X5263806Y-10753937D01*
X5212669Y-10646818D01*
X5159463Y-10535888D01*
X5117952Y-10450182D01*
X5086714Y-10386870D01*
X5064326Y-10343121D01*
X5049364Y-10316107D01*
X5040406Y-10302998D01*
X5036030Y-10300963D01*
X5034778Y-10307155D01*
X5035945Y-10338413D01*
X5041219Y-10385835D01*
X5042953Y-10396525D01*
X5069505Y-10477754D01*
X5119277Y-10568444D01*
X5207171Y-10715830D01*
X5275893Y-10864338D01*
X5321698Y-11013234D01*
X5347410Y-11171849D01*
X5355858Y-11349516D01*
X5355778Y-11396425D01*
X5352442Y-11504764D01*
X5343876Y-11584935D01*
X5329246Y-11640643D01*
X5307719Y-11675592D01*
X5278462Y-11693485D01*
X5269271Y-11695764D01*
X5234408Y-11689809D01*
X5203698Y-11657286D01*
X5175571Y-11595896D01*
X5148456Y-11503343D01*
X5146326Y-11494860D01*
X5129175Y-11428823D01*
X5105295Y-11339430D01*
X5076732Y-11234219D01*
X5045529Y-11120729D01*
X5013730Y-11006499D01*
X5004116Y-10972086D01*
X4974929Y-10866232D01*
X4948750Y-10769289D01*
X4927116Y-10687074D01*
X4911568Y-10625407D01*
X4903642Y-10590108D01*
X4900063Y-10574440D01*
X4880897Y-10530274D01*
X4844473Y-10479211D01*
X4786221Y-10414417D01*
X4680403Y-10303732D01*
X4719795Y-10445959D01*
X4721124Y-10450725D01*
X4742856Y-10524135D01*
X4771962Y-10616746D01*
X4804798Y-10717183D01*
X4837720Y-10814075D01*
X4860460Y-10881385D01*
X4894020Y-10993302D01*
X4915083Y-11086452D01*
X4925451Y-11168116D01*
X4927940Y-11204801D01*
X4929604Y-11257520D01*
X4925315Y-11291220D01*
X4913176Y-11315415D01*
X4891292Y-11339624D01*
X4860625Y-11364062D01*
X4803032Y-11382569D01*
X4735567Y-11372949D01*
X4656220Y-11334762D01*
X4562985Y-11267567D01*
X4557011Y-11262743D01*
X4518218Y-11233729D01*
X4500472Y-11226553D01*
X4501026Y-11239992D01*
X4502011Y-11242919D01*
X4509371Y-11278985D01*
X4516988Y-11335885D01*
X4523362Y-11402684D01*
X4525058Y-11497115D01*
X4510368Y-11593635D01*
X4477617Y-11665117D01*
X4427411Y-11709622D01*
X4392168Y-11724623D01*
X4340282Y-11732741D01*
X4278962Y-11724287D01*
X4198656Y-11698809D01*
X4195506Y-11697643D01*
X4151350Y-11678540D01*
X4109251Y-11653324D01*
X4063127Y-11617277D01*
X4006901Y-11565681D01*
X3934490Y-11493817D01*
X3877331Y-11434104D01*
X3797793Y-11345571D01*
X3719367Y-11252715D01*
X3644704Y-11159196D01*
X3576451Y-11068671D01*
X3517260Y-10984800D01*
X3469778Y-10911240D01*
X3436656Y-10851650D01*
X3420542Y-10809688D01*
X3424087Y-10789014D01*
X3432630Y-10785224D01*
X3457053Y-10785657D01*
X3489855Y-10800074D01*
X3532908Y-10830141D01*
X3588083Y-10877529D01*
X3657249Y-10943906D01*
X3742280Y-11030942D01*
X3845044Y-11140304D01*
X3967414Y-11273663D01*
X3997672Y-11306405D01*
X4096138Y-11404821D01*
X4180891Y-11475919D01*
X4251086Y-11519053D01*
X4305882Y-11533574D01*
X4325834Y-11529922D01*
X4338867Y-11515440D01*
X4343820Y-11485777D01*
X4340775Y-11436589D01*
X4329816Y-11363532D01*
X4311023Y-11262264D01*
X4292633Y-11159577D01*
X4281223Y-11070455D01*
X4279565Y-11005102D01*
X4287582Y-10959176D01*
X4305200Y-10928337D01*
X4312618Y-10920645D01*
X4343770Y-10900425D01*
X4379318Y-10899540D01*
X4423400Y-10919680D01*
X4480155Y-10962534D01*
X4553724Y-11029793D01*
X4598186Y-11071821D01*
X4668193Y-11134383D01*
X4719846Y-11175100D01*
X4751799Y-11192964D01*
X4762709Y-11186963D01*
X4762650Y-11185496D01*
X4756893Y-11155197D01*
X4742994Y-11099957D01*
X4722759Y-11026074D01*
X4697993Y-10939846D01*
X4670500Y-10847571D01*
X4642086Y-10755547D01*
X4614556Y-10670070D01*
X4606944Y-10646837D01*
X4565665Y-10511888D01*
X4533865Y-10391468D01*
X4512423Y-10289656D01*
X4502219Y-10210528D01*
X4504132Y-10158161D01*
X4506388Y-10149506D01*
X4535165Y-10101080D01*
X4580938Y-10072327D01*
X4633669Y-10070071D01*
X4635453Y-10070569D01*
X4669738Y-10088155D01*
X4717614Y-10121629D01*
X4769301Y-10164202D01*
X4863147Y-10247845D01*
X4863147Y-10141468D01*
X4864057Y-10106826D01*
X4876680Y-10028367D01*
X4904253Y-9979717D01*
X4946916Y-9960709D01*
X5004806Y-9971179D01*
X5016298Y-9978270D01*
X5049579Y-10013300D01*
X5092107Y-10071310D01*
X5140589Y-10147278D01*
X5191729Y-10236184D01*
X5242233Y-10333007D01*
X5265728Y-10380147D01*
X5294732Y-10437410D01*
X5315853Y-10477965D01*
X5325662Y-10495147D01*
X5337577Y-10489840D01*
X5358757Y-10464913D01*
X5364541Y-10457413D01*
X5401779Y-10434138D01*
X5443576Y-10441688D01*
X5484402Y-10479424D01*
X5486749Y-10482987D01*
X5503867Y-10520396D01*
X5526817Y-10583899D01*
X5553904Y-10668040D01*
X5583431Y-10767368D01*
X5613704Y-10876428D01*
X5643028Y-10989767D01*
X5648591Y-11010738D01*
X5654431Y-11021342D01*
X5659502Y-11004937D01*
X5666097Y-10958405D01*
X5672326Y-10924217D01*
X5697071Y-10866007D01*
X5734649Y-10836370D01*
X5783082Y-10834609D01*
X5840394Y-10860025D01*
X5904607Y-10911922D01*
X5973744Y-10989601D01*
X6045827Y-11092366D01*
X6061789Y-11117248D01*
X6094733Y-11166398D01*
X6118813Y-11199222D01*
X6129682Y-11209639D01*
X6132175Y-11205071D01*
X6142602Y-11176451D01*
X6156366Y-11131843D01*
X6178331Y-11078481D01*
X6216535Y-11030014D01*
X6261540Y-11005915D01*
X6307831Y-11010600D01*
X6324826Y-11021739D01*
X6361042Y-11057769D01*
X6396160Y-11104873D01*
X6400229Y-11111212D01*
X6435078Y-11157419D01*
X6459143Y-11172770D01*
X6471815Y-11157216D01*
X6472103Y-11137199D01*
X6592037Y-11137199D01*
X6601582Y-11149848D01*
X6634562Y-11174273D01*
X6692865Y-11212057D01*
X6778382Y-11264782D01*
X6837405Y-11300257D01*
X6905759Y-11339347D01*
X6947033Y-11359671D01*
X6961538Y-11361333D01*
X6949586Y-11344437D01*
X6911488Y-11309086D01*
X6900448Y-11299646D01*
X6830171Y-11246108D01*
X6754834Y-11197571D01*
X6684298Y-11159957D01*
X6628430Y-11139185D01*
X6604039Y-11134746D01*
X6592037Y-11137199D01*
X6472103Y-11137199D01*
X6472484Y-11110712D01*
X6475165Y-11070775D01*
X6500258Y-11032324D01*
X6548141Y-11014284D01*
X6616503Y-11016837D01*
X6703032Y-11040165D01*
X6805416Y-11084452D01*
X6880003Y-11127340D01*
X6957876Y-11181722D01*
X7033240Y-11242505D01*
X7100900Y-11304894D01*
X7153103Y-11361333D01*
X7155660Y-11364098D01*
G37*
D14*
%TO.C,TP5*%
X12634000Y6350000D02*
G75*
G02*
X10734000Y6350000I-950000J0D01*
G01*
X10734000Y6350000D02*
G75*
G02*
X12634000Y6350000I950000J0D01*
G01*
%TO.C,TP1*%
X12634000Y-3810000D02*
G75*
G02*
X10734000Y-3810000I-950000J0D01*
G01*
X10734000Y-3810000D02*
G75*
G02*
X12634000Y-3810000I950000J0D01*
G01*
%TO.C,J2*%
X-12000000Y1143000D02*
G75*
G02*
X-13400000Y1143000I-700000J0D01*
G01*
X-13400000Y1143000D02*
G75*
G02*
X-12000000Y1143000I700000J0D01*
G01*
%TO.C,TP4*%
X12634000Y-1270000D02*
G75*
G02*
X10734000Y-1270000I-950000J0D01*
G01*
X10734000Y-1270000D02*
G75*
G02*
X12634000Y-1270000I950000J0D01*
G01*
%TO.C,TP7*%
X-12000000Y-1143000D02*
G75*
G02*
X-13400000Y-1143000I-700000J0D01*
G01*
X-13400000Y-1143000D02*
G75*
G02*
X-12000000Y-1143000I700000J0D01*
G01*
%TO.C,TP2*%
X12634000Y-6350000D02*
G75*
G02*
X10734000Y-6350000I-950000J0D01*
G01*
X10734000Y-6350000D02*
G75*
G02*
X12634000Y-6350000I950000J0D01*
G01*
%TO.C,J1*%
X-12000000Y3429000D02*
G75*
G02*
X-13400000Y3429000I-700000J0D01*
G01*
X-13400000Y3429000D02*
G75*
G02*
X-12000000Y3429000I700000J0D01*
G01*
%TO.C,TP3*%
X12634000Y1270000D02*
G75*
G02*
X10734000Y1270000I-950000J0D01*
G01*
X10734000Y1270000D02*
G75*
G02*
X12634000Y1270000I950000J0D01*
G01*
%TO.C,TP6*%
X12634000Y3810000D02*
G75*
G02*
X10734000Y3810000I-950000J0D01*
G01*
X10734000Y3810000D02*
G75*
G02*
X12634000Y3810000I950000J0D01*
G01*
%TO.C,TP8*%
X-12000000Y-3429000D02*
G75*
G02*
X-13400000Y-3429000I-700000J0D01*
G01*
X-13400000Y-3429000D02*
G75*
G02*
X-12000000Y-3429000I700000J0D01*
G01*
%TD*%
M02*
