M48
; DRILL file {KiCad 9.0.5} date 2025-12-07T10:21:45-0500
; FORMAT={-:-/ absolute / inch / decimal}
; #@! TF.CreationDate,2025-12-07T10:21:45-05:00
; #@! TF.GenerationSoftware,Kicad,Pcbnew,9.0.5
; #@! TF.FileFunction,Plated,1,2,PTH
FMAT,2
INCH
; #@! TA.AperFunction,Plated,PTH,ViaDrill
T1C0.0098
; #@! TA.AperFunction,Plated,PTH,ComponentDrill
T2C0.0098
%
G90
G05
T1
X-0.6075Y0.0267
X-0.607Y-0.037
X-0.6014Y0.09
X-0.5998Y-0.1002
X-0.5887Y0.1524
X-0.586Y-0.1624
X-0.5696Y0.2131
X-0.5659Y-0.2228
X-0.5442Y0.2715
X-0.5395Y-0.2807
X-0.5128Y0.3269
X-0.5072Y-0.3355
X-0.4758Y0.3787
X-0.4693Y-0.3867
X-0.4337Y0.4263
X-0.4263Y-0.4337
X-0.3867Y0.4693
X-0.3787Y-0.4758
X-0.3578Y-0.4338
X-0.3501Y0.4401
X-0.3355Y0.5072
X-0.3269Y-0.5128
X-0.311Y-0.0379
X-0.293Y-0.1018
X-0.2807Y0.5395
X-0.2715Y-0.5442
X-0.2235Y-0.1408
X-0.2228Y0.5659
X-0.2138Y0.125
X-0.2138Y0.0876
X-0.2131Y-0.5696
X-0.17Y0.21
X-0.1624Y0.586
X-0.162Y-0.2868
X-0.1524Y-0.5887
X-0.144Y-0.0328
X-0.144Y-0.1508
X-0.1432Y-0.0915
X-0.126Y-0.2868
X-0.1002Y0.5998
X-0.09Y-0.6014
X-0.0709Y0.055
X-0.0631Y-0.1211
X-0.055Y0.15
X-0.037Y0.607
X-0.036Y0.0008
X-0.0267Y-0.6075
X-0.0109Y0.055
X-0.0003Y-0.5543
X0.006Y-0.0868
X0.006Y-0.245
X0.006Y-0.319
X0.011Y0.094
X0.0267Y0.6075
X0.032Y-0.2452
X0.037Y-0.607
X0.038Y0.072
X0.0495Y0.1148
X0.052Y0.0499
X0.072Y0.2532
X0.0729Y0.0706
X0.084Y-0.2148
X0.086Y-0.0878
X0.09Y0.6014
X0.096Y-0.1888
X0.1002Y-0.5998
X0.102Y0.0032
X0.109Y-0.2675
X0.149Y0.1228
X0.151Y-0.227
X0.1524Y0.5887
X0.158Y-0.1508
X0.16Y-0.2932
X0.16Y-0.3192
X0.1624Y-0.586
X0.166Y-0.0468
X0.17Y-0.2512
X0.18Y-0.1048
X0.193Y0.072
X0.1972Y-0.1583
X0.2Y0.1152
X0.2109Y0.2261
X0.2131Y0.5696
X0.2228Y-0.5659
X0.227Y-0.155
X0.2713Y-0.0274
X0.2715Y0.5442
X0.2807Y-0.5395
X0.292Y-0.1968
X0.3165Y0.0331
X0.3269Y0.5128
X0.3355Y-0.5072
X0.35Y-0.118
X0.35Y-0.148
X0.3566Y0.4346
X0.3787Y0.4758
X0.3867Y-0.4693
X0.4263Y0.4337
X0.4337Y-0.4263
X0.4693Y0.3867
X0.4758Y-0.3787
X0.5072Y0.3355
X0.5128Y-0.3269
X0.5236Y-0.204
X0.5395Y0.2807
X0.5442Y-0.2715
X0.5659Y0.2228
X0.5696Y-0.2131
X0.586Y0.1624
X0.5887Y-0.1524
X0.5998Y0.1002
X0.6014Y-0.09
X0.607Y0.037
X0.6075Y-0.0267
T2
X-0.0776Y0.36
X0.0877Y0.36
M30
