%TF.GenerationSoftware,KiCad,Pcbnew,9.0.2*%
%TF.CreationDate,2025-07-09T19:39:00-04:00*%
%TF.ProjectId,WristWatch,57726973-7457-4617-9463-682e6b696361,rev?*%
%TF.SameCoordinates,Original*%
%TF.FileFunction,Copper,L2,Bot*%
%TF.FilePolarity,Positive*%
%FSLAX46Y46*%
G04 Gerber Fmt 4.6, Leading zero omitted, Abs format (unit mm)*
G04 Created by KiCad (PCBNEW 9.0.2) date 2025-07-09 19:39:00*
%MOMM*%
%LPD*%
G01*
G04 APERTURE LIST*
%TA.AperFunction,SMDPad,CuDef*%
%ADD10C,1.000000*%
%TD*%
%TA.AperFunction,SMDPad,CuDef*%
%ADD11C,1.500000*%
%TD*%
%TA.AperFunction,ComponentPad*%
%ADD12C,0.600000*%
%TD*%
%TA.AperFunction,ViaPad*%
%ADD13C,0.500000*%
%TD*%
%TA.AperFunction,Conductor*%
%ADD14C,0.150000*%
%TD*%
%TA.AperFunction,Conductor*%
%ADD15C,0.300000*%
%TD*%
%TA.AperFunction,Conductor*%
%ADD16C,0.200000*%
%TD*%
G04 APERTURE END LIST*
%TA.AperFunction,EtchedComponent*%
%TO.C,AE1*%
G36*
X2401000Y9443400D02*
G01*
X-2399000Y9443400D01*
X-2399000Y8843400D01*
X2401000Y8843400D01*
X2401000Y9443400D01*
G37*
%TD.AperFunction*%
%TD*%
D10*
%TO.P,J4,1,Pin_1*%
%TO.N,GND*%
X-12700000Y3810000D03*
%TD*%
%TO.P,J1,1,Pin_1*%
%TO.N,+BATT*%
X-12700000Y-3810000D03*
%TD*%
%TO.P,J3,1,Pin_1*%
%TO.N,VBUS*%
X-12700000Y1270000D03*
%TD*%
D11*
%TO.P,TP3,1,1*%
%TO.N,ESP_BOOT*%
X-10160000Y-5080000D03*
%TD*%
D12*
%TO.P,AE1,1,A*%
%TO.N,Net-(AE1-A)*%
X2101000Y9143400D03*
X-2099000Y9143400D03*
%TD*%
D11*
%TO.P,TP1,1,1*%
%TO.N,ESP_TX*%
X-10160000Y0D03*
%TD*%
%TO.P,TP2,1,1*%
%TO.N,ESP_RX*%
X-10160000Y-2540000D03*
%TD*%
%TO.P,TP6,1,1*%
%TO.N,GND*%
X-10160000Y2540000D03*
%TD*%
D10*
%TO.P,J2,1,Pin_1*%
%TO.N,GND*%
X-12700000Y-1270000D03*
%TD*%
D11*
%TO.P,TP5,1,1*%
%TO.N,+3V0*%
X-10160000Y5080000D03*
%TD*%
D13*
%TO.N,GND*%
X-762000Y6858000D03*
X-5969000Y-1651000D03*
X2667000Y5715000D03*
X5447587Y759600D03*
X990600Y2946400D03*
X9056576Y11037776D03*
X-6197600Y1651000D03*
X-660400Y-660400D03*
X-2512000Y-3909000D03*
X660400Y660400D03*
X-3683000Y-480000D03*
X-7871250Y-1648250D03*
X-8891785Y11177785D03*
X-431800Y-5511800D03*
X4301394Y-778606D03*
X660400Y-660400D03*
X13300618Y-5181600D03*
X-7883950Y1635550D03*
X2667000Y3937000D03*
X3048000Y-3302000D03*
X-660400Y660400D03*
X-9088782Y-11019182D03*
%TO.N,VLED*%
X12882306Y8522791D03*
X-14953613Y3870559D03*
X2546251Y-15235104D03*
X2286278Y15276279D03*
X-13702610Y-7129534D03*
X14885489Y4124804D03*
X-7129534Y13702610D03*
X-13822106Y6895009D03*
X-5658165Y14372785D03*
X-13025663Y8302041D03*
X-12882306Y-8522791D03*
X13822106Y-6895009D03*
X-11920862Y-9822670D03*
X15417800Y939800D03*
X-6731000Y-4445000D03*
X-676947Y-15431576D03*
X15235104Y2546251D03*
X-15235104Y-2546251D03*
X13702610Y7129534D03*
X-8522791Y12882306D03*
X5412434Y14467112D03*
X-5412434Y-14467112D03*
X9618114Y12086507D03*
X14372785Y5658165D03*
X-10828809Y-11014929D03*
X-8302041Y-13025663D03*
X13025663Y-8302041D03*
X-14885489Y-4124804D03*
X8522791Y-12882306D03*
X11920862Y9822670D03*
X6895009Y13822106D03*
X-15417800Y-939800D03*
X5658165Y-14372785D03*
X12086507Y-9618114D03*
X4124804Y-14885489D03*
X-2286278Y-15276279D03*
X-15431576Y676947D03*
X-15276279Y2286278D03*
X-939800Y15417800D03*
X14953613Y-3870559D03*
X9822670Y-11920862D03*
X-14467112Y5412434D03*
X-6895009Y-13822106D03*
X-2546251Y15235104D03*
X-3870559Y-14953613D03*
X15276279Y-2286278D03*
X11014929Y-10828809D03*
X14467112Y-5412434D03*
X-11014929Y10828809D03*
X10828809Y11014929D03*
X676947Y15431576D03*
X-9822670Y11920862D03*
X-14372785Y-5658165D03*
X939800Y-15417800D03*
X-12086507Y9618114D03*
X-9618114Y-12086507D03*
X8302041Y13025663D03*
X15431576Y-676947D03*
X3870559Y14953613D03*
X-4124804Y14885489D03*
X7129534Y-13702610D03*
%TO.N,LED_DATA*%
X-7415Y-14078176D03*
X-2286000Y-2260600D03*
%TO.N,IMU_SPAR_INT*%
X2413000Y-5080000D03*
X-2286000Y2286000D03*
%TO.N,IMU_MOVE_INT*%
X-1637236Y1649915D03*
X254000Y-4905002D03*
%TO.N,VBUS*%
X-5593500Y701000D03*
%TO.N,+BATT*%
X-7868500Y-685800D03*
%TO.N,+3V0*%
X-1778000Y-6223000D03*
X1270000Y-5842500D03*
X-5593500Y-701000D03*
X1016000Y-3302000D03*
X-3683000Y480000D03*
X-1498600Y-2286000D03*
%TO.N,unconnected-(U6-MTDI-Pad10)*%
X-2977476Y1619924D03*
%TO.N,ESP_TX*%
X1328400Y177800D03*
%TO.N,ESP_RX*%
X1324999Y-490552D03*
%TO.N,ESP_BOOT*%
X-4013200Y-1973600D03*
%TO.N,LED_PWR_EN*%
X-4572000Y-4955000D03*
X-750000Y1752600D03*
%TD*%
D14*
%TO.N,LED_PWR_EN*%
X-2286000Y-1524000D02*
X1562166Y-1524000D01*
X571044Y1752600D02*
X-750000Y1752600D01*
X-4572000Y-4955000D02*
X-4447000Y-4955000D01*
X-4447000Y-4955000D02*
X-3352800Y-3860800D01*
X-3352800Y-3860800D02*
X-3352800Y-2590800D01*
X1803400Y520244D02*
X571044Y1752600D01*
X-3352800Y-2590800D02*
X-2286000Y-1524000D01*
X1562166Y-1524000D02*
X1803400Y-1282766D01*
X1803400Y-1282766D02*
X1803400Y520244D01*
%TO.N,IMU_SPAR_INT*%
X-2286000Y2286000D02*
X-1810000Y2762000D01*
X-1810000Y2762000D02*
X413000Y2762000D01*
X413000Y2762000D02*
X2463800Y711200D01*
X2463800Y711200D02*
X2463800Y-5029200D01*
X2463800Y-5029200D02*
X2413000Y-5080000D01*
D15*
%TO.N,+3V0*%
X-1498600Y-2286000D02*
X0Y-2286000D01*
X0Y-2286000D02*
X1016000Y-3302000D01*
%TO.N,VLED*%
X-11920862Y-9822670D02*
X-12882307Y-8522791D01*
X5658166Y-14372785D02*
X4124804Y-14885489D01*
X15417800Y939800D02*
X15431575Y-676948D01*
X9822670Y-11920862D02*
X8522791Y-12882307D01*
X14372785Y5658166D02*
X14885489Y4124804D01*
X-14885489Y-4124804D02*
X-15235104Y-2546250D01*
X-676947Y-15431576D02*
X-2286278Y-15276280D01*
X2546251Y-15235104D02*
X939800Y-15417800D01*
X15276280Y-2286277D02*
X14953614Y-3870559D01*
X-4124804Y14885489D02*
X-2546250Y15235104D01*
X9618114Y12086508D02*
X10828809Y11014930D01*
X-5658166Y14372785D02*
X-4124804Y14885489D01*
X8522791Y-12882306D02*
X7129534Y-13702610D01*
X-5412434Y-14467113D02*
X-6895009Y-13822107D01*
X14885489Y4124804D02*
X15235104Y2546250D01*
X-12086508Y9618114D02*
X-11014930Y10828809D01*
X13702610Y7129535D02*
X14372785Y5658165D01*
X2286277Y15276280D02*
X3870559Y14953614D01*
X15431576Y-676947D02*
X15276280Y-2286278D01*
X-6731000Y-4445000D02*
X-6731000Y-4632808D01*
X-939800Y15417800D02*
X0Y15425807D01*
X-2546251Y15235104D02*
X-939800Y15417800D01*
X-2286277Y-15276280D02*
X-3870559Y-14953614D01*
X5412434Y14467113D02*
X6895009Y13822107D01*
X-13702610Y-7129535D02*
X-14372785Y-5658165D01*
X-15431576Y676947D02*
X-15276280Y2286278D01*
X-13822107Y6895009D02*
X-13025663Y8302041D01*
X-11014930Y10828809D02*
X-9822670Y11920861D01*
X14953614Y-3870559D02*
X14467113Y-5412434D01*
X-10828809Y-11014930D02*
X-11920861Y-9822670D01*
X8302041Y13025663D02*
X9618114Y12086507D01*
X12882306Y8522791D02*
X13702610Y7129534D01*
X-14953614Y3870559D02*
X-14467113Y5412434D01*
X11014930Y-10828809D02*
X9822670Y-11920861D01*
X-6731000Y-4632808D02*
X-11920862Y-9822670D01*
X14467113Y-5412434D02*
X13822107Y-6895009D01*
X-12882306Y-8522791D02*
X-13702610Y-7129534D01*
X0Y15425807D02*
X676948Y15431575D01*
X10828809Y11014930D02*
X11920861Y9822670D01*
X12086508Y-9618114D02*
X11014930Y-10828809D01*
X-14372785Y-5658166D02*
X-14885489Y-4124804D01*
X-9822670Y11920862D02*
X-8522791Y12882307D01*
X4124804Y-14885489D02*
X2546250Y-15235104D01*
X-3870559Y-14953614D02*
X-5412434Y-14467113D01*
X-8302041Y-13025663D02*
X-9618114Y-12086507D01*
X11920862Y9822670D02*
X12882307Y8522791D01*
X-15417800Y-939800D02*
X-15431575Y676948D01*
X939800Y-15417800D02*
X-676948Y-15431575D01*
X7129535Y-13702610D02*
X5658165Y-14372785D01*
X-7129535Y13702610D02*
X-5658165Y14372785D01*
X-9618114Y-12086508D02*
X-10828809Y-11014930D01*
X13822107Y-6895009D02*
X13025663Y-8302041D01*
X-15235104Y-2546251D02*
X-15417800Y-939800D01*
X-13025663Y8302041D02*
X-12086507Y9618114D01*
X13025663Y-8302041D02*
X12086507Y-9618114D01*
X-14467113Y5412434D02*
X-13822107Y6895009D01*
X15235104Y2546251D02*
X15417800Y939800D01*
X3870559Y14953614D02*
X5412434Y14467113D01*
X676947Y15431576D02*
X2286278Y15276280D01*
X-15276280Y2286277D02*
X-14953614Y3870559D01*
X6895009Y13822107D02*
X8302041Y13025663D01*
X-8522791Y12882306D02*
X-7129534Y13702610D01*
X-6895009Y-13822107D02*
X-8302041Y-13025663D01*
D14*
%TO.N,LED_DATA*%
X-2286000Y-2260600D02*
X-3048000Y-3022600D01*
X-3048000Y-11037591D02*
X-7415Y-14078176D01*
X-3048000Y-3022600D02*
X-3048000Y-11037591D01*
%TO.N,IMU_MOVE_INT*%
X2104400Y644922D02*
X2104400Y-3054602D01*
X-1058551Y2228600D02*
X520722Y2228600D01*
X520722Y2228600D02*
X2104400Y644922D01*
X-1637236Y1649915D02*
X-1058551Y2228600D01*
X2104400Y-3054602D02*
X254000Y-4905002D01*
D15*
%TO.N,VBUS*%
X-5593500Y701000D02*
X-8168600Y701000D01*
X-8737600Y1270000D02*
X-12700000Y1270000D01*
X-8168600Y701000D02*
X-8737600Y1270000D01*
D16*
%TO.N,+BATT*%
X-12700000Y-3073400D02*
X-12700000Y-3810000D01*
X-7868500Y-685800D02*
X-8198700Y-1016000D01*
X-10642600Y-1016000D02*
X-12700000Y-3073400D01*
X-8198700Y-1016000D02*
X-10642600Y-1016000D01*
D15*
%TO.N,+3V0*%
X-1498600Y-2286000D02*
X-1498600Y-5943600D01*
X-1303200Y-6139000D02*
X-1498600Y-5943600D01*
X-4864000Y-701000D02*
X-3683000Y480000D01*
X-5593500Y-701000D02*
X-4864000Y-701000D01*
X973500Y-6139000D02*
X-1303200Y-6139000D01*
X1270000Y-5842500D02*
X973500Y-6139000D01*
X-1498600Y-5943600D02*
X-1778000Y-6223000D01*
D14*
%TO.N,ESP_TX*%
X-5773866Y-1193800D02*
X-6967666Y0D01*
X-1578600Y-461000D02*
X-2990834Y-461000D01*
X1328400Y177800D02*
X-939800Y177800D01*
X-939800Y177800D02*
X-1578600Y-461000D01*
X-6967666Y0D02*
X-10160000Y0D01*
X-3723634Y-1193800D02*
X-5773866Y-1193800D01*
X-2990834Y-461000D02*
X-3723634Y-1193800D01*
%TO.N,ESP_RX*%
X-3556000Y-1498600D02*
X-4800600Y-1498600D01*
X1131234Y-298200D02*
X1017434Y-184400D01*
X1132647Y-298200D02*
X1131234Y-298200D01*
X-5842000Y-2540000D02*
X-10160000Y-2540000D01*
X-1447800Y-762000D02*
X-2819400Y-762000D01*
X-870200Y-184400D02*
X-1447800Y-762000D01*
X1017434Y-184400D02*
X-870200Y-184400D01*
X1324999Y-490552D02*
X1132647Y-298200D01*
X-4800600Y-1498600D02*
X-5842000Y-2540000D01*
X-2819400Y-762000D02*
X-3556000Y-1498600D01*
%TO.N,ESP_BOOT*%
X-4013200Y-1973600D02*
X-5341600Y-3302000D01*
X-8382000Y-3302000D02*
X-10160000Y-5080000D01*
X-5341600Y-3302000D02*
X-8382000Y-3302000D01*
D15*
%TO.N,+3V0*%
X-10160000Y5080000D02*
X-8283000Y5080000D01*
X-8283000Y5080000D02*
X-3683000Y480000D01*
%TD*%
%TA.AperFunction,Conductor*%
%TO.N,GND*%
G36*
X8498985Y12485242D02*
G01*
X9184320Y11996182D01*
X9212813Y11955101D01*
X9221610Y11922270D01*
X9221611Y11922268D01*
X9277629Y11825243D01*
X9356850Y11746022D01*
X9453872Y11690006D01*
X9453881Y11690002D01*
X9562093Y11661007D01*
X9562096Y11661007D01*
X9579693Y11661007D01*
X9628738Y11642420D01*
X10387360Y10970968D01*
X10409793Y10934708D01*
X10432304Y10850695D01*
X10432306Y10850690D01*
X10488324Y10753665D01*
X10567545Y10674444D01*
X10664567Y10618428D01*
X10664576Y10618424D01*
X10757714Y10593468D01*
X10793130Y10571972D01*
X11475931Y9826516D01*
X11495362Y9776534D01*
X11495362Y9766649D01*
X11524357Y9658437D01*
X11524361Y9658428D01*
X11580377Y9561406D01*
X11659598Y9482185D01*
X11756623Y9426167D01*
X11756625Y9426166D01*
X11797315Y9415263D01*
X11837654Y9387790D01*
X12442300Y8570307D01*
X12456806Y8526302D01*
X12456806Y8466770D01*
X12485801Y8358558D01*
X12485805Y8358549D01*
X12541821Y8261527D01*
X12621042Y8182306D01*
X12718077Y8126283D01*
X12721591Y8124827D01*
X12757029Y8094010D01*
X13266889Y7228033D01*
X13274613Y7190402D01*
X13277110Y7190402D01*
X13277110Y7073513D01*
X13306105Y6965301D01*
X13306109Y6965292D01*
X13362125Y6868270D01*
X13441351Y6789045D01*
X13500434Y6754933D01*
X13530776Y6721521D01*
X13951946Y5796841D01*
X13956082Y5747017D01*
X13947285Y5714183D01*
X13947285Y5602144D01*
X13976280Y5493932D01*
X13976284Y5493923D01*
X14032300Y5396901D01*
X14111522Y5317679D01*
X14126763Y5308880D01*
X14159940Y5268262D01*
X14481202Y4307454D01*
X14482499Y4264836D01*
X14459989Y4180822D01*
X14459989Y4180820D01*
X14459989Y4068783D01*
X14488984Y3960571D01*
X14488988Y3960562D01*
X14545004Y3863540D01*
X14613188Y3795356D01*
X14633111Y3759032D01*
X14851706Y2772049D01*
X14843543Y2719048D01*
X14839185Y2711500D01*
X14838601Y2710488D01*
X14838599Y2710483D01*
X14809604Y2602271D01*
X14809604Y2490230D01*
X14838599Y2382018D01*
X14838603Y2382009D01*
X14894619Y2284987D01*
X14924405Y2255201D01*
X14945604Y2211238D01*
X15060501Y1200952D01*
X15051061Y1155590D01*
X15021297Y1104038D01*
X15021295Y1104033D01*
X14992300Y995820D01*
X14992300Y883779D01*
X15021295Y775567D01*
X15021299Y775558D01*
X15077319Y678529D01*
X15079635Y675511D01*
X15094918Y631101D01*
X15103479Y-373785D01*
X15091438Y-410284D01*
X15093516Y-411484D01*
X15035075Y-512705D01*
X15035071Y-512714D01*
X15006076Y-620926D01*
X15006076Y-732967D01*
X15035071Y-841179D01*
X15035072Y-841180D01*
X15035073Y-841184D01*
X15051306Y-869300D01*
X15069185Y-900269D01*
X15078756Y-944376D01*
X14981161Y-1955761D01*
X14959830Y-2000978D01*
X14935794Y-2025014D01*
X14879778Y-2122036D01*
X14879774Y-2122045D01*
X14850779Y-2230257D01*
X14850779Y-2342298D01*
X14879774Y-2450510D01*
X14879779Y-2450521D01*
X14888575Y-2465757D01*
X14896999Y-2517523D01*
X14694818Y-3510232D01*
X14674633Y-3547789D01*
X14613129Y-3609293D01*
X14557112Y-3706317D01*
X14557108Y-3706326D01*
X14528113Y-3814538D01*
X14528113Y-3926576D01*
X14553070Y-4019721D01*
X14552161Y-4061140D01*
X14247980Y-5025186D01*
X14214415Y-5067002D01*
X14205851Y-5071947D01*
X14205849Y-5071948D01*
X14126627Y-5151170D01*
X14070611Y-5248192D01*
X14070607Y-5248201D01*
X14041612Y-5356413D01*
X14041612Y-5356416D01*
X14041612Y-5468452D01*
X14050605Y-5502015D01*
X14052515Y-5509142D01*
X14048892Y-5557816D01*
X13643253Y-6490193D01*
X13612399Y-6524756D01*
X13560846Y-6554521D01*
X13481621Y-6633745D01*
X13425605Y-6730767D01*
X13425601Y-6730776D01*
X13396606Y-6838988D01*
X13396606Y-6951028D01*
X13397102Y-6954797D01*
X13388134Y-7000907D01*
X12893106Y-7875446D01*
X12864388Y-7900969D01*
X12865626Y-7903113D01*
X12764399Y-7961556D01*
X12685178Y-8040777D01*
X12629162Y-8137799D01*
X12629158Y-8137808D01*
X12600163Y-8246020D01*
X12600163Y-8314246D01*
X12586399Y-8357230D01*
X11996184Y-9184319D01*
X11955102Y-9212813D01*
X11922272Y-9221610D01*
X11922268Y-9221611D01*
X11825243Y-9277629D01*
X11746022Y-9356850D01*
X11690006Y-9453872D01*
X11690002Y-9453881D01*
X11661007Y-9562093D01*
X11661007Y-9579693D01*
X11642420Y-9628738D01*
X10970968Y-10387360D01*
X10934708Y-10409793D01*
X10850695Y-10432304D01*
X10850690Y-10432306D01*
X10753665Y-10488324D01*
X10674444Y-10567545D01*
X10618428Y-10664567D01*
X10618424Y-10664576D01*
X10593468Y-10757714D01*
X10571972Y-10793130D01*
X9826517Y-11475931D01*
X9776535Y-11495362D01*
X9766650Y-11495362D01*
X9658437Y-11524357D01*
X9658428Y-11524361D01*
X9561406Y-11580377D01*
X9482185Y-11659598D01*
X9426167Y-11756623D01*
X9426166Y-11756625D01*
X9415263Y-11797315D01*
X9387790Y-11837654D01*
X8570308Y-12442300D01*
X8526303Y-12456806D01*
X8466771Y-12456806D01*
X8358558Y-12485801D01*
X8358549Y-12485805D01*
X8261527Y-12541821D01*
X8182306Y-12621042D01*
X8126283Y-12718077D01*
X8124827Y-12721591D01*
X8094010Y-12757029D01*
X7228033Y-13266889D01*
X7190402Y-13274613D01*
X7190402Y-13277110D01*
X7073514Y-13277110D01*
X6965301Y-13306105D01*
X6965292Y-13306109D01*
X6868270Y-13362125D01*
X6789045Y-13441351D01*
X6754933Y-13500434D01*
X6721521Y-13530776D01*
X5796841Y-13951946D01*
X5747017Y-13956082D01*
X5714183Y-13947285D01*
X5602147Y-13947285D01*
X5602145Y-13947285D01*
X5493932Y-13976280D01*
X5493923Y-13976284D01*
X5396901Y-14032300D01*
X5317679Y-14111522D01*
X5308880Y-14126763D01*
X5268262Y-14159940D01*
X4307454Y-14481202D01*
X4264836Y-14482500D01*
X4180822Y-14459989D01*
X4068786Y-14459989D01*
X4068784Y-14459989D01*
X3960571Y-14488984D01*
X3960562Y-14488988D01*
X3863540Y-14545004D01*
X3795356Y-14613188D01*
X3759032Y-14633111D01*
X2772049Y-14851706D01*
X2719048Y-14843543D01*
X2710488Y-14838601D01*
X2710483Y-14838599D01*
X2602271Y-14809604D01*
X2602269Y-14809604D01*
X2490233Y-14809604D01*
X2490231Y-14809604D01*
X2382018Y-14838599D01*
X2382009Y-14838603D01*
X2284987Y-14894619D01*
X2255201Y-14924405D01*
X2211238Y-14945604D01*
X1200952Y-15060501D01*
X1155590Y-15051061D01*
X1104038Y-15021297D01*
X1104033Y-15021295D01*
X995820Y-14992300D01*
X995818Y-14992300D01*
X883782Y-14992300D01*
X883780Y-14992300D01*
X775567Y-15021295D01*
X775558Y-15021299D01*
X678529Y-15077319D01*
X675511Y-15079635D01*
X631101Y-15094918D01*
X-373785Y-15103479D01*
X-410284Y-15091438D01*
X-411484Y-15093516D01*
X-512705Y-15035075D01*
X-512714Y-15035071D01*
X-620927Y-15006076D01*
X-620929Y-15006076D01*
X-732965Y-15006076D01*
X-732967Y-15006076D01*
X-841179Y-15035071D01*
X-841180Y-15035072D01*
X-841184Y-15035073D01*
X-868876Y-15051061D01*
X-900269Y-15069185D01*
X-944376Y-15078756D01*
X-1955761Y-14981161D01*
X-2000978Y-14959830D01*
X-2025014Y-14935794D01*
X-2122036Y-14879778D01*
X-2122045Y-14879774D01*
X-2230258Y-14850779D01*
X-2230260Y-14850779D01*
X-2342296Y-14850779D01*
X-2342298Y-14850779D01*
X-2450510Y-14879774D01*
X-2450513Y-14879775D01*
X-2450515Y-14879776D01*
X-2450517Y-14879777D01*
X-2450521Y-14879779D01*
X-2465757Y-14888575D01*
X-2517523Y-14896999D01*
X-3510232Y-14694818D01*
X-3547789Y-14674633D01*
X-3609293Y-14613129D01*
X-3706317Y-14557112D01*
X-3706326Y-14557108D01*
X-3814539Y-14528113D01*
X-3814541Y-14528113D01*
X-3926577Y-14528113D01*
X-4019721Y-14553070D01*
X-4061140Y-14552161D01*
X-5025186Y-14247980D01*
X-5067002Y-14214415D01*
X-5071947Y-14205851D01*
X-5071948Y-14205849D01*
X-5151170Y-14126627D01*
X-5248192Y-14070611D01*
X-5248201Y-14070607D01*
X-5356414Y-14041612D01*
X-5356416Y-14041612D01*
X-5468452Y-14041612D01*
X-5509142Y-14052514D01*
X-5557816Y-14048892D01*
X-6490193Y-13643253D01*
X-6524756Y-13612399D01*
X-6554521Y-13560846D01*
X-6633745Y-13481621D01*
X-6730767Y-13425605D01*
X-6730776Y-13425601D01*
X-6838989Y-13396606D01*
X-6838991Y-13396606D01*
X-6951027Y-13396606D01*
X-6951029Y-13396606D01*
X-6954797Y-13397102D01*
X-7000907Y-13388134D01*
X-7875446Y-12893106D01*
X-7900969Y-12864388D01*
X-7903113Y-12865626D01*
X-7961556Y-12764399D01*
X-8040777Y-12685178D01*
X-8137799Y-12629162D01*
X-8137808Y-12629158D01*
X-8246021Y-12600163D01*
X-8246023Y-12600163D01*
X-8314247Y-12600163D01*
X-8357230Y-12586399D01*
X-8880019Y-12213334D01*
X-9184320Y-11996184D01*
X-9212813Y-11955102D01*
X-9221610Y-11922272D01*
X-9221611Y-11922268D01*
X-9277629Y-11825243D01*
X-9356850Y-11746022D01*
X-9453872Y-11690006D01*
X-9453881Y-11690002D01*
X-9562094Y-11661007D01*
X-9562096Y-11661007D01*
X-9579693Y-11661007D01*
X-9628738Y-11642420D01*
X-10387360Y-10970968D01*
X-10409793Y-10934708D01*
X-10432304Y-10850695D01*
X-10432306Y-10850690D01*
X-10488324Y-10753665D01*
X-10567545Y-10674444D01*
X-10664567Y-10618428D01*
X-10664576Y-10618424D01*
X-10757714Y-10593468D01*
X-10793130Y-10571972D01*
X-11422571Y-9884771D01*
X-11441931Y-9831546D01*
X-11420328Y-9782463D01*
X-8969862Y-7331997D01*
X-6470535Y-4832670D01*
X-6470533Y-4832667D01*
X-6470532Y-4832666D01*
X-6427682Y-4758448D01*
X-6427678Y-4758438D01*
X-6427314Y-4757078D01*
X-6426610Y-4755859D01*
X-6425827Y-4753968D01*
X-6425577Y-4754071D01*
X-6408164Y-4723912D01*
X-6390515Y-4706263D01*
X-6334499Y-4609241D01*
X-6334495Y-4609232D01*
X-6305500Y-4501020D01*
X-6305500Y-4388979D01*
X-6334495Y-4280767D01*
X-6334499Y-4280758D01*
X-6390515Y-4183736D01*
X-6469736Y-4104515D01*
X-6566758Y-4048499D01*
X-6566767Y-4048495D01*
X-6674980Y-4019500D01*
X-6674982Y-4019500D01*
X-6787018Y-4019500D01*
X-6787020Y-4019500D01*
X-6895232Y-4048495D01*
X-6895241Y-4048499D01*
X-6930379Y-4068786D01*
X-6992263Y-4104515D01*
X-7071485Y-4183737D01*
X-7127503Y-4280763D01*
X-7149033Y-4361117D01*
X-7156499Y-4388979D01*
X-7156500Y-4388980D01*
X-7156500Y-4501018D01*
X-7147067Y-4536220D01*
X-7154458Y-4592372D01*
X-7166219Y-4607700D01*
X-11823111Y-9264592D01*
X-11875437Y-9286266D01*
X-11927763Y-9264592D01*
X-11934931Y-9256271D01*
X-12442300Y-8570305D01*
X-12456806Y-8526300D01*
X-12456806Y-8466770D01*
X-12485801Y-8358558D01*
X-12485805Y-8358549D01*
X-12541821Y-8261527D01*
X-12621042Y-8182306D01*
X-12718077Y-8126283D01*
X-12721591Y-8124827D01*
X-12757029Y-8094010D01*
X-13266889Y-7228033D01*
X-13274613Y-7190402D01*
X-13277110Y-7190402D01*
X-13277110Y-7073513D01*
X-13306105Y-6965301D01*
X-13306109Y-6965292D01*
X-13362125Y-6868270D01*
X-13441351Y-6789045D01*
X-13500434Y-6754933D01*
X-13530776Y-6721521D01*
X-13951946Y-5796841D01*
X-13956082Y-5747017D01*
X-13947285Y-5714183D01*
X-13947285Y-5602144D01*
X-13976280Y-5493932D01*
X-13976284Y-5493923D01*
X-14032300Y-5396901D01*
X-14111522Y-5317679D01*
X-14126763Y-5308880D01*
X-14159940Y-5268262D01*
X-14481202Y-4307454D01*
X-14482500Y-4264836D01*
X-14459989Y-4180822D01*
X-14459989Y-4068786D01*
X-14459989Y-4068783D01*
X-14488984Y-3960571D01*
X-14488988Y-3960562D01*
X-14545004Y-3863540D01*
X-14613188Y-3795356D01*
X-14633111Y-3759032D01*
X-14851706Y-2772049D01*
X-14843543Y-2719048D01*
X-14838601Y-2710488D01*
X-14838599Y-2710483D01*
X-14809604Y-2602271D01*
X-14809604Y-2490230D01*
X-14838599Y-2382018D01*
X-14838603Y-2382009D01*
X-14894619Y-2284987D01*
X-14924405Y-2255201D01*
X-14945604Y-2211238D01*
X-15060501Y-1200952D01*
X-15054374Y-1171509D01*
X-13700000Y-1171509D01*
X-13700000Y-1368490D01*
X-13661572Y-1561682D01*
X-13661569Y-1561693D01*
X-13586190Y-1743675D01*
X-13562572Y-1779019D01*
X-13053553Y-1270000D01*
X-13053553Y-1269999D01*
X-13562572Y-760979D01*
X-13562573Y-760979D01*
X-13586189Y-796323D01*
X-13661569Y-978306D01*
X-13661572Y-978317D01*
X-13700000Y-1171509D01*
X-15054374Y-1171509D01*
X-15051061Y-1155590D01*
X-15036791Y-1130874D01*
X-15021298Y-1104039D01*
X-15021295Y-1104033D01*
X-14992300Y-995820D01*
X-14992300Y-883779D01*
X-15021295Y-775567D01*
X-15021299Y-775558D01*
X-15077319Y-678529D01*
X-15079635Y-675511D01*
X-15094918Y-631101D01*
X-15096583Y-435634D01*
X-15096823Y-407425D01*
X-13209019Y-407425D01*
X-13209019Y-407426D01*
X-12699999Y-916446D01*
X-12190979Y-407426D01*
X-12190979Y-407425D01*
X-12226322Y-383810D01*
X-12408306Y-308430D01*
X-12408317Y-308427D01*
X-12601510Y-270000D01*
X-12798490Y-270000D01*
X-12991682Y-308427D01*
X-12991693Y-308430D01*
X-13173675Y-383809D01*
X-13209019Y-407425D01*
X-15096823Y-407425D01*
X-15103479Y373785D01*
X-15091438Y410284D01*
X-15093516Y411484D01*
X-15035075Y512705D01*
X-15035071Y512714D01*
X-15006076Y620926D01*
X-15006076Y732967D01*
X-15035071Y841179D01*
X-15035072Y841180D01*
X-15035073Y841184D01*
X-15069185Y900269D01*
X-15078756Y944376D01*
X-15040915Y1336530D01*
X-13375500Y1336530D01*
X-13375500Y1203469D01*
X-13349541Y1072968D01*
X-13349539Y1072961D01*
X-13298620Y950031D01*
X-13224695Y839394D01*
X-13130605Y745304D01*
X-13019968Y671379D01*
X-12897038Y620460D01*
X-12897031Y620458D01*
X-12788085Y598787D01*
X-12766531Y594500D01*
X-12766530Y594500D01*
X-12633470Y594500D01*
X-12633469Y594500D01*
X-12614970Y598179D01*
X-12502968Y620458D01*
X-12502961Y620460D01*
X-12380031Y671379D01*
X-12269394Y745304D01*
X-12269393Y745306D01*
X-12175306Y839393D01*
X-12175304Y839394D01*
X-12127051Y911612D01*
X-12079959Y943078D01*
X-12065522Y944500D01*
X-10656257Y944500D01*
X-10603931Y922826D01*
X-10582257Y870500D01*
X-10603931Y818174D01*
X-10615144Y808971D01*
X-10749972Y718883D01*
X-10878883Y589972D01*
X-10980167Y438389D01*
X-11049933Y269958D01*
X-11085500Y91154D01*
X-11085500Y-91154D01*
X-11049933Y-269958D01*
X-10980167Y-438389D01*
X-10878883Y-589972D01*
X-10878882Y-589973D01*
X-10794861Y-673994D01*
X-10773187Y-726320D01*
X-10794861Y-778646D01*
X-11605792Y-1589577D01*
X-11658118Y-1611251D01*
X-11710444Y-1589577D01*
X-11732118Y-1537251D01*
X-11730696Y-1522815D01*
X-11700000Y-1368490D01*
X-11700000Y-1171509D01*
X-11738427Y-978317D01*
X-11738430Y-978306D01*
X-11813810Y-796322D01*
X-11837425Y-760979D01*
X-11837426Y-760979D01*
X-12523223Y-1446777D01*
X-13209019Y-2132573D01*
X-13173675Y-2156190D01*
X-12991693Y-2231569D01*
X-12991682Y-2231572D01*
X-12798490Y-2270000D01*
X-12601511Y-2270000D01*
X-12447185Y-2239303D01*
X-12391636Y-2250352D01*
X-12360170Y-2297444D01*
X-12371219Y-2352993D01*
X-12380422Y-2364207D01*
X-12856058Y-2839843D01*
X-12933557Y-2917342D01*
X-12933557Y-2917343D01*
X-12975500Y-3018600D01*
X-12975500Y-3143514D01*
X-12997174Y-3195840D01*
X-13017043Y-3209119D01*
X-13016754Y-3209661D01*
X-13019963Y-3211376D01*
X-13130605Y-3285304D01*
X-13224695Y-3379394D01*
X-13298620Y-3490031D01*
X-13348019Y-3609293D01*
X-13349540Y-3612964D01*
X-13375500Y-3743469D01*
X-13375500Y-3876531D01*
X-13349540Y-4007036D01*
X-13298620Y-4129969D01*
X-13224695Y-4240606D01*
X-13130606Y-4334695D01*
X-13019969Y-4408620D01*
X-12897036Y-4459540D01*
X-12766531Y-4485500D01*
X-12766530Y-4485500D01*
X-12633470Y-4485500D01*
X-12633469Y-4485500D01*
X-12569093Y-4472694D01*
X-12502968Y-4459541D01*
X-12502961Y-4459539D01*
X-12380031Y-4408620D01*
X-12269394Y-4334695D01*
X-12175304Y-4240605D01*
X-12101379Y-4129968D01*
X-12050460Y-4007038D01*
X-12050458Y-4007031D01*
X-12024500Y-3876530D01*
X-12024500Y-3743469D01*
X-12050458Y-3612968D01*
X-12050460Y-3612961D01*
X-12101379Y-3490031D01*
X-12175304Y-3379394D01*
X-12175306Y-3379393D01*
X-12269393Y-3285306D01*
X-12269394Y-3285304D01*
X-12346021Y-3234105D01*
X-12377487Y-3187013D01*
X-12366438Y-3131464D01*
X-12357235Y-3120250D01*
X-10550159Y-1313174D01*
X-10497833Y-1291500D01*
X-8143901Y-1291500D01*
X-8143900Y-1291500D01*
X-8042642Y-1249557D01*
X-7965143Y-1172058D01*
X-7926059Y-1132974D01*
X-7873733Y-1111300D01*
X-7812480Y-1111300D01*
X-7812479Y-1111299D01*
X-7704263Y-1082303D01*
X-7607237Y-1026285D01*
X-7528015Y-947063D01*
X-7493369Y-887055D01*
X-7471999Y-850041D01*
X-7471995Y-850032D01*
X-7443000Y-741820D01*
X-7443000Y-629779D01*
X-7471995Y-521567D01*
X-7471999Y-521558D01*
X-7528015Y-424536D01*
X-7575726Y-376826D01*
X-7597400Y-324500D01*
X-7575726Y-272174D01*
X-7523400Y-250500D01*
X-7102079Y-250500D01*
X-7049753Y-272174D01*
X-5986230Y-1335697D01*
X-5915763Y-1406164D01*
X-5823694Y-1444300D01*
X-5279213Y-1444300D01*
X-5226887Y-1465974D01*
X-5205213Y-1518300D01*
X-5226887Y-1570626D01*
X-5924087Y-2267826D01*
X-5976413Y-2289500D01*
X-9212562Y-2289500D01*
X-9264888Y-2267826D01*
X-9280929Y-2243818D01*
X-9339832Y-2101611D01*
X-9441116Y-1950028D01*
X-9441118Y-1950027D01*
X-9570027Y-1821118D01*
X-9570028Y-1821116D01*
X-9721611Y-1719832D01*
X-9890037Y-1650068D01*
X-9890047Y-1650065D01*
X-10018156Y-1624582D01*
X-10068846Y-1614500D01*
X-10251154Y-1614500D01*
X-10310215Y-1626248D01*
X-10429952Y-1650065D01*
X-10429962Y-1650068D01*
X-10598388Y-1719832D01*
X-10749971Y-1821116D01*
X-10878883Y-1950028D01*
X-10980167Y-2101611D01*
X-11035361Y-2234863D01*
X-11049933Y-2270042D01*
X-11085500Y-2448846D01*
X-11085500Y-2631154D01*
X-11049933Y-2809958D01*
X-10980167Y-2978389D01*
X-10878883Y-3129972D01*
X-10749972Y-3258883D01*
X-10598389Y-3360167D01*
X-10429958Y-3429933D01*
X-10251154Y-3465500D01*
X-10251152Y-3465500D01*
X-10068848Y-3465500D01*
X-10068846Y-3465500D01*
X-9890042Y-3429933D01*
X-9721611Y-3360167D01*
X-9570028Y-3258883D01*
X-9441117Y-3129972D01*
X-9438703Y-3126360D01*
X-9339832Y-2978388D01*
X-9280929Y-2836182D01*
X-9240881Y-2796133D01*
X-9212562Y-2790500D01*
X-5792173Y-2790500D01*
X-5792172Y-2790500D01*
X-5700103Y-2752364D01*
X-4718513Y-1770774D01*
X-4666187Y-1749100D01*
X-4489994Y-1749100D01*
X-4437668Y-1770774D01*
X-4415994Y-1823100D01*
X-4418516Y-1842253D01*
X-4438699Y-1917579D01*
X-4438700Y-1917580D01*
X-4438700Y-2014187D01*
X-4460374Y-2066513D01*
X-5423687Y-3029826D01*
X-5476013Y-3051500D01*
X-8323552Y-3051500D01*
X-8323560Y-3051499D01*
X-8332172Y-3051499D01*
X-8431827Y-3051499D01*
X-8479963Y-3071438D01*
X-8523894Y-3089634D01*
X-8523898Y-3089637D01*
X-8604772Y-3170511D01*
X-8604772Y-3170512D01*
X-9667190Y-4232929D01*
X-9719516Y-4254603D01*
X-9747834Y-4248970D01*
X-9890037Y-4190068D01*
X-9890047Y-4190065D01*
X-10018156Y-4164582D01*
X-10068846Y-4154500D01*
X-10251154Y-4154500D01*
X-10310215Y-4166248D01*
X-10429952Y-4190065D01*
X-10429962Y-4190068D01*
X-10598388Y-4259832D01*
X-10710428Y-4334695D01*
X-10749972Y-4361117D01*
X-10878883Y-4490028D01*
X-10980167Y-4641611D01*
X-11049933Y-4810042D01*
X-11085500Y-4988846D01*
X-11085500Y-5171154D01*
X-11049933Y-5349958D01*
X-10980167Y-5518389D01*
X-10878883Y-5669972D01*
X-10749972Y-5798883D01*
X-10598389Y-5900167D01*
X-10429958Y-5969933D01*
X-10251154Y-6005500D01*
X-10251152Y-6005500D01*
X-10068848Y-6005500D01*
X-10068846Y-6005500D01*
X-9890042Y-5969933D01*
X-9870252Y-5961736D01*
X-9721611Y-5900167D01*
X-9570028Y-5798883D01*
X-9441116Y-5669971D01*
X-9339832Y-5518388D01*
X-9270068Y-5349962D01*
X-9270065Y-5349952D01*
X-9234500Y-5171152D01*
X-9234500Y-4988847D01*
X-9270065Y-4810047D01*
X-9270068Y-4810037D01*
X-9328970Y-4667834D01*
X-9328970Y-4611197D01*
X-9312929Y-4587190D01*
X-8299914Y-3574174D01*
X-8247588Y-3552500D01*
X-5291773Y-3552500D01*
X-5291772Y-3552500D01*
X-5199703Y-3514364D01*
X-4106113Y-2420774D01*
X-4053787Y-2399100D01*
X-3957180Y-2399100D01*
X-3957179Y-2399099D01*
X-3848963Y-2370103D01*
X-3751937Y-2314085D01*
X-3672715Y-2234863D01*
X-3616697Y-2137837D01*
X-3616696Y-2137835D01*
X-3616695Y-2137832D01*
X-3587700Y-2029620D01*
X-3587700Y-1917579D01*
X-3607884Y-1842253D01*
X-3600492Y-1786100D01*
X-3555559Y-1751622D01*
X-3536406Y-1749100D01*
X-3506173Y-1749100D01*
X-3506172Y-1749100D01*
X-3414103Y-1710964D01*
X-2737313Y-1034173D01*
X-2684988Y-1012500D01*
X-1397973Y-1012500D01*
X-1397972Y-1012500D01*
X-1305903Y-974364D01*
X-788113Y-456573D01*
X-735788Y-434900D01*
X825499Y-434900D01*
X877825Y-456574D01*
X899499Y-508900D01*
X899499Y-546572D01*
X928494Y-654784D01*
X928495Y-654787D01*
X928496Y-654789D01*
X984514Y-751815D01*
X1063736Y-831037D01*
X1160762Y-887055D01*
X1268978Y-916051D01*
X1268979Y-916052D01*
X1268981Y-916052D01*
X1381019Y-916052D01*
X1381019Y-916051D01*
X1459748Y-894956D01*
X1515899Y-902348D01*
X1550378Y-947281D01*
X1552900Y-966434D01*
X1552900Y-1148353D01*
X1531226Y-1200679D01*
X1480079Y-1251826D01*
X1427753Y-1273500D01*
X-2335828Y-1273500D01*
X-2427894Y-1311634D01*
X-2427896Y-1311635D01*
X-2427897Y-1311636D01*
X-3494697Y-2378436D01*
X-3565164Y-2448903D01*
X-3595651Y-2522507D01*
X-3603299Y-2540970D01*
X-3603300Y-2540972D01*
X-3603300Y-3726387D01*
X-3624974Y-3778713D01*
X-4375182Y-4528921D01*
X-4427508Y-4550595D01*
X-4446660Y-4548074D01*
X-4515982Y-4529500D01*
X-4628018Y-4529500D01*
X-4628020Y-4529500D01*
X-4736232Y-4558495D01*
X-4736241Y-4558499D01*
X-4738141Y-4559596D01*
X-4833263Y-4614515D01*
X-4912485Y-4693737D01*
X-4968503Y-4790763D01*
X-4988237Y-4864414D01*
X-4997499Y-4898979D01*
X-4997500Y-4898980D01*
X-4997500Y-5011020D01*
X-4986353Y-5052621D01*
X-4968503Y-5119237D01*
X-4912485Y-5216263D01*
X-4833263Y-5295485D01*
X-4736237Y-5351503D01*
X-4628020Y-5380499D01*
X-4628020Y-5380500D01*
X-4628018Y-5380500D01*
X-4515980Y-5380500D01*
X-4515979Y-5380499D01*
X-4407763Y-5351503D01*
X-4310737Y-5295485D01*
X-4231515Y-5216263D01*
X-4205470Y-5171152D01*
X-4175499Y-5119241D01*
X-4175495Y-5119232D01*
X-4150805Y-5027087D01*
X-4131653Y-4993914D01*
X-3424826Y-4287087D01*
X-3372500Y-4265413D01*
X-3320174Y-4287087D01*
X-3298500Y-4339413D01*
X-3298500Y-10987763D01*
X-3298500Y-11087419D01*
X-3260364Y-11179488D01*
X-1133745Y-13306105D01*
X-454589Y-13985261D01*
X-432915Y-14037587D01*
X-432915Y-14134196D01*
X-418266Y-14188866D01*
X-403918Y-14242413D01*
X-347900Y-14339439D01*
X-268678Y-14418661D01*
X-171652Y-14474679D01*
X-63435Y-14503675D01*
X-63435Y-14503676D01*
X-63433Y-14503676D01*
X48605Y-14503676D01*
X48605Y-14503675D01*
X156822Y-14474679D01*
X253848Y-14418661D01*
X333070Y-14339439D01*
X389088Y-14242413D01*
X418084Y-14134196D01*
X418085Y-14134196D01*
X418085Y-14022156D01*
X418084Y-14022155D01*
X408198Y-13985261D01*
X389088Y-13913939D01*
X333070Y-13816913D01*
X253848Y-13737691D01*
X156826Y-13681675D01*
X156817Y-13681671D01*
X48605Y-13652676D01*
X48603Y-13652676D01*
X-48002Y-13652676D01*
X-100328Y-13631002D01*
X-2775826Y-10955504D01*
X-2797500Y-10903178D01*
X-2797500Y-3157012D01*
X-2775826Y-3104686D01*
X-2378913Y-2707774D01*
X-2326587Y-2686100D01*
X-2229980Y-2686100D01*
X-2229979Y-2686099D01*
X-2121763Y-2657103D01*
X-2024737Y-2601085D01*
X-1955530Y-2531878D01*
X-1948385Y-2528918D01*
X-1944063Y-2522507D01*
X-1923015Y-2518410D01*
X-1903204Y-2510204D01*
X-1896059Y-2513163D01*
X-1888469Y-2511686D01*
X-1873347Y-2522570D01*
X-1850878Y-2531878D01*
X-1841507Y-2543345D01*
X-1840259Y-2545228D01*
X-1839085Y-2547263D01*
X-1838573Y-2547774D01*
X-1836403Y-2551052D01*
X-1834295Y-2561877D01*
X-1824100Y-2591911D01*
X-1824100Y-5738060D01*
X-1845774Y-5790386D01*
X-1878947Y-5809538D01*
X-1942232Y-5826495D01*
X-1942241Y-5826499D01*
X-2015778Y-5868956D01*
X-2039263Y-5882515D01*
X-2118485Y-5961737D01*
X-2174503Y-6058763D01*
X-2174504Y-6058767D01*
X-2203499Y-6166979D01*
X-2203500Y-6166980D01*
X-2203500Y-6279020D01*
X-2185754Y-6345246D01*
X-2174503Y-6387237D01*
X-2118485Y-6484263D01*
X-2039263Y-6563485D01*
X-1942237Y-6619503D01*
X-1834020Y-6648499D01*
X-1834020Y-6648500D01*
X-1834018Y-6648500D01*
X-1721980Y-6648500D01*
X-1721979Y-6648499D01*
X-1613763Y-6619503D01*
X-1516737Y-6563485D01*
X-1437515Y-6484263D01*
X-1434086Y-6480834D01*
X-1432283Y-6482636D01*
X-1390380Y-6458450D01*
X-1361579Y-6460339D01*
X-1346053Y-6464500D01*
X-1346052Y-6464500D01*
X1016351Y-6464500D01*
X1016353Y-6464500D01*
X1099139Y-6442318D01*
X1173362Y-6399465D01*
X1283852Y-6288974D01*
X1321625Y-6270347D01*
X1321333Y-6269256D01*
X1396110Y-6249218D01*
X1434237Y-6239003D01*
X1531263Y-6182985D01*
X1610485Y-6103763D01*
X1666503Y-6006737D01*
X1695499Y-5898520D01*
X1695500Y-5898520D01*
X1695500Y-5786480D01*
X1695499Y-5786479D01*
X1666504Y-5678267D01*
X1666503Y-5678263D01*
X1610485Y-5581237D01*
X1531263Y-5502015D01*
X1487070Y-5476500D01*
X1434241Y-5445999D01*
X1434232Y-5445995D01*
X1326020Y-5417000D01*
X1326018Y-5417000D01*
X1213982Y-5417000D01*
X1213980Y-5417000D01*
X1105767Y-5445995D01*
X1105758Y-5445999D01*
X1008736Y-5502015D01*
X929515Y-5581236D01*
X873499Y-5678258D01*
X873495Y-5678267D01*
X851956Y-5758653D01*
X817478Y-5803586D01*
X780478Y-5813500D01*
X-1099100Y-5813500D01*
X-1151426Y-5791826D01*
X-1173100Y-5739500D01*
X-1173100Y-2685500D01*
X-1151426Y-2633174D01*
X-1099100Y-2611500D01*
X-165479Y-2611500D01*
X-113153Y-2633174D01*
X569524Y-3315851D01*
X588155Y-3353624D01*
X589244Y-3353333D01*
X619495Y-3466232D01*
X619499Y-3466241D01*
X647283Y-3514364D01*
X675515Y-3563263D01*
X754737Y-3642485D01*
X851763Y-3698503D01*
X928657Y-3719106D01*
X973589Y-3753584D01*
X980982Y-3809736D01*
X961829Y-3842910D01*
X346912Y-4457828D01*
X294586Y-4479502D01*
X197980Y-4479502D01*
X89767Y-4508497D01*
X89758Y-4508501D01*
X3167Y-4558495D01*
X-7263Y-4564517D01*
X-86485Y-4643739D01*
X-142503Y-4740765D01*
X-167127Y-4832666D01*
X-171499Y-4848981D01*
X-171500Y-4848982D01*
X-171500Y-4961022D01*
X-154307Y-5025186D01*
X-142503Y-5069239D01*
X-86485Y-5166265D01*
X-7263Y-5245487D01*
X89763Y-5301505D01*
X197979Y-5330501D01*
X197980Y-5330502D01*
X197982Y-5330502D01*
X310020Y-5330502D01*
X310020Y-5330501D01*
X418237Y-5301505D01*
X515263Y-5245487D01*
X594485Y-5166265D01*
X650503Y-5069239D01*
X679499Y-4961022D01*
X679500Y-4961022D01*
X679500Y-4864414D01*
X701174Y-4812088D01*
X2086974Y-3426288D01*
X2139300Y-3404614D01*
X2191626Y-3426288D01*
X2213300Y-3478614D01*
X2213300Y-4661247D01*
X2191626Y-4713573D01*
X2176300Y-4725333D01*
X2151740Y-4739512D01*
X2072515Y-4818736D01*
X2016499Y-4915758D01*
X2016495Y-4915767D01*
X1987500Y-5023979D01*
X1987500Y-5136020D01*
X2016495Y-5244232D01*
X2016499Y-5244241D01*
X2046084Y-5295484D01*
X2072515Y-5341263D01*
X2151737Y-5420485D01*
X2248763Y-5476503D01*
X2356979Y-5505499D01*
X2356980Y-5505500D01*
X2356982Y-5505500D01*
X2469020Y-5505500D01*
X2469020Y-5505499D01*
X2577237Y-5476503D01*
X2674263Y-5420485D01*
X2753485Y-5341263D01*
X2809503Y-5244237D01*
X2838499Y-5136020D01*
X2838500Y-5136020D01*
X2838500Y-5023980D01*
X2838499Y-5023979D01*
X2834421Y-5008761D01*
X2809503Y-4915763D01*
X2753485Y-4818737D01*
X2735974Y-4801226D01*
X2714300Y-4748900D01*
X2714300Y761027D01*
X2714300Y761028D01*
X2676164Y853097D01*
X2605697Y923564D01*
X554897Y2974364D01*
X462828Y3012500D01*
X-1751552Y3012500D01*
X-1751560Y3012501D01*
X-1760172Y3012501D01*
X-1859827Y3012501D01*
X-1913760Y2990160D01*
X-1951897Y2974364D01*
X-2022364Y2903897D01*
X-2022364Y2903896D01*
X-2032769Y2893491D01*
X-2032770Y2893488D01*
X-2154211Y2772049D01*
X-2193086Y2733174D01*
X-2245412Y2711500D01*
X-2342020Y2711500D01*
X-2408246Y2693754D01*
X-2450237Y2682503D01*
X-2547263Y2626485D01*
X-2626485Y2547263D01*
X-2682503Y2450237D01*
X-2711425Y2342296D01*
X-2711499Y2342020D01*
X-2711500Y2342020D01*
X-2711500Y2229980D01*
X-2711499Y2229979D01*
X-2682503Y2121763D01*
X-2668257Y2097089D01*
X-2663997Y2089710D01*
X-2656604Y2033558D01*
X-2691083Y1988624D01*
X-2747235Y1981231D01*
X-2765083Y1988624D01*
X-2813234Y2016424D01*
X-2813239Y2016427D01*
X-2826026Y2019853D01*
X-2921456Y2045424D01*
X-2921458Y2045424D01*
X-3033494Y2045424D01*
X-3033496Y2045424D01*
X-3077779Y2033558D01*
X-3141713Y2016427D01*
X-3238739Y1960409D01*
X-3317961Y1881187D01*
X-3373979Y1784161D01*
X-3397445Y1696582D01*
X-3402975Y1675944D01*
X-3402976Y1675944D01*
X-3402976Y1563904D01*
X-3402975Y1563903D01*
X-3373979Y1455687D01*
X-3335276Y1388651D01*
X-3317960Y1358660D01*
X-3238739Y1279439D01*
X-3141717Y1223423D01*
X-3141714Y1223421D01*
X-3141713Y1223421D01*
X-3141711Y1223420D01*
X-3141708Y1223419D01*
X-3033496Y1194424D01*
X-3033494Y1194424D01*
X-2921455Y1194424D01*
X-2813243Y1223419D01*
X-2813234Y1223423D01*
X-2716212Y1279439D01*
X-2636991Y1358660D01*
X-2580975Y1455682D01*
X-2580971Y1455691D01*
X-2551976Y1563903D01*
X-2551976Y1675944D01*
X-2580971Y1784156D01*
X-2580975Y1784165D01*
X-2599478Y1816213D01*
X-2606870Y1872366D01*
X-2572392Y1917299D01*
X-2516239Y1924691D01*
X-2498392Y1917299D01*
X-2450241Y1889499D01*
X-2450238Y1889497D01*
X-2450237Y1889497D01*
X-2450235Y1889496D01*
X-2450232Y1889495D01*
X-2342020Y1860500D01*
X-2342018Y1860500D01*
X-2229982Y1860500D01*
X-2128983Y1887562D01*
X-2072831Y1880169D01*
X-2038352Y1835235D01*
X-2038352Y1796932D01*
X-2062735Y1705935D01*
X-2062736Y1705935D01*
X-2062736Y1593895D01*
X-2062735Y1593894D01*
X-2033739Y1485678D01*
X-2016424Y1455687D01*
X-1977720Y1388651D01*
X-1898499Y1309430D01*
X-1801477Y1253414D01*
X-1801474Y1253412D01*
X-1801473Y1253412D01*
X-1801471Y1253411D01*
X-1801468Y1253410D01*
X-1693256Y1224415D01*
X-1693254Y1224415D01*
X-1581215Y1224415D01*
X-1473003Y1253410D01*
X-1472994Y1253414D01*
X-1375972Y1309430D01*
X-1296751Y1388651D01*
X-1240735Y1485673D01*
X-1240731Y1485682D01*
X-1238307Y1494729D01*
X-1203825Y1539660D01*
X-1147672Y1547048D01*
X-1102744Y1512570D01*
X-1090485Y1491337D01*
X-1011263Y1412115D01*
X-914241Y1356099D01*
X-914238Y1356097D01*
X-914237Y1356097D01*
X-914235Y1356096D01*
X-914232Y1356095D01*
X-806020Y1327100D01*
X-806018Y1327100D01*
X-693979Y1327100D01*
X-585767Y1356095D01*
X-585758Y1356099D01*
X-488736Y1412115D01*
X-420426Y1480426D01*
X-368100Y1502100D01*
X436631Y1502100D01*
X488957Y1480426D01*
X1255651Y713732D01*
X1277325Y661406D01*
X1255651Y609080D01*
X1222480Y589929D01*
X1164163Y574303D01*
X1067137Y518285D01*
X1067136Y518284D01*
X998826Y449974D01*
X946500Y428300D01*
X-881352Y428300D01*
X-881360Y428301D01*
X-889972Y428301D01*
X-989627Y428301D01*
X-1037763Y408362D01*
X-1081697Y390164D01*
X-1152164Y319697D01*
X-1152164Y319696D01*
X-1162569Y309291D01*
X-1162570Y309288D01*
X-1624358Y-152497D01*
X-1660687Y-188826D01*
X-1713013Y-210500D01*
X-2932386Y-210500D01*
X-2932394Y-210499D01*
X-2941006Y-210499D01*
X-3040661Y-210499D01*
X-3086023Y-229289D01*
X-3132728Y-248634D01*
X-3132732Y-248637D01*
X-3213606Y-329511D01*
X-3213606Y-329512D01*
X-3805721Y-921626D01*
X-3858047Y-943300D01*
X-4467321Y-943300D01*
X-4519647Y-921626D01*
X-4541321Y-869300D01*
X-4519647Y-816974D01*
X-3669148Y33525D01*
X-3631374Y52151D01*
X-3631667Y53244D01*
X-3518767Y83495D01*
X-3518758Y83499D01*
X-3421736Y139515D01*
X-3342515Y218736D01*
X-3286499Y315758D01*
X-3286495Y315767D01*
X-3257500Y423979D01*
X-3257500Y536020D01*
X-3286495Y644232D01*
X-3286499Y644241D01*
X-3342515Y741263D01*
X-3421736Y820484D01*
X-3421737Y820485D01*
X-3518763Y876503D01*
X-3529746Y879445D01*
X-3631667Y906756D01*
X-3631374Y907848D01*
X-3669148Y926475D01*
X-5762516Y3019843D01*
X-8083138Y5340465D01*
X-8110761Y5356413D01*
X-8157356Y5383315D01*
X-8157358Y5383316D01*
X-8157361Y5383318D01*
X-8240147Y5405500D01*
X-8240149Y5405500D01*
X-9243628Y5405500D01*
X-9295954Y5427174D01*
X-9311995Y5451182D01*
X-9339832Y5518388D01*
X-9441116Y5669971D01*
X-9570028Y5798883D01*
X-9721611Y5900167D01*
X-9890037Y5969931D01*
X-9890042Y5969933D01*
X-10068846Y6005500D01*
X-10251154Y6005500D01*
X-10429958Y5969933D01*
X-10598389Y5900167D01*
X-10749972Y5798883D01*
X-10878883Y5669972D01*
X-10980167Y5518389D01*
X-11049933Y5349958D01*
X-11066183Y5268262D01*
X-11085500Y5171152D01*
X-11085500Y4988847D01*
X-11049934Y4810047D01*
X-11049931Y4810037D01*
X-10980167Y4641611D01*
X-10878883Y4490028D01*
X-10749971Y4361116D01*
X-10598388Y4259832D01*
X-10429962Y4190068D01*
X-10429952Y4190065D01*
X-10310215Y4166248D01*
X-10251154Y4154500D01*
X-10251152Y4154500D01*
X-10068848Y4154500D01*
X-10068846Y4154500D01*
X-10018156Y4164582D01*
X-9890047Y4190065D01*
X-9890037Y4190068D01*
X-9721611Y4259832D01*
X-9570028Y4361116D01*
X-9570027Y4361118D01*
X-9441118Y4490027D01*
X-9441116Y4490028D01*
X-9339832Y4641611D01*
X-9311995Y4708818D01*
X-9271947Y4748867D01*
X-9243628Y4754500D01*
X-8448479Y4754500D01*
X-8396153Y4732826D01*
X-4195653Y532326D01*
X-4173979Y480000D01*
X-4195653Y427674D01*
X-4977153Y-353826D01*
X-5029479Y-375500D01*
X-5287588Y-375500D01*
X-5327472Y-361962D01*
X-5328037Y-362940D01*
X-5429258Y-304499D01*
X-5429267Y-304495D01*
X-5537480Y-275500D01*
X-5537482Y-275500D01*
X-5649518Y-275500D01*
X-5649520Y-275500D01*
X-5757732Y-304495D01*
X-5757741Y-304499D01*
X-5828436Y-345315D01*
X-5854763Y-360515D01*
X-5933985Y-439737D01*
X-5973495Y-508171D01*
X-6018428Y-542649D01*
X-6074581Y-535257D01*
X-6089907Y-523497D01*
X-6825767Y212362D01*
X-6825769Y212364D01*
X-6875910Y233133D01*
X-6915959Y273181D01*
X-6915959Y329818D01*
X-6875911Y369867D01*
X-6847592Y375500D01*
X-5899412Y375500D01*
X-5859527Y361962D01*
X-5858963Y362940D01*
X-5757741Y304499D01*
X-5757738Y304497D01*
X-5757737Y304497D01*
X-5757735Y304496D01*
X-5757732Y304495D01*
X-5649520Y275500D01*
X-5649518Y275500D01*
X-5537479Y275500D01*
X-5429267Y304495D01*
X-5429258Y304499D01*
X-5332236Y360515D01*
X-5253015Y439736D01*
X-5196999Y536758D01*
X-5196995Y536767D01*
X-5168000Y644979D01*
X-5168000Y757020D01*
X-5196995Y865232D01*
X-5196999Y865241D01*
X-5253015Y962263D01*
X-5332236Y1041484D01*
X-5332237Y1041485D01*
X-5429263Y1097503D01*
X-5453652Y1104038D01*
X-5537480Y1126500D01*
X-5537482Y1126500D01*
X-5649518Y1126500D01*
X-5649520Y1126500D01*
X-5715746Y1108754D01*
X-5757737Y1097503D01*
X-5843177Y1048174D01*
X-5858963Y1039060D01*
X-5859527Y1040037D01*
X-5899412Y1026500D01*
X-8003122Y1026500D01*
X-8055448Y1048174D01*
X-8260688Y1253414D01*
X-8537738Y1530465D01*
X-8611961Y1573318D01*
X-8694747Y1595500D01*
X-8694749Y1595500D01*
X-9158082Y1595500D01*
X-9210408Y1617174D01*
X-9232082Y1669500D01*
X-9210408Y1721826D01*
X-9206551Y1725682D01*
X-9090903Y1884857D01*
X-9001579Y2060166D01*
X-9001577Y2060171D01*
X-8940781Y2247280D01*
X-8940778Y2247293D01*
X-8910000Y2441622D01*
X-8910000Y2638377D01*
X-8940778Y2832706D01*
X-8940781Y2832719D01*
X-9001577Y3019828D01*
X-9001579Y3019833D01*
X-9090903Y3195142D01*
X-9116319Y3230124D01*
X-9930896Y2415548D01*
X-9983222Y2393874D01*
X-10035548Y2415548D01*
X-10160000Y2540000D01*
X-10284451Y2415549D01*
X-10336777Y2393875D01*
X-10389103Y2415549D01*
X-11203679Y3230125D01*
X-11203679Y3230124D01*
X-11229095Y3195144D01*
X-11229096Y3195143D01*
X-11318415Y3019843D01*
X-11318422Y3019828D01*
X-11379218Y2832719D01*
X-11379221Y2832706D01*
X-11410000Y2638377D01*
X-11410000Y2441622D01*
X-11379221Y2247293D01*
X-11379218Y2247280D01*
X-11318422Y2060171D01*
X-11318420Y2060166D01*
X-11229096Y1884857D01*
X-11113448Y1725682D01*
X-11109592Y1721826D01*
X-11087918Y1669500D01*
X-11109592Y1617174D01*
X-11161918Y1595500D01*
X-12065522Y1595500D01*
X-12117848Y1617174D01*
X-12127051Y1628388D01*
X-12175304Y1700605D01*
X-12269394Y1794695D01*
X-12380031Y1868620D01*
X-12502961Y1919539D01*
X-12502962Y1919539D01*
X-12502964Y1919540D01*
X-12502965Y1919540D01*
X-12502968Y1919541D01*
X-12569093Y1932694D01*
X-12633469Y1945500D01*
X-12766531Y1945500D01*
X-12897036Y1919540D01*
X-13019969Y1868620D01*
X-13130606Y1794695D01*
X-13224695Y1700606D01*
X-13298620Y1589969D01*
X-13349540Y1467036D01*
X-13371607Y1356099D01*
X-13375500Y1336530D01*
X-15040915Y1336530D01*
X-15039878Y1347275D01*
X-14981161Y1955761D01*
X-14959830Y2000978D01*
X-14935794Y2025014D01*
X-14879778Y2122036D01*
X-14879774Y2122045D01*
X-14850779Y2230257D01*
X-14850779Y2342298D01*
X-14879774Y2450510D01*
X-14879779Y2450521D01*
X-14888575Y2465757D01*
X-14896999Y2517523D01*
X-14809442Y2947426D01*
X-13209019Y2947426D01*
X-13209019Y2947425D01*
X-13173675Y2923809D01*
X-12991693Y2848430D01*
X-12991682Y2848427D01*
X-12798490Y2810000D01*
X-12601510Y2810000D01*
X-12408317Y2848427D01*
X-12408306Y2848430D01*
X-12226322Y2923810D01*
X-12190979Y2947425D01*
X-12190979Y2947426D01*
X-12700000Y3456446D01*
X-13209019Y2947426D01*
X-14809442Y2947426D01*
X-14800818Y2989772D01*
X-14694818Y3510232D01*
X-14674633Y3547789D01*
X-14613129Y3609293D01*
X-14557112Y3706317D01*
X-14557108Y3706326D01*
X-14528113Y3814538D01*
X-14528113Y3904196D01*
X-14528113Y3908490D01*
X-13700000Y3908490D01*
X-13700000Y3711509D01*
X-13661572Y3518317D01*
X-13661569Y3518306D01*
X-13586189Y3336323D01*
X-13562572Y3300979D01*
X-13053553Y3809999D01*
X-13053553Y3810000D01*
X-12346446Y3810000D01*
X-12346446Y3809999D01*
X-11837426Y3300979D01*
X-11837425Y3300979D01*
X-11813810Y3336322D01*
X-11738430Y3518306D01*
X-11738427Y3518317D01*
X-11728165Y3569911D01*
X-11725426Y3583679D01*
X-10850125Y3583679D01*
X-10160000Y2893554D01*
X-9469874Y3583679D01*
X-9504860Y3609097D01*
X-9680166Y3698420D01*
X-9680171Y3698422D01*
X-9867280Y3759218D01*
X-9867293Y3759221D01*
X-10061622Y3790000D01*
X-10258378Y3790000D01*
X-10452706Y3759221D01*
X-10452719Y3759218D01*
X-10639828Y3698422D01*
X-10639843Y3698415D01*
X-10815143Y3609096D01*
X-10815144Y3609095D01*
X-10850124Y3583679D01*
X-10850125Y3583679D01*
X-11725426Y3583679D01*
X-11700000Y3711509D01*
X-11700000Y3908490D01*
X-11738427Y4101682D01*
X-11738430Y4101693D01*
X-11813809Y4283675D01*
X-11837426Y4319019D01*
X-12346446Y3810000D01*
X-13053553Y3810000D01*
X-13562573Y4319020D01*
X-13586190Y4283675D01*
X-13661569Y4101693D01*
X-13661572Y4101682D01*
X-13700000Y3908490D01*
X-14528113Y3908490D01*
X-14528113Y3926577D01*
X-14553528Y4021429D01*
X-14553911Y4023194D01*
X-14552867Y4028955D01*
X-14552161Y4061140D01*
X-14360914Y4667262D01*
X-14359238Y4672573D01*
X-13209020Y4672573D01*
X-12700000Y4163553D01*
X-12190979Y4672572D01*
X-12190979Y4672573D01*
X-12226323Y4696189D01*
X-12408306Y4771569D01*
X-12408317Y4771572D01*
X-12601510Y4810000D01*
X-12798490Y4810000D01*
X-12991682Y4771572D01*
X-12991693Y4771569D01*
X-13173675Y4696190D01*
X-13209020Y4672573D01*
X-14359238Y4672573D01*
X-14247980Y5025186D01*
X-14214415Y5067002D01*
X-14205851Y5071947D01*
X-14205849Y5071948D01*
X-14126627Y5151170D01*
X-14070611Y5248192D01*
X-14070607Y5248201D01*
X-14041612Y5356413D01*
X-14041612Y5468450D01*
X-14041612Y5468452D01*
X-14052514Y5509142D01*
X-14048892Y5557816D01*
X-13643253Y6490193D01*
X-13612399Y6524756D01*
X-13560846Y6554521D01*
X-13481621Y6633745D01*
X-13425605Y6730767D01*
X-13425601Y6730776D01*
X-13396606Y6838988D01*
X-13396606Y6951028D01*
X-13397102Y6954797D01*
X-13388134Y7000907D01*
X-12893106Y7875446D01*
X-12864388Y7900969D01*
X-12865626Y7903113D01*
X-12764399Y7961556D01*
X-12685178Y8040777D01*
X-12629162Y8137799D01*
X-12629158Y8137808D01*
X-12600163Y8246020D01*
X-12600163Y8314246D01*
X-12586399Y8357231D01*
X-11996182Y9184320D01*
X-11955101Y9212813D01*
X-11922270Y9221610D01*
X-11922268Y9221611D01*
X-11825243Y9277629D01*
X-11746022Y9356850D01*
X-11690006Y9453872D01*
X-11690002Y9453881D01*
X-11661007Y9562093D01*
X-11661007Y9579693D01*
X-11642420Y9628738D01*
X-10970968Y10387360D01*
X-10934708Y10409793D01*
X-10850695Y10432304D01*
X-10850690Y10432306D01*
X-10753665Y10488324D01*
X-10674444Y10567545D01*
X-10618428Y10664567D01*
X-10618424Y10664576D01*
X-10593468Y10757713D01*
X-10571972Y10793129D01*
X-9826517Y11475931D01*
X-9776535Y11495362D01*
X-9766649Y11495362D01*
X-9658437Y11524357D01*
X-9658428Y11524361D01*
X-9561406Y11580377D01*
X-9482185Y11659598D01*
X-9426167Y11756623D01*
X-9426166Y11756625D01*
X-9415263Y11797315D01*
X-9387790Y11837654D01*
X-8570308Y12442300D01*
X-8527123Y12456801D01*
X-8526672Y12456806D01*
X-8466773Y12456806D01*
X-8464189Y12457498D01*
X-8456820Y12457580D01*
X-8434342Y12448559D01*
X-8410944Y12442287D01*
X-8408602Y12438231D01*
X-8404257Y12436487D01*
X-8394740Y12414212D01*
X-8382632Y12393234D01*
X-8382062Y12384539D01*
X-8382005Y12384405D01*
X-8382046Y12384300D01*
X-8382000Y12383585D01*
X-8382000Y9652000D01*
X-3452200Y9652000D01*
X-3399874Y9630326D01*
X-3378200Y9578000D01*
X-3378200Y7112000D01*
X8382000Y7112000D01*
X8382000Y12425006D01*
X8403674Y12477332D01*
X8456000Y12499006D01*
X8498985Y12485242D01*
G37*
%TD.AperFunction*%
%TD*%
M02*
