M48
; DRILL file {KiCad 9.0.2} date 2025-06-15T10:44:01-0400
; FORMAT={-:-/ absolute / inch / decimal}
; #@! TF.CreationDate,2025-06-15T10:44:01-04:00
; #@! TF.GenerationSoftware,Kicad,Pcbnew,9.0.2
; #@! TF.FileFunction,Plated,1,2,PTH
FMAT,2
INCH
; #@! TA.AperFunction,Plated,PTH,ViaDrill
T1C0.0098
; #@! TA.AperFunction,Plated,PTH,ComponentDrill
T2C0.0098
%
G90
G05
T1
X-0.6075Y0.0267
X-0.607Y-0.037
X-0.6014Y0.09
X-0.5998Y-0.1002
X-0.5887Y0.1524
X-0.586Y-0.1624
X-0.5696Y0.2131
X-0.5659Y-0.2228
X-0.5442Y0.2715
X-0.5395Y-0.2807
X-0.5128Y0.3269
X-0.5072Y-0.3355
X-0.4758Y0.3787
X-0.4693Y-0.3867
X-0.4337Y0.4263
X-0.4263Y-0.4337
X-0.3867Y0.4693
X-0.3787Y-0.4758
X-0.3578Y-0.4338
X-0.3501Y0.4401
X-0.3355Y0.5072
X-0.33Y0.045
X-0.3269Y-0.5128
X-0.325Y0.0
X-0.3026Y-0.1024
X-0.2807Y0.5395
X-0.28Y0.0276
X-0.28Y-0.0276
X-0.2715Y-0.5442
X-0.2228Y0.5659
X-0.2131Y-0.5696
X-0.206Y0.065
X-0.206Y0.028
X-0.206Y-0.065
X-0.202Y-0.028
X-0.1862Y0.1762
X-0.1624Y0.586
X-0.1524Y-0.5887
X-0.1167Y0.246
X-0.1002Y0.5998
X-0.09Y-0.6014
X-0.06Y-0.32
X-0.059Y-0.12
X-0.058Y-0.032
X-0.046Y0.362
X-0.042Y0.1225
X-0.037Y0.607
X-0.031Y-0.273
X-0.03Y-0.12
X-0.0295Y0.073
X-0.0267Y-0.6075
X-0.0234Y0.4103
X-0.0133Y0.0186
X-0.0133Y-0.01
X-0.0098Y0.117
X-0.0098Y-0.0682
X-0.007Y-0.24
X0.0Y0.4
X0.0Y0.27
X0.0089Y-0.12
X0.012Y-0.39
X0.015Y0.048
X0.0201Y0.357
X0.0267Y0.6075
X0.027Y0.561
X0.037Y-0.607
X0.05Y-0.13
X0.0508Y-0.0192
X0.0579Y0.0126
X0.069Y0.117
X0.0756Y-0.13
X0.09Y-0.294
X0.09Y0.6014
X0.1002Y-0.5998
X0.112Y0.0549
X0.116Y-0.39
X0.125Y-0.049
X0.152Y-0.292
X0.1524Y0.5887
X0.162Y-0.0201
X0.1624Y-0.586
X0.188Y-0.248
X0.197Y-0.134
X0.2Y0.066
X0.204Y-0.094
X0.2131Y0.5696
X0.2228Y-0.5659
X0.225Y-0.161
X0.24Y0.0069
X0.248Y0.0885
X0.26Y-0.012
X0.2715Y0.5442
X0.28Y0.088
X0.2807Y-0.5395
X0.299Y0.0098
X0.3269Y0.5128
X0.3355Y-0.5072
X0.3566Y0.4346
X0.3787Y0.4758
X0.3867Y-0.4693
X0.4263Y0.4337
X0.4337Y-0.4263
X0.4693Y0.3867
X0.4758Y-0.3787
X0.5072Y0.3355
X0.5128Y-0.3269
X0.5236Y-0.204
X0.5395Y0.2807
X0.5442Y-0.2715
X0.5659Y0.2228
X0.5696Y-0.2131
X0.586Y0.1624
X0.5887Y-0.1524
X0.5998Y0.1002
X0.6014Y-0.09
X0.607Y0.037
X0.6075Y-0.0267
T2
X-0.3179Y-0.2604
X-0.1525Y-0.2604
M30
