M48
; DRILL file {KiCad 9.0.2} date 2025-06-11T22:36:27-0400
; FORMAT={-:-/ absolute / inch / decimal}
; #@! TF.CreationDate,2025-06-11T22:36:27-04:00
; #@! TF.GenerationSoftware,Kicad,Pcbnew,9.0.2
; #@! TF.FileFunction,Plated,1,4,PTH
FMAT,2
INCH
; #@! TA.AperFunction,Plated,PTH,ViaDrill
T1C0.0098
; #@! TA.AperFunction,Plated,PTH,ComponentDrill
T2C0.0098
%
G90
G05
T1
X-0.6075Y0.0267
X-0.607Y-0.037
X-0.6014Y0.09
X-0.5998Y-0.1002
X-0.5887Y0.1524
X-0.586Y-0.1624
X-0.5696Y0.2131
X-0.5659Y-0.2228
X-0.5442Y0.2715
X-0.5395Y-0.2807
X-0.5128Y0.3269
X-0.5072Y-0.3355
X-0.4758Y0.3787
X-0.4693Y-0.3867
X-0.4337Y0.4263
X-0.4263Y-0.4337
X-0.3867Y0.4693
X-0.3787Y-0.4758
X-0.3355Y0.5072
X-0.3269Y-0.5128
X-0.2807Y0.5395
X-0.2715Y-0.5442
X-0.2228Y0.5659
X-0.2131Y-0.5696
X-0.1624Y0.586
X-0.1524Y-0.5887
X-0.1002Y0.5998
X-0.09Y-0.6014
X-0.037Y0.607
X-0.0295Y0.073
X-0.0267Y-0.6075
X-0.0098Y0.117
X0.0Y0.0
X0.0267Y0.6075
X0.0283Y0.559
X0.037Y-0.607
X0.069Y0.117
X0.09Y0.6014
X0.1002Y-0.5998
X0.1524Y0.5887
X0.1624Y-0.586
X0.163Y0.0098
X0.211Y0.07
X0.2131Y0.5696
X0.2143Y0.0403
X0.2228Y-0.5659
X0.255Y0.0
X0.2715Y0.5442
X0.2807Y-0.5395
X0.3269Y0.5128
X0.3355Y-0.5072
X0.3787Y0.4758
X0.3867Y-0.4693
X0.4263Y0.4337
X0.4337Y-0.4263
X0.4693Y0.3867
X0.4758Y-0.3787
X0.5072Y0.3355
X0.5128Y-0.3269
X0.5395Y0.2807
X0.5442Y-0.2715
X0.5659Y0.2228
X0.5696Y-0.2131
X0.586Y0.1624
X0.5887Y-0.1524
X0.5998Y0.1002
X0.6014Y-0.09
X0.607Y0.037
X0.6075Y-0.0267
T2
X0.8918Y-1.0322
X1.0571Y-1.0322
M30
