%TF.GenerationSoftware,KiCad,Pcbnew,9.0.2*%
%TF.CreationDate,2025-06-11T22:36:26-04:00*%
%TF.ProjectId,WristWatch,57726973-7457-4617-9463-682e6b696361,rev?*%
%TF.SameCoordinates,Original*%
%TF.FileFunction,Legend,Top*%
%TF.FilePolarity,Positive*%
%FSLAX46Y46*%
G04 Gerber Fmt 4.6, Leading zero omitted, Abs format (unit mm)*
G04 Created by KiCad (PCBNEW 9.0.2) date 2025-06-11 22:36:26*
%MOMM*%
%LPD*%
G01*
G04 APERTURE LIST*
%ADD10C,0.120000*%
%ADD11C,0.150000*%
G04 APERTURE END LIST*
D10*
%TO.C,U6*%
X22866200Y-19658200D02*
X22866200Y-19423200D01*
X22866200Y-24403200D02*
X22866200Y-23928200D01*
X23341200Y-19183200D02*
X23166200Y-19183200D01*
X23341200Y-24403200D02*
X22866200Y-24403200D01*
X27611200Y-19183200D02*
X28086200Y-19183200D01*
X27611200Y-24403200D02*
X28086200Y-24403200D01*
X28086200Y-19183200D02*
X28086200Y-19658200D01*
X28086200Y-24403200D02*
X28086200Y-23928200D01*
X22866200Y-19183200D02*
X22626200Y-18853200D01*
X23106200Y-18853200D01*
X22866200Y-19183200D01*
G36*
X22866200Y-19183200D02*
G01*
X22626200Y-18853200D01*
X23106200Y-18853200D01*
X22866200Y-19183200D01*
G37*
%TO.C,R12*%
X28952559Y-28023200D02*
X29259841Y-28023200D01*
X28952559Y-28783200D02*
X29259841Y-28783200D01*
%TO.C,R11*%
X28952559Y-26033200D02*
X29259841Y-26033200D01*
X28952559Y-26793200D02*
X29259841Y-26793200D01*
%TO.C,Q2*%
X24401200Y-29263200D02*
X23101200Y-29263200D01*
X24401200Y-31063200D02*
X23101200Y-31063200D01*
D11*
X22576200Y-29653200D02*
G75*
G02*
X22426200Y-29653200I-75000J0D01*
G01*
X22426200Y-29653200D02*
G75*
G02*
X22576200Y-29653200I75000J0D01*
G01*
D10*
%TO.C,C17*%
X31888364Y-28013200D02*
X32104036Y-28013200D01*
X31888364Y-28733200D02*
X32104036Y-28733200D01*
%TO.C,C16*%
X31888364Y-26043200D02*
X32104036Y-26043200D01*
X31888364Y-26763200D02*
X32104036Y-26763200D01*
%TO.C,U4*%
X42799000Y-2224600D02*
X41999000Y-2224600D01*
X42799000Y-2224600D02*
X43599000Y-2224600D01*
X42799000Y-5344600D02*
X41999000Y-5344600D01*
X42799000Y-5344600D02*
X43599000Y-5344600D01*
X41499000Y-2274600D02*
X41259000Y-1944600D01*
X41739000Y-1944600D01*
X41499000Y-2274600D01*
G36*
X41499000Y-2274600D02*
G01*
X41259000Y-1944600D01*
X41739000Y-1944600D01*
X41499000Y-2274600D01*
G37*
%TO.C,C13*%
X46701164Y-3979600D02*
X46916836Y-3979600D01*
X46701164Y-4699600D02*
X46916836Y-4699600D01*
%TO.C,C12*%
X46701164Y-2009600D02*
X46916836Y-2009600D01*
X46701164Y-2729600D02*
X46916836Y-2729600D01*
%TO.C,U2*%
X2135000Y2610000D02*
X2370000Y2610000D01*
X-2610000Y2610000D02*
X-2135000Y2610000D01*
X2610000Y2135000D02*
X2610000Y2310000D01*
X-2610000Y2135000D02*
X-2610000Y2610000D01*
X2610000Y-2135000D02*
X2610000Y-2610000D01*
X-2610000Y-2135000D02*
X-2610000Y-2610000D01*
X2610000Y-2610000D02*
X2135000Y-2610000D01*
X-2610000Y-2610000D02*
X-2135000Y-2610000D01*
%TO.C,U5*%
X-7086600Y1534600D02*
X-7886600Y1534600D01*
X-7086600Y1534600D02*
X-6286600Y1534600D01*
X-7086600Y-1585400D02*
X-7886600Y-1585400D01*
X-7086600Y-1585400D02*
X-6286600Y-1585400D01*
X-8386600Y1484600D02*
X-8626600Y1814600D01*
X-8146600Y1814600D01*
X-8386600Y1484600D01*
G36*
X-8386600Y1484600D02*
G01*
X-8626600Y1814600D01*
X-8146600Y1814600D01*
X-8386600Y1484600D01*
G37*
%TO.C,R10*%
X-7240241Y2310400D02*
X-6932959Y2310400D01*
X-7240241Y1550400D02*
X-6932959Y1550400D01*
%TO.C,C15*%
X-9834200Y-590436D02*
X-9834200Y-374764D01*
X-9114200Y-590436D02*
X-9114200Y-374764D01*
%TO.C,C14*%
X-5429364Y334600D02*
X-5645036Y334600D01*
X-5429364Y-385400D02*
X-5645036Y-385400D01*
%TO.C,U3*%
X7577000Y-1100000D02*
X7077000Y-1100000D01*
X7577000Y-600000D02*
X7577000Y-1100000D01*
X7577000Y600000D02*
X7577000Y600000D01*
X7577000Y1100000D02*
X7577000Y600000D01*
X7077000Y-1100000D02*
X7077000Y-1100000D01*
X7077000Y1100000D02*
X7577000Y1100000D01*
X5877000Y-1100000D02*
X5377000Y-1100000D01*
X5877000Y1100000D02*
X5577000Y1100000D01*
X5377000Y-1100000D02*
X5377000Y-600000D01*
X5377000Y-600000D02*
X5377000Y-600000D01*
X5377000Y600000D02*
X5377000Y900000D01*
X5377000Y1100000D02*
X5377000Y1100000D01*
%TO.C,R9*%
X6630641Y1398000D02*
X6323359Y1398000D01*
X6630641Y2158000D02*
X6323359Y2158000D01*
%TO.C,R8*%
X3936000Y407641D02*
X3936000Y100359D01*
X3176000Y407641D02*
X3176000Y100359D01*
%TO.C,R7*%
X4952000Y-100359D02*
X4952000Y-407641D01*
X4192000Y-100359D02*
X4192000Y-407641D01*
%TO.C,R1*%
X3936000Y2185641D02*
X3936000Y1878359D01*
X3176000Y2185641D02*
X3176000Y1878359D01*
%TO.C,C7*%
X615836Y6752000D02*
X400164Y6752000D01*
X615836Y7472000D02*
X400164Y7472000D01*
%TO.C,C4*%
X2432164Y7472000D02*
X2647836Y7472000D01*
X2432164Y6752000D02*
X2647836Y6752000D01*
%TO.C,C1*%
X-361836Y4017600D02*
X-146164Y4017600D01*
X-361836Y3297600D02*
X-146164Y3297600D01*
%TO.C,Y1*%
X2199000Y4713000D02*
X849000Y4713000D01*
X2199000Y6463000D02*
X849000Y6463000D01*
%TO.C,R6*%
X-153641Y9016000D02*
X153641Y9016000D01*
X-153641Y8256000D02*
X153641Y8256000D01*
%TO.C,Q1*%
X-900000Y10810000D02*
X-900000Y9510000D01*
X900000Y10810000D02*
X900000Y9510000D01*
D11*
X-435000Y8910000D02*
G75*
G02*
X-585000Y8910000I-75000J0D01*
G01*
X-585000Y8910000D02*
G75*
G02*
X-435000Y8910000I75000J0D01*
G01*
%TD*%
M02*
