%TF.GenerationSoftware,KiCad,Pcbnew,8.0.6*%
%TF.CreationDate,2025-01-18T11:53:47-05:00*%
%TF.ProjectId,WristWatch,57726973-7457-4617-9463-682e6b696361,rev?*%
%TF.SameCoordinates,Original*%
%TF.FileFunction,Copper,L4,Bot*%
%TF.FilePolarity,Positive*%
%FSLAX46Y46*%
G04 Gerber Fmt 4.6, Leading zero omitted, Abs format (unit mm)*
G04 Created by KiCad (PCBNEW 8.0.6) date 2025-01-18 11:53:47*
%MOMM*%
%LPD*%
G01*
G04 APERTURE LIST*
%TA.AperFunction,ViaPad*%
%ADD10C,0.500000*%
%TD*%
G04 APERTURE END LIST*
D10*
%TO.N,CA7*%
X19405600Y-21539200D03*
X-22555200Y4876800D03*
X-11582400Y20015200D03*
X11531600Y20015200D03*
X21793200Y7569200D03*
X-14478000Y25095200D03*
X6045200Y28295600D03*
X15240000Y-17272000D03*
X-18694400Y-13544975D03*
X-23418800Y-17018000D03*
X23063200Y0D03*
X-28346400Y6045200D03*
X-3048000Y-28803600D03*
X4572000Y22656800D03*
X28956000Y0D03*
X-2286000Y-22961600D03*
%TO.N,CA6*%
X-20460475Y-11799292D03*
X19405600Y21539200D03*
X-25095200Y-14478000D03*
X-9855200Y22098000D03*
X-4876800Y-23063200D03*
X7823200Y22961600D03*
X-11785600Y26466800D03*
X17018000Y-23418800D03*
X-6045200Y-28346400D03*
X13817600Y-19151600D03*
X-27533600Y8940800D03*
X-22910799Y7874000D03*
X23164800Y4572000D03*
X8991600Y27584400D03*
X20421600Y-11836400D03*
X15951200Y18237200D03*
%TO.N,CA9*%
X11252200Y18796000D03*
X-14757400Y-16154400D03*
X21412200Y4699000D03*
X17725833Y-12882709D03*
X3022600Y28778200D03*
X-19380200Y-21513800D03*
X14478000Y25069800D03*
X-28956000Y0D03*
X28346400Y6019800D03*
X-21920200Y457200D03*
X3022600Y-28803600D03*
X-14147800Y16738600D03*
X2209800Y21818600D03*
X2286000Y-21793200D03*
X-19354800Y21513800D03*
X23444200Y-17018000D03*
%TO.N,CA4*%
X23418800Y17018000D03*
X-4521200Y24333200D03*
X-25095200Y14478000D03*
X24282400Y-4724400D03*
X-14035572Y-20384998D03*
X28346400Y-6045200D03*
X-22250400Y10820400D03*
X14478000Y-25044400D03*
X13868400Y-20523200D03*
X19927752Y14670430D03*
X-6045200Y28346400D03*
X-27533600Y-8940800D03*
X2794000Y-24587199D03*
X-23418800Y-8077200D03*
%TO.N,CA5*%
X19591109Y-14248083D03*
X-7924800Y-22860000D03*
X-22111151Y-9836682D03*
X-7975600Y24638000D03*
X21539200Y19405600D03*
X-23656358Y10530895D03*
X-8940800Y-27533600D03*
X28854400Y-3048000D03*
X-8991600Y27584400D03*
X4521200Y-23774400D03*
X-26466800Y11785600D03*
X24079200Y-2540000D03*
X19050000Y16662400D03*
X11785600Y26466800D03*
X10261600Y23164800D03*
X-26466800Y-11785600D03*
%TO.N,CA1*%
X-18168568Y20178239D03*
X6045200Y-28295600D03*
X27533600Y8940800D03*
X-28803600Y-3048000D03*
X25095200Y-14478000D03*
X-17018000Y-23418800D03*
%TO.N,CA2*%
X-14427200Y-25095200D03*
X-12852400Y-22402800D03*
X-25857200Y0D03*
X23622000Y10515600D03*
X8940800Y-27533600D03*
X26416000Y11785600D03*
X-28295600Y-5994400D03*
X-25247600Y-5435600D03*
X8026400Y-24587200D03*
X0Y28956000D03*
X330200Y25933400D03*
X26416000Y-11785600D03*
X-27152499Y0D03*
X23622000Y-10464800D03*
%TO.N,CA3*%
X10414000Y-23063200D03*
X-23418800Y17018000D03*
X11785600Y-26416000D03*
X-3048000Y28803600D03*
X-10160000Y-23164800D03*
X22707599Y11176000D03*
X-2640529Y25196912D03*
X27533600Y-8940800D03*
X-20472400Y14935200D03*
X-11785600Y-26416000D03*
X25095200Y14478000D03*
X-25196799Y-2641600D03*
X23926800Y-8229600D03*
X-16611599Y-19100798D03*
%TO.N,CA8*%
X13970000Y19100800D03*
X22367529Y2366935D03*
X-21336000Y-10210800D03*
X0Y-28956000D03*
X0Y-22504400D03*
X-20218400Y-9855200D03*
X-17018000Y23418800D03*
X-21488400Y-19354800D03*
X-23520400Y2489200D03*
X16713200Y-15036800D03*
X17018000Y23418800D03*
X21539200Y-19405600D03*
X-28803600Y2997200D03*
X-16662400Y-15087600D03*
X-13868400Y19202400D03*
X28803600Y3048000D03*
X8940800Y21894800D03*
%TO.N,CB1*%
X-22325462Y18078801D03*
X-17087621Y21101455D03*
X-19199716Y19199716D03*
%TD*%
M02*
