%TF.GenerationSoftware,KiCad,Pcbnew,8.0.6*%
%TF.CreationDate,2025-01-18T11:53:47-05:00*%
%TF.ProjectId,WristWatch,57726973-7457-4617-9463-682e6b696361,rev?*%
%TF.SameCoordinates,Original*%
%TF.FileFunction,Copper,L1,Top*%
%TF.FilePolarity,Positive*%
%FSLAX46Y46*%
G04 Gerber Fmt 4.6, Leading zero omitted, Abs format (unit mm)*
G04 Created by KiCad (PCBNEW 8.0.6) date 2025-01-18 11:53:47*
%MOMM*%
%LPD*%
G01*
G04 APERTURE LIST*
G04 Aperture macros list*
%AMRoundRect*
0 Rectangle with rounded corners*
0 $1 Rounding radius*
0 $2 $3 $4 $5 $6 $7 $8 $9 X,Y pos of 4 corners*
0 Add a 4 corners polygon primitive as box body*
4,1,4,$2,$3,$4,$5,$6,$7,$8,$9,$2,$3,0*
0 Add four circle primitives for the rounded corners*
1,1,$1+$1,$2,$3*
1,1,$1+$1,$4,$5*
1,1,$1+$1,$6,$7*
1,1,$1+$1,$8,$9*
0 Add four rect primitives between the rounded corners*
20,1,$1+$1,$2,$3,$4,$5,0*
20,1,$1+$1,$4,$5,$6,$7,0*
20,1,$1+$1,$6,$7,$8,$9,0*
20,1,$1+$1,$8,$9,$2,$3,0*%
G04 Aperture macros list end*
%TA.AperFunction,Conductor*%
%ADD10C,0.127000*%
%TD*%
%TA.AperFunction,SMDPad,CuDef*%
%ADD11RoundRect,0.218750X-0.335876X-0.026517X-0.026517X-0.335876X0.335876X0.026517X0.026517X0.335876X0*%
%TD*%
%TA.AperFunction,SMDPad,CuDef*%
%ADD12RoundRect,0.218750X-0.331294X0.061318X-0.112544X-0.317568X0.331294X-0.061318X0.112544X0.317568X0*%
%TD*%
%TA.AperFunction,SMDPad,CuDef*%
%ADD13RoundRect,0.218750X0.323023X0.095770X-0.043895X0.334049X-0.323023X-0.095770X0.043895X-0.334049X0*%
%TD*%
%TA.AperFunction,SMDPad,CuDef*%
%ADD14RoundRect,0.218750X0.277619X0.190902X-0.144974X0.304135X-0.277619X-0.190902X0.144974X-0.304135X0*%
%TD*%
%TA.AperFunction,SMDPad,CuDef*%
%ADD15RoundRect,0.218750X-0.287229X-0.176111X0.128858X-0.311306X0.287229X0.176111X-0.128858X0.311306X0*%
%TD*%
%TA.AperFunction,SMDPad,CuDef*%
%ADD16RoundRect,0.218750X-0.026517X0.335876X-0.335876X0.026517X0.026517X-0.335876X0.335876X-0.026517X0*%
%TD*%
%TA.AperFunction,SMDPad,CuDef*%
%ADD17RoundRect,0.218750X-0.231861X-0.244450X0.205039X-0.267347X0.231861X0.244450X-0.205039X0.267347X0*%
%TD*%
%TA.AperFunction,SMDPad,CuDef*%
%ADD18RoundRect,0.218750X-0.256250X0.218750X-0.256250X-0.218750X0.256250X-0.218750X0.256250X0.218750X0*%
%TD*%
%TA.AperFunction,SMDPad,CuDef*%
%ADD19RoundRect,0.218750X0.190902X-0.277619X0.304135X0.144974X-0.190902X0.277619X-0.304135X-0.144974X0*%
%TD*%
%TA.AperFunction,SMDPad,CuDef*%
%ADD20RoundRect,0.218750X-0.311306X0.128858X-0.176111X-0.287229X0.311306X-0.128858X0.176111X0.287229X0*%
%TD*%
%TA.AperFunction,SMDPad,CuDef*%
%ADD21RoundRect,0.218750X-0.231981X0.244337X-0.277712X-0.190766X0.231981X-0.244337X0.277712X0.190766X0*%
%TD*%
%TA.AperFunction,SMDPad,CuDef*%
%ADD22RoundRect,0.218750X0.095612X0.323070X-0.304064X0.145122X-0.095612X-0.323070X0.304064X-0.145122X0*%
%TD*%
%TA.AperFunction,SMDPad,CuDef*%
%ADD23RoundRect,0.218750X0.205170X-0.267247X0.296131X0.160692X-0.205170X0.267247X-0.296131X-0.160692X0*%
%TD*%
%TA.AperFunction,SMDPad,CuDef*%
%ADD24RoundRect,0.218750X-0.190902X0.277619X-0.304135X-0.144974X0.190902X-0.277619X0.304135X0.144974X0*%
%TD*%
%TA.AperFunction,SMDPad,CuDef*%
%ADD25RoundRect,0.218750X-0.112544X0.317568X-0.331294X-0.061318X0.112544X-0.317568X0.331294X0.061318X0*%
%TD*%
%TA.AperFunction,SMDPad,CuDef*%
%ADD26RoundRect,0.218750X0.160692X0.296131X-0.267247X0.205170X-0.160692X-0.296131X0.267247X-0.205170X0*%
%TD*%
%TA.AperFunction,SMDPad,CuDef*%
%ADD27RoundRect,0.218750X-0.277619X-0.190902X0.144974X-0.304135X0.277619X0.190902X-0.144974X0.304135X0*%
%TD*%
%TA.AperFunction,SMDPad,CuDef*%
%ADD28RoundRect,0.218750X-0.205039X-0.267347X0.231861X-0.244450X0.205039X0.267347X-0.231861X0.244450X0*%
%TD*%
%TA.AperFunction,SMDPad,CuDef*%
%ADD29RoundRect,0.218750X-0.323023X-0.095770X0.043895X-0.334049X0.323023X0.095770X-0.043895X0.334049X0*%
%TD*%
%TA.AperFunction,SMDPad,CuDef*%
%ADD30RoundRect,0.218750X0.304135X-0.144974X0.190902X0.277619X-0.304135X0.144974X-0.190902X-0.277619X0*%
%TD*%
%TA.AperFunction,SMDPad,CuDef*%
%ADD31RoundRect,0.218750X-0.334028X-0.044059X-0.008902X-0.336803X0.334028X0.044059X0.008902X0.336803X0*%
%TD*%
%TA.AperFunction,SMDPad,CuDef*%
%ADD32RoundRect,0.218750X0.323070X-0.095612X0.145122X0.304064X-0.323070X0.095612X-0.145122X-0.304064X0*%
%TD*%
%TA.AperFunction,SMDPad,CuDef*%
%ADD33RoundRect,0.218750X-0.078733X0.327592X-0.335889X-0.026352X0.078733X-0.327592X0.335889X0.026352X0*%
%TD*%
%TA.AperFunction,SMDPad,CuDef*%
%ADD34RoundRect,0.218750X0.175970X0.287315X-0.256143X0.218875X-0.175970X-0.287315X0.256143X-0.218875X0*%
%TD*%
%TA.AperFunction,SMDPad,CuDef*%
%ADD35RoundRect,0.218750X0.287229X0.176111X-0.128858X0.311306X-0.287229X-0.176111X0.128858X-0.311306X0*%
%TD*%
%TA.AperFunction,SMDPad,CuDef*%
%ADD36RoundRect,0.218750X-0.044059X0.334028X-0.336803X0.008902X0.044059X-0.334028X0.336803X-0.008902X0*%
%TD*%
%TA.AperFunction,SMDPad,CuDef*%
%ADD37RoundRect,0.218750X0.008737X0.336807X-0.331264X0.061480X-0.008737X-0.336807X0.331264X-0.061480X0*%
%TD*%
%TA.AperFunction,SMDPad,CuDef*%
%ADD38RoundRect,0.218750X0.317623X-0.112389X0.160837X0.296053X-0.317623X0.112389X-0.160837X-0.296053X0*%
%TD*%
%TA.AperFunction,SMDPad,CuDef*%
%ADD39RoundRect,0.218750X-0.317623X0.112389X-0.160837X-0.296053X0.317623X-0.112389X0.160837X0.296053X0*%
%TD*%
%TA.AperFunction,SMDPad,CuDef*%
%ADD40RoundRect,0.218750X-0.218750X-0.256250X0.218750X-0.256250X0.218750X0.256250X-0.218750X0.256250X0*%
%TD*%
%TA.AperFunction,SMDPad,CuDef*%
%ADD41RoundRect,0.218750X0.296131X-0.160692X0.205170X0.267247X-0.296131X0.160692X-0.205170X-0.267247X0*%
%TD*%
%TA.AperFunction,SMDPad,CuDef*%
%ADD42RoundRect,0.218750X0.218750X0.256250X-0.218750X0.256250X-0.218750X-0.256250X0.218750X-0.256250X0*%
%TD*%
%TA.AperFunction,SMDPad,CuDef*%
%ADD43RoundRect,0.218750X0.296053X0.160837X-0.112389X0.317623X-0.296053X-0.160837X0.112389X-0.317623X0*%
%TD*%
%TA.AperFunction,SMDPad,CuDef*%
%ADD44RoundRect,0.218750X-0.296131X0.160692X-0.205170X-0.267247X0.296131X-0.160692X0.205170X0.267247X0*%
%TD*%
%TA.AperFunction,SMDPad,CuDef*%
%ADD45RoundRect,0.218750X-0.331264X-0.061480X0.008737X-0.336807X0.331264X0.061480X-0.008737X0.336807X0*%
%TD*%
%TA.AperFunction,SMDPad,CuDef*%
%ADD46RoundRect,0.218750X0.218875X-0.256143X0.287315X0.175970X-0.218875X0.256143X-0.287315X-0.175970X0*%
%TD*%
%TA.AperFunction,SMDPad,CuDef*%
%ADD47RoundRect,0.218750X0.145122X-0.304064X0.323070X0.095612X-0.145122X0.304064X-0.323070X-0.095612X0*%
%TD*%
%TA.AperFunction,SMDPad,CuDef*%
%ADD48RoundRect,0.218750X-0.061480X0.331264X-0.336807X-0.008737X0.061480X-0.331264X0.336807X0.008737X0*%
%TD*%
%TA.AperFunction,SMDPad,CuDef*%
%ADD49RoundRect,0.218750X0.026517X-0.335876X0.335876X-0.026517X-0.026517X0.335876X-0.335876X0.026517X0*%
%TD*%
%TA.AperFunction,SMDPad,CuDef*%
%ADD50RoundRect,0.218750X-0.061318X-0.331294X0.317568X-0.112544X0.061318X0.331294X-0.317568X0.112544X0*%
%TD*%
%TA.AperFunction,SMDPad,CuDef*%
%ADD51RoundRect,0.218750X0.335876X0.026517X0.026517X0.335876X-0.335876X-0.026517X-0.026517X-0.335876X0*%
%TD*%
%TA.AperFunction,SMDPad,CuDef*%
%ADD52RoundRect,0.218750X0.317568X0.112544X-0.061318X0.331294X-0.317568X-0.112544X0.061318X-0.331294X0*%
%TD*%
%TA.AperFunction,SMDPad,CuDef*%
%ADD53RoundRect,0.218750X-0.008737X-0.336807X0.331264X-0.061480X0.008737X0.336807X-0.331264X0.061480X0*%
%TD*%
%TA.AperFunction,SMDPad,CuDef*%
%ADD54RoundRect,0.218750X-0.304135X0.144974X-0.190902X-0.277619X0.304135X-0.144974X0.190902X0.277619X0*%
%TD*%
%TA.AperFunction,SMDPad,CuDef*%
%ADD55RoundRect,0.218750X-0.267347X0.205039X-0.244450X-0.231861X0.267347X-0.205039X0.244450X0.231861X0*%
%TD*%
%TA.AperFunction,SMDPad,CuDef*%
%ADD56RoundRect,0.218750X0.244337X0.231981X-0.190766X0.277712X-0.244337X-0.231981X0.190766X-0.277712X0*%
%TD*%
%TA.AperFunction,SMDPad,CuDef*%
%ADD57RoundRect,0.218750X0.327631X-0.078573X0.129010X0.311243X-0.327631X0.078573X-0.129010X-0.311243X0*%
%TD*%
%TA.AperFunction,SMDPad,CuDef*%
%ADD58RoundRect,0.218750X-0.144974X-0.304135X0.277619X-0.190902X0.144974X0.304135X-0.277619X0.190902X0*%
%TD*%
%TA.AperFunction,SMDPad,CuDef*%
%ADD59RoundRect,0.218750X-0.336807X0.008737X-0.061480X-0.331264X0.336807X-0.008737X0.061480X0.331264X0*%
%TD*%
%TA.AperFunction,SMDPad,CuDef*%
%ADD60RoundRect,0.218750X-0.277712X0.190766X-0.231981X-0.244337X0.277712X-0.190766X0.231981X0.244337X0*%
%TD*%
%TA.AperFunction,SMDPad,CuDef*%
%ADD61RoundRect,0.218750X-0.317568X-0.112544X0.061318X-0.331294X0.317568X0.112544X-0.061318X0.331294X0*%
%TD*%
%TA.AperFunction,SMDPad,CuDef*%
%ADD62RoundRect,0.218750X-0.335889X0.026352X-0.078733X-0.327592X0.335889X-0.026352X0.078733X0.327592X0*%
%TD*%
%TA.AperFunction,SMDPad,CuDef*%
%ADD63RoundRect,0.218750X0.078733X-0.327592X0.335889X0.026352X-0.078733X0.327592X-0.335889X-0.026352X0*%
%TD*%
%TA.AperFunction,SMDPad,CuDef*%
%ADD64RoundRect,0.218750X-0.218875X0.256143X-0.287315X-0.175970X0.218875X-0.256143X0.287315X0.175970X0*%
%TD*%
%TA.AperFunction,SMDPad,CuDef*%
%ADD65RoundRect,0.218750X-0.205170X0.267247X-0.296131X-0.160692X0.205170X-0.267247X0.296131X0.160692X0*%
%TD*%
%TA.AperFunction,SMDPad,CuDef*%
%ADD66RoundRect,0.218750X-0.160692X-0.296131X0.267247X-0.205170X0.160692X0.296131X-0.267247X0.205170X0*%
%TD*%
%TA.AperFunction,SMDPad,CuDef*%
%ADD67RoundRect,0.218750X0.128858X0.311306X-0.287229X0.176111X-0.128858X-0.311306X0.287229X-0.176111X0*%
%TD*%
%TA.AperFunction,SMDPad,CuDef*%
%ADD68RoundRect,0.218750X0.336803X0.008902X0.044059X0.334028X-0.336803X-0.008902X-0.044059X-0.334028X0*%
%TD*%
%TA.AperFunction,SMDPad,CuDef*%
%ADD69RoundRect,0.218750X0.205039X0.267347X-0.231861X0.244450X-0.205039X-0.267347X0.231861X-0.244450X0*%
%TD*%
%TA.AperFunction,SMDPad,CuDef*%
%ADD70RoundRect,0.218750X-0.327631X0.078573X-0.129010X-0.311243X0.327631X-0.078573X0.129010X0.311243X0*%
%TD*%
%TA.AperFunction,SMDPad,CuDef*%
%ADD71RoundRect,0.218750X0.176111X-0.287229X0.311306X0.128858X-0.176111X0.287229X-0.311306X-0.128858X0*%
%TD*%
%TA.AperFunction,SMDPad,CuDef*%
%ADD72RoundRect,0.218750X0.112544X-0.317568X0.331294X0.061318X-0.112544X0.317568X-0.331294X-0.061318X0*%
%TD*%
%TA.AperFunction,SMDPad,CuDef*%
%ADD73RoundRect,0.218750X-0.112389X-0.317623X0.296053X-0.160837X0.112389X0.317623X-0.296053X0.160837X0*%
%TD*%
%TA.AperFunction,SMDPad,CuDef*%
%ADD74RoundRect,0.218750X-0.176111X0.287229X-0.311306X-0.128858X0.176111X-0.287229X0.311306X0.128858X0*%
%TD*%
%TA.AperFunction,SMDPad,CuDef*%
%ADD75RoundRect,0.218750X-0.095770X0.323023X-0.334049X-0.043895X0.095770X-0.323023X0.334049X0.043895X0*%
%TD*%
%TA.AperFunction,SMDPad,CuDef*%
%ADD76RoundRect,0.218750X0.129010X-0.311243X0.327631X0.078573X-0.129010X0.311243X-0.327631X-0.078573X0*%
%TD*%
%TA.AperFunction,SMDPad,CuDef*%
%ADD77RoundRect,0.218750X-0.334049X0.043895X-0.095770X-0.323023X0.334049X-0.043895X0.095770X0.323023X0*%
%TD*%
%TA.AperFunction,SMDPad,CuDef*%
%ADD78RoundRect,0.218750X-0.336803X-0.008902X-0.044059X-0.334028X0.336803X0.008902X0.044059X0.334028X0*%
%TD*%
%TA.AperFunction,SMDPad,CuDef*%
%ADD79RoundRect,0.218750X0.043895X0.334049X-0.323023X0.095770X-0.043895X-0.334049X0.323023X-0.095770X0*%
%TD*%
%TA.AperFunction,SMDPad,CuDef*%
%ADD80RoundRect,0.218750X0.160837X-0.296053X0.317623X0.112389X-0.160837X0.296053X-0.317623X-0.112389X0*%
%TD*%
%TA.AperFunction,SMDPad,CuDef*%
%ADD81RoundRect,0.218750X0.231861X0.244450X-0.205039X0.267347X-0.231861X-0.244450X0.205039X-0.267347X0*%
%TD*%
%TA.AperFunction,SMDPad,CuDef*%
%ADD82RoundRect,0.218750X0.256143X0.218875X-0.175970X0.287315X-0.256143X-0.218875X0.175970X-0.287315X0*%
%TD*%
%TA.AperFunction,SMDPad,CuDef*%
%ADD83RoundRect,0.218750X0.026352X0.335889X-0.327592X0.078733X-0.026352X-0.335889X0.327592X-0.078733X0*%
%TD*%
%TA.AperFunction,SMDPad,CuDef*%
%ADD84RoundRect,0.218750X-0.175970X-0.287315X0.256143X-0.218875X0.175970X0.287315X-0.256143X0.218875X0*%
%TD*%
%TA.AperFunction,SMDPad,CuDef*%
%ADD85RoundRect,0.218750X-0.129010X0.311243X-0.327631X-0.078573X0.129010X-0.311243X0.327631X0.078573X0*%
%TD*%
%TA.AperFunction,SMDPad,CuDef*%
%ADD86RoundRect,0.218750X0.256250X-0.218750X0.256250X0.218750X-0.256250X0.218750X-0.256250X-0.218750X0*%
%TD*%
%TA.AperFunction,SMDPad,CuDef*%
%ADD87RoundRect,0.218750X-0.145122X0.304064X-0.323070X-0.095612X0.145122X-0.304064X0.323070X0.095612X0*%
%TD*%
%TA.AperFunction,SMDPad,CuDef*%
%ADD88RoundRect,0.218750X0.144974X0.304135X-0.277619X0.190902X-0.144974X-0.304135X0.277619X-0.190902X0*%
%TD*%
%TA.AperFunction,SMDPad,CuDef*%
%ADD89RoundRect,0.218750X0.044059X-0.334028X0.336803X-0.008902X-0.044059X0.334028X-0.336803X0.008902X0*%
%TD*%
%TA.AperFunction,SMDPad,CuDef*%
%ADD90RoundRect,0.218750X0.331264X0.061480X-0.008737X0.336807X-0.331264X-0.061480X0.008737X-0.336807X0*%
%TD*%
%TA.AperFunction,SMDPad,CuDef*%
%ADD91RoundRect,0.218750X0.112389X0.317623X-0.296053X0.160837X-0.112389X-0.317623X0.296053X-0.160837X0*%
%TD*%
%TA.AperFunction,SMDPad,CuDef*%
%ADD92RoundRect,0.218750X0.231981X-0.244337X0.277712X0.190766X-0.231981X0.244337X-0.277712X-0.190766X0*%
%TD*%
%TA.AperFunction,SMDPad,CuDef*%
%ADD93RoundRect,0.218750X0.331294X-0.061318X0.112544X0.317568X-0.331294X0.061318X-0.112544X-0.317568X0*%
%TD*%
%TA.AperFunction,SMDPad,CuDef*%
%ADD94RoundRect,0.218750X0.334028X0.044059X0.008902X0.336803X-0.334028X-0.044059X-0.008902X-0.336803X0*%
%TD*%
%TA.AperFunction,SMDPad,CuDef*%
%ADD95RoundRect,0.218750X-0.095612X-0.323070X0.304064X-0.145122X0.095612X0.323070X-0.304064X0.145122X0*%
%TD*%
%TA.AperFunction,SMDPad,CuDef*%
%ADD96RoundRect,0.218750X-0.296053X-0.160837X0.112389X-0.317623X0.296053X0.160837X-0.112389X0.317623X0*%
%TD*%
%TA.AperFunction,SMDPad,CuDef*%
%ADD97RoundRect,0.218750X0.061318X0.331294X-0.317568X0.112544X-0.061318X-0.331294X0.317568X-0.112544X0*%
%TD*%
%TA.AperFunction,SMDPad,CuDef*%
%ADD98RoundRect,0.218750X-0.267247X-0.205170X0.160692X-0.296131X0.267247X0.205170X-0.160692X0.296131X0*%
%TD*%
%TA.AperFunction,SMDPad,CuDef*%
%ADD99RoundRect,0.218750X0.335889X-0.026352X0.078733X0.327592X-0.335889X0.026352X-0.078733X-0.327592X0*%
%TD*%
%TA.AperFunction,SMDPad,CuDef*%
%ADD100RoundRect,0.218750X0.311243X0.129010X-0.078573X0.327631X-0.311243X-0.129010X0.078573X-0.327631X0*%
%TD*%
%TA.AperFunction,SMDPad,CuDef*%
%ADD101RoundRect,0.218750X0.311306X-0.128858X0.176111X0.287229X-0.311306X0.128858X-0.176111X-0.287229X0*%
%TD*%
%TA.AperFunction,SMDPad,CuDef*%
%ADD102RoundRect,0.218750X-0.287315X0.175970X-0.218875X-0.256143X0.287315X-0.175970X0.218875X0.256143X0*%
%TD*%
%TA.AperFunction,SMDPad,CuDef*%
%ADD103RoundRect,0.218750X0.267247X0.205170X-0.160692X0.296131X-0.267247X-0.205170X0.160692X-0.296131X0*%
%TD*%
%TA.AperFunction,SMDPad,CuDef*%
%ADD104RoundRect,0.218750X0.304064X0.145122X-0.095612X0.323070X-0.304064X-0.145122X0.095612X-0.323070X0*%
%TD*%
%TA.AperFunction,SMDPad,CuDef*%
%ADD105RoundRect,0.218750X-0.190766X-0.277712X0.244337X-0.231981X0.190766X0.277712X-0.244337X0.231981X0*%
%TD*%
%TA.AperFunction,SMDPad,CuDef*%
%ADD106RoundRect,0.218750X0.267347X-0.205039X0.244450X0.231861X-0.267347X0.205039X-0.244450X-0.231861X0*%
%TD*%
%TA.AperFunction,SMDPad,CuDef*%
%ADD107RoundRect,0.218750X-0.323070X0.095612X-0.145122X-0.304064X0.323070X-0.095612X0.145122X0.304064X0*%
%TD*%
%TA.AperFunction,SMDPad,CuDef*%
%ADD108RoundRect,0.218750X-0.160837X0.296053X-0.317623X-0.112389X0.160837X-0.296053X0.317623X0.112389X0*%
%TD*%
%TA.AperFunction,SMDPad,CuDef*%
%ADD109RoundRect,0.218750X-0.128858X-0.311306X0.287229X-0.176111X0.128858X0.311306X-0.287229X0.176111X0*%
%TD*%
%TA.AperFunction,SMDPad,CuDef*%
%ADD110RoundRect,0.218750X0.334049X-0.043895X0.095770X0.323023X-0.334049X0.043895X-0.095770X-0.323023X0*%
%TD*%
%TA.AperFunction,SMDPad,CuDef*%
%ADD111RoundRect,0.218750X0.095770X-0.323023X0.334049X0.043895X-0.095770X0.323023X-0.334049X-0.043895X0*%
%TD*%
%TA.AperFunction,SMDPad,CuDef*%
%ADD112RoundRect,0.218750X0.327592X0.078733X-0.026352X0.335889X-0.327592X-0.078733X0.026352X-0.335889X0*%
%TD*%
%TA.AperFunction,SMDPad,CuDef*%
%ADD113RoundRect,0.218750X-0.244337X-0.231981X0.190766X-0.277712X0.244337X0.231981X-0.190766X0.277712X0*%
%TD*%
%TA.AperFunction,SMDPad,CuDef*%
%ADD114RoundRect,0.218750X-0.256143X-0.218875X0.175970X-0.287315X0.256143X0.218875X-0.175970X0.287315X0*%
%TD*%
%TA.AperFunction,SMDPad,CuDef*%
%ADD115RoundRect,0.218750X-0.311243X-0.129010X0.078573X-0.327631X0.311243X0.129010X-0.078573X0.327631X0*%
%TD*%
%TA.AperFunction,SMDPad,CuDef*%
%ADD116RoundRect,0.218750X-0.327592X-0.078733X0.026352X-0.335889X0.327592X0.078733X-0.026352X0.335889X0*%
%TD*%
%TA.AperFunction,SMDPad,CuDef*%
%ADD117RoundRect,0.218750X0.244450X-0.231861X0.267347X0.205039X-0.244450X0.231861X-0.267347X-0.205039X0*%
%TD*%
%TA.AperFunction,SMDPad,CuDef*%
%ADD118RoundRect,0.218750X-0.008902X0.336803X-0.334028X0.044059X0.008902X-0.336803X0.334028X-0.044059X0*%
%TD*%
%TA.AperFunction,SMDPad,CuDef*%
%ADD119RoundRect,0.218750X0.078573X0.327631X-0.311243X0.129010X-0.078573X-0.327631X0.311243X-0.129010X0*%
%TD*%
%TA.AperFunction,SMDPad,CuDef*%
%ADD120RoundRect,0.218750X0.277712X-0.190766X0.231981X0.244337X-0.277712X0.190766X-0.231981X-0.244337X0*%
%TD*%
%TA.AperFunction,SMDPad,CuDef*%
%ADD121RoundRect,0.218750X0.336807X-0.008737X0.061480X0.331264X-0.336807X0.008737X-0.061480X-0.331264X0*%
%TD*%
%TA.AperFunction,SMDPad,CuDef*%
%ADD122RoundRect,0.218750X-0.244450X0.231861X-0.267347X-0.205039X0.244450X-0.231861X0.267347X0.205039X0*%
%TD*%
%TA.AperFunction,SMDPad,CuDef*%
%ADD123RoundRect,0.218750X-0.078573X-0.327631X0.311243X-0.129010X0.078573X0.327631X-0.311243X0.129010X0*%
%TD*%
%TA.AperFunction,SMDPad,CuDef*%
%ADD124RoundRect,0.218750X-0.043895X-0.334049X0.323023X-0.095770X0.043895X0.334049X-0.323023X0.095770X0*%
%TD*%
%TA.AperFunction,SMDPad,CuDef*%
%ADD125RoundRect,0.218750X0.190766X0.277712X-0.244337X0.231981X-0.190766X-0.277712X0.244337X-0.231981X0*%
%TD*%
%TA.AperFunction,SMDPad,CuDef*%
%ADD126RoundRect,0.218750X-0.026352X-0.335889X0.327592X-0.078733X0.026352X0.335889X-0.327592X0.078733X0*%
%TD*%
%TA.AperFunction,SMDPad,CuDef*%
%ADD127RoundRect,0.218750X0.061480X-0.331264X0.336807X0.008737X-0.061480X0.331264X-0.336807X-0.008737X0*%
%TD*%
%TA.AperFunction,SMDPad,CuDef*%
%ADD128RoundRect,0.218750X0.008902X-0.336803X0.334028X-0.044059X-0.008902X0.336803X-0.334028X0.044059X0*%
%TD*%
%TA.AperFunction,SMDPad,CuDef*%
%ADD129RoundRect,0.218750X0.287315X-0.175970X0.218875X0.256143X-0.287315X0.175970X-0.218875X-0.256143X0*%
%TD*%
%TA.AperFunction,SMDPad,CuDef*%
%ADD130RoundRect,0.218750X-0.304064X-0.145122X0.095612X-0.323070X0.304064X0.145122X-0.095612X0.323070X0*%
%TD*%
%TA.AperFunction,ViaPad*%
%ADD131C,0.500000*%
%TD*%
G04 APERTURE END LIST*
D10*
%TO.N,CB5*%
X23432455Y-15217213D02*
G75*
G02*
X7231404Y-26987967I-23432460J15217217D01*
G01*
%TO.N,CB7*%
X12684494Y24894722D02*
G75*
G02*
X26084235Y10012800I-12585464J-24805552D01*
G01*
%TO.N,CB3*%
X-17583211Y-21713458D02*
G75*
G02*
X-27596012Y-4370779I17660251J21757938D01*
G01*
%TO.N,CA4*%
X2800112Y-26219234D02*
G75*
G02*
X-15493999Y-21335999I-2800114J26219225D01*
G01*
%TO.N,CB2*%
X-27901709Y-1462267D02*
G75*
G02*
X-21713458Y17583211I27901708J1462267D01*
G01*
%TO.N,CB4*%
X4370779Y-27596011D02*
G75*
G02*
X-15217214Y-23432456I-4343829J27722811D01*
G01*
%TO.N,CA7*%
X13208000Y22860000D02*
G75*
G02*
X25121597Y8120113I-13208000J-22860000D01*
G01*
%TO.N,CA6*%
X25806399Y5537200D02*
G75*
G02*
X22853439Y-13204211I-25806401J-5537201D01*
G01*
%TO.N,CB1*%
X-17583212Y21713458D02*
G75*
G02*
X-1462267Y27901709I17583211J-21713456D01*
G01*
%TO.N,CA1*%
X-17628983Y19672926D02*
G75*
G02*
X0Y26416000I17628985J-19672931D01*
G01*
%TO.N,CA5*%
X21356579Y-15508944D02*
G75*
G02*
X5537200Y-25806399I-21356579J15508944D01*
G01*
%TO.N,CB8*%
X1462266Y27901708D02*
G75*
G02*
X10012800Y26084236I-1462266J-27901708D01*
G01*
%TO.N,CA8*%
X2794000Y26234473D02*
G75*
G02*
X10667929Y24129842I-2794003J-26234479D01*
G01*
%TO.N,CA2*%
X-26416000Y0D02*
G75*
G02*
X-19546257Y17769325I26416000J0D01*
G01*
%TO.N,CB6*%
X26987967Y7231404D02*
G75*
G02*
X24894722Y-12684494I-26987970J-7231404D01*
G01*
%TO.N,CA3*%
X-17698540Y-19558000D02*
G75*
G02*
X-26227997Y-2801048I17698536J19557998D01*
G01*
%TD*%
D11*
%TO.P,D98,1,K*%
%TO.N,CB5*%
X19199716Y-19199716D03*
%TO.P,D98,2,A*%
%TO.N,CB7*%
X20313412Y-20313410D03*
%TD*%
D12*
%TO.P,D36,1,K*%
%TO.N,CA5*%
X13576249Y-23514754D03*
%TO.P,D36,2,A*%
%TO.N,CA4*%
X14363751Y-24878746D03*
%TD*%
D13*
%TO.P,D70,1,K*%
%TO.N,CB2*%
X-22772002Y14788310D03*
%TO.P,D70,2,A*%
%TO.N,CB3*%
X-24092910Y15646118D03*
%TD*%
D14*
%TO.P,D73,1,K*%
%TO.N,CB2*%
X-26227300Y7027584D03*
%TO.P,D73,2,A*%
%TO.N,CB6*%
X-27748636Y7435224D03*
%TD*%
D15*
%TO.P,D43,1,K*%
%TO.N,CA6*%
X25823561Y-8390584D03*
%TO.P,D43,2,A*%
%TO.N,CA3*%
X27321477Y-8877286D03*
%TD*%
D16*
%TO.P,D83,1,K*%
%TO.N,CB3*%
X-19199716Y-19199716D03*
%TO.P,D83,2,A*%
%TO.N,CB8*%
X-20313410Y-20313412D03*
%TD*%
D17*
%TO.P,D105,1,K*%
%TO.N,CB6*%
X27115287Y-1421052D03*
%TO.P,D105,2,A*%
%TO.N,CB5*%
X28688131Y-1503480D03*
%TD*%
D18*
%TO.P,D31,1,K*%
%TO.N,CA4*%
X0Y-27152499D03*
%TO.P,D31,2,A*%
%TO.N,CA8*%
X0Y-28727501D03*
%TD*%
D19*
%TO.P,D118,1,K*%
%TO.N,CB8*%
X7027584Y26227300D03*
%TO.P,D118,2,A*%
%TO.N,CB6*%
X7435224Y27748636D03*
%TD*%
D20*
%TO.P,D34,1,K*%
%TO.N,CA5*%
X8390584Y-25823561D03*
%TO.P,D34,2,A*%
%TO.N,CA2*%
X8877286Y-27321477D03*
%TD*%
D21*
%TO.P,D30,1,K*%
%TO.N,CA4*%
X-2838209Y-27003755D03*
%TO.P,D30,2,A*%
%TO.N,CA7*%
X-3002841Y-28570129D03*
%TD*%
D22*
%TO.P,D20,1,K*%
%TO.N,CA3*%
X-24805042Y-11043916D03*
%TO.P,D20,2,A*%
%TO.N,CA5*%
X-26243878Y-11684528D03*
%TD*%
D23*
%TO.P,D59,1,K*%
%TO.N,CA8*%
X5645322Y26559152D03*
%TO.P,D59,2,A*%
%TO.N,CA7*%
X5972784Y28099736D03*
%TD*%
D24*
%TO.P,D88,1,K*%
%TO.N,CB4*%
X-7027584Y-26227300D03*
%TO.P,D88,2,A*%
%TO.N,CB5*%
X-7435224Y-27748636D03*
%TD*%
D25*
%TO.P,D125,1,K*%
%TO.N,CC1*%
X-21119359Y13102596D03*
%TO.P,D125,2,A*%
%TO.N,CC6*%
X-21906861Y11738604D03*
%TD*%
D26*
%TO.P,D18,1,K*%
%TO.N,CA3*%
X-26559152Y-5645322D03*
%TO.P,D18,2,A*%
%TO.N,CA2*%
X-28099736Y-5972784D03*
%TD*%
D27*
%TO.P,D132,1,K*%
%TO.N,CC3*%
X-7190044Y-23790937D03*
%TO.P,D132,2,A*%
%TO.N,CC2*%
X-5668708Y-24198577D03*
%TD*%
D28*
%TO.P,D106,1,K*%
%TO.N,CB6*%
X27115287Y1421052D03*
%TO.P,D106,2,A*%
%TO.N,CB7*%
X28688131Y1503482D03*
%TD*%
D24*
%TO.P,D126,1,K*%
%TO.N,CC2*%
X-23790937Y7190044D03*
%TO.P,D126,2,A*%
%TO.N,CC1*%
X-24198577Y5668708D03*
%TD*%
D29*
%TO.P,D100,1,K*%
%TO.N,CB5*%
X22772002Y-14788310D03*
%TO.P,D100,2,A*%
%TO.N,CB9*%
X24092910Y-15646118D03*
%TD*%
D30*
%TO.P,D140,1,K*%
%TO.N,CC4*%
X24198577Y5668708D03*
%TO.P,D140,2,A*%
%TO.N,CC6*%
X23790937Y7190044D03*
%TD*%
D31*
%TO.P,D39,1,K*%
%TO.N,CA5*%
X20178239Y-18168568D03*
%TO.P,D39,2,A*%
%TO.N,CA8*%
X21348693Y-19222450D03*
%TD*%
D32*
%TO.P,D5,1,K*%
%TO.N,CA1*%
X-11043916Y24805042D03*
%TO.P,D5,2,A*%
%TO.N,CA6*%
X-11684528Y26243878D03*
%TD*%
D14*
%TO.P,D144,1,K*%
%TO.N,CC5*%
X7190044Y23790937D03*
%TO.P,D144,2,A*%
%TO.N,CC4*%
X5668708Y24198577D03*
%TD*%
D33*
%TO.P,D25,1,K*%
%TO.N,CA4*%
X-15959839Y-21966833D03*
%TO.P,D25,2,A*%
%TO.N,CA1*%
X-16885601Y-23241037D03*
%TD*%
D34*
%TO.P,D77,1,K*%
%TO.N,CB3*%
X-26818206Y-4247586D03*
%TO.P,D77,2,A*%
%TO.N,CB1*%
X-28373818Y-4493972D03*
%TD*%
D35*
%TO.P,D13,1,K*%
%TO.N,CA2*%
X-25823561Y8390584D03*
%TO.P,D13,2,A*%
%TO.N,CA6*%
X-27321477Y8877286D03*
%TD*%
D36*
%TO.P,D24,1,K*%
%TO.N,CA3*%
X-18168568Y-20178239D03*
%TO.P,D24,2,A*%
%TO.N,CA9*%
X-19222450Y-21348693D03*
%TD*%
D37*
%TO.P,D82,1,K*%
%TO.N,CB3*%
X-21101455Y-17087621D03*
%TO.P,D82,2,A*%
%TO.N,CB7*%
X-22325461Y-18078803D03*
%TD*%
D38*
%TO.P,D64,1,K*%
%TO.N,CB1*%
X-9730585Y25349041D03*
%TO.P,D64,2,A*%
%TO.N,CB5*%
X-10295017Y26819433D03*
%TD*%
D39*
%TO.P,D94,1,K*%
%TO.N,CB5*%
X9730585Y-25349041D03*
%TO.P,D94,2,A*%
%TO.N,CB2*%
X10295017Y-26819433D03*
%TD*%
D40*
%TO.P,D133,1,K*%
%TO.N,CC3*%
X-787501Y-24841200D03*
%TO.P,D133,2,A*%
%TO.N,CC4*%
X787501Y-24841200D03*
%TD*%
D41*
%TO.P,D3,1,K*%
%TO.N,CA1*%
X-5645322Y26559152D03*
%TO.P,D3,2,A*%
%TO.N,CA4*%
X-5972784Y28099736D03*
%TD*%
D42*
%TO.P,D16,1,K*%
%TO.N,CA2*%
X-27152499Y0D03*
%TO.P,D16,2,A*%
%TO.N,CA9*%
X-28727501Y0D03*
%TD*%
D43*
%TO.P,D72,1,K*%
%TO.N,CB2*%
X-25349041Y9730585D03*
%TO.P,D72,2,A*%
%TO.N,CB5*%
X-26819433Y10295015D03*
%TD*%
D44*
%TO.P,D33,1,K*%
%TO.N,CA5*%
X5645322Y-26559152D03*
%TO.P,D33,2,A*%
%TO.N,CA1*%
X5972784Y-28099736D03*
%TD*%
D45*
%TO.P,D99,1,K*%
%TO.N,CB5*%
X21101454Y-17087621D03*
%TO.P,D99,2,A*%
%TO.N,CB8*%
X22325462Y-18078801D03*
%TD*%
D46*
%TO.P,D119,1,K*%
%TO.N,CB8*%
X4247587Y26818206D03*
%TO.P,D119,2,A*%
%TO.N,CB7*%
X4493971Y28373818D03*
%TD*%
D47*
%TO.P,D57,1,K*%
%TO.N,CA8*%
X11043916Y24805042D03*
%TO.P,D57,2,A*%
%TO.N,CA5*%
X11684528Y26243878D03*
%TD*%
D48*
%TO.P,D84,1,K*%
%TO.N,CB3*%
X-17087621Y-21101454D03*
%TO.P,D84,2,A*%
%TO.N,CB9*%
X-18078801Y-22325462D03*
%TD*%
D49*
%TO.P,D113,1,K*%
%TO.N,CB7*%
X19199716Y19199716D03*
%TO.P,D113,2,A*%
%TO.N,CB5*%
X20313410Y20313412D03*
%TD*%
D50*
%TO.P,D135,1,K*%
%TO.N,CC3*%
X11738604Y-21906860D03*
%TO.P,D135,2,A*%
%TO.N,CC6*%
X13102596Y-21119360D03*
%TD*%
D51*
%TO.P,D142,1,K*%
%TO.N,CC5*%
X18122228Y17008534D03*
%TO.P,D142,2,A*%
%TO.N,CC2*%
X17008534Y18122228D03*
%TD*%
D52*
%TO.P,D11,1,K*%
%TO.N,CA2*%
X-23514754Y13576250D03*
%TO.P,D11,2,A*%
%TO.N,CA4*%
X-24878746Y14363750D03*
%TD*%
D53*
%TO.P,D112,1,K*%
%TO.N,CB7*%
X21101455Y17087621D03*
%TO.P,D112,2,A*%
%TO.N,CB4*%
X22325461Y18078803D03*
%TD*%
D54*
%TO.P,D93,1,K*%
%TO.N,CB5*%
X7027583Y-26227299D03*
%TO.P,D93,2,A*%
%TO.N,CB1*%
X7435225Y-27748635D03*
%TD*%
D55*
%TO.P,D91,1,K*%
%TO.N,CB4*%
X1421052Y-27115287D03*
%TO.P,D91,2,A*%
%TO.N,CB8*%
X1503482Y-28688131D03*
%TD*%
D56*
%TO.P,D15,1,K*%
%TO.N,CA2*%
X-27003755Y2838209D03*
%TO.P,D15,2,A*%
%TO.N,CA8*%
X-28570129Y3002841D03*
%TD*%
D57*
%TO.P,D65,1,K*%
%TO.N,CB1*%
X-12326977Y24193053D03*
%TO.P,D65,2,A*%
%TO.N,CB6*%
X-13042013Y25596391D03*
%TD*%
D58*
%TO.P,D108,1,K*%
%TO.N,CB6*%
X26227299Y7027583D03*
%TO.P,D108,2,A*%
%TO.N,CB9*%
X27748635Y7435225D03*
%TD*%
D59*
%TO.P,D97,1,K*%
%TO.N,CB5*%
X17087621Y-21101455D03*
%TO.P,D97,2,A*%
%TO.N,CB6*%
X18078803Y-22325461D03*
%TD*%
D60*
%TO.P,D32,1,K*%
%TO.N,CA4*%
X2838209Y-27003755D03*
%TO.P,D32,2,A*%
%TO.N,CA9*%
X3002841Y-28570129D03*
%TD*%
D61*
%TO.P,D41,1,K*%
%TO.N,CA6*%
X23514754Y-13576249D03*
%TO.P,D41,2,A*%
%TO.N,CA1*%
X24878746Y-14363751D03*
%TD*%
D62*
%TO.P,D37,1,K*%
%TO.N,CA5*%
X15959839Y-21966833D03*
%TO.P,D37,2,A*%
%TO.N,CA6*%
X16885601Y-23241037D03*
%TD*%
D63*
%TO.P,D55,1,K*%
%TO.N,CA7*%
X15959839Y21966833D03*
%TO.P,D55,2,A*%
%TO.N,CA8*%
X16885601Y23241037D03*
%TD*%
D64*
%TO.P,D89,1,K*%
%TO.N,CB4*%
X-4247587Y-26818206D03*
%TO.P,D89,2,A*%
%TO.N,CB6*%
X-4493971Y-28373818D03*
%TD*%
D65*
%TO.P,D29,1,K*%
%TO.N,CA4*%
X-5645322Y-26559152D03*
%TO.P,D29,2,A*%
%TO.N,CA6*%
X-5972784Y-28099736D03*
%TD*%
D66*
%TO.P,D48,1,K*%
%TO.N,CA6*%
X26559152Y5645322D03*
%TO.P,D48,2,A*%
%TO.N,CA9*%
X28099736Y5972784D03*
%TD*%
D67*
%TO.P,D19,1,K*%
%TO.N,CA3*%
X-25823561Y-8390584D03*
%TO.P,D19,2,A*%
%TO.N,CA4*%
X-27321477Y-8877286D03*
%TD*%
D68*
%TO.P,D8,1,K*%
%TO.N,CA1*%
X-18168568Y20178239D03*
%TO.P,D8,2,A*%
%TO.N,CA9*%
X-19222450Y21348693D03*
%TD*%
D69*
%TO.P,D76,1,K*%
%TO.N,CB2*%
X-27115287Y-1421052D03*
%TO.P,D76,2,A*%
%TO.N,CB9*%
X-28688131Y-1503482D03*
%TD*%
D70*
%TO.P,D95,1,K*%
%TO.N,CB5*%
X12326977Y-24193053D03*
%TO.P,D95,2,A*%
%TO.N,CB3*%
X13042013Y-25596391D03*
%TD*%
D61*
%TO.P,D131,1,K*%
%TO.N,CC3*%
X-13102596Y-21119359D03*
%TO.P,D131,2,A*%
%TO.N,CC1*%
X-11738604Y-21906861D03*
%TD*%
D71*
%TO.P,D58,1,K*%
%TO.N,CA8*%
X8390584Y25823561D03*
%TO.P,D58,2,A*%
%TO.N,CA6*%
X8877286Y27321477D03*
%TD*%
D72*
%TO.P,D137,1,K*%
%TO.N,CC4*%
X21119359Y-13102596D03*
%TO.P,D137,2,A*%
%TO.N,CC2*%
X21906861Y-11738604D03*
%TD*%
D73*
%TO.P,D109,1,K*%
%TO.N,CB7*%
X25349041Y9730585D03*
%TO.P,D109,2,A*%
%TO.N,CB1*%
X26819433Y10295017D03*
%TD*%
D51*
%TO.P,D68,1,K*%
%TO.N,CB1*%
X-19199716Y19199716D03*
%TO.P,D68,2,A*%
%TO.N,CB9*%
X-20313412Y20313410D03*
%TD*%
D74*
%TO.P,D28,1,K*%
%TO.N,CA4*%
X-8390584Y-25823561D03*
%TO.P,D28,2,A*%
%TO.N,CA5*%
X-8877286Y-27321477D03*
%TD*%
D11*
%TO.P,D130,1,K*%
%TO.N,CC2*%
X-18122228Y-17008534D03*
%TO.P,D130,2,A*%
%TO.N,CC6*%
X-17008534Y-18122228D03*
%TD*%
D75*
%TO.P,D85,1,K*%
%TO.N,CB4*%
X-14788310Y-22772002D03*
%TO.P,D85,2,A*%
%TO.N,CB1*%
X-15646118Y-24092910D03*
%TD*%
D76*
%TO.P,D116,1,K*%
%TO.N,CB7*%
X12326976Y24193053D03*
%TO.P,D116,2,A*%
%TO.N,CB9*%
X13042012Y25596391D03*
%TD*%
D77*
%TO.P,D96,1,K*%
%TO.N,CB5*%
X14788311Y-22772001D03*
%TO.P,D96,2,A*%
%TO.N,CB4*%
X15646119Y-24092909D03*
%TD*%
D78*
%TO.P,D38,1,K*%
%TO.N,CA5*%
X18168568Y-20178239D03*
%TO.P,D38,2,A*%
%TO.N,CA7*%
X19222450Y-21348693D03*
%TD*%
D79*
%TO.P,D81,1,K*%
%TO.N,CB3*%
X-22772001Y-14788311D03*
%TO.P,D81,2,A*%
%TO.N,CB6*%
X-24092909Y-15646119D03*
%TD*%
D80*
%TO.P,D117,1,K*%
%TO.N,CB8*%
X9730585Y25349041D03*
%TO.P,D117,2,A*%
%TO.N,CB5*%
X10295015Y26819433D03*
%TD*%
D81*
%TO.P,D75,1,K*%
%TO.N,CB2*%
X-27115287Y1421052D03*
%TO.P,D75,2,A*%
%TO.N,CB8*%
X-28688131Y1503480D03*
%TD*%
D49*
%TO.P,D136,1,K*%
%TO.N,CC4*%
X17008534Y-18122228D03*
%TO.P,D136,2,A*%
%TO.N,CC1*%
X18122228Y-17008534D03*
%TD*%
D82*
%TO.P,D74,1,K*%
%TO.N,CB2*%
X-26818206Y4247587D03*
%TO.P,D74,2,A*%
%TO.N,CB7*%
X-28373818Y4493971D03*
%TD*%
D18*
%TO.P,D127,1,K*%
%TO.N,CC2*%
X-24841200Y787501D03*
%TO.P,D127,2,A*%
%TO.N,CC3*%
X-24841200Y-787501D03*
%TD*%
D72*
%TO.P,D56,1,K*%
%TO.N,CA7*%
X13576249Y23514754D03*
%TO.P,D56,2,A*%
%TO.N,CA9*%
X14363751Y24878746D03*
%TD*%
D30*
%TO.P,D63,1,K*%
%TO.N,CB1*%
X-7027583Y26227299D03*
%TO.P,D63,2,A*%
%TO.N,CB4*%
X-7435225Y27748635D03*
%TD*%
D16*
%TO.P,D124,1,K*%
%TO.N,CC1*%
X-17008534Y18122228D03*
%TO.P,D124,2,A*%
%TO.N,CC5*%
X-18122228Y17008534D03*
%TD*%
D42*
%TO.P,D121,1,K*%
%TO.N,CC1*%
X787501Y24841200D03*
%TO.P,D121,2,A*%
%TO.N,CC2*%
X-787501Y24841200D03*
%TD*%
D83*
%TO.P,D22,1,K*%
%TO.N,CA3*%
X-21966833Y-15959839D03*
%TO.P,D22,2,A*%
%TO.N,CA7*%
X-23241037Y-16885601D03*
%TD*%
D84*
%TO.P,D107,1,K*%
%TO.N,CB6*%
X26818206Y4247586D03*
%TO.P,D107,2,A*%
%TO.N,CB8*%
X28373818Y4493972D03*
%TD*%
D85*
%TO.P,D86,1,K*%
%TO.N,CB4*%
X-12326976Y-24193053D03*
%TO.P,D86,2,A*%
%TO.N,CB2*%
X-13042012Y-25596391D03*
%TD*%
D86*
%TO.P,D139,1,K*%
%TO.N,CC4*%
X24841200Y-787501D03*
%TO.P,D139,2,A*%
%TO.N,CC5*%
X24841200Y787501D03*
%TD*%
D87*
%TO.P,D27,1,K*%
%TO.N,CA4*%
X-11043916Y-24805042D03*
%TO.P,D27,2,A*%
%TO.N,CA3*%
X-11684528Y-26243878D03*
%TD*%
D88*
%TO.P,D122,1,K*%
%TO.N,CC1*%
X-5668708Y24198577D03*
%TO.P,D122,2,A*%
%TO.N,CC3*%
X-7190044Y23790937D03*
%TD*%
D89*
%TO.P,D54,1,K*%
%TO.N,CA7*%
X18168568Y20178239D03*
%TO.P,D54,2,A*%
%TO.N,CA6*%
X19222450Y21348693D03*
%TD*%
D90*
%TO.P,D69,1,K*%
%TO.N,CB2*%
X-21101454Y17087621D03*
%TO.P,D69,2,A*%
%TO.N,CB1*%
X-22325462Y18078801D03*
%TD*%
D27*
%TO.P,D103,1,K*%
%TO.N,CB6*%
X26227300Y-7027584D03*
%TO.P,D103,2,A*%
%TO.N,CB3*%
X27748636Y-7435224D03*
%TD*%
D91*
%TO.P,D79,1,K*%
%TO.N,CB3*%
X-25349041Y-9730585D03*
%TO.P,D79,2,A*%
%TO.N,CB4*%
X-26819433Y-10295017D03*
%TD*%
D92*
%TO.P,D60,1,K*%
%TO.N,CA8*%
X2838209Y27003755D03*
%TO.P,D60,2,A*%
%TO.N,CA9*%
X3002841Y28570129D03*
%TD*%
D93*
%TO.P,D141,1,K*%
%TO.N,CC5*%
X21906860Y11738604D03*
%TO.P,D141,2,A*%
%TO.N,CC1*%
X21119360Y13102596D03*
%TD*%
D19*
%TO.P,D138,1,K*%
%TO.N,CC4*%
X23790937Y-7190044D03*
%TO.P,D138,2,A*%
%TO.N,CC3*%
X24198577Y-5668708D03*
%TD*%
D58*
%TO.P,D134,1,K*%
%TO.N,CC3*%
X5668708Y-24198577D03*
%TO.P,D134,2,A*%
%TO.N,CC5*%
X7190044Y-23790937D03*
%TD*%
D94*
%TO.P,D9,1,K*%
%TO.N,CA2*%
X-20178239Y18168568D03*
%TO.P,D9,2,A*%
%TO.N,CA1*%
X-21348693Y19222450D03*
%TD*%
D95*
%TO.P,D50,1,K*%
%TO.N,CA7*%
X24805042Y11043916D03*
%TO.P,D50,2,A*%
%TO.N,CA2*%
X26243878Y11684528D03*
%TD*%
D52*
%TO.P,D143,1,K*%
%TO.N,CC5*%
X13102596Y21119360D03*
%TO.P,D143,2,A*%
%TO.N,CC3*%
X11738604Y21906860D03*
%TD*%
D96*
%TO.P,D102,1,K*%
%TO.N,CB6*%
X25349041Y-9730585D03*
%TO.P,D102,2,A*%
%TO.N,CB2*%
X26819433Y-10295015D03*
%TD*%
D97*
%TO.P,D21,1,K*%
%TO.N,CA3*%
X-23514754Y-13576249D03*
%TO.P,D21,2,A*%
%TO.N,CA6*%
X-24878746Y-14363751D03*
%TD*%
D98*
%TO.P,D44,1,K*%
%TO.N,CA6*%
X26559152Y-5645322D03*
%TO.P,D44,2,A*%
%TO.N,CA4*%
X28099736Y-5972784D03*
%TD*%
D86*
%TO.P,D1,1,K*%
%TO.N,CA1*%
X0Y27152499D03*
%TO.P,D1,2,A*%
%TO.N,CA2*%
X0Y28727501D03*
%TD*%
D12*
%TO.P,D129,1,K*%
%TO.N,CC2*%
X-21906861Y-11738604D03*
%TO.P,D129,2,A*%
%TO.N,CC5*%
X-21119359Y-13102596D03*
%TD*%
D99*
%TO.P,D7,1,K*%
%TO.N,CA1*%
X-15959839Y21966833D03*
%TO.P,D7,2,A*%
%TO.N,CA8*%
X-16885601Y23241037D03*
%TD*%
D50*
%TO.P,D51,1,K*%
%TO.N,CA7*%
X23514754Y13576250D03*
%TO.P,D51,2,A*%
%TO.N,CA3*%
X24878746Y14363750D03*
%TD*%
D100*
%TO.P,D71,1,K*%
%TO.N,CB2*%
X-24193053Y12326976D03*
%TO.P,D71,2,A*%
%TO.N,CB4*%
X-25596391Y13042012D03*
%TD*%
D101*
%TO.P,D4,1,K*%
%TO.N,CA1*%
X-8390584Y25823561D03*
%TO.P,D4,2,A*%
%TO.N,CA5*%
X-8877286Y27321477D03*
%TD*%
D102*
%TO.P,D92,1,K*%
%TO.N,CB4*%
X4247586Y-26818206D03*
%TO.P,D92,2,A*%
%TO.N,CB9*%
X4493972Y-28373818D03*
%TD*%
D103*
%TO.P,D14,1,K*%
%TO.N,CA2*%
X-26559152Y5645322D03*
%TO.P,D14,2,A*%
%TO.N,CA7*%
X-28099736Y5972784D03*
%TD*%
D40*
%TO.P,D46,1,K*%
%TO.N,CA6*%
X27152499Y0D03*
%TO.P,D46,2,A*%
%TO.N,CA7*%
X28727501Y0D03*
%TD*%
D104*
%TO.P,D12,1,K*%
%TO.N,CA2*%
X-24805042Y11043916D03*
%TO.P,D12,2,A*%
%TO.N,CA5*%
X-26243878Y11684528D03*
%TD*%
D93*
%TO.P,D6,1,K*%
%TO.N,CA1*%
X-13576250Y23514754D03*
%TO.P,D6,2,A*%
%TO.N,CA7*%
X-14363750Y24878746D03*
%TD*%
D105*
%TO.P,D47,1,K*%
%TO.N,CA6*%
X27003755Y2838209D03*
%TO.P,D47,2,A*%
%TO.N,CA8*%
X28570129Y3002841D03*
%TD*%
D106*
%TO.P,D61,1,K*%
%TO.N,CB1*%
X-1421052Y27115287D03*
%TO.P,D61,2,A*%
%TO.N,CB2*%
X-1503482Y28688131D03*
%TD*%
D107*
%TO.P,D35,1,K*%
%TO.N,CA5*%
X11043916Y-24805042D03*
%TO.P,D35,2,A*%
%TO.N,CA3*%
X11684528Y-26243878D03*
%TD*%
D108*
%TO.P,D87,1,K*%
%TO.N,CB4*%
X-9730585Y-25349041D03*
%TO.P,D87,2,A*%
%TO.N,CB3*%
X-10295015Y-26819433D03*
%TD*%
D109*
%TO.P,D49,1,K*%
%TO.N,CA7*%
X25823561Y8390584D03*
%TO.P,D49,2,A*%
%TO.N,CA1*%
X27321477Y8877286D03*
%TD*%
D110*
%TO.P,D66,1,K*%
%TO.N,CB1*%
X-14788311Y22772001D03*
%TO.P,D66,2,A*%
%TO.N,CB7*%
X-15646119Y24092909D03*
%TD*%
D111*
%TO.P,D115,1,K*%
%TO.N,CB7*%
X14788310Y22772002D03*
%TO.P,D115,2,A*%
%TO.N,CB8*%
X15646118Y24092910D03*
%TD*%
D112*
%TO.P,D10,1,K*%
%TO.N,CA2*%
X-21966833Y15959839D03*
%TO.P,D10,2,A*%
%TO.N,CA3*%
X-23241037Y16885601D03*
%TD*%
D113*
%TO.P,D45,1,K*%
%TO.N,CA6*%
X27003755Y-2838209D03*
%TO.P,D45,2,A*%
%TO.N,CA5*%
X28570129Y-3002841D03*
%TD*%
D114*
%TO.P,D104,1,K*%
%TO.N,CB6*%
X26818206Y-4247587D03*
%TO.P,D104,2,A*%
%TO.N,CB4*%
X28373818Y-4493971D03*
%TD*%
D115*
%TO.P,D101,1,K*%
%TO.N,CB6*%
X24193053Y-12326976D03*
%TO.P,D101,2,A*%
%TO.N,CB1*%
X25596391Y-13042012D03*
%TD*%
D116*
%TO.P,D40,1,K*%
%TO.N,CA5*%
X21966833Y-15959839D03*
%TO.P,D40,2,A*%
%TO.N,CA9*%
X23241037Y-16885601D03*
%TD*%
D117*
%TO.P,D120,1,K*%
%TO.N,CB8*%
X1421052Y27115287D03*
%TO.P,D120,2,A*%
%TO.N,CB9*%
X1503480Y28688131D03*
%TD*%
D118*
%TO.P,D23,1,K*%
%TO.N,CA3*%
X-20178239Y-18168568D03*
%TO.P,D23,2,A*%
%TO.N,CA8*%
X-21348693Y-19222450D03*
%TD*%
D119*
%TO.P,D80,1,K*%
%TO.N,CB3*%
X-24193053Y-12326977D03*
%TO.P,D80,2,A*%
%TO.N,CB5*%
X-25596391Y-13042013D03*
%TD*%
D25*
%TO.P,D26,1,K*%
%TO.N,CA4*%
X-13576249Y-23514754D03*
%TO.P,D26,2,A*%
%TO.N,CA2*%
X-14363751Y-24878746D03*
%TD*%
D54*
%TO.P,D128,1,K*%
%TO.N,CC2*%
X-24198577Y-5668708D03*
%TO.P,D128,2,A*%
%TO.N,CC4*%
X-23790937Y-7190044D03*
%TD*%
D120*
%TO.P,D2,1,K*%
%TO.N,CA1*%
X-2838209Y27003755D03*
%TO.P,D2,2,A*%
%TO.N,CA3*%
X-3002841Y28570129D03*
%TD*%
D121*
%TO.P,D67,1,K*%
%TO.N,CB1*%
X-17087621Y21101455D03*
%TO.P,D67,2,A*%
%TO.N,CB8*%
X-18078803Y22325461D03*
%TD*%
D122*
%TO.P,D90,1,K*%
%TO.N,CB4*%
X-1421052Y-27115287D03*
%TO.P,D90,2,A*%
%TO.N,CB7*%
X-1503480Y-28688131D03*
%TD*%
D123*
%TO.P,D110,1,K*%
%TO.N,CB7*%
X24193053Y12326977D03*
%TO.P,D110,2,A*%
%TO.N,CB2*%
X25596391Y13042013D03*
%TD*%
D124*
%TO.P,D111,1,K*%
%TO.N,CB7*%
X22772001Y14788311D03*
%TO.P,D111,2,A*%
%TO.N,CB3*%
X24092909Y15646119D03*
%TD*%
D97*
%TO.P,D123,1,K*%
%TO.N,CC1*%
X-11738604Y21906861D03*
%TO.P,D123,2,A*%
%TO.N,CC4*%
X-13102596Y21119359D03*
%TD*%
D125*
%TO.P,D17,1,K*%
%TO.N,CA3*%
X-27003755Y-2838209D03*
%TO.P,D17,2,A*%
%TO.N,CA1*%
X-28570129Y-3002841D03*
%TD*%
D126*
%TO.P,D52,1,K*%
%TO.N,CA7*%
X21966833Y15959839D03*
%TO.P,D52,2,A*%
%TO.N,CA4*%
X23241037Y16885601D03*
%TD*%
D127*
%TO.P,D114,1,K*%
%TO.N,CB7*%
X17087621Y21101454D03*
%TO.P,D114,2,A*%
%TO.N,CB6*%
X18078801Y22325462D03*
%TD*%
D128*
%TO.P,D53,1,K*%
%TO.N,CA7*%
X20178239Y18168568D03*
%TO.P,D53,2,A*%
%TO.N,CA5*%
X21348693Y19222450D03*
%TD*%
D88*
%TO.P,D78,1,K*%
%TO.N,CB3*%
X-26227299Y-7027583D03*
%TO.P,D78,2,A*%
%TO.N,CB2*%
X-27748635Y-7435225D03*
%TD*%
D129*
%TO.P,D62,1,K*%
%TO.N,CB1*%
X-4247586Y26818206D03*
%TO.P,D62,2,A*%
%TO.N,CB3*%
X-4493972Y28373818D03*
%TD*%
D130*
%TO.P,D42,1,K*%
%TO.N,CA6*%
X24805042Y-11043916D03*
%TO.P,D42,2,A*%
%TO.N,CA2*%
X26243878Y-11684528D03*
%TD*%
D131*
%TO.N,CA7*%
X19405600Y-21539200D03*
X-22555200Y4876800D03*
X-11582400Y20015200D03*
X11531600Y20015200D03*
X21793200Y7569200D03*
X-14478000Y25095200D03*
X6045200Y28295600D03*
X15240000Y-17272000D03*
X-18694400Y-13544975D03*
X-23418800Y-17018000D03*
X23063200Y0D03*
X-28346400Y6045200D03*
X-3048000Y-28803600D03*
X4572000Y22656800D03*
X28956000Y0D03*
X-2286000Y-22961600D03*
%TO.N,CA6*%
X-20460475Y-11799292D03*
X19405600Y21539200D03*
X-25095200Y-14478000D03*
X-9855200Y22098000D03*
X-4876800Y-23063200D03*
X7823200Y22961600D03*
X-11785600Y26466800D03*
X17018000Y-23418800D03*
X-6045200Y-28346400D03*
X13817600Y-19151600D03*
X-27533600Y8940800D03*
X-22910799Y7874000D03*
X23164800Y4572000D03*
X8991600Y27584400D03*
X20421600Y-11836400D03*
X15951200Y18237200D03*
%TO.N,CA9*%
X11252200Y18796000D03*
X-14757400Y-16154400D03*
X21412200Y4699000D03*
X17725833Y-12882709D03*
X3022600Y28778200D03*
X-19380200Y-21513800D03*
X14478000Y25069800D03*
X-28956000Y0D03*
X28346400Y6019800D03*
X-21920200Y457200D03*
X3022600Y-28803600D03*
X-14147800Y16738600D03*
X2209800Y21818600D03*
X2286000Y-21793200D03*
X-19354800Y21513800D03*
X23444200Y-17018000D03*
%TO.N,CA4*%
X23418800Y17018000D03*
X-4521200Y24333200D03*
X-25095200Y14478000D03*
X24282400Y-4724400D03*
X-14035572Y-20384998D03*
X28346400Y-6045200D03*
X-22250400Y10820400D03*
X14478000Y-25044400D03*
X13868400Y-20523200D03*
X19927752Y14670430D03*
X-6045200Y28346400D03*
X-27533600Y-8940800D03*
X2794000Y-24587199D03*
X-23418800Y-8077200D03*
%TO.N,CA5*%
X19591109Y-14248083D03*
X-7924800Y-22860000D03*
X-22111151Y-9836682D03*
X-7975600Y24638000D03*
X21539200Y19405600D03*
X-23656358Y10530895D03*
X-8940800Y-27533600D03*
X28854400Y-3048000D03*
X-8991600Y27584400D03*
X4521200Y-23774400D03*
X-26466800Y11785600D03*
X24079200Y-2540000D03*
X19050000Y16662400D03*
X11785600Y26466800D03*
X10261600Y23164800D03*
X-26466800Y-11785600D03*
%TO.N,CA1*%
X-18168568Y20178239D03*
X6045200Y-28295600D03*
X27533600Y8940800D03*
X-28803600Y-3048000D03*
X25095200Y-14478000D03*
X-17018000Y-23418800D03*
%TO.N,CA2*%
X-14427200Y-25095200D03*
X-12852400Y-22402800D03*
X-25857200Y0D03*
X23622000Y10515600D03*
X8940800Y-27533600D03*
X26416000Y11785600D03*
X-28295600Y-5994400D03*
X-25247600Y-5435600D03*
X8026400Y-24587200D03*
X0Y28956000D03*
X330200Y25933400D03*
X26416000Y-11785600D03*
X-27152499Y0D03*
X23622000Y-10464800D03*
%TO.N,CA3*%
X10414000Y-23063200D03*
X-23418800Y17018000D03*
X11785600Y-26416000D03*
X-3048000Y28803600D03*
X-10160000Y-23164800D03*
X22707599Y11176000D03*
X-2640529Y25196912D03*
X27533600Y-8940800D03*
X-20472400Y14935200D03*
X-11785600Y-26416000D03*
X25095200Y14478000D03*
X-25196799Y-2641600D03*
X23926800Y-8229600D03*
X-16611599Y-19100798D03*
%TO.N,CA8*%
X13970000Y19100800D03*
X22367529Y2366935D03*
X-21336000Y-10210800D03*
X0Y-28956000D03*
X0Y-22504400D03*
X-20218400Y-9855200D03*
X-17018000Y23418800D03*
X-21488400Y-19354800D03*
X-23520400Y2489200D03*
X16713200Y-15036800D03*
X17018000Y23418800D03*
X21539200Y-19405600D03*
X-28803600Y2997200D03*
X-16662400Y-15087600D03*
X-13868400Y19202400D03*
X28803600Y3048000D03*
X8940800Y21894800D03*
%TO.N,CB1*%
X-22325462Y18078801D03*
X-17087621Y21101455D03*
X-19199716Y19199716D03*
%TD*%
D10*
%TO.N,CA7*%
X22938939Y13337738D02*
X22860000Y13258800D01*
X21685170Y15843171D02*
X21386800Y15544800D01*
X24207681Y10796481D02*
X24130000Y10718800D01*
X13208000Y22860000D02*
X11531600Y20015200D01*
X18148436Y20129636D02*
X17678400Y19659600D01*
X21793200Y7569200D02*
X24993600Y8483600D01*
X15843171Y21685170D02*
X15544800Y21386800D01*
X25170587Y8120113D02*
X25121596Y8120113D01*
X20162450Y18130450D02*
X19659600Y17627600D01*
X13576249Y23514754D02*
X13208000Y22860000D01*
X15959839Y21966833D02*
G75*
G02*
X15843189Y21685152I-398339J-33D01*
G01*
X18168568Y20178239D02*
G75*
G02*
X18148462Y20129610I-68768J-39D01*
G01*
X24805042Y11043916D02*
G75*
G03*
X24207656Y10796506I-42J-844816D01*
G01*
X21966833Y15959839D02*
G75*
G03*
X21685152Y15843189I-33J-398339D01*
G01*
X20178239Y18168568D02*
G75*
G02*
X20162441Y18130459I-53939J32D01*
G01*
X23514754Y13576249D02*
G75*
G03*
X22938957Y13337720I46J-814349D01*
G01*
X25823561Y8390584D02*
G75*
G02*
X25170587Y8120135I-652961J653016D01*
G01*
%TO.N,CA6*%
X24805042Y-11043916D02*
X24727361Y-10966235D01*
X27003755Y-2838209D02*
X26279512Y-2838209D01*
X23514754Y-13576249D02*
X20421600Y-11836400D01*
X23164800Y4572000D02*
X25857200Y5130800D01*
X23026931Y-13374186D02*
X22861764Y-13209019D01*
X26279512Y-2838209D02*
X26263600Y-2844800D01*
X27003755Y2838209D02*
X26263600Y2794000D01*
X26559152Y5645322D02*
X25806399Y5537200D01*
X26420765Y-5588000D02*
X25806400Y-5588000D01*
X27152499Y0D02*
X26416000Y0D01*
X25823561Y-8390584D02*
X25657291Y-8390584D01*
X23514754Y-13576249D02*
G75*
G02*
X23026962Y-13374155I46J689849D01*
G01*
X25657291Y-8390584D02*
G75*
G02*
X25146002Y-8178798I9J723084D01*
G01*
X26559152Y-5645322D02*
G75*
G03*
X26420765Y-5588022I-138352J-138378D01*
G01*
X24727361Y-10966235D02*
G75*
G03*
X24130000Y-10718801I-597361J-597365D01*
G01*
%TO.N,CA4*%
X-8229600Y-25434912D02*
X-8229600Y-25095200D01*
X0Y-27152499D02*
X0Y-26416000D01*
X-11043916Y-24805042D02*
X-10966235Y-24727361D01*
X2800112Y-26219234D02*
X2794000Y-24587199D01*
X-13409582Y-23112382D02*
X-13157200Y-22860000D01*
X-15843171Y-21685170D02*
X-15493999Y-21335999D01*
X-14035572Y-20384998D02*
X-14935200Y-21691600D01*
X-2838209Y-27003755D02*
X-2838209Y-26370329D01*
X2838209Y-27003755D02*
X2800112Y-26219234D01*
X-5435600Y-26052839D02*
X-5435600Y-25806400D01*
X-13576250Y-23514754D02*
G75*
G02*
X-13409582Y-23112382I569045J-2D01*
G01*
X-15959839Y-21966833D02*
G75*
G02*
X-15843171Y-21685170I398332J0D01*
G01*
X-8390584Y-25823561D02*
G75*
G03*
X-8229600Y-25434912I-388641J388646D01*
G01*
X-10966235Y-24727361D02*
G75*
G03*
X-10718800Y-24130000I-597360J597361D01*
G01*
X-5645322Y-26559152D02*
G75*
G03*
X-5435600Y-26052839I-506311J506312D01*
G01*
X-2838209Y-26370329D02*
G75*
G02*
X-2794000Y-26263600I150932J2D01*
G01*
%TO.N,CA5*%
X4521200Y-23774400D02*
X5080000Y-25857200D01*
X13373659Y-23025660D02*
X13208000Y-22860000D01*
X5537200Y-25806399D02*
X5645322Y-26559152D01*
X20129636Y-18148436D02*
X19608800Y-17627600D01*
X11043916Y-24805042D02*
X11043916Y-24741457D01*
X8390584Y-25823561D02*
X8178800Y-25095200D01*
X17968831Y-19696031D02*
X17780000Y-19507200D01*
X21356579Y-15508944D02*
X19591109Y-14248083D01*
X21356579Y-15508944D02*
X21966833Y-15959839D01*
X15807250Y-21598450D02*
X15544800Y-21336000D01*
X5080000Y-25857200D02*
X5537200Y-25806399D01*
X11043916Y-24741457D02*
G75*
G03*
X10769602Y-24079198I-936566J7D01*
G01*
X18168568Y-20178239D02*
G75*
G03*
X17968855Y-19696007I-681968J39D01*
G01*
X13576249Y-23514754D02*
G75*
G03*
X13373629Y-23025690I-691649J-46D01*
G01*
X15959839Y-21966833D02*
G75*
G03*
X15807260Y-21598440I-520939J33D01*
G01*
X20178239Y-18168568D02*
G75*
G02*
X20129610Y-18148462I-39J68768D01*
G01*
%TO.N,CA1*%
X-18110066Y20154006D02*
X-17628984Y19672925D01*
X-13576250Y23514754D02*
X-13208000Y22910800D01*
X-5645322Y26559152D02*
X-5537200Y25857200D01*
X-8390584Y25823561D02*
X-8178800Y25146000D01*
X-11043916Y24805042D02*
X-11043916Y24792257D01*
X-11043916Y24805042D02*
X-10718800Y24130000D01*
X-20299950Y19222450D02*
X-19344161Y20178239D01*
X-2838209Y27003755D02*
X-2794000Y26263600D01*
X-19344161Y20178239D02*
X-18168568Y20178239D01*
X-15959839Y21966833D02*
X-15494000Y21386800D01*
X0Y27152499D02*
X0Y26416000D01*
X-21348693Y19222450D02*
X-20299950Y19222450D01*
%TO.N,CA2*%
X-19780928Y18003997D02*
X-19546257Y17769325D01*
X-27003755Y2838209D02*
X-26370329Y2838209D01*
X-23514754Y13576249D02*
X-23330305Y13576249D01*
X-25823561Y8390584D02*
X-25238565Y8390584D01*
X-21685170Y15843171D02*
X-21386800Y15544800D01*
X-24805042Y11043916D02*
X-24496173Y11043916D01*
X-27152499Y0D02*
X-26416000Y0D01*
X-26559152Y5645322D02*
X-26118229Y5645322D01*
X-25238565Y8390584D02*
G75*
G02*
X-25095200Y8331200I3J-202742D01*
G01*
X-21966833Y15959839D02*
G75*
G02*
X-21685170Y15843171I0J-398332D01*
G01*
X-20178239Y18168568D02*
G75*
G02*
X-19780928Y18003997I-2J-561889D01*
G01*
X-24496173Y11043916D02*
G75*
G02*
X-24079200Y10871200I2J-589685D01*
G01*
X-26118229Y5645322D02*
G75*
G02*
X-25857200Y5537200I0J-369150D01*
G01*
X-23330305Y13576249D02*
G75*
G02*
X-22809200Y13360400I1J-736950D01*
G01*
X-26370329Y2838209D02*
G75*
G02*
X-26263600Y2794000I2J-150932D01*
G01*
%TO.N,CA3*%
X-20042915Y-18112515D02*
X-19608800Y-17678400D01*
X-18062353Y-19921813D02*
X-17698540Y-19558000D01*
X-26227997Y-2801048D02*
X-25196799Y-2641600D01*
X-24805042Y-11043916D02*
X-24792257Y-11043916D01*
X-21425007Y-15735408D02*
X-21285200Y-15595600D01*
X-27003755Y-2838209D02*
X-26227997Y-2801048D01*
X-25823561Y-8390584D02*
X-25606491Y-8390584D01*
X-17698540Y-19558000D02*
X-16611599Y-19100798D01*
X-26559152Y-5645322D02*
X-26067429Y-5645322D01*
X-23514754Y-13576250D02*
X-23053009Y-13114505D01*
X-26067429Y-5645322D02*
G75*
G03*
X-25806400Y-5537200I0J369150D01*
G01*
X-23053009Y-13114505D02*
G75*
G02*
X-22910800Y-13055600I142209J-142210D01*
G01*
X-21966833Y-15959839D02*
G75*
G03*
X-21425007Y-15735408I-1J766263D01*
G01*
X-20178239Y-18168568D02*
G75*
G03*
X-20042915Y-18112515I-1J191380D01*
G01*
X-25606491Y-8390584D02*
G75*
G03*
X-25095200Y-8178800I0J723074D01*
G01*
X-18168568Y-20178239D02*
G75*
G02*
X-18062353Y-19921813I362636J2D01*
G01*
X-24792257Y-11043916D02*
G75*
G03*
X-24130000Y-10769600I2J936568D01*
G01*
%TO.N,CA8*%
X10058400Y24384000D02*
X8940800Y21894800D01*
X5645322Y26559152D02*
X5486400Y25806400D01*
X8390584Y25823561D02*
X8178800Y25095200D01*
X2838209Y27003755D02*
X2794000Y26234473D01*
X10667929Y24129842D02*
X10058400Y24384000D01*
X11043916Y24805042D02*
X10667929Y24129842D01*
%TO.N,CB2*%
X-25349041Y9730585D02*
X-26085800Y10007600D01*
X-27115287Y1421052D02*
X-27889200Y1447800D01*
X-26818206Y4247587D02*
X-27584400Y4343400D01*
X-21101454Y17087621D02*
X-21713458Y17583211D01*
X-26227300Y7027584D02*
X-26974800Y7213600D01*
X-22772002Y14788310D02*
X-23444200Y15214600D01*
X-27115287Y-1421052D02*
X-27901709Y-1462267D01*
X-24193053Y12326976D02*
X-24892000Y12649200D01*
%TO.N,CB4*%
X-12326976Y-24193053D02*
X-12674600Y-24892000D01*
X4247586Y-26818206D02*
X4370779Y-27596011D01*
X-14788310Y-22772002D02*
X-15217214Y-23432456D01*
X-9730585Y-25349041D02*
X-10033000Y-26060400D01*
X-1421052Y-27115287D02*
X-1473200Y-27889200D01*
X-7027584Y-26227300D02*
X-7213600Y-26974800D01*
X-4247587Y-26818206D02*
X-4368800Y-27584400D01*
X1421052Y-27115287D02*
X1473200Y-27889200D01*
%TO.N,CB7*%
X21101455Y17087621D02*
X21717000Y17551400D01*
X17087621Y21101454D02*
X17576800Y21717000D01*
X14788310Y22772002D02*
X15214600Y23418800D01*
X25349041Y9730585D02*
X26084237Y10012801D01*
X19199716Y19199716D02*
X19735800Y19761200D01*
X12326976Y24193053D02*
X12684494Y24894722D01*
X24193053Y12326977D02*
X24892000Y12700000D01*
X22772001Y14788311D02*
X23444200Y15214600D01*
%TO.N,CB6*%
X27115287Y1421052D02*
X27889200Y1447800D01*
X27115287Y-1421052D02*
X27889200Y-1447800D01*
X26227299Y7027583D02*
X26987967Y7231404D01*
X25349041Y-9730585D02*
X26085800Y-10007600D01*
X26227300Y-7027584D02*
X26974800Y-7213600D01*
X24193053Y-12326976D02*
X24894722Y-12684494D01*
X26818206Y4247586D02*
X27584400Y4343400D01*
%TO.N,CB5*%
X14788311Y-22772001D02*
X15240000Y-23418800D01*
X7027583Y-26227299D02*
X7231404Y-26987967D01*
X12326977Y-24193053D02*
X12700000Y-24892000D01*
X22772002Y-14788310D02*
X23432455Y-15217213D01*
X17087621Y-21101455D02*
X17602200Y-21691600D01*
X21101454Y-17087621D02*
X21717000Y-17576800D01*
X9730585Y-25349041D02*
X10007600Y-26085800D01*
X19199716Y-19199716D02*
X19786600Y-19735800D01*
%TO.N,CB3*%
X-26227299Y-7027583D02*
X-26974800Y-7213600D01*
X-25349041Y-9730585D02*
X-26060400Y-10007600D01*
X-19199716Y-19199716D02*
X-19735800Y-19735800D01*
X-22772001Y-14788311D02*
X-23393400Y-15214600D01*
X-17087621Y-21101454D02*
X-17583211Y-21713458D01*
X-26818206Y-4247586D02*
X-27596012Y-4370779D01*
X-24193053Y-12326977D02*
X-24866600Y-12700000D01*
X-21101455Y-17087621D02*
X-21691600Y-17576800D01*
%TO.N,CB1*%
X-4247586Y26818206D02*
X-4368800Y27609800D01*
X-17087621Y21101455D02*
X-17583212Y21713458D01*
X-9730585Y25349041D02*
X-10007600Y26085800D01*
X-7027583Y26227299D02*
X-7239000Y26974800D01*
X-12326977Y24193053D02*
X-12700000Y24892000D01*
X-14788311Y22772001D02*
X-15214600Y23418800D01*
X-1421052Y27115287D02*
X-1462267Y27901709D01*
%TO.N,CB8*%
X4247587Y26818206D02*
X4368800Y27584400D01*
X1421052Y27115287D02*
X1462266Y27901708D01*
X9730585Y25349041D02*
X10012800Y26084236D01*
X7027584Y26227300D02*
X7239000Y26974800D01*
%TD*%
M02*
