%TF.GenerationSoftware,KiCad,Pcbnew,8.0.6*%
%TF.CreationDate,2025-01-18T11:53:47-05:00*%
%TF.ProjectId,WristWatch,57726973-7457-4617-9463-682e6b696361,rev?*%
%TF.SameCoordinates,Original*%
%TF.FileFunction,Soldermask,Top*%
%TF.FilePolarity,Negative*%
%FSLAX46Y46*%
G04 Gerber Fmt 4.6, Leading zero omitted, Abs format (unit mm)*
G04 Created by KiCad (PCBNEW 8.0.6) date 2025-01-18 11:53:47*
%MOMM*%
%LPD*%
G01*
G04 APERTURE LIST*
G04 Aperture macros list*
%AMRoundRect*
0 Rectangle with rounded corners*
0 $1 Rounding radius*
0 $2 $3 $4 $5 $6 $7 $8 $9 X,Y pos of 4 corners*
0 Add a 4 corners polygon primitive as box body*
4,1,4,$2,$3,$4,$5,$6,$7,$8,$9,$2,$3,0*
0 Add four circle primitives for the rounded corners*
1,1,$1+$1,$2,$3*
1,1,$1+$1,$4,$5*
1,1,$1+$1,$6,$7*
1,1,$1+$1,$8,$9*
0 Add four rect primitives between the rounded corners*
20,1,$1+$1,$2,$3,$4,$5,0*
20,1,$1+$1,$4,$5,$6,$7,0*
20,1,$1+$1,$6,$7,$8,$9,0*
20,1,$1+$1,$8,$9,$2,$3,0*%
G04 Aperture macros list end*
%ADD10RoundRect,0.218750X-0.335876X-0.026517X-0.026517X-0.335876X0.335876X0.026517X0.026517X0.335876X0*%
%ADD11RoundRect,0.218750X-0.331294X0.061318X-0.112544X-0.317568X0.331294X-0.061318X0.112544X0.317568X0*%
%ADD12RoundRect,0.218750X0.323023X0.095770X-0.043895X0.334049X-0.323023X-0.095770X0.043895X-0.334049X0*%
%ADD13RoundRect,0.218750X0.277619X0.190902X-0.144974X0.304135X-0.277619X-0.190902X0.144974X-0.304135X0*%
%ADD14RoundRect,0.218750X-0.287229X-0.176111X0.128858X-0.311306X0.287229X0.176111X-0.128858X0.311306X0*%
%ADD15RoundRect,0.218750X-0.026517X0.335876X-0.335876X0.026517X0.026517X-0.335876X0.335876X-0.026517X0*%
%ADD16RoundRect,0.218750X-0.231861X-0.244450X0.205039X-0.267347X0.231861X0.244450X-0.205039X0.267347X0*%
%ADD17RoundRect,0.218750X-0.256250X0.218750X-0.256250X-0.218750X0.256250X-0.218750X0.256250X0.218750X0*%
%ADD18RoundRect,0.218750X0.190902X-0.277619X0.304135X0.144974X-0.190902X0.277619X-0.304135X-0.144974X0*%
%ADD19RoundRect,0.218750X-0.311306X0.128858X-0.176111X-0.287229X0.311306X-0.128858X0.176111X0.287229X0*%
%ADD20RoundRect,0.218750X-0.231981X0.244337X-0.277712X-0.190766X0.231981X-0.244337X0.277712X0.190766X0*%
%ADD21RoundRect,0.218750X0.095612X0.323070X-0.304064X0.145122X-0.095612X-0.323070X0.304064X-0.145122X0*%
%ADD22RoundRect,0.218750X0.205170X-0.267247X0.296131X0.160692X-0.205170X0.267247X-0.296131X-0.160692X0*%
%ADD23RoundRect,0.218750X-0.190902X0.277619X-0.304135X-0.144974X0.190902X-0.277619X0.304135X0.144974X0*%
%ADD24RoundRect,0.218750X-0.112544X0.317568X-0.331294X-0.061318X0.112544X-0.317568X0.331294X0.061318X0*%
%ADD25RoundRect,0.218750X0.160692X0.296131X-0.267247X0.205170X-0.160692X-0.296131X0.267247X-0.205170X0*%
%ADD26RoundRect,0.218750X-0.277619X-0.190902X0.144974X-0.304135X0.277619X0.190902X-0.144974X0.304135X0*%
%ADD27RoundRect,0.218750X-0.205039X-0.267347X0.231861X-0.244450X0.205039X0.267347X-0.231861X0.244450X0*%
%ADD28RoundRect,0.218750X-0.323023X-0.095770X0.043895X-0.334049X0.323023X0.095770X-0.043895X0.334049X0*%
%ADD29RoundRect,0.218750X0.304135X-0.144974X0.190902X0.277619X-0.304135X0.144974X-0.190902X-0.277619X0*%
%ADD30RoundRect,0.218750X-0.334028X-0.044059X-0.008902X-0.336803X0.334028X0.044059X0.008902X0.336803X0*%
%ADD31RoundRect,0.218750X0.323070X-0.095612X0.145122X0.304064X-0.323070X0.095612X-0.145122X-0.304064X0*%
%ADD32RoundRect,0.218750X-0.078733X0.327592X-0.335889X-0.026352X0.078733X-0.327592X0.335889X0.026352X0*%
%ADD33RoundRect,0.218750X0.175970X0.287315X-0.256143X0.218875X-0.175970X-0.287315X0.256143X-0.218875X0*%
%ADD34RoundRect,0.218750X0.287229X0.176111X-0.128858X0.311306X-0.287229X-0.176111X0.128858X-0.311306X0*%
%ADD35RoundRect,0.218750X-0.044059X0.334028X-0.336803X0.008902X0.044059X-0.334028X0.336803X-0.008902X0*%
%ADD36RoundRect,0.218750X0.008737X0.336807X-0.331264X0.061480X-0.008737X-0.336807X0.331264X-0.061480X0*%
%ADD37RoundRect,0.218750X0.317623X-0.112389X0.160837X0.296053X-0.317623X0.112389X-0.160837X-0.296053X0*%
%ADD38RoundRect,0.218750X-0.317623X0.112389X-0.160837X-0.296053X0.317623X-0.112389X0.160837X0.296053X0*%
%ADD39RoundRect,0.218750X-0.218750X-0.256250X0.218750X-0.256250X0.218750X0.256250X-0.218750X0.256250X0*%
%ADD40RoundRect,0.218750X0.296131X-0.160692X0.205170X0.267247X-0.296131X0.160692X-0.205170X-0.267247X0*%
%ADD41RoundRect,0.218750X0.218750X0.256250X-0.218750X0.256250X-0.218750X-0.256250X0.218750X-0.256250X0*%
%ADD42RoundRect,0.218750X0.296053X0.160837X-0.112389X0.317623X-0.296053X-0.160837X0.112389X-0.317623X0*%
%ADD43RoundRect,0.218750X-0.296131X0.160692X-0.205170X-0.267247X0.296131X-0.160692X0.205170X0.267247X0*%
%ADD44RoundRect,0.218750X-0.331264X-0.061480X0.008737X-0.336807X0.331264X0.061480X-0.008737X0.336807X0*%
%ADD45RoundRect,0.218750X0.218875X-0.256143X0.287315X0.175970X-0.218875X0.256143X-0.287315X-0.175970X0*%
%ADD46RoundRect,0.218750X0.145122X-0.304064X0.323070X0.095612X-0.145122X0.304064X-0.323070X-0.095612X0*%
%ADD47RoundRect,0.218750X-0.061480X0.331264X-0.336807X-0.008737X0.061480X-0.331264X0.336807X0.008737X0*%
%ADD48RoundRect,0.218750X0.026517X-0.335876X0.335876X-0.026517X-0.026517X0.335876X-0.335876X0.026517X0*%
%ADD49RoundRect,0.218750X-0.061318X-0.331294X0.317568X-0.112544X0.061318X0.331294X-0.317568X0.112544X0*%
%ADD50RoundRect,0.218750X0.335876X0.026517X0.026517X0.335876X-0.335876X-0.026517X-0.026517X-0.335876X0*%
%ADD51RoundRect,0.218750X0.317568X0.112544X-0.061318X0.331294X-0.317568X-0.112544X0.061318X-0.331294X0*%
%ADD52RoundRect,0.218750X-0.008737X-0.336807X0.331264X-0.061480X0.008737X0.336807X-0.331264X0.061480X0*%
%ADD53RoundRect,0.218750X-0.304135X0.144974X-0.190902X-0.277619X0.304135X-0.144974X0.190902X0.277619X0*%
%ADD54RoundRect,0.218750X-0.267347X0.205039X-0.244450X-0.231861X0.267347X-0.205039X0.244450X0.231861X0*%
%ADD55RoundRect,0.218750X0.244337X0.231981X-0.190766X0.277712X-0.244337X-0.231981X0.190766X-0.277712X0*%
%ADD56RoundRect,0.218750X0.327631X-0.078573X0.129010X0.311243X-0.327631X0.078573X-0.129010X-0.311243X0*%
%ADD57RoundRect,0.218750X-0.144974X-0.304135X0.277619X-0.190902X0.144974X0.304135X-0.277619X0.190902X0*%
%ADD58RoundRect,0.218750X-0.336807X0.008737X-0.061480X-0.331264X0.336807X-0.008737X0.061480X0.331264X0*%
%ADD59RoundRect,0.218750X-0.277712X0.190766X-0.231981X-0.244337X0.277712X-0.190766X0.231981X0.244337X0*%
%ADD60RoundRect,0.218750X-0.317568X-0.112544X0.061318X-0.331294X0.317568X0.112544X-0.061318X0.331294X0*%
%ADD61RoundRect,0.218750X-0.335889X0.026352X-0.078733X-0.327592X0.335889X-0.026352X0.078733X0.327592X0*%
%ADD62RoundRect,0.218750X0.078733X-0.327592X0.335889X0.026352X-0.078733X0.327592X-0.335889X-0.026352X0*%
%ADD63RoundRect,0.218750X-0.218875X0.256143X-0.287315X-0.175970X0.218875X-0.256143X0.287315X0.175970X0*%
%ADD64RoundRect,0.218750X-0.205170X0.267247X-0.296131X-0.160692X0.205170X-0.267247X0.296131X0.160692X0*%
%ADD65RoundRect,0.218750X-0.160692X-0.296131X0.267247X-0.205170X0.160692X0.296131X-0.267247X0.205170X0*%
%ADD66RoundRect,0.218750X0.128858X0.311306X-0.287229X0.176111X-0.128858X-0.311306X0.287229X-0.176111X0*%
%ADD67RoundRect,0.218750X0.336803X0.008902X0.044059X0.334028X-0.336803X-0.008902X-0.044059X-0.334028X0*%
%ADD68RoundRect,0.218750X0.205039X0.267347X-0.231861X0.244450X-0.205039X-0.267347X0.231861X-0.244450X0*%
%ADD69RoundRect,0.218750X-0.327631X0.078573X-0.129010X-0.311243X0.327631X-0.078573X0.129010X0.311243X0*%
%ADD70RoundRect,0.218750X0.176111X-0.287229X0.311306X0.128858X-0.176111X0.287229X-0.311306X-0.128858X0*%
%ADD71RoundRect,0.218750X0.112544X-0.317568X0.331294X0.061318X-0.112544X0.317568X-0.331294X-0.061318X0*%
%ADD72RoundRect,0.218750X-0.112389X-0.317623X0.296053X-0.160837X0.112389X0.317623X-0.296053X0.160837X0*%
%ADD73RoundRect,0.218750X-0.176111X0.287229X-0.311306X-0.128858X0.176111X-0.287229X0.311306X0.128858X0*%
%ADD74RoundRect,0.218750X-0.095770X0.323023X-0.334049X-0.043895X0.095770X-0.323023X0.334049X0.043895X0*%
%ADD75RoundRect,0.218750X0.129010X-0.311243X0.327631X0.078573X-0.129010X0.311243X-0.327631X-0.078573X0*%
%ADD76RoundRect,0.218750X-0.334049X0.043895X-0.095770X-0.323023X0.334049X-0.043895X0.095770X0.323023X0*%
%ADD77RoundRect,0.218750X-0.336803X-0.008902X-0.044059X-0.334028X0.336803X0.008902X0.044059X0.334028X0*%
%ADD78RoundRect,0.218750X0.043895X0.334049X-0.323023X0.095770X-0.043895X-0.334049X0.323023X-0.095770X0*%
%ADD79RoundRect,0.218750X0.160837X-0.296053X0.317623X0.112389X-0.160837X0.296053X-0.317623X-0.112389X0*%
%ADD80RoundRect,0.218750X0.231861X0.244450X-0.205039X0.267347X-0.231861X-0.244450X0.205039X-0.267347X0*%
%ADD81RoundRect,0.218750X0.256143X0.218875X-0.175970X0.287315X-0.256143X-0.218875X0.175970X-0.287315X0*%
%ADD82RoundRect,0.218750X0.026352X0.335889X-0.327592X0.078733X-0.026352X-0.335889X0.327592X-0.078733X0*%
%ADD83RoundRect,0.218750X-0.175970X-0.287315X0.256143X-0.218875X0.175970X0.287315X-0.256143X0.218875X0*%
%ADD84RoundRect,0.218750X-0.129010X0.311243X-0.327631X-0.078573X0.129010X-0.311243X0.327631X0.078573X0*%
%ADD85RoundRect,0.218750X0.256250X-0.218750X0.256250X0.218750X-0.256250X0.218750X-0.256250X-0.218750X0*%
%ADD86RoundRect,0.218750X-0.145122X0.304064X-0.323070X-0.095612X0.145122X-0.304064X0.323070X0.095612X0*%
%ADD87RoundRect,0.218750X0.144974X0.304135X-0.277619X0.190902X-0.144974X-0.304135X0.277619X-0.190902X0*%
%ADD88RoundRect,0.218750X0.044059X-0.334028X0.336803X-0.008902X-0.044059X0.334028X-0.336803X0.008902X0*%
%ADD89RoundRect,0.218750X0.331264X0.061480X-0.008737X0.336807X-0.331264X-0.061480X0.008737X-0.336807X0*%
%ADD90RoundRect,0.218750X0.112389X0.317623X-0.296053X0.160837X-0.112389X-0.317623X0.296053X-0.160837X0*%
%ADD91RoundRect,0.218750X0.231981X-0.244337X0.277712X0.190766X-0.231981X0.244337X-0.277712X-0.190766X0*%
%ADD92RoundRect,0.218750X0.331294X-0.061318X0.112544X0.317568X-0.331294X0.061318X-0.112544X-0.317568X0*%
%ADD93RoundRect,0.218750X0.334028X0.044059X0.008902X0.336803X-0.334028X-0.044059X-0.008902X-0.336803X0*%
%ADD94RoundRect,0.218750X-0.095612X-0.323070X0.304064X-0.145122X0.095612X0.323070X-0.304064X0.145122X0*%
%ADD95RoundRect,0.218750X-0.296053X-0.160837X0.112389X-0.317623X0.296053X0.160837X-0.112389X0.317623X0*%
%ADD96RoundRect,0.218750X0.061318X0.331294X-0.317568X0.112544X-0.061318X-0.331294X0.317568X-0.112544X0*%
%ADD97RoundRect,0.218750X-0.267247X-0.205170X0.160692X-0.296131X0.267247X0.205170X-0.160692X0.296131X0*%
%ADD98RoundRect,0.218750X0.335889X-0.026352X0.078733X0.327592X-0.335889X0.026352X-0.078733X-0.327592X0*%
%ADD99RoundRect,0.218750X0.311243X0.129010X-0.078573X0.327631X-0.311243X-0.129010X0.078573X-0.327631X0*%
%ADD100RoundRect,0.218750X0.311306X-0.128858X0.176111X0.287229X-0.311306X0.128858X-0.176111X-0.287229X0*%
%ADD101RoundRect,0.218750X-0.287315X0.175970X-0.218875X-0.256143X0.287315X-0.175970X0.218875X0.256143X0*%
%ADD102RoundRect,0.218750X0.267247X0.205170X-0.160692X0.296131X-0.267247X-0.205170X0.160692X-0.296131X0*%
%ADD103RoundRect,0.218750X0.304064X0.145122X-0.095612X0.323070X-0.304064X-0.145122X0.095612X-0.323070X0*%
%ADD104RoundRect,0.218750X-0.190766X-0.277712X0.244337X-0.231981X0.190766X0.277712X-0.244337X0.231981X0*%
%ADD105RoundRect,0.218750X0.267347X-0.205039X0.244450X0.231861X-0.267347X0.205039X-0.244450X-0.231861X0*%
%ADD106RoundRect,0.218750X-0.323070X0.095612X-0.145122X-0.304064X0.323070X-0.095612X0.145122X0.304064X0*%
%ADD107RoundRect,0.218750X-0.160837X0.296053X-0.317623X-0.112389X0.160837X-0.296053X0.317623X0.112389X0*%
%ADD108RoundRect,0.218750X-0.128858X-0.311306X0.287229X-0.176111X0.128858X0.311306X-0.287229X0.176111X0*%
%ADD109RoundRect,0.218750X0.334049X-0.043895X0.095770X0.323023X-0.334049X0.043895X-0.095770X-0.323023X0*%
%ADD110RoundRect,0.218750X0.095770X-0.323023X0.334049X0.043895X-0.095770X0.323023X-0.334049X-0.043895X0*%
%ADD111RoundRect,0.218750X0.327592X0.078733X-0.026352X0.335889X-0.327592X-0.078733X0.026352X-0.335889X0*%
%ADD112RoundRect,0.218750X-0.244337X-0.231981X0.190766X-0.277712X0.244337X0.231981X-0.190766X0.277712X0*%
%ADD113RoundRect,0.218750X-0.256143X-0.218875X0.175970X-0.287315X0.256143X0.218875X-0.175970X0.287315X0*%
%ADD114RoundRect,0.218750X-0.311243X-0.129010X0.078573X-0.327631X0.311243X0.129010X-0.078573X0.327631X0*%
%ADD115RoundRect,0.218750X-0.327592X-0.078733X0.026352X-0.335889X0.327592X0.078733X-0.026352X0.335889X0*%
%ADD116RoundRect,0.218750X0.244450X-0.231861X0.267347X0.205039X-0.244450X0.231861X-0.267347X-0.205039X0*%
%ADD117RoundRect,0.218750X-0.008902X0.336803X-0.334028X0.044059X0.008902X-0.336803X0.334028X-0.044059X0*%
%ADD118RoundRect,0.218750X0.078573X0.327631X-0.311243X0.129010X-0.078573X-0.327631X0.311243X-0.129010X0*%
%ADD119RoundRect,0.218750X0.277712X-0.190766X0.231981X0.244337X-0.277712X0.190766X-0.231981X-0.244337X0*%
%ADD120RoundRect,0.218750X0.336807X-0.008737X0.061480X0.331264X-0.336807X0.008737X-0.061480X-0.331264X0*%
%ADD121RoundRect,0.218750X-0.244450X0.231861X-0.267347X-0.205039X0.244450X-0.231861X0.267347X0.205039X0*%
%ADD122RoundRect,0.218750X-0.078573X-0.327631X0.311243X-0.129010X0.078573X0.327631X-0.311243X0.129010X0*%
%ADD123RoundRect,0.218750X-0.043895X-0.334049X0.323023X-0.095770X0.043895X0.334049X-0.323023X0.095770X0*%
%ADD124RoundRect,0.218750X0.190766X0.277712X-0.244337X0.231981X-0.190766X-0.277712X0.244337X-0.231981X0*%
%ADD125RoundRect,0.218750X-0.026352X-0.335889X0.327592X-0.078733X0.026352X0.335889X-0.327592X0.078733X0*%
%ADD126RoundRect,0.218750X0.061480X-0.331264X0.336807X0.008737X-0.061480X0.331264X-0.336807X-0.008737X0*%
%ADD127RoundRect,0.218750X0.008902X-0.336803X0.334028X-0.044059X-0.008902X0.336803X-0.334028X0.044059X0*%
%ADD128RoundRect,0.218750X0.287315X-0.175970X0.218875X0.256143X-0.287315X0.175970X-0.218875X-0.256143X0*%
%ADD129RoundRect,0.218750X-0.304064X-0.145122X0.095612X-0.323070X0.304064X0.145122X-0.095612X0.323070X0*%
G04 APERTURE END LIST*
D10*
%TO.C,D98*%
X19199716Y-19199716D03*
X20313412Y-20313410D03*
%TD*%
D11*
%TO.C,D36*%
X13576249Y-23514754D03*
X14363751Y-24878746D03*
%TD*%
D12*
%TO.C,D70*%
X-22772002Y14788310D03*
X-24092910Y15646118D03*
%TD*%
D13*
%TO.C,D73*%
X-26227300Y7027584D03*
X-27748636Y7435224D03*
%TD*%
D14*
%TO.C,D43*%
X25823561Y-8390584D03*
X27321477Y-8877286D03*
%TD*%
D15*
%TO.C,D83*%
X-19199716Y-19199716D03*
X-20313410Y-20313412D03*
%TD*%
D16*
%TO.C,D105*%
X27115287Y-1421052D03*
X28688131Y-1503480D03*
%TD*%
D17*
%TO.C,D31*%
X0Y-27152499D03*
X0Y-28727501D03*
%TD*%
D18*
%TO.C,D118*%
X7027584Y26227300D03*
X7435224Y27748636D03*
%TD*%
D19*
%TO.C,D34*%
X8390584Y-25823561D03*
X8877286Y-27321477D03*
%TD*%
D20*
%TO.C,D30*%
X-2838209Y-27003755D03*
X-3002841Y-28570129D03*
%TD*%
D21*
%TO.C,D20*%
X-24805042Y-11043916D03*
X-26243878Y-11684528D03*
%TD*%
D22*
%TO.C,D59*%
X5645322Y26559152D03*
X5972784Y28099736D03*
%TD*%
D23*
%TO.C,D88*%
X-7027584Y-26227300D03*
X-7435224Y-27748636D03*
%TD*%
D24*
%TO.C,D125*%
X-21119359Y13102596D03*
X-21906861Y11738604D03*
%TD*%
D25*
%TO.C,D18*%
X-26559152Y-5645322D03*
X-28099736Y-5972784D03*
%TD*%
D26*
%TO.C,D132*%
X-7190044Y-23790937D03*
X-5668708Y-24198577D03*
%TD*%
D27*
%TO.C,D106*%
X27115287Y1421052D03*
X28688131Y1503482D03*
%TD*%
D23*
%TO.C,D126*%
X-23790937Y7190044D03*
X-24198577Y5668708D03*
%TD*%
D28*
%TO.C,D100*%
X22772002Y-14788310D03*
X24092910Y-15646118D03*
%TD*%
D29*
%TO.C,D140*%
X24198577Y5668708D03*
X23790937Y7190044D03*
%TD*%
D30*
%TO.C,D39*%
X20178239Y-18168568D03*
X21348693Y-19222450D03*
%TD*%
D31*
%TO.C,D5*%
X-11043916Y24805042D03*
X-11684528Y26243878D03*
%TD*%
D13*
%TO.C,D144*%
X7190044Y23790937D03*
X5668708Y24198577D03*
%TD*%
D32*
%TO.C,D25*%
X-15959839Y-21966833D03*
X-16885601Y-23241037D03*
%TD*%
D33*
%TO.C,D77*%
X-26818206Y-4247586D03*
X-28373818Y-4493972D03*
%TD*%
D34*
%TO.C,D13*%
X-25823561Y8390584D03*
X-27321477Y8877286D03*
%TD*%
D35*
%TO.C,D24*%
X-18168568Y-20178239D03*
X-19222450Y-21348693D03*
%TD*%
D36*
%TO.C,D82*%
X-21101455Y-17087621D03*
X-22325461Y-18078803D03*
%TD*%
D37*
%TO.C,D64*%
X-9730585Y25349041D03*
X-10295017Y26819433D03*
%TD*%
D38*
%TO.C,D94*%
X9730585Y-25349041D03*
X10295017Y-26819433D03*
%TD*%
D39*
%TO.C,D133*%
X-787501Y-24841200D03*
X787501Y-24841200D03*
%TD*%
D40*
%TO.C,D3*%
X-5645322Y26559152D03*
X-5972784Y28099736D03*
%TD*%
D41*
%TO.C,D16*%
X-27152499Y0D03*
X-28727501Y0D03*
%TD*%
D42*
%TO.C,D72*%
X-25349041Y9730585D03*
X-26819433Y10295015D03*
%TD*%
D43*
%TO.C,D33*%
X5645322Y-26559152D03*
X5972784Y-28099736D03*
%TD*%
D44*
%TO.C,D99*%
X21101454Y-17087621D03*
X22325462Y-18078801D03*
%TD*%
D45*
%TO.C,D119*%
X4247587Y26818206D03*
X4493971Y28373818D03*
%TD*%
D46*
%TO.C,D57*%
X11043916Y24805042D03*
X11684528Y26243878D03*
%TD*%
D47*
%TO.C,D84*%
X-17087621Y-21101454D03*
X-18078801Y-22325462D03*
%TD*%
D48*
%TO.C,D113*%
X19199716Y19199716D03*
X20313410Y20313412D03*
%TD*%
D49*
%TO.C,D135*%
X11738604Y-21906860D03*
X13102596Y-21119360D03*
%TD*%
D50*
%TO.C,D142*%
X18122228Y17008534D03*
X17008534Y18122228D03*
%TD*%
D51*
%TO.C,D11*%
X-23514754Y13576250D03*
X-24878746Y14363750D03*
%TD*%
D52*
%TO.C,D112*%
X21101455Y17087621D03*
X22325461Y18078803D03*
%TD*%
D53*
%TO.C,D93*%
X7027583Y-26227299D03*
X7435225Y-27748635D03*
%TD*%
D54*
%TO.C,D91*%
X1421052Y-27115287D03*
X1503482Y-28688131D03*
%TD*%
D55*
%TO.C,D15*%
X-27003755Y2838209D03*
X-28570129Y3002841D03*
%TD*%
D56*
%TO.C,D65*%
X-12326977Y24193053D03*
X-13042013Y25596391D03*
%TD*%
D57*
%TO.C,D108*%
X26227299Y7027583D03*
X27748635Y7435225D03*
%TD*%
D58*
%TO.C,D97*%
X17087621Y-21101455D03*
X18078803Y-22325461D03*
%TD*%
D59*
%TO.C,D32*%
X2838209Y-27003755D03*
X3002841Y-28570129D03*
%TD*%
D60*
%TO.C,D41*%
X23514754Y-13576249D03*
X24878746Y-14363751D03*
%TD*%
D61*
%TO.C,D37*%
X15959839Y-21966833D03*
X16885601Y-23241037D03*
%TD*%
D62*
%TO.C,D55*%
X15959839Y21966833D03*
X16885601Y23241037D03*
%TD*%
D63*
%TO.C,D89*%
X-4247587Y-26818206D03*
X-4493971Y-28373818D03*
%TD*%
D64*
%TO.C,D29*%
X-5645322Y-26559152D03*
X-5972784Y-28099736D03*
%TD*%
D65*
%TO.C,D48*%
X26559152Y5645322D03*
X28099736Y5972784D03*
%TD*%
D66*
%TO.C,D19*%
X-25823561Y-8390584D03*
X-27321477Y-8877286D03*
%TD*%
D67*
%TO.C,D8*%
X-18168568Y20178239D03*
X-19222450Y21348693D03*
%TD*%
D68*
%TO.C,D76*%
X-27115287Y-1421052D03*
X-28688131Y-1503482D03*
%TD*%
D69*
%TO.C,D95*%
X12326977Y-24193053D03*
X13042013Y-25596391D03*
%TD*%
D60*
%TO.C,D131*%
X-13102596Y-21119359D03*
X-11738604Y-21906861D03*
%TD*%
D70*
%TO.C,D58*%
X8390584Y25823561D03*
X8877286Y27321477D03*
%TD*%
D71*
%TO.C,D137*%
X21119359Y-13102596D03*
X21906861Y-11738604D03*
%TD*%
D72*
%TO.C,D109*%
X25349041Y9730585D03*
X26819433Y10295017D03*
%TD*%
D50*
%TO.C,D68*%
X-19199716Y19199716D03*
X-20313412Y20313410D03*
%TD*%
D73*
%TO.C,D28*%
X-8390584Y-25823561D03*
X-8877286Y-27321477D03*
%TD*%
D10*
%TO.C,D130*%
X-18122228Y-17008534D03*
X-17008534Y-18122228D03*
%TD*%
D74*
%TO.C,D85*%
X-14788310Y-22772002D03*
X-15646118Y-24092910D03*
%TD*%
D75*
%TO.C,D116*%
X12326976Y24193053D03*
X13042012Y25596391D03*
%TD*%
D76*
%TO.C,D96*%
X14788311Y-22772001D03*
X15646119Y-24092909D03*
%TD*%
D77*
%TO.C,D38*%
X18168568Y-20178239D03*
X19222450Y-21348693D03*
%TD*%
D78*
%TO.C,D81*%
X-22772001Y-14788311D03*
X-24092909Y-15646119D03*
%TD*%
D79*
%TO.C,D117*%
X9730585Y25349041D03*
X10295015Y26819433D03*
%TD*%
D80*
%TO.C,D75*%
X-27115287Y1421052D03*
X-28688131Y1503480D03*
%TD*%
D48*
%TO.C,D136*%
X17008534Y-18122228D03*
X18122228Y-17008534D03*
%TD*%
D81*
%TO.C,D74*%
X-26818206Y4247587D03*
X-28373818Y4493971D03*
%TD*%
D17*
%TO.C,D127*%
X-24841200Y787501D03*
X-24841200Y-787501D03*
%TD*%
D71*
%TO.C,D56*%
X13576249Y23514754D03*
X14363751Y24878746D03*
%TD*%
D29*
%TO.C,D63*%
X-7027583Y26227299D03*
X-7435225Y27748635D03*
%TD*%
D15*
%TO.C,D124*%
X-17008534Y18122228D03*
X-18122228Y17008534D03*
%TD*%
D41*
%TO.C,D121*%
X787501Y24841200D03*
X-787501Y24841200D03*
%TD*%
D82*
%TO.C,D22*%
X-21966833Y-15959839D03*
X-23241037Y-16885601D03*
%TD*%
D83*
%TO.C,D107*%
X26818206Y4247586D03*
X28373818Y4493972D03*
%TD*%
D84*
%TO.C,D86*%
X-12326976Y-24193053D03*
X-13042012Y-25596391D03*
%TD*%
D85*
%TO.C,D139*%
X24841200Y-787501D03*
X24841200Y787501D03*
%TD*%
D86*
%TO.C,D27*%
X-11043916Y-24805042D03*
X-11684528Y-26243878D03*
%TD*%
D87*
%TO.C,D122*%
X-5668708Y24198577D03*
X-7190044Y23790937D03*
%TD*%
D88*
%TO.C,D54*%
X18168568Y20178239D03*
X19222450Y21348693D03*
%TD*%
D89*
%TO.C,D69*%
X-21101454Y17087621D03*
X-22325462Y18078801D03*
%TD*%
D26*
%TO.C,D103*%
X26227300Y-7027584D03*
X27748636Y-7435224D03*
%TD*%
D90*
%TO.C,D79*%
X-25349041Y-9730585D03*
X-26819433Y-10295017D03*
%TD*%
D91*
%TO.C,D60*%
X2838209Y27003755D03*
X3002841Y28570129D03*
%TD*%
D92*
%TO.C,D141*%
X21906860Y11738604D03*
X21119360Y13102596D03*
%TD*%
D18*
%TO.C,D138*%
X23790937Y-7190044D03*
X24198577Y-5668708D03*
%TD*%
D57*
%TO.C,D134*%
X5668708Y-24198577D03*
X7190044Y-23790937D03*
%TD*%
D93*
%TO.C,D9*%
X-20178239Y18168568D03*
X-21348693Y19222450D03*
%TD*%
D94*
%TO.C,D50*%
X24805042Y11043916D03*
X26243878Y11684528D03*
%TD*%
D51*
%TO.C,D143*%
X13102596Y21119360D03*
X11738604Y21906860D03*
%TD*%
D95*
%TO.C,D102*%
X25349041Y-9730585D03*
X26819433Y-10295015D03*
%TD*%
D96*
%TO.C,D21*%
X-23514754Y-13576249D03*
X-24878746Y-14363751D03*
%TD*%
D97*
%TO.C,D44*%
X26559152Y-5645322D03*
X28099736Y-5972784D03*
%TD*%
D85*
%TO.C,D1*%
X0Y27152499D03*
X0Y28727501D03*
%TD*%
D11*
%TO.C,D129*%
X-21906861Y-11738604D03*
X-21119359Y-13102596D03*
%TD*%
D98*
%TO.C,D7*%
X-15959839Y21966833D03*
X-16885601Y23241037D03*
%TD*%
D49*
%TO.C,D51*%
X23514754Y13576250D03*
X24878746Y14363750D03*
%TD*%
D99*
%TO.C,D71*%
X-24193053Y12326976D03*
X-25596391Y13042012D03*
%TD*%
D100*
%TO.C,D4*%
X-8390584Y25823561D03*
X-8877286Y27321477D03*
%TD*%
D101*
%TO.C,D92*%
X4247586Y-26818206D03*
X4493972Y-28373818D03*
%TD*%
D102*
%TO.C,D14*%
X-26559152Y5645322D03*
X-28099736Y5972784D03*
%TD*%
D39*
%TO.C,D46*%
X27152499Y0D03*
X28727501Y0D03*
%TD*%
D103*
%TO.C,D12*%
X-24805042Y11043916D03*
X-26243878Y11684528D03*
%TD*%
D92*
%TO.C,D6*%
X-13576250Y23514754D03*
X-14363750Y24878746D03*
%TD*%
D104*
%TO.C,D47*%
X27003755Y2838209D03*
X28570129Y3002841D03*
%TD*%
D105*
%TO.C,D61*%
X-1421052Y27115287D03*
X-1503482Y28688131D03*
%TD*%
D106*
%TO.C,D35*%
X11043916Y-24805042D03*
X11684528Y-26243878D03*
%TD*%
D107*
%TO.C,D87*%
X-9730585Y-25349041D03*
X-10295015Y-26819433D03*
%TD*%
D108*
%TO.C,D49*%
X25823561Y8390584D03*
X27321477Y8877286D03*
%TD*%
D109*
%TO.C,D66*%
X-14788311Y22772001D03*
X-15646119Y24092909D03*
%TD*%
D110*
%TO.C,D115*%
X14788310Y22772002D03*
X15646118Y24092910D03*
%TD*%
D111*
%TO.C,D10*%
X-21966833Y15959839D03*
X-23241037Y16885601D03*
%TD*%
D112*
%TO.C,D45*%
X27003755Y-2838209D03*
X28570129Y-3002841D03*
%TD*%
D113*
%TO.C,D104*%
X26818206Y-4247587D03*
X28373818Y-4493971D03*
%TD*%
D114*
%TO.C,D101*%
X24193053Y-12326976D03*
X25596391Y-13042012D03*
%TD*%
D115*
%TO.C,D40*%
X21966833Y-15959839D03*
X23241037Y-16885601D03*
%TD*%
D116*
%TO.C,D120*%
X1421052Y27115287D03*
X1503480Y28688131D03*
%TD*%
D117*
%TO.C,D23*%
X-20178239Y-18168568D03*
X-21348693Y-19222450D03*
%TD*%
D118*
%TO.C,D80*%
X-24193053Y-12326977D03*
X-25596391Y-13042013D03*
%TD*%
D24*
%TO.C,D26*%
X-13576249Y-23514754D03*
X-14363751Y-24878746D03*
%TD*%
D53*
%TO.C,D128*%
X-24198577Y-5668708D03*
X-23790937Y-7190044D03*
%TD*%
D119*
%TO.C,D2*%
X-2838209Y27003755D03*
X-3002841Y28570129D03*
%TD*%
D120*
%TO.C,D67*%
X-17087621Y21101455D03*
X-18078803Y22325461D03*
%TD*%
D121*
%TO.C,D90*%
X-1421052Y-27115287D03*
X-1503480Y-28688131D03*
%TD*%
D122*
%TO.C,D110*%
X24193053Y12326977D03*
X25596391Y13042013D03*
%TD*%
D123*
%TO.C,D111*%
X22772001Y14788311D03*
X24092909Y15646119D03*
%TD*%
D96*
%TO.C,D123*%
X-11738604Y21906861D03*
X-13102596Y21119359D03*
%TD*%
D124*
%TO.C,D17*%
X-27003755Y-2838209D03*
X-28570129Y-3002841D03*
%TD*%
D125*
%TO.C,D52*%
X21966833Y15959839D03*
X23241037Y16885601D03*
%TD*%
D126*
%TO.C,D114*%
X17087621Y21101454D03*
X18078801Y22325462D03*
%TD*%
D127*
%TO.C,D53*%
X20178239Y18168568D03*
X21348693Y19222450D03*
%TD*%
D87*
%TO.C,D78*%
X-26227299Y-7027583D03*
X-27748635Y-7435225D03*
%TD*%
D128*
%TO.C,D62*%
X-4247586Y26818206D03*
X-4493972Y28373818D03*
%TD*%
D129*
%TO.C,D42*%
X24805042Y-11043916D03*
X26243878Y-11684528D03*
%TD*%
M02*
