%TF.GenerationSoftware,KiCad,Pcbnew,9.0.2*%
%TF.CreationDate,2025-06-15T10:44:02-04:00*%
%TF.ProjectId,WristWatch,57726973-7457-4617-9463-682e6b696361,rev?*%
%TF.SameCoordinates,Original*%
%TF.FileFunction,Legend,Top*%
%TF.FilePolarity,Positive*%
%FSLAX46Y46*%
G04 Gerber Fmt 4.6, Leading zero omitted, Abs format (unit mm)*
G04 Created by KiCad (PCBNEW 9.0.2) date 2025-06-15 10:44:02*
%MOMM*%
%LPD*%
G01*
G04 APERTURE LIST*
%ADD10C,0.120000*%
%ADD11C,0.100000*%
G04 APERTURE END LIST*
D10*
%TO.C,Q2*%
X5740900Y-1995600D02*
X4440900Y-1995600D01*
X5740900Y-3795600D02*
X4440900Y-3795600D01*
%TO.C,Q1*%
X-900000Y10810000D02*
X-900000Y9510000D01*
X900000Y10810000D02*
X900000Y9510000D01*
%TO.C,C14*%
X-3575164Y2011000D02*
X-3790836Y2011000D01*
X-3575164Y1291000D02*
X-3790836Y1291000D01*
%TO.C,U5*%
X-5207000Y3211000D02*
X-6007000Y3211000D01*
X-5207000Y3211000D02*
X-4407000Y3211000D01*
X-5207000Y91000D02*
X-6007000Y91000D01*
X-5207000Y91000D02*
X-4407000Y91000D01*
%TO.C,R6*%
X-153641Y9016000D02*
X153641Y9016000D01*
X-153641Y8256000D02*
X153641Y8256000D01*
%TO.C,C13*%
X-3575164Y-1291000D02*
X-3790836Y-1291000D01*
X-3575164Y-2011000D02*
X-3790836Y-2011000D01*
%TO.C,Y1*%
X-1727200Y4459000D02*
X-1727200Y6209000D01*
X1727200Y6209000D02*
X-1727200Y6209000D01*
X1727200Y4459000D02*
X-1727200Y4459000D01*
X1727200Y4459000D02*
X1727200Y6209000D01*
%TO.C,R11*%
X3186900Y-2741959D02*
X3186900Y-3049241D01*
X3946900Y-2741959D02*
X3946900Y-3049241D01*
%TO.C,R10*%
X-5360641Y3986800D02*
X-5053359Y3986800D01*
X-5360641Y3226800D02*
X-5053359Y3226800D01*
%TO.C,R9*%
X6452841Y2056400D02*
X6145559Y2056400D01*
X6452841Y1296400D02*
X6145559Y1296400D01*
%TO.C,C15*%
X-7980000Y1035164D02*
X-7980000Y1250836D01*
X-7260000Y1035164D02*
X-7260000Y1250836D01*
%TO.C,C1*%
X-908164Y4017600D02*
X-1123836Y4017600D01*
X-908164Y3297600D02*
X-1123836Y3297600D01*
%TO.C,R12*%
X-2820641Y-10286000D02*
X-2513359Y-10286000D01*
X-2820641Y-9526000D02*
X-2513359Y-9526000D01*
%TO.C,U6*%
X-2610000Y-9214000D02*
X-2610000Y-3994000D01*
X2610000Y-3994000D02*
X-2610000Y-3994000D01*
X2610000Y-3994000D02*
X2610000Y-9214000D01*
X2610000Y-9214000D02*
X-2610000Y-9214000D01*
%TO.C,C12*%
X-7980000Y-1035164D02*
X-7980000Y-1250836D01*
X-7260000Y-1035164D02*
X-7260000Y-1250836D01*
%TO.C,U3*%
X5199200Y1100000D02*
X5199200Y1100000D01*
X5199200Y-1100000D02*
X5199200Y900000D01*
X6899200Y-1100000D02*
X6899200Y-1100000D01*
X7399200Y1100000D02*
X5399200Y1100000D01*
X7399200Y1100000D02*
X7399200Y-1100000D01*
X7399200Y600000D02*
X7399200Y600000D01*
X7399200Y-1100000D02*
X5199200Y-1100000D01*
%TO.C,C16*%
X4425836Y-4593000D02*
X4210164Y-4593000D01*
X4425836Y-5313000D02*
X4210164Y-5313000D01*
%TO.C,C19*%
X-6456000Y-4425836D02*
X-6456000Y-4210164D01*
X-5736000Y-4425836D02*
X-5736000Y-4210164D01*
%TO.C,C17*%
X4210164Y-8403000D02*
X4425836Y-8403000D01*
X4210164Y-9123000D02*
X4425836Y-9123000D01*
%TO.C,R1*%
X3226800Y1751359D02*
X3226800Y2058641D01*
X3986800Y1751359D02*
X3986800Y2058641D01*
%TO.C,R13*%
X-557559Y-9526000D02*
X-864841Y-9526000D01*
X-557559Y-10286000D02*
X-864841Y-10286000D01*
%TO.C,C18*%
X-3916000Y-4425836D02*
X-3916000Y-4210164D01*
X-3196000Y-4425836D02*
X-3196000Y-4210164D01*
%TO.C,C4*%
X908164Y7218000D02*
X1123836Y7218000D01*
X908164Y6498000D02*
X1123836Y6498000D01*
%TO.C,Y2*%
X3251200Y-5537200D02*
X3251200Y-8178800D01*
X3251200Y-8178800D02*
X5384800Y-8178800D01*
X5384800Y-5537200D02*
X3251200Y-5537200D01*
X5384800Y-8178800D02*
X5384800Y-5537200D01*
%TO.C,R7*%
X4217400Y153641D02*
X4217400Y-153641D01*
X4977400Y153641D02*
X4977400Y-153641D01*
D11*
%TO.C,D61*%
X1270000Y-9906000D02*
X1676400Y-10210800D01*
X1676400Y-9601200D02*
X1270000Y-9906000D01*
D10*
%TO.C,U4*%
X-5207000Y-91000D02*
X-6007000Y-91000D01*
X-5207000Y-91000D02*
X-4407000Y-91000D01*
X-5207000Y-3211000D02*
X-6007000Y-3211000D01*
X-5207000Y-3211000D02*
X-4407000Y-3211000D01*
%TO.C,C7*%
X-908164Y7218000D02*
X-1123836Y7218000D01*
X-908164Y6498000D02*
X-1123836Y6498000D01*
%TO.C,U2*%
X-2610000Y2610000D02*
X2610000Y2610000D01*
X-2610000Y-2610000D02*
X-2610000Y2610000D01*
X2610000Y-2610000D02*
X-2610000Y-2610000D01*
X2610000Y-2610000D02*
X2610000Y2610000D01*
%TO.C,R8*%
X3226800Y153641D02*
X3226800Y-153641D01*
X3986800Y153641D02*
X3986800Y-153641D01*
%TD*%
M02*
