%TF.GenerationSoftware,KiCad,Pcbnew,9.0.2*%
%TF.CreationDate,2025-06-11T22:36:26-04:00*%
%TF.ProjectId,WristWatch,57726973-7457-4617-9463-682e6b696361,rev?*%
%TF.SameCoordinates,Original*%
%TF.FileFunction,Soldermask,Top*%
%TF.FilePolarity,Negative*%
%FSLAX46Y46*%
G04 Gerber Fmt 4.6, Leading zero omitted, Abs format (unit mm)*
G04 Created by KiCad (PCBNEW 9.0.2) date 2025-06-11 22:36:26*
%MOMM*%
%LPD*%
G01*
G04 APERTURE LIST*
G04 Aperture macros list*
%AMRoundRect*
0 Rectangle with rounded corners*
0 $1 Rounding radius*
0 $2 $3 $4 $5 $6 $7 $8 $9 X,Y pos of 4 corners*
0 Add a 4 corners polygon primitive as box body*
4,1,4,$2,$3,$4,$5,$6,$7,$8,$9,$2,$3,0*
0 Add four circle primitives for the rounded corners*
1,1,$1+$1,$2,$3*
1,1,$1+$1,$4,$5*
1,1,$1+$1,$6,$7*
1,1,$1+$1,$8,$9*
0 Add four rect primitives between the rounded corners*
20,1,$1+$1,$2,$3,$4,$5,0*
20,1,$1+$1,$4,$5,$6,$7,0*
20,1,$1+$1,$6,$7,$8,$9,0*
20,1,$1+$1,$8,$9,$2,$3,0*%
G04 Aperture macros list end*
%ADD10C,0.300000*%
%ADD11RoundRect,0.062500X-0.337500X-0.062500X0.337500X-0.062500X0.337500X0.062500X-0.337500X0.062500X0*%
%ADD12RoundRect,0.062500X-0.062500X-0.337500X0.062500X-0.337500X0.062500X0.337500X-0.062500X0.337500X0*%
%ADD13R,3.700000X3.700000*%
%ADD14RoundRect,0.135000X-0.135000X-0.185000X0.135000X-0.185000X0.135000X0.185000X-0.135000X0.185000X0*%
%ADD15RoundRect,0.100000X0.155000X0.100000X-0.155000X0.100000X-0.155000X-0.100000X0.155000X-0.100000X0*%
%ADD16RoundRect,0.140000X-0.140000X-0.170000X0.140000X-0.170000X0.140000X0.170000X-0.140000X0.170000X0*%
%ADD17C,0.600000*%
%ADD18RoundRect,0.075000X0.075000X-0.225000X0.075000X0.225000X-0.075000X0.225000X-0.075000X-0.225000X0*%
%ADD19RoundRect,0.087500X-0.312500X-0.087500X0.312500X-0.087500X0.312500X0.087500X-0.312500X0.087500X0*%
%ADD20RoundRect,0.150000X-0.512500X-0.150000X0.512500X-0.150000X0.512500X0.150000X-0.512500X0.150000X0*%
%ADD21R,1.000000X1.000000*%
%ADD22RoundRect,0.062500X-0.062500X0.375000X-0.062500X-0.375000X0.062500X-0.375000X0.062500X0.375000X0*%
%ADD23RoundRect,0.062500X-0.375000X0.062500X-0.375000X-0.062500X0.375000X-0.062500X0.375000X0.062500X0*%
%ADD24RoundRect,0.140000X0.170000X-0.140000X0.170000X0.140000X-0.170000X0.140000X-0.170000X-0.140000X0*%
%ADD25RoundRect,0.140000X0.140000X0.170000X-0.140000X0.170000X-0.140000X-0.170000X0.140000X-0.170000X0*%
%ADD26R,0.350000X0.375000*%
%ADD27R,0.375000X0.350000*%
%ADD28RoundRect,0.135000X0.135000X0.185000X-0.135000X0.185000X-0.135000X-0.185000X0.135000X-0.185000X0*%
%ADD29RoundRect,0.135000X-0.185000X0.135000X-0.185000X-0.135000X0.185000X-0.135000X0.185000X0.135000X0*%
%ADD30R,1.000000X1.800000*%
%ADD31RoundRect,0.100000X0.100000X-0.100000X0.100000X0.100000X-0.100000X0.100000X-0.100000X-0.100000X0*%
%ADD32RoundRect,0.100000X-0.132028X0.050681X-0.050681X-0.132028X0.132028X-0.050681X0.050681X0.132028X0*%
%ADD33RoundRect,0.100000X0.136603X-0.036603X0.036603X0.136603X-0.136603X0.036603X-0.036603X-0.136603X0*%
%ADD34RoundRect,0.100000X-0.022123X-0.139680X0.139680X-0.022123X0.022123X0.139680X-0.139680X0.022123X0*%
%ADD35RoundRect,0.100000X-0.050681X-0.132028X0.132028X-0.050681X0.050681X0.132028X-0.132028X0.050681X0*%
%ADD36RoundRect,0.100000X0.118606X0.077024X-0.077024X0.118606X-0.118606X-0.077024X0.077024X-0.118606X0*%
%ADD37RoundRect,0.100000X-0.022123X0.139680X-0.139680X-0.022123X0.022123X-0.139680X0.139680X0.022123X0*%
%ADD38RoundRect,0.100000X0.050681X0.132028X-0.132028X0.050681X-0.050681X-0.132028X0.132028X-0.050681X0*%
%ADD39RoundRect,0.100000X-0.126007X0.064204X-0.064204X-0.126007X0.126007X-0.064204X0.064204X0.126007X0*%
%ADD40RoundRect,0.100000X0.022123X-0.139680X0.139680X0.022123X-0.022123X0.139680X-0.139680X-0.022123X0*%
%ADD41RoundRect,0.100000X0.077024X-0.118606X0.118606X0.077024X-0.077024X0.118606X-0.118606X-0.077024X0*%
%ADD42RoundRect,0.100000X-0.036603X-0.136603X0.136603X-0.036603X0.036603X0.136603X-0.136603X0.036603X0*%
%ADD43RoundRect,0.100000X0.141228X-0.007401X0.007401X0.141228X-0.141228X0.007401X-0.007401X-0.141228X0*%
%ADD44RoundRect,0.100000X-0.141228X0.007401X-0.007401X-0.141228X0.141228X-0.007401X0.007401X0.141228X0*%
%ADD45RoundRect,0.100000X0.064204X0.126007X-0.126007X0.064204X-0.064204X-0.126007X0.126007X-0.064204X0*%
%ADD46RoundRect,0.100000X-0.126007X-0.064204X0.064204X-0.126007X0.126007X0.064204X-0.064204X0.126007X0*%
%ADD47RoundRect,0.100000X0.050681X-0.132028X0.132028X0.050681X-0.050681X0.132028X-0.132028X-0.050681X0*%
%ADD48RoundRect,0.100000X0.077024X0.118606X-0.118606X0.077024X-0.077024X-0.118606X0.118606X-0.077024X0*%
%ADD49RoundRect,0.100000X-0.139680X0.022123X-0.022123X-0.139680X0.139680X-0.022123X0.022123X0.139680X0*%
%ADD50RoundRect,0.100000X0.088999X0.109905X-0.109905X0.088999X-0.088999X-0.109905X0.109905X-0.088999X0*%
%ADD51RoundRect,0.100000X-0.118606X-0.077024X0.077024X-0.118606X0.118606X0.077024X-0.077024X0.118606X0*%
%ADD52RoundRect,0.100000X0.109905X0.088999X-0.088999X0.109905X-0.109905X-0.088999X0.088999X-0.109905X0*%
%ADD53RoundRect,0.100000X-0.109905X-0.088999X0.088999X-0.109905X0.109905X0.088999X-0.088999X0.109905X0*%
%ADD54RoundRect,0.100000X0.064204X-0.126007X0.126007X0.064204X-0.064204X0.126007X-0.126007X-0.064204X0*%
%ADD55RoundRect,0.100000X0.036603X-0.136603X0.136603X0.036603X-0.036603X0.136603X-0.136603X-0.036603X0*%
%ADD56RoundRect,0.100000X-0.100000X-0.100000X0.100000X-0.100000X0.100000X0.100000X-0.100000X0.100000X0*%
%ADD57RoundRect,0.100000X0.036603X0.136603X-0.136603X0.036603X-0.036603X-0.136603X0.136603X-0.036603X0*%
%ADD58RoundRect,0.100000X-0.136603X-0.036603X0.036603X-0.136603X0.136603X0.036603X-0.036603X0.136603X0*%
%ADD59RoundRect,0.100000X-0.100000X0.100000X-0.100000X-0.100000X0.100000X-0.100000X0.100000X0.100000X0*%
%ADD60RoundRect,0.100000X0.022123X0.139680X-0.139680X0.022123X-0.022123X-0.139680X0.139680X-0.022123X0*%
%ADD61RoundRect,0.100000X0.136603X0.036603X-0.036603X0.136603X-0.136603X-0.036603X0.036603X-0.136603X0*%
%ADD62RoundRect,0.100000X-0.118606X0.077024X-0.077024X-0.118606X0.118606X-0.077024X0.077024X0.118606X0*%
%ADD63RoundRect,0.100000X-0.141228X-0.007401X0.007401X-0.141228X0.141228X0.007401X-0.007401X0.141228X0*%
%ADD64RoundRect,0.100000X-0.077024X0.118606X-0.118606X-0.077024X0.077024X-0.118606X0.118606X0.077024X0*%
%ADD65RoundRect,0.100000X-0.064204X0.126007X-0.126007X-0.064204X0.064204X-0.126007X0.126007X0.064204X0*%
%ADD66RoundRect,0.100000X0.088999X-0.109905X0.109905X0.088999X-0.088999X0.109905X-0.109905X-0.088999X0*%
%ADD67RoundRect,0.100000X-0.100000X0.155000X-0.100000X-0.155000X0.100000X-0.155000X0.100000X0.155000X0*%
%ADD68RoundRect,0.100000X0.126007X0.064204X-0.064204X0.126007X-0.126007X-0.064204X0.064204X-0.126007X0*%
%ADD69RoundRect,0.100000X-0.088999X0.109905X-0.109905X-0.088999X0.088999X-0.109905X0.109905X0.088999X0*%
%ADD70RoundRect,0.100000X0.139680X0.022123X-0.022123X0.139680X-0.139680X-0.022123X0.022123X-0.139680X0*%
%ADD71RoundRect,0.100000X-0.088999X-0.109905X0.109905X-0.088999X0.088999X0.109905X-0.109905X0.088999X0*%
%ADD72RoundRect,0.100000X-0.136603X0.036603X-0.036603X-0.136603X0.136603X-0.036603X0.036603X0.136603X0*%
%ADD73RoundRect,0.100000X0.132028X0.050681X-0.050681X0.132028X-0.132028X-0.050681X0.050681X-0.132028X0*%
%ADD74RoundRect,0.100000X-0.132028X-0.050681X0.050681X-0.132028X0.132028X0.050681X-0.050681X0.132028X0*%
%ADD75RoundRect,0.100000X-0.007401X-0.141228X0.141228X-0.007401X0.007401X0.141228X-0.141228X0.007401X0*%
%ADD76RoundRect,0.100000X0.126007X-0.064204X0.064204X0.126007X-0.126007X0.064204X-0.064204X-0.126007X0*%
%ADD77RoundRect,0.100000X0.118606X-0.077024X0.077024X0.118606X-0.118606X0.077024X-0.077024X-0.118606X0*%
%ADD78RoundRect,0.100000X-0.036603X0.136603X-0.136603X-0.036603X0.036603X-0.136603X0.136603X0.036603X0*%
%ADD79RoundRect,0.100000X0.007401X-0.141228X0.141228X0.007401X-0.007401X0.141228X-0.141228X-0.007401X0*%
%ADD80RoundRect,0.100000X0.109905X-0.088999X0.088999X0.109905X-0.109905X0.088999X-0.088999X-0.109905X0*%
%ADD81RoundRect,0.100000X-0.077024X-0.118606X0.118606X-0.077024X0.077024X0.118606X-0.118606X0.077024X0*%
%ADD82RoundRect,0.100000X-0.109905X0.088999X-0.088999X-0.109905X0.109905X-0.088999X0.088999X0.109905X0*%
%ADD83RoundRect,0.100000X0.141228X0.007401X-0.007401X0.141228X-0.141228X-0.007401X0.007401X-0.141228X0*%
%ADD84RoundRect,0.100000X-0.007401X0.141228X-0.141228X-0.007401X0.007401X-0.141228X0.141228X0.007401X0*%
%ADD85RoundRect,0.100000X-0.064204X-0.126007X0.126007X-0.064204X0.064204X0.126007X-0.126007X0.064204X0*%
%ADD86RoundRect,0.100000X-0.050681X0.132028X-0.132028X-0.050681X0.050681X-0.132028X0.132028X0.050681X0*%
%ADD87RoundRect,0.100000X0.139680X-0.022123X0.022123X0.139680X-0.139680X0.022123X-0.022123X-0.139680X0*%
%ADD88RoundRect,0.100000X0.132028X-0.050681X0.050681X0.132028X-0.132028X0.050681X-0.050681X-0.132028X0*%
%ADD89RoundRect,0.100000X0.007401X0.141228X-0.141228X0.007401X-0.007401X-0.141228X0.141228X-0.007401X0*%
%ADD90RoundRect,0.100000X0.100000X0.100000X-0.100000X0.100000X-0.100000X-0.100000X0.100000X-0.100000X0*%
%ADD91RoundRect,0.100000X-0.139680X-0.022123X0.022123X-0.139680X0.139680X0.022123X-0.022123X0.139680X0*%
G04 APERTURE END LIST*
D10*
G36*
X5842032Y11438661D02*
G01*
X5862144Y11427010D01*
X5877753Y11411367D01*
X5896621Y11370518D01*
X5901841Y11324356D01*
X5901841Y11234138D01*
X5896621Y11187885D01*
X5877753Y11146944D01*
X5842032Y11119741D01*
X5796969Y11110307D01*
X5751815Y11119741D01*
X5716095Y11146944D01*
X5697227Y11187885D01*
X5692006Y11234138D01*
X5692006Y11324356D01*
X5697227Y11370518D01*
X5716095Y11411367D01*
X5731704Y11427010D01*
X5751815Y11438661D01*
X5796969Y11448187D01*
X5842032Y11438661D01*
G37*
G36*
X5921808Y12056718D02*
G01*
X5982445Y12042254D01*
X6040327Y12019990D01*
X6094501Y11989674D01*
X6144191Y11950747D01*
X6187063Y11904465D01*
X6220853Y11852103D01*
X6245785Y11794938D01*
X6261794Y11734592D01*
X6273335Y11609753D01*
X6273335Y10948741D01*
X6261794Y10823811D01*
X6245785Y10763465D01*
X6220853Y10706299D01*
X6187063Y10653938D01*
X6144191Y10607656D01*
X6094511Y10568781D01*
X6040327Y10538413D01*
X5982443Y10516171D01*
X5921808Y10501776D01*
X5796969Y10491243D01*
X5672039Y10501776D01*
X5611391Y10516168D01*
X5553429Y10538413D01*
X5499305Y10568771D01*
X5449565Y10607656D01*
X5406767Y10653931D01*
X5372994Y10706299D01*
X5348133Y10763460D01*
X5332145Y10823811D01*
X5320604Y10948741D01*
X5320604Y11609753D01*
X5570282Y11609753D01*
X5570282Y10948741D01*
X5573424Y10900936D01*
X5582830Y10854219D01*
X5599921Y10810396D01*
X5625877Y10771329D01*
X5660117Y10739918D01*
X5702448Y10718847D01*
X5749271Y10707090D01*
X5796969Y10703185D01*
X5844655Y10707091D01*
X5891400Y10718847D01*
X5933731Y10739918D01*
X5967970Y10771329D01*
X5993905Y10810399D01*
X6010926Y10854219D01*
X6020401Y10900938D01*
X6023566Y10948741D01*
X6023566Y11609753D01*
X6020399Y11657543D01*
X6010926Y11704184D01*
X5993905Y11748004D01*
X5967970Y11787074D01*
X5933731Y11818485D01*
X5891400Y11839555D01*
X5844652Y11851381D01*
X5796969Y11855309D01*
X5749274Y11851382D01*
X5702448Y11839555D01*
X5660117Y11818485D01*
X5625877Y11787074D01*
X5599921Y11748006D01*
X5582830Y11704184D01*
X5573425Y11657546D01*
X5570282Y11609753D01*
X5320604Y11609753D01*
X5332145Y11734592D01*
X5348133Y11794943D01*
X5372994Y11852103D01*
X5406767Y11904471D01*
X5449565Y11950747D01*
X5499315Y11989684D01*
X5553429Y12019990D01*
X5611389Y12042257D01*
X5672039Y12056718D01*
X5796969Y12067251D01*
X5921808Y12056718D01*
G37*
G36*
X6596193Y10508005D02*
G01*
X6596193Y10719946D01*
X7106081Y11294955D01*
X7166989Y11366304D01*
X7222584Y11442875D01*
X7260320Y11528879D01*
X7270536Y11574682D01*
X7273967Y11622301D01*
X7262427Y11711511D01*
X7246094Y11753899D01*
X7220478Y11790188D01*
X7186960Y11819303D01*
X7147022Y11839555D01*
X7103312Y11851362D01*
X7057904Y11855309D01*
X6976021Y11844776D01*
X6938313Y11830079D01*
X6904672Y11806949D01*
X6877123Y11776866D01*
X6857411Y11740912D01*
X6845666Y11701307D01*
X6841749Y11660129D01*
X6841749Y11653809D01*
X6591980Y11653809D01*
X6591980Y11666357D01*
X6595919Y11724614D01*
X6607734Y11781761D01*
X6627464Y11836485D01*
X6654903Y11886725D01*
X6690020Y11931775D01*
X6732572Y11970622D01*
X6780621Y12002940D01*
X6832223Y12028325D01*
X6886642Y12047009D01*
X6942407Y12058824D01*
X7057904Y12067251D01*
X7179537Y12057725D01*
X7239137Y12044095D01*
X7296041Y12022096D01*
X7348986Y11991951D01*
X7396699Y11953861D01*
X7437959Y11908971D01*
X7471254Y11858423D01*
X7496152Y11803186D01*
X7512195Y11744026D01*
X7523736Y11622301D01*
X7519509Y11555834D01*
X7506883Y11491143D01*
X7486186Y11428707D01*
X7457607Y11369418D01*
X7422513Y11313374D01*
X7382045Y11260334D01*
X7295033Y11160682D01*
X7292926Y11156469D01*
X6906778Y10719946D01*
X7515310Y10719946D01*
X7515310Y10508005D01*
X6596193Y10508005D01*
G37*
G36*
X2742278Y12722621D02*
G01*
X2762390Y12710970D01*
X2777999Y12695327D01*
X2796867Y12654478D01*
X2802087Y12608316D01*
X2802087Y12518098D01*
X2796867Y12471845D01*
X2777999Y12430904D01*
X2742278Y12403701D01*
X2697215Y12394267D01*
X2652061Y12403701D01*
X2616341Y12430904D01*
X2597473Y12471845D01*
X2592252Y12518098D01*
X2592252Y12608316D01*
X2597473Y12654478D01*
X2616341Y12695327D01*
X2631950Y12710970D01*
X2652061Y12722621D01*
X2697215Y12732147D01*
X2742278Y12722621D01*
G37*
G36*
X2822054Y13340678D02*
G01*
X2882691Y13326214D01*
X2940573Y13303950D01*
X2994747Y13273634D01*
X3044437Y13234707D01*
X3087309Y13188425D01*
X3121099Y13136063D01*
X3146031Y13078898D01*
X3162040Y13018552D01*
X3173581Y12893713D01*
X3173581Y12232701D01*
X3162040Y12107771D01*
X3146031Y12047425D01*
X3121099Y11990259D01*
X3087309Y11937898D01*
X3044437Y11891616D01*
X2994757Y11852741D01*
X2940573Y11822373D01*
X2882689Y11800131D01*
X2822054Y11785736D01*
X2697215Y11775203D01*
X2572285Y11785736D01*
X2511637Y11800128D01*
X2453675Y11822373D01*
X2399551Y11852731D01*
X2349811Y11891616D01*
X2307013Y11937891D01*
X2273240Y11990259D01*
X2248379Y12047420D01*
X2232391Y12107771D01*
X2220850Y12232701D01*
X2220850Y12893713D01*
X2470528Y12893713D01*
X2470528Y12232701D01*
X2473670Y12184896D01*
X2483076Y12138179D01*
X2500167Y12094356D01*
X2526123Y12055289D01*
X2560363Y12023878D01*
X2602694Y12002807D01*
X2649517Y11991050D01*
X2697215Y11987145D01*
X2744901Y11991051D01*
X2791646Y12002807D01*
X2833977Y12023878D01*
X2868216Y12055289D01*
X2894151Y12094359D01*
X2911172Y12138179D01*
X2920647Y12184898D01*
X2923812Y12232701D01*
X2923812Y12893713D01*
X2920645Y12941503D01*
X2911172Y12988144D01*
X2894151Y13031964D01*
X2868216Y13071034D01*
X2833977Y13102445D01*
X2791646Y13123515D01*
X2744898Y13135341D01*
X2697215Y13139269D01*
X2649520Y13135342D01*
X2602694Y13123515D01*
X2560363Y13102445D01*
X2526123Y13071034D01*
X2500167Y13031966D01*
X2483076Y12988144D01*
X2473671Y12941506D01*
X2470528Y12893713D01*
X2220850Y12893713D01*
X2232391Y13018552D01*
X2248379Y13078903D01*
X2273240Y13136063D01*
X2307013Y13188431D01*
X2349811Y13234707D01*
X2399561Y13273644D01*
X2453675Y13303950D01*
X2511635Y13326217D01*
X2572285Y13340678D01*
X2697215Y13351211D01*
X2822054Y13340678D01*
G37*
G36*
X3895135Y11791965D02*
G01*
X3895135Y13076254D01*
X3681087Y12881074D01*
X3542601Y13009118D01*
X3895135Y13334358D01*
X4142797Y13334358D01*
X4142797Y11791965D01*
X3895135Y11791965D01*
G37*
G36*
X-584167Y13160556D02*
G01*
X-564055Y13148905D01*
X-548446Y13133262D01*
X-529578Y13092413D01*
X-524358Y13046251D01*
X-524358Y12956033D01*
X-529578Y12909780D01*
X-548446Y12868839D01*
X-584167Y12841636D01*
X-629230Y12832202D01*
X-674384Y12841636D01*
X-710104Y12868839D01*
X-728972Y12909780D01*
X-734193Y12956033D01*
X-734193Y13046251D01*
X-728972Y13092413D01*
X-710104Y13133262D01*
X-694495Y13148905D01*
X-674384Y13160556D01*
X-629230Y13170082D01*
X-584167Y13160556D01*
G37*
G36*
X-504391Y13778613D02*
G01*
X-443754Y13764149D01*
X-385872Y13741885D01*
X-331698Y13711569D01*
X-282008Y13672642D01*
X-239136Y13626360D01*
X-205346Y13573998D01*
X-180414Y13516833D01*
X-164405Y13456487D01*
X-152864Y13331648D01*
X-152864Y12670636D01*
X-164405Y12545706D01*
X-180414Y12485360D01*
X-205346Y12428194D01*
X-239136Y12375833D01*
X-282008Y12329551D01*
X-331688Y12290676D01*
X-385872Y12260308D01*
X-443756Y12238066D01*
X-504391Y12223671D01*
X-629230Y12213138D01*
X-754160Y12223671D01*
X-814808Y12238063D01*
X-872770Y12260308D01*
X-926894Y12290666D01*
X-976634Y12329551D01*
X-1019432Y12375826D01*
X-1053205Y12428194D01*
X-1078066Y12485355D01*
X-1094054Y12545706D01*
X-1105595Y12670636D01*
X-1105595Y13331648D01*
X-855917Y13331648D01*
X-855917Y12670636D01*
X-852775Y12622831D01*
X-843369Y12576114D01*
X-826278Y12532291D01*
X-800322Y12493224D01*
X-766082Y12461813D01*
X-723751Y12440742D01*
X-676928Y12428985D01*
X-629230Y12425080D01*
X-581544Y12428986D01*
X-534799Y12440742D01*
X-492468Y12461813D01*
X-458229Y12493224D01*
X-432294Y12532294D01*
X-415273Y12576114D01*
X-405798Y12622833D01*
X-402633Y12670636D01*
X-402633Y13331648D01*
X-405800Y13379438D01*
X-415273Y13426079D01*
X-432294Y13469899D01*
X-458229Y13508969D01*
X-492468Y13540380D01*
X-534799Y13561450D01*
X-581547Y13573276D01*
X-629230Y13577204D01*
X-676925Y13573277D01*
X-723751Y13561450D01*
X-766082Y13540380D01*
X-800322Y13508969D01*
X-826278Y13469901D01*
X-843369Y13426079D01*
X-852774Y13379441D01*
X-855917Y13331648D01*
X-1105595Y13331648D01*
X-1094054Y13456487D01*
X-1078066Y13516838D01*
X-1053205Y13573998D01*
X-1019432Y13626366D01*
X-976634Y13672642D01*
X-926884Y13711579D01*
X-872770Y13741885D01*
X-814810Y13764152D01*
X-754160Y13778613D01*
X-629230Y13789146D01*
X-504391Y13778613D01*
G37*
G36*
X674660Y13160556D02*
G01*
X694772Y13148905D01*
X710380Y13133262D01*
X729248Y13092413D01*
X734469Y13046251D01*
X734469Y12956033D01*
X729248Y12909780D01*
X710380Y12868839D01*
X674660Y12841636D01*
X629597Y12832202D01*
X584443Y12841636D01*
X548722Y12868839D01*
X529854Y12909780D01*
X524634Y12956033D01*
X524634Y13046251D01*
X529854Y13092413D01*
X548722Y13133262D01*
X564331Y13148905D01*
X584443Y13160556D01*
X629597Y13170082D01*
X674660Y13160556D01*
G37*
G36*
X754436Y13778613D02*
G01*
X815072Y13764149D01*
X872955Y13741885D01*
X927129Y13711569D01*
X976819Y13672642D01*
X1019690Y13626360D01*
X1053481Y13573998D01*
X1078413Y13516833D01*
X1094422Y13456487D01*
X1105962Y13331648D01*
X1105962Y12670636D01*
X1094422Y12545706D01*
X1078413Y12485360D01*
X1053481Y12428194D01*
X1019690Y12375833D01*
X976819Y12329551D01*
X927139Y12290676D01*
X872955Y12260308D01*
X815071Y12238066D01*
X754436Y12223671D01*
X629597Y12213138D01*
X504667Y12223671D01*
X444018Y12238063D01*
X386056Y12260308D01*
X331933Y12290666D01*
X282192Y12329551D01*
X239394Y12375826D01*
X205622Y12428194D01*
X180760Y12485355D01*
X164772Y12545706D01*
X153232Y12670636D01*
X153232Y13331648D01*
X402909Y13331648D01*
X402909Y12670636D01*
X406052Y12622831D01*
X415457Y12576114D01*
X432549Y12532291D01*
X458505Y12493224D01*
X492744Y12461813D01*
X535075Y12440742D01*
X581899Y12428985D01*
X629597Y12425080D01*
X677283Y12428986D01*
X724028Y12440742D01*
X766358Y12461813D01*
X800598Y12493224D01*
X826532Y12532294D01*
X843554Y12576114D01*
X853029Y12622833D01*
X856193Y12670636D01*
X856193Y13331648D01*
X853027Y13379438D01*
X843554Y13426079D01*
X826532Y13469899D01*
X800598Y13508969D01*
X766358Y13540380D01*
X724028Y13561450D01*
X677280Y13573276D01*
X629597Y13577204D01*
X581902Y13573277D01*
X535075Y13561450D01*
X492744Y13540380D01*
X458505Y13508969D01*
X432549Y13469901D01*
X415457Y13426079D01*
X406053Y13379441D01*
X402909Y13331648D01*
X153232Y13331648D01*
X164772Y13456487D01*
X180760Y13516838D01*
X205622Y13573998D01*
X239394Y13626366D01*
X282192Y13672642D01*
X331943Y13711579D01*
X386056Y13741885D01*
X444017Y13764152D01*
X504667Y13778613D01*
X629597Y13789146D01*
X754436Y13778613D01*
G37*
D11*
%TO.C,U6*%
X23026200Y-20043200D03*
X23026200Y-20543200D03*
X23026200Y-21043200D03*
X23026200Y-21543200D03*
X23026200Y-22043200D03*
X23026200Y-22543200D03*
X23026200Y-23043200D03*
X23026200Y-23543200D03*
D12*
X23726200Y-24243200D03*
X24226200Y-24243200D03*
X24726200Y-24243200D03*
X25226200Y-24243200D03*
X25726200Y-24243200D03*
X26226200Y-24243200D03*
X26726200Y-24243200D03*
X27226200Y-24243200D03*
D11*
X27926200Y-23543200D03*
X27926200Y-23043200D03*
X27926200Y-22543200D03*
X27926200Y-22043200D03*
X27926200Y-21543200D03*
X27926200Y-21043200D03*
X27926200Y-20543200D03*
X27926200Y-20043200D03*
D12*
X27226200Y-19343200D03*
X26726200Y-19343200D03*
X26226200Y-19343200D03*
X25726200Y-19343200D03*
X25226200Y-19343200D03*
X24726200Y-19343200D03*
X24226200Y-19343200D03*
X23726200Y-19343200D03*
D13*
X25476200Y-21793200D03*
%TD*%
D14*
%TO.C,R12*%
X28596200Y-28403200D03*
X29616200Y-28403200D03*
%TD*%
%TO.C,R11*%
X28596200Y-26413200D03*
X29616200Y-26413200D03*
%TD*%
D15*
%TO.C,Q2*%
X23106200Y-29663200D03*
X23106200Y-30663200D03*
X24396200Y-30163200D03*
%TD*%
D16*
%TO.C,C17*%
X31516200Y-28373200D03*
X32476200Y-28373200D03*
%TD*%
%TO.C,C16*%
X31516200Y-26403200D03*
X32476200Y-26403200D03*
%TD*%
D17*
%TO.C,AE1*%
X22651200Y-26218200D03*
D18*
X22851200Y-27243200D03*
D19*
X23101200Y-26618200D03*
X23101200Y-27868200D03*
D18*
X23351200Y-27293200D03*
D17*
X26851200Y-26218200D03*
%TD*%
D20*
%TO.C,U4*%
X41661500Y-2834600D03*
X41661500Y-3784600D03*
X41661500Y-4734600D03*
X43936500Y-4734600D03*
X43936500Y-2834600D03*
%TD*%
D16*
%TO.C,C13*%
X46329000Y-4339600D03*
X47289000Y-4339600D03*
%TD*%
%TO.C,C12*%
X46329000Y-2369600D03*
X47289000Y-2369600D03*
%TD*%
D21*
%TO.C,U2*%
X0Y0D03*
D22*
X1750000Y2437500D03*
X1250000Y2437500D03*
X750000Y2437500D03*
X250000Y2437500D03*
X-250000Y2437500D03*
X-750000Y2437500D03*
X-1250000Y2437500D03*
X-1750000Y2437500D03*
D23*
X-2437500Y1750000D03*
X-2437500Y1250000D03*
X-2437500Y750000D03*
X-2437500Y250000D03*
X-2437500Y-250000D03*
X-2437500Y-750000D03*
X-2437500Y-1250000D03*
X-2437500Y-1750000D03*
D22*
X-1750000Y-2437500D03*
X-1250000Y-2437500D03*
X-750000Y-2437500D03*
X-250000Y-2437500D03*
X250000Y-2437500D03*
X750000Y-2437500D03*
X1250000Y-2437500D03*
X1750000Y-2437500D03*
D23*
X2437500Y-1750000D03*
X2437500Y-1250000D03*
X2437500Y-750000D03*
X2437500Y-250000D03*
X2437500Y250000D03*
X2437500Y750000D03*
X2437500Y1250000D03*
X2437500Y1750000D03*
%TD*%
D20*
%TO.C,U5*%
X-8224100Y924600D03*
X-8224100Y-25400D03*
X-8224100Y-975400D03*
X-5949100Y-975400D03*
X-5949100Y924600D03*
%TD*%
D14*
%TO.C,R10*%
X-7596600Y1930400D03*
X-6576600Y1930400D03*
%TD*%
D24*
%TO.C,C15*%
X-9474200Y-962600D03*
X-9474200Y-2600D03*
%TD*%
D25*
%TO.C,C14*%
X-6017200Y-25400D03*
X-5057200Y-25400D03*
%TD*%
D26*
%TO.C,U3*%
X6227000Y762500D03*
X6727000Y762500D03*
D27*
X7239500Y750000D03*
X7239500Y250000D03*
X7239500Y-250000D03*
X7239500Y-750000D03*
D26*
X6727000Y-762500D03*
X6227000Y-762500D03*
D27*
X5714500Y-750000D03*
X5714500Y-250000D03*
X5714500Y250000D03*
X5714500Y750000D03*
%TD*%
D28*
%TO.C,R9*%
X6987000Y1778000D03*
X5967000Y1778000D03*
%TD*%
D29*
%TO.C,R8*%
X3556000Y764000D03*
X3556000Y-256000D03*
%TD*%
%TO.C,R7*%
X4572000Y256000D03*
X4572000Y-764000D03*
%TD*%
%TO.C,R1*%
X3556000Y2542000D03*
X3556000Y1522000D03*
%TD*%
D25*
%TO.C,C7*%
X988000Y7112000D03*
X28000Y7112000D03*
%TD*%
D16*
%TO.C,C4*%
X2060000Y7112000D03*
X3020000Y7112000D03*
%TD*%
%TO.C,C1*%
X-734000Y3657600D03*
X226000Y3657600D03*
%TD*%
D30*
%TO.C,Y1*%
X2774000Y5588000D03*
X274000Y5588000D03*
%TD*%
D31*
%TO.C,D16*%
X-15235200Y300000D03*
X-15235200Y-300000D03*
X-14635200Y-300000D03*
X-14635200Y300000D03*
%TD*%
D32*
%TO.C,D50*%
X14040069Y5922650D03*
X13796027Y6470778D03*
X13247899Y6226736D03*
X13491941Y5678608D03*
%TD*%
D33*
%TO.C,D21*%
X-13344071Y-7357792D03*
X-13044071Y-7877408D03*
X-12524455Y-7577408D03*
X-12824455Y-7057792D03*
%TD*%
D34*
%TO.C,D7*%
X-8712320Y12501872D03*
X-9197731Y12149201D03*
X-8845060Y11663790D03*
X-8359649Y12016461D03*
%TD*%
D35*
%TO.C,D5*%
X-5922650Y14040069D03*
X-6470778Y13796027D03*
X-6226736Y13247899D03*
X-5678608Y13491941D03*
%TD*%
D14*
%TO.C,R6*%
X-510000Y8636000D03*
X510000Y8636000D03*
%TD*%
D36*
%TO.C,D29*%
X-3461021Y-14839901D03*
X-2874132Y-14964648D03*
X-2749385Y-14377759D03*
X-3336274Y-14253012D03*
%TD*%
D37*
%TO.C,D40*%
X12149201Y-9197731D03*
X12501872Y-8712320D03*
X12016461Y-8359649D03*
X11663790Y-8845060D03*
%TD*%
D38*
%TO.C,D35*%
X5922650Y-14040069D03*
X6470778Y-13796027D03*
X6226736Y-13247899D03*
X5678608Y-13491941D03*
%TD*%
D39*
%TO.C,D49*%
X14582241Y4422619D03*
X14396831Y4993253D03*
X13826197Y4807843D03*
X14011607Y4237209D03*
%TD*%
D40*
%TO.C,D10*%
X-12149201Y9197731D03*
X-12501872Y8712320D03*
X-12016461Y8359649D03*
X-11663790Y8845060D03*
%TD*%
D41*
%TO.C,D14*%
X-14839901Y3461021D03*
X-14964648Y2874132D03*
X-14377759Y2749385D03*
X-14253012Y3336274D03*
%TD*%
D42*
%TO.C,D6*%
X-7357792Y13344071D03*
X-7877408Y13044071D03*
X-7577408Y12524455D03*
X-7057792Y12824455D03*
%TD*%
D43*
%TO.C,D23*%
X-11522700Y-9971395D03*
X-11121221Y-10417282D03*
X-10675334Y-10015803D03*
X-11076813Y-9569916D03*
%TD*%
D44*
%TO.C,D53*%
X11522700Y9971395D03*
X11121221Y10417282D03*
X10675334Y10015803D03*
X11076813Y9569916D03*
%TD*%
D45*
%TO.C,D34*%
X4422619Y-14582241D03*
X4993253Y-14396831D03*
X4807843Y-13826197D03*
X4237209Y-14011607D03*
%TD*%
D46*
%TO.C,D58*%
X4993253Y14396831D03*
X4422619Y14582241D03*
X4237209Y14011607D03*
X4807843Y13826197D03*
%TD*%
D47*
%TO.C,D12*%
X-13796027Y6470778D03*
X-14040069Y5922650D03*
X-13491941Y5678608D03*
X-13247899Y6226736D03*
%TD*%
D48*
%TO.C,D33*%
X2874132Y-14964648D03*
X3461021Y-14839901D03*
X3336274Y-14253012D03*
X2749385Y-14377759D03*
%TD*%
D49*
%TO.C,D52*%
X12501872Y8712320D03*
X12149201Y9197731D03*
X11663790Y8845060D03*
X12016461Y8359649D03*
%TD*%
D50*
%TO.C,D32*%
X1294156Y-15183098D03*
X1890869Y-15120381D03*
X1828152Y-14523668D03*
X1231439Y-14586385D03*
%TD*%
D51*
%TO.C,D59*%
X3461021Y14839901D03*
X2874132Y14964648D03*
X2749385Y14377759D03*
X3336274Y14253012D03*
%TD*%
D52*
%TO.C,D30*%
X-1890869Y-15120381D03*
X-1294156Y-15183098D03*
X-1231439Y-14586385D03*
X-1828152Y-14523668D03*
%TD*%
D53*
%TO.C,D60*%
X1890869Y15120381D03*
X1294156Y15183098D03*
X1231439Y14586385D03*
X1828152Y14523668D03*
%TD*%
D54*
%TO.C,D13*%
X-14396831Y4993253D03*
X-14582241Y4422619D03*
X-14011607Y4237209D03*
X-13826197Y4807843D03*
%TD*%
D55*
%TO.C,D11*%
X-13044071Y7877408D03*
X-13344071Y7357792D03*
X-12824455Y7057792D03*
X-12524455Y7577408D03*
%TD*%
D56*
%TO.C,D1*%
X300000Y15235200D03*
X-300000Y15235200D03*
X-300000Y14635200D03*
X300000Y14635200D03*
%TD*%
D57*
%TO.C,D36*%
X7357792Y-13344071D03*
X7877408Y-13044071D03*
X7577408Y-12524455D03*
X7057792Y-12824455D03*
%TD*%
D58*
%TO.C,D56*%
X7877408Y13044071D03*
X7357792Y13344071D03*
X7057792Y12824455D03*
X7577408Y12524455D03*
%TD*%
D59*
%TO.C,D46*%
X15235200Y-300000D03*
X15235200Y300000D03*
X14635200Y300000D03*
X14635200Y-300000D03*
%TD*%
D60*
%TO.C,D37*%
X8712320Y-12501872D03*
X9197731Y-12149201D03*
X8845060Y-11663790D03*
X8359649Y-12016461D03*
%TD*%
D61*
%TO.C,D26*%
X-7877408Y-13044071D03*
X-7357792Y-13344071D03*
X-7057792Y-12824455D03*
X-7577408Y-12524455D03*
%TD*%
D62*
%TO.C,D48*%
X14964648Y2874132D03*
X14839901Y3461021D03*
X14253012Y3336274D03*
X14377759Y2749385D03*
%TD*%
D63*
%TO.C,D54*%
X10417282Y11121221D03*
X9971395Y11522700D03*
X9569916Y11076813D03*
X10015803Y10675334D03*
%TD*%
D64*
%TO.C,D44*%
X14839901Y-3461021D03*
X14964648Y-2874132D03*
X14377759Y-2749385D03*
X14253012Y-3336274D03*
%TD*%
D65*
%TO.C,D43*%
X14396831Y-4993253D03*
X14582241Y-4422619D03*
X14011607Y-4237209D03*
X13826197Y-4807843D03*
%TD*%
D66*
%TO.C,D15*%
X-15120381Y1890869D03*
X-15183098Y1294156D03*
X-14586385Y1231439D03*
X-14523668Y1828152D03*
%TD*%
D67*
%TO.C,Q1*%
X-500000Y9515000D03*
X500000Y9515000D03*
X0Y10805000D03*
%TD*%
D68*
%TO.C,D28*%
X-4993253Y-14396831D03*
X-4422619Y-14582241D03*
X-4237209Y-14011607D03*
X-4807843Y-13826197D03*
%TD*%
D69*
%TO.C,D45*%
X15120381Y-1890869D03*
X15183098Y-1294156D03*
X14586385Y-1231439D03*
X14523668Y-1828152D03*
%TD*%
D70*
%TO.C,D25*%
X-9197731Y-12149201D03*
X-8712320Y-12501872D03*
X-8359649Y-12016461D03*
X-8845060Y-11663790D03*
%TD*%
D71*
%TO.C,D2*%
X-1294156Y15183098D03*
X-1890869Y15120381D03*
X-1828152Y14523668D03*
X-1231439Y14586385D03*
%TD*%
D72*
%TO.C,D51*%
X13344071Y7357792D03*
X13044071Y7877408D03*
X12524455Y7577408D03*
X12824455Y7057792D03*
%TD*%
D73*
%TO.C,D27*%
X-6470778Y-13796027D03*
X-5922650Y-14040069D03*
X-5678608Y-13491941D03*
X-6226736Y-13247899D03*
%TD*%
D74*
%TO.C,D57*%
X6470778Y13796027D03*
X5922650Y14040069D03*
X5678608Y13491941D03*
X6226736Y13247899D03*
%TD*%
D75*
%TO.C,D8*%
X-9971395Y11522700D03*
X-10417282Y11121221D03*
X-10015803Y10675334D03*
X-9569916Y11076813D03*
%TD*%
D76*
%TO.C,D19*%
X-14582241Y-4422619D03*
X-14396831Y-4993253D03*
X-13826197Y-4807843D03*
X-14011607Y-4237209D03*
%TD*%
D77*
%TO.C,D18*%
X-14964648Y-2874132D03*
X-14839901Y-3461021D03*
X-14253012Y-3336274D03*
X-14377759Y-2749385D03*
%TD*%
D78*
%TO.C,D41*%
X13044071Y-7877408D03*
X13344071Y-7357792D03*
X12824455Y-7057792D03*
X12524455Y-7577408D03*
%TD*%
D79*
%TO.C,D9*%
X-11121221Y10417282D03*
X-11522700Y9971395D03*
X-11076813Y9569916D03*
X-10675334Y10015803D03*
%TD*%
D80*
%TO.C,D17*%
X-15183098Y-1294156D03*
X-15120381Y-1890869D03*
X-14523668Y-1828152D03*
X-14586385Y-1231439D03*
%TD*%
D81*
%TO.C,D3*%
X-2874132Y14964648D03*
X-3461021Y14839901D03*
X-3336274Y14253012D03*
X-2749385Y14377759D03*
%TD*%
D82*
%TO.C,D47*%
X15183098Y1294156D03*
X15120381Y1890869D03*
X14523668Y1828152D03*
X14586385Y1231439D03*
%TD*%
D83*
%TO.C,D24*%
X-10417282Y-11121221D03*
X-9971395Y-11522700D03*
X-9569916Y-11076813D03*
X-10015803Y-10675334D03*
%TD*%
D84*
%TO.C,D39*%
X11121221Y-10417282D03*
X11522700Y-9971395D03*
X11076813Y-9569916D03*
X10675334Y-10015803D03*
%TD*%
D85*
%TO.C,D4*%
X-4422619Y14582241D03*
X-4993253Y14396831D03*
X-4807843Y13826197D03*
X-4237209Y14011607D03*
%TD*%
D86*
%TO.C,D42*%
X13796027Y-6470778D03*
X14040069Y-5922650D03*
X13491941Y-5678608D03*
X13247899Y-6226736D03*
%TD*%
D87*
%TO.C,D22*%
X-12501872Y-8712320D03*
X-12149201Y-9197731D03*
X-11663790Y-8845060D03*
X-12016461Y-8359649D03*
%TD*%
D88*
%TO.C,D20*%
X-14040069Y-5922650D03*
X-13796027Y-6470778D03*
X-13247899Y-6226736D03*
X-13491941Y-5678608D03*
%TD*%
D89*
%TO.C,D38*%
X9971395Y-11522700D03*
X10417282Y-11121221D03*
X10015803Y-10675334D03*
X9569916Y-11076813D03*
%TD*%
D90*
%TO.C,D31*%
X-300000Y-15235200D03*
X300000Y-15235200D03*
X300000Y-14635200D03*
X-300000Y-14635200D03*
%TD*%
D91*
%TO.C,D55*%
X9197731Y12149201D03*
X8712320Y12501872D03*
X8359649Y12016461D03*
X8845060Y11663790D03*
%TD*%
M02*
