%TF.GenerationSoftware,KiCad,Pcbnew,9.0.2*%
%TF.CreationDate,2025-06-15T10:44:02-04:00*%
%TF.ProjectId,WristWatch,57726973-7457-4617-9463-682e6b696361,rev?*%
%TF.SameCoordinates,Original*%
%TF.FileFunction,Soldermask,Bot*%
%TF.FilePolarity,Negative*%
%FSLAX46Y46*%
G04 Gerber Fmt 4.6, Leading zero omitted, Abs format (unit mm)*
G04 Created by KiCad (PCBNEW 9.0.2) date 2025-06-15 10:44:02*
%MOMM*%
%LPD*%
G01*
G04 APERTURE LIST*
%ADD10C,0.250000*%
%ADD11C,0.600000*%
%ADD12C,0.600000*%
%ADD13C,1.500000*%
%ADD14C,1.000000*%
G04 APERTURE END LIST*
D10*
G36*
X10956529Y6591537D02*
G01*
X10956529Y6199161D01*
X9192851Y6199161D01*
X9192851Y6591537D01*
X10956529Y6591537D01*
G37*
G36*
X10564152Y5415752D02*
G01*
X9388367Y5415752D01*
X9388367Y5806662D01*
X10956529Y5806662D01*
X10956529Y4631000D01*
X9192851Y4631000D01*
X9192851Y5023376D01*
X10564152Y5023376D01*
X10564152Y5415752D01*
G37*
G36*
X8715356Y6591537D02*
G01*
X8715356Y6199161D01*
X6951679Y6199161D01*
X6951679Y6591537D01*
X8715356Y6591537D01*
G37*
G36*
X8322980Y5415752D02*
G01*
X7147195Y5415752D01*
X7147195Y5806662D01*
X8715356Y5806662D01*
X8715356Y4631000D01*
X6951679Y4631000D01*
X6951679Y5023376D01*
X8322980Y5023376D01*
X8322980Y5415752D01*
G37*
G36*
X6679348Y4631000D02*
G01*
X6239101Y4631000D01*
X6003895Y5090298D01*
X4807594Y4631000D01*
X4454907Y4631000D01*
X4735176Y5191537D01*
X5172615Y5191537D01*
X5823400Y5441642D01*
X5558274Y5961268D01*
X5172615Y5191537D01*
X4735176Y5191537D01*
X5435176Y6591537D01*
X5675755Y6591537D01*
X6679348Y4631000D01*
G37*
G36*
X3721446Y5970794D02*
G01*
X2642747Y4631000D01*
X2250371Y4631000D01*
X2250371Y6591537D01*
X2642747Y6591537D01*
X2642747Y5252964D01*
X3721446Y6591537D01*
X4113822Y6591537D01*
X4113822Y4631000D01*
X3721446Y4631000D01*
X3721446Y5970794D01*
G37*
D11*
%TO.C,AE1*%
X-8074000Y-6613000D02*
X-3874000Y-6613000D01*
%TD*%
D12*
%TO.C,AE1*%
X-8074000Y-6613000D03*
X-3874000Y-6613000D03*
%TD*%
D13*
%TO.C,TP6*%
X-7620000Y7620000D03*
%TD*%
%TO.C,TP4*%
X-10160000Y5080000D03*
%TD*%
D14*
%TO.C,J4*%
X-12700000Y1270000D03*
%TD*%
D13*
%TO.C,TP2*%
X-7620000Y5080000D03*
%TD*%
%TO.C,TP5*%
X-10160000Y0D03*
%TD*%
D14*
%TO.C,J1*%
X-12700000Y-3810000D03*
%TD*%
%TO.C,J2*%
X-12700000Y3810000D03*
%TD*%
%TO.C,J3*%
X-12700000Y-1270000D03*
%TD*%
D13*
%TO.C,TP3*%
X-10160000Y2540000D03*
%TD*%
%TO.C,TP1*%
X-7620000Y2540000D03*
%TD*%
M02*
