%TF.GenerationSoftware,KiCad,Pcbnew,9.0.2*%
%TF.CreationDate,2025-06-11T22:36:26-04:00*%
%TF.ProjectId,WristWatch,57726973-7457-4617-9463-682e6b696361,rev?*%
%TF.SameCoordinates,Original*%
%TF.FileFunction,Copper,L4,Bot*%
%TF.FilePolarity,Positive*%
%FSLAX46Y46*%
G04 Gerber Fmt 4.6, Leading zero omitted, Abs format (unit mm)*
G04 Created by KiCad (PCBNEW 9.0.2) date 2025-06-11 22:36:26*
%MOMM*%
%LPD*%
G01*
G04 APERTURE LIST*
%TA.AperFunction,ComponentPad*%
%ADD10C,0.600000*%
%TD*%
%TA.AperFunction,ViaPad*%
%ADD11C,0.500000*%
%TD*%
%TA.AperFunction,Conductor*%
%ADD12C,0.150000*%
%TD*%
%TA.AperFunction,Conductor*%
%ADD13C,0.300000*%
%TD*%
G04 APERTURE END LIST*
%TA.AperFunction,EtchedComponent*%
%TO.C,AE1*%
G36*
X22351200Y-25918200D02*
G01*
X27151200Y-25918200D01*
X27151200Y-26518200D01*
X22351200Y-26518200D01*
X22351200Y-25918200D01*
G37*
%TD.AperFunction*%
%TD*%
D10*
%TO.P,AE1,1,A*%
%TO.N,Net-(AE1-A)*%
X22651200Y-26218200D03*
X26851200Y-26218200D03*
%TD*%
D11*
%TO.N,SCL*%
X5442624Y1023024D03*
%TO.N,WKUP1*%
X-750000Y1854200D03*
%TO.N,+3V0*%
X1752600Y2971800D03*
X-250000Y2971800D03*
%TO.N,SCL*%
X4140200Y250000D03*
%TO.N,Net-(U3-~{CS})*%
X5359400Y1778000D03*
X6477000Y0D03*
%TO.N,LED_IN*%
X718532Y14198324D03*
%TO.N,GND*%
X0Y0D03*
%TO.N,VLED*%
X12882306Y8522791D03*
X-14953613Y3870559D03*
X2546251Y-15235104D03*
X2286278Y15276279D03*
X-13702610Y-7129534D03*
X14885489Y4124804D03*
X-7129534Y13702610D03*
X-13822106Y6895009D03*
X-5658165Y14372785D03*
X-13025663Y8302041D03*
X-12882306Y-8522791D03*
X13822106Y-6895009D03*
X-11920862Y-9822670D03*
X15417800Y939800D03*
X-676947Y-15431576D03*
X15235104Y2546251D03*
X-15235104Y-2546251D03*
X13702610Y7129534D03*
X-8522791Y12882306D03*
X5412434Y14467112D03*
X-5412434Y-14467112D03*
X9618114Y12086507D03*
X14372785Y5658165D03*
X-10828809Y-11014929D03*
X-8302041Y-13025663D03*
X13025663Y-8302041D03*
X-14885489Y-4124804D03*
X8522791Y-12882306D03*
X11920862Y9822670D03*
X6895009Y13822106D03*
X-15417800Y-939800D03*
X5658165Y-14372785D03*
X12086507Y-9618114D03*
X4124804Y-14885489D03*
X-2286278Y-15276279D03*
X-15431576Y676947D03*
X-15276279Y2286278D03*
X-939800Y15417800D03*
X14953613Y-3870559D03*
X9822670Y-11920862D03*
X-14467112Y5412434D03*
X-6895009Y-13822106D03*
X-2546251Y15235104D03*
X-3870559Y-14953613D03*
X15276279Y-2286278D03*
X11014929Y-10828809D03*
X14467112Y-5412434D03*
X-11014929Y10828809D03*
X10828809Y11014929D03*
X676947Y15431576D03*
X-9822670Y11920862D03*
X-14372785Y-5658165D03*
X939800Y-15417800D03*
X-12086507Y9618114D03*
X-9618114Y-12086507D03*
X8302041Y13025663D03*
X15431576Y-676947D03*
X3870559Y14953613D03*
X-4124804Y14885489D03*
X7129534Y-13702610D03*
%TD*%
D12*
%TO.N,SCL*%
X4913224Y1023024D02*
X5442624Y1023024D01*
X4913224Y1023024D02*
X4140200Y250000D01*
%TO.N,+3V0*%
X1752600Y2971800D02*
X-250000Y2971800D01*
%TO.N,Net-(U3-~{CS})*%
X6477000Y660400D02*
X5359400Y1778000D01*
X6477000Y0D02*
X6477000Y660400D01*
D13*
%TO.N,VLED*%
X-11920862Y-9822670D02*
X-12882307Y-8522791D01*
X5658166Y-14372785D02*
X4124804Y-14885489D01*
X15417800Y939800D02*
X15431575Y-676948D01*
X9822670Y-11920862D02*
X8522791Y-12882307D01*
X14372785Y5658166D02*
X14885489Y4124804D01*
X-14885489Y-4124804D02*
X-15235104Y-2546250D01*
X-676947Y-15431576D02*
X-2286278Y-15276280D01*
X2546251Y-15235104D02*
X939800Y-15417800D01*
X15276280Y-2286277D02*
X14953614Y-3870559D01*
X-4124804Y14885489D02*
X-2546250Y15235104D01*
X9618114Y12086508D02*
X10828809Y11014930D01*
X-5658166Y14372785D02*
X-4124804Y14885489D01*
X8522791Y-12882306D02*
X7129534Y-13702610D01*
X-5412434Y-14467113D02*
X-6895009Y-13822107D01*
X14885489Y4124804D02*
X15235104Y2546250D01*
X-12086508Y9618114D02*
X-11014930Y10828809D01*
X13702610Y7129535D02*
X14372785Y5658165D01*
X2286277Y15276280D02*
X3870559Y14953614D01*
X15431576Y-676947D02*
X15276280Y-2286278D01*
X-2546251Y15235104D02*
X-939800Y15417800D01*
X-2286277Y-15276280D02*
X-3870559Y-14953614D01*
X5412434Y14467113D02*
X6895009Y13822107D01*
X-13702610Y-7129535D02*
X-14372785Y-5658165D01*
X-15431576Y676947D02*
X-15276280Y2286278D01*
X-13822107Y6895009D02*
X-13025663Y8302041D01*
X-11014930Y10828809D02*
X-9822670Y11920861D01*
X14953614Y-3870559D02*
X14467113Y-5412434D01*
X-10828809Y-11014930D02*
X-11920861Y-9822670D01*
X8302041Y13025663D02*
X9618114Y12086507D01*
X12882306Y8522791D02*
X13702610Y7129534D01*
X-14953614Y3870559D02*
X-14467113Y5412434D01*
X11014930Y-10828809D02*
X9822670Y-11920861D01*
X14467113Y-5412434D02*
X13822107Y-6895009D01*
X-12882306Y-8522791D02*
X-13702610Y-7129534D01*
X-939800Y15417800D02*
X676948Y15431575D01*
X10828809Y11014930D02*
X11920861Y9822670D01*
X12086508Y-9618114D02*
X11014930Y-10828809D01*
X-14372785Y-5658166D02*
X-14885489Y-4124804D01*
X-9822670Y11920862D02*
X-8522791Y12882307D01*
X4124804Y-14885489D02*
X2546250Y-15235104D01*
X-3870559Y-14953614D02*
X-5412434Y-14467113D01*
X-8302041Y-13025663D02*
X-9618114Y-12086507D01*
X11920862Y9822670D02*
X12882307Y8522791D01*
X-15417800Y-939800D02*
X-15431575Y676948D01*
X939800Y-15417800D02*
X-676948Y-15431575D01*
X7129535Y-13702610D02*
X5658165Y-14372785D01*
X-7129535Y13702610D02*
X-5658165Y14372785D01*
X-9618114Y-12086508D02*
X-10828809Y-11014930D01*
X13822107Y-6895009D02*
X13025663Y-8302041D01*
X-15235104Y-2546251D02*
X-15417800Y-939800D01*
X-13025663Y8302041D02*
X-12086507Y9618114D01*
X13025663Y-8302041D02*
X12086507Y-9618114D01*
X-14467113Y5412434D02*
X-13822107Y6895009D01*
X15235104Y2546251D02*
X15417800Y939800D01*
X3870559Y14953614D02*
X5412434Y14467113D01*
X676947Y15431576D02*
X2286278Y15276280D01*
X-15276280Y2286277D02*
X-14953614Y3870559D01*
X6895009Y13822107D02*
X8302041Y13025663D01*
X-8522791Y12882306D02*
X-7129534Y13702610D01*
X-6895009Y-13822107D02*
X-8302041Y-13025663D01*
%TD*%
M02*
