M48
; DRILL file {KiCad 8.0.6} date 2025-01-18T11:53:48-0500
; FORMAT={-:-/ absolute / inch / decimal}
; #@! TF.CreationDate,2025-01-18T11:53:48-05:00
; #@! TF.GenerationSoftware,Kicad,Pcbnew,8.0.6
; #@! TF.FileFunction,Plated,1,4,PTH
FMAT,2
INCH
; #@! TA.AperFunction,Plated,PTH,ViaDrill
T1C0.0098
%
G90
G05
T1
X-1.14Y0.0
X-1.134Y0.118
X-1.134Y-0.12
X-1.116Y0.238
X-1.114Y-0.236
X-1.084Y0.352
X-1.084Y-0.352
X-1.069Y0.0
X-1.042Y0.464
X-1.042Y-0.464
X-1.018Y0.0
X-0.994Y-0.214
X-0.992Y-0.104
X-0.988Y0.57
X-0.988Y-0.57
X-0.9314Y0.4146
X-0.926Y0.098
X-0.922Y0.67
X-0.922Y-0.318
X-0.922Y-0.67
X-0.902Y0.31
X-0.888Y0.192
X-0.879Y0.7118
X-0.876Y0.426
X-0.8705Y-0.3873
X-0.863Y0.018
X-0.846Y-0.762
X-0.84Y-0.402
X-0.806Y0.588
X-0.8055Y-0.4645
X-0.796Y-0.388
X-0.763Y-0.847
X-0.762Y0.847
X-0.7559Y0.7559
X-0.736Y-0.5333
X-0.7153Y0.7944
X-0.6727Y0.8308
X-0.67Y0.922
X-0.67Y-0.922
X-0.656Y-0.594
X-0.654Y-0.752
X-0.581Y-0.636
X-0.57Y0.988
X-0.568Y-0.988
X-0.557Y0.659
X-0.5526Y-0.8026
X-0.546Y0.756
X-0.506Y-0.882
X-0.464Y1.042
X-0.464Y-1.04
X-0.456Y0.788
X-0.4Y-0.912
X-0.388Y0.87
X-0.354Y1.086
X-0.352Y-1.084
X-0.314Y0.97
X-0.312Y-0.9
X-0.238Y1.116
X-0.238Y-1.116
X-0.192Y-0.908
X-0.178Y0.958
X-0.12Y1.134
X-0.12Y-1.134
X-0.104Y0.992
X-0.09Y-0.904
X0.0Y1.14
X0.0Y-0.886
X0.0Y-1.14
X0.013Y1.021
X0.087Y0.859
X0.09Y-0.858
X0.11Y-0.968
X0.119Y1.133
X0.119Y-1.134
X0.178Y-0.936
X0.18Y0.892
X0.238Y1.114
X0.238Y-1.114
X0.308Y0.904
X0.316Y-0.968
X0.352Y0.862
X0.352Y-1.084
X0.354Y1.086
X0.404Y0.912
X0.41Y-0.908
X0.443Y0.74
X0.454Y0.788
X0.464Y1.042
X0.464Y-1.04
X0.544Y-0.754
X0.546Y-0.808
X0.55Y0.752
X0.57Y0.987
X0.57Y-0.986
X0.6Y-0.68
X0.628Y0.718
X0.658Y-0.592
X0.67Y0.922
X0.67Y-0.922
X0.6979Y-0.5072
X0.75Y0.656
X0.764Y0.848
X0.764Y-0.848
X0.7713Y-0.5609
X0.7846Y0.5776
X0.804Y-0.466
X0.843Y0.185
X0.848Y0.764
X0.848Y-0.764
X0.858Y0.298
X0.8806Y0.0932
X0.894Y0.44
X0.908Y0.0
X0.912Y0.18
X0.922Y0.67
X0.923Y-0.67
X0.93Y0.414
X0.93Y-0.412
X0.942Y-0.324
X0.948Y-0.1
X0.956Y-0.186
X0.988Y0.57
X0.988Y-0.57
X1.04Y0.464
X1.04Y-0.464
X1.084Y0.352
X1.084Y-0.352
X1.116Y0.237
X1.116Y-0.238
X1.134Y0.12
X1.136Y-0.12
X1.14Y0.0
M30
