ISO-10303-21;
HEADER;
FILE_DESCRIPTION(('FreeCAD Model'),'2;1');
FILE_NAME('Open CASCADE Shape Model','2026-01-02T09:06:53',(''),(''),
  'Open CASCADE STEP processor 7.9','FreeCAD','Unknown');
FILE_SCHEMA(('AUTOMOTIVE_DESIGN { 1 0 10303 214 1 1 1 1 }'));
ENDSEC;
DATA;
#1 = APPLICATION_PROTOCOL_DEFINITION('international standard',
  'automotive_design',2000,#2);
#2 = APPLICATION_CONTEXT(
  'core data for automotive mechanical design processes');
#3 = SHAPE_DEFINITION_REPRESENTATION(#4,#10);
#4 = PRODUCT_DEFINITION_SHAPE('','',#5);
#5 = PRODUCT_DEFINITION('design','',#6,#9);
#6 = PRODUCT_DEFINITION_FORMATION('','',#7);
#7 = PRODUCT('Body','Body','',(#8));
#8 = PRODUCT_CONTEXT('',#2,'mechanical');
#9 = PRODUCT_DEFINITION_CONTEXT('part definition',#2,'design');
#10 = ADVANCED_BREP_SHAPE_REPRESENTATION('',(#11,#15),#347);
#11 = AXIS2_PLACEMENT_3D('',#12,#13,#14);
#12 = CARTESIAN_POINT('',(0.,0.,0.));
#13 = DIRECTION('',(0.,0.,1.));
#14 = DIRECTION('',(1.,0.,-0.));
#15 = MANIFOLD_SOLID_BREP('',#16);
#16 = CLOSED_SHELL('',(#17,#59,#189,#215,#240,#281,#299,#317,#335));
#17 = ADVANCED_FACE('',(#18),#54,.T.);
#18 = FACE_BOUND('',#19,.T.);
#19 = EDGE_LOOP('',(#20,#30,#39,#47));
#20 = ORIENTED_EDGE('',*,*,#21,.F.);
#21 = EDGE_CURVE('',#22,#24,#26,.T.);
#22 = VERTEX_POINT('',#23);
#23 = CARTESIAN_POINT('',(-16.03811743538,-8.171828995315,0.8));
#24 = VERTEX_POINT('',#25);
#25 = CARTESIAN_POINT('',(-15.50351352087,-7.899434695471,0.8));
#26 = LINE('',#27,#28);
#27 = CARTESIAN_POINT('',(-16.03811743538,-8.171828995315,0.8));
#28 = VECTOR('',#29,1.);
#29 = DIRECTION('',(0.891006524188,0.45399049974,0.));
#30 = ORIENTED_EDGE('',*,*,#31,.T.);
#31 = EDGE_CURVE('',#22,#32,#34,.T.);
#32 = VERTEX_POINT('',#33);
#33 = CARTESIAN_POINT('',(-18.,6.613092715396E-15,0.8));
#34 = CIRCLE('',#35,18.);
#35 = AXIS2_PLACEMENT_3D('',#36,#37,#38);
#36 = CARTESIAN_POINT('',(0.,0.,0.8));
#37 = DIRECTION('',(0.,0.,1.));
#38 = DIRECTION('',(1.,0.,0.));
#39 = ORIENTED_EDGE('',*,*,#40,.T.);
#40 = EDGE_CURVE('',#32,#41,#43,.T.);
#41 = VERTEX_POINT('',#42);
#42 = CARTESIAN_POINT('',(-17.4,7.993605777301E-15,0.8));
#43 = LINE('',#44,#45);
#44 = CARTESIAN_POINT('',(-18.,6.613092715396E-15,0.8));
#45 = VECTOR('',#46,1.);
#46 = DIRECTION('',(1.,-3.673940397442E-16,0.));
#47 = ORIENTED_EDGE('',*,*,#48,.F.);
#48 = EDGE_CURVE('',#24,#41,#49,.T.);
#49 = CIRCLE('',#50,17.4);
#50 = AXIS2_PLACEMENT_3D('',#51,#52,#53);
#51 = CARTESIAN_POINT('',(0.,0.,0.8));
#52 = DIRECTION('',(0.,0.,1.));
#53 = DIRECTION('',(-0.891006524188,-0.45399049974,0.));
#54 = PLANE('',#55);
#55 = AXIS2_PLACEMENT_3D('',#56,#57,#58);
#56 = CARTESIAN_POINT('',(0.711364402072,0.170783482903,0.8));
#57 = DIRECTION('',(0.,0.,1.));
#58 = DIRECTION('',(1.,0.,0.));
#59 = ADVANCED_FACE('',(#60),#184,.T.);
#60 = FACE_BOUND('',#61,.T.);
#61 = EDGE_LOOP('',(#62,#63,#146,#154,#162,#170,#178));
#62 = ORIENTED_EDGE('',*,*,#21,.T.);
#63 = ORIENTED_EDGE('',*,*,#64,.T.);
#64 = EDGE_CURVE('',#24,#65,#67,.T.);
#65 = VERTEX_POINT('',#66);
#66 = CARTESIAN_POINT('',(-15.1471109112,-7.717838495575,0.4));
#67 = B_SPLINE_CURVE_WITH_KNOTS('',5,(#68,#69,#70,#71,#72,#73,#74,#75,
    #76,#77,#78,#79,#80,#81,#82,#83,#84,#85,#86,#87,#88,#89,#90,#91,#92,
    #93,#94,#95,#96,#97,#98,#99,#100,#101,#102,#103,#104,#105,#106,#107,
    #108,#109,#110,#111,#112,#113,#114,#115,#116,#117,#118,#119,#120,
    #121,#122,#123,#124,#125,#126,#127,#128,#129,#130,#131,#132,#133,
    #134,#135,#136,#137,#138,#139,#140,#141,#142,#143,#144,#145),
  .UNSPECIFIED.,.F.,.F.,(6,4,4,4,4,4,4,4,4,4,4,4,4,4,4,4,4,4,4,6),(0.,
    0.326141420593,0.393341563327,0.419941620133,0.488541765771,
    0.522141837511,0.55854191522,0.58234196605,0.622942052702,
    0.660742133394,0.71534224973,0.755942336383,0.779742387212,
    0.800742432063,0.837142509772,0.876342593445,0.915542677117,
    0.950542751843,0.979942814625,1.),.UNSPECIFIED.);
#68 = CARTESIAN_POINT('',(-15.50351352087,-7.899434695471,0.799999995972
    ));
#69 = CARTESIAN_POINT('',(-15.46699646266,-7.880828324974,0.799999995972
    ));
#70 = CARTESIAN_POINT('',(-15.43047829574,-7.862221389556,0.794751006387
    ));
#71 = CARTESIAN_POINT('',(-15.39476101074,-7.844022523865,0.784252132854
    ));
#72 = CARTESIAN_POINT('',(-15.36063858646,-7.826636280292,0.768736811819
    ));
#73 = CARTESIAN_POINT('',(-15.32225146323,-7.807077064075,0.7445075408)
  );
#74 = CARTESIAN_POINT('',(-15.31579057325,-7.803785076201,0.740173870041
    ));
#75 = CARTESIAN_POINT('',(-15.30943310862,-7.800545786182,0.73564980827)
  );
#76 = CARTESIAN_POINT('',(-15.30318496817,-7.797362199608,0.73093955316)
  );
#77 = CARTESIAN_POINT('',(-15.29462416192,-7.793000250955,0.724111274218
    ));
#78 = CARTESIAN_POINT('',(-15.29221449295,-7.79177246329,0.722146435319)
  );
#79 = CARTESIAN_POINT('',(-15.28982319961,-7.79055403848,0.720153416915)
  );
#80 = CARTESIAN_POINT('',(-15.28745062977,-7.789345153766,0.718132508929
    ));
#81 = CARTESIAN_POINT('',(-15.27902756333,-7.785053387048,0.710801037142
    ));
#82 = CARTESIAN_POINT('',(-15.273084806,-7.782025400948,0.705334552849)
  );
#83 = CARTESIAN_POINT('',(-15.26727473364,-7.779065021221,0.699689674785
    ));
#84 = CARTESIAN_POINT('',(-15.26160296396,-7.776175110225,0.693871860921
    ));
#85 = CARTESIAN_POINT('',(-15.25336720618,-7.771978782038,0.684955503893
    ));
#86 = CARTESIAN_POINT('',(-15.25069402294,-7.770616727146,0.681984001919
    ));
#87 = CARTESIAN_POINT('',(-15.24805593158,-7.769272552462,0.678973083717
    ));
#88 = CARTESIAN_POINT('',(-15.24545354439,-7.767946569957,0.675923448094
    ));
#89 = CARTESIAN_POINT('',(-15.24010752941,-7.765222639274,0.66949087288)
  );
#90 = CARTESIAN_POINT('',(-15.2373702036,-7.763827902109,0.66610133584)
  );
#91 = CARTESIAN_POINT('',(-15.23467623735,-7.762455257745,0.662668112453
    ));
#92 = CARTESIAN_POINT('',(-15.23202636444,-7.761105080057,0.659192137845
    ));
#93 = CARTESIAN_POINT('',(-15.22771798005,-7.758909848566,0.653374292161
    ));
#94 = CARTESIAN_POINT('',(-15.22603381933,-7.758051725815,0.651056346655
    ));
#95 = CARTESIAN_POINT('',(-15.22436901104,-7.757203463628,0.648720802098
    ));
#96 = CARTESIAN_POINT('',(-15.22272374909,-7.756365160791,0.646367930484
    ));
#97 = CARTESIAN_POINT('',(-15.21832526623,-7.754124021833,0.63995519873)
  );
#98 = CARTESIAN_POINT('',(-15.21560974103,-7.752740392635,0.63586277042)
  );
#99 = CARTESIAN_POINT('',(-15.21295258743,-7.751386505252,0.631722093751
    ));
#100 = CARTESIAN_POINT('',(-15.21035470578,-7.750062818437,
    0.627534571751));
#101 = CARTESIAN_POINT('',(-15.20545422454,-7.747565898531,0.61936063394
    ));
#102 = CARTESIAN_POINT('',(-15.20314361668,-7.746388585022,
    0.615380265363));
#103 = CARTESIAN_POINT('',(-15.20088582738,-7.745238183913,0.6113616922)
  );
#104 = CARTESIAN_POINT('',(-15.1986815198,-7.744115033107,0.607306094809
    ));
#105 = CARTESIAN_POINT('',(-15.19342549029,-7.741436952309,
    0.597304847989));
#106 = CARTESIAN_POINT('',(-15.19043255804,-7.739911977157,0.59132028012
    ));
#107 = CARTESIAN_POINT('',(-15.1875544343,-7.738445499862,0.585264597367
    ));
#108 = CARTESIAN_POINT('',(-15.18479288243,-7.737038418906,
    0.579141509932));
#109 = CARTESIAN_POINT('',(-15.18018394985,-7.734690050461,
    0.568354448413));
#110 = CARTESIAN_POINT('',(-15.17828372761,-7.733721838871,0.56371891197
    ));
#111 = CARTESIAN_POINT('',(-15.17644952378,-7.732787265341,
    0.559049763418));
#112 = CARTESIAN_POINT('',(-15.17468195987,-7.731886646542,0.55434858485
    ));
#113 = CARTESIAN_POINT('',(-15.17198485701,-7.730512403995,
    0.546843281562));
#114 = CARTESIAN_POINT('',(-15.17101119974,-7.730016300838,
    0.544059127012));
#115 = CARTESIAN_POINT('',(-15.17006075672,-7.72953202593,0.541264840053
    ));
#116 = CARTESIAN_POINT('',(-15.16913363863,-7.72905963567,0.538460746105
    ));
#117 = CARTESIAN_POINT('',(-15.16743257908,-7.728192902538,
    0.533164608325));
#118 = CARTESIAN_POINT('',(-15.16665344892,-7.727795915892,
    0.530674663688));
#119 = CARTESIAN_POINT('',(-15.16589263257,-7.727408260598,
    0.528177564134));
#120 = CARTESIAN_POINT('',(-15.16515019901,-7.727029971807,
    0.525673536076));
#121 = CARTESIAN_POINT('',(-15.16317130639,-7.726021675658,
    0.518810877168));
#122 = CARTESIAN_POINT('',(-15.1619718262,-7.725410509971,0.514438814785
    ));
#123 = CARTESIAN_POINT('',(-15.1608281153,-7.724827760162,0.510047806066
    ));
#124 = CARTESIAN_POINT('',(-15.15974048522,-7.724273584958,
    0.505639047015));
#125 = CARTESIAN_POINT('',(-15.15759862049,-7.723182250366,
    0.496448032295));
#126 = CARTESIAN_POINT('',(-15.15655339033,-7.722649678999,
    0.491663133174));
#127 = CARTESIAN_POINT('',(-15.15557387756,-7.722150592316,
    0.486860552617));
#128 = CARTESIAN_POINT('',(-15.1546603916,-7.72168514797,0.482041807666)
  );
#129 = CARTESIAN_POINT('',(-15.15296600886,-7.720821816845,
    0.472375044441));
#130 = CARTESIAN_POINT('',(-15.15218511203,-7.720423930037,
    0.467527025858));
#131 = CARTESIAN_POINT('',(-15.15147077751,-7.720059958421,
    0.462665898042));
#132 = CARTESIAN_POINT('',(-15.15082323095,-7.719730016967,0.45779319653
    ));
#133 = CARTESIAN_POINT('',(-15.14972428524,-7.719170076161,
    0.448550882617));
#134 = CARTESIAN_POINT('',(-15.14925930385,-7.718933156307,
    0.444183304222));
#135 = CARTESIAN_POINT('',(-15.14884784228,-7.718723506165,0.4398088279)
  );
#136 = CARTESIAN_POINT('',(-15.14849000415,-7.718541178533,
    0.435428555277));
#137 = CARTESIAN_POINT('',(-15.14793039014,-7.718256040952,
    0.427360221333));
#138 = CARTESIAN_POINT('',(-15.14771280495,-7.718145175758,
    0.423673541081));
#139 = CARTESIAN_POINT('',(-15.14753315593,-7.718053640014,
    0.419984205199));
#140 = CARTESIAN_POINT('',(-15.14739147502,-7.717981449985,
    0.416292869289));
#141 = CARTESIAN_POINT('',(-15.14721703872,-7.717892570252,
    0.410080985723));
#142 = CARTESIAN_POINT('',(-15.14716397373,-7.717865532287,
    0.407561156201));
#143 = CARTESIAN_POINT('',(-15.14712859835,-7.71784750763,0.40504090978)
  );
#144 = CARTESIAN_POINT('',(-15.14711091479,-7.717838497404,
    0.402520454927));
#145 = CARTESIAN_POINT('',(-15.14711091479,-7.717838497404,0.4));
#146 = ORIENTED_EDGE('',*,*,#147,.F.);
#147 = EDGE_CURVE('',#148,#65,#150,.T.);
#148 = VERTEX_POINT('',#149);
#149 = CARTESIAN_POINT('',(-15.1471109112,-7.717838495575,0.));
#150 = LINE('',#151,#152);
#151 = CARTESIAN_POINT('',(-15.1471109112,-7.717838495575,0.4));
#152 = VECTOR('',#153,1.);
#153 = DIRECTION('',(0.,0.,1.));
#154 = ORIENTED_EDGE('',*,*,#155,.T.);
#155 = EDGE_CURVE('',#148,#156,#158,.T.);
#156 = VERTEX_POINT('',#157);
#157 = CARTESIAN_POINT('',(-16.92912395957,-8.625819495055,0.));
#158 = LINE('',#159,#160);
#159 = CARTESIAN_POINT('',(-15.1471109112,-7.717838495575,0.));
#160 = VECTOR('',#161,1.);
#161 = DIRECTION('',(-0.891006524188,-0.45399049974,0.));
#162 = ORIENTED_EDGE('',*,*,#163,.T.);
#163 = EDGE_CURVE('',#156,#164,#166,.T.);
#164 = VERTEX_POINT('',#165);
#165 = CARTESIAN_POINT('',(-16.92912395957,-8.625819495055,0.4));
#166 = LINE('',#167,#168);
#167 = CARTESIAN_POINT('',(-16.92912395957,-8.625819495055,0.));
#168 = VECTOR('',#169,1.);
#169 = DIRECTION('',(0.,0.,1.));
#170 = ORIENTED_EDGE('',*,*,#171,.F.);
#171 = EDGE_CURVE('',#172,#164,#174,.T.);
#172 = VERTEX_POINT('',#173);
#173 = CARTESIAN_POINT('',(-16.03811743538,-8.171828995315,0.4));
#174 = LINE('',#175,#176);
#175 = CARTESIAN_POINT('',(-15.1471109112,-7.717838495575,0.4));
#176 = VECTOR('',#177,1.);
#177 = DIRECTION('',(-0.891006524188,-0.45399049974,0.));
#178 = ORIENTED_EDGE('',*,*,#179,.T.);
#179 = EDGE_CURVE('',#172,#22,#180,.T.);
#180 = LINE('',#181,#182);
#181 = CARTESIAN_POINT('',(-16.03811743538,-8.171828995315,0.4));
#182 = VECTOR('',#183,1.);
#183 = DIRECTION('',(0.,0.,1.));
#184 = PLANE('',#185);
#185 = AXIS2_PLACEMENT_3D('',#186,#187,#188);
#186 = CARTESIAN_POINT('',(-15.97447411223,-8.139401102476,
    0.328571428571));
#187 = DIRECTION('',(-0.45399049974,0.891006524188,-1.186811800418E-14)
  );
#188 = DIRECTION('',(0.891006524188,0.45399049974,0.));
#189 = ADVANCED_FACE('',(#190),#210,.T.);
#190 = FACE_BOUND('',#191,.T.);
#191 = EDGE_LOOP('',(#192,#193,#194,#203));
#192 = ORIENTED_EDGE('',*,*,#64,.F.);
#193 = ORIENTED_EDGE('',*,*,#48,.T.);
#194 = ORIENTED_EDGE('',*,*,#195,.T.);
#195 = EDGE_CURVE('',#41,#196,#198,.T.);
#196 = VERTEX_POINT('',#197);
#197 = CARTESIAN_POINT('',(-17.,7.105427357601E-15,0.4));
#198 = CIRCLE('',#199,0.4);
#199 = AXIS2_PLACEMENT_3D('',#200,#201,#202);
#200 = CARTESIAN_POINT('',(-17.4,0.,0.4));
#201 = DIRECTION('',(0.,1.,5.511995638638E-16));
#202 = DIRECTION('',(0.,5.511995638638E-16,-1.));
#203 = ORIENTED_EDGE('',*,*,#204,.F.);
#204 = EDGE_CURVE('',#65,#196,#205,.T.);
#205 = CIRCLE('',#206,17.);
#206 = AXIS2_PLACEMENT_3D('',#207,#208,#209);
#207 = CARTESIAN_POINT('',(0.,0.,0.4));
#208 = DIRECTION('',(0.,0.,1.));
#209 = DIRECTION('',(-0.891006524188,-0.45399049974,0.));
#210 = TOROIDAL_SURFACE('',#211,17.4,0.4);
#211 = AXIS2_PLACEMENT_3D('',#212,#213,#214);
#212 = CARTESIAN_POINT('',(0.,0.,0.4));
#213 = DIRECTION('',(0.,0.,1.));
#214 = DIRECTION('',(-0.891006524188,-0.45399049974,0.));
#215 = ADVANCED_FACE('',(#216),#235,.T.);
#216 = FACE_BOUND('',#217,.F.);
#217 = EDGE_LOOP('',(#218,#219,#220,#228));
#218 = ORIENTED_EDGE('',*,*,#179,.T.);
#219 = ORIENTED_EDGE('',*,*,#31,.T.);
#220 = ORIENTED_EDGE('',*,*,#221,.F.);
#221 = EDGE_CURVE('',#222,#32,#224,.T.);
#222 = VERTEX_POINT('',#223);
#223 = CARTESIAN_POINT('',(-18.,6.613092715396E-15,0.4));
#224 = LINE('',#225,#226);
#225 = CARTESIAN_POINT('',(-18.,6.613092715396E-15,0.4));
#226 = VECTOR('',#227,1.);
#227 = DIRECTION('',(0.,0.,1.));
#228 = ORIENTED_EDGE('',*,*,#229,.F.);
#229 = EDGE_CURVE('',#172,#222,#230,.T.);
#230 = CIRCLE('',#231,18.);
#231 = AXIS2_PLACEMENT_3D('',#232,#233,#234);
#232 = CARTESIAN_POINT('',(0.,0.,0.4));
#233 = DIRECTION('',(0.,0.,1.));
#234 = DIRECTION('',(1.,0.,0.));
#235 = CYLINDRICAL_SURFACE('',#236,18.);
#236 = AXIS2_PLACEMENT_3D('',#237,#238,#239);
#237 = CARTESIAN_POINT('',(0.,0.,0.4));
#238 = DIRECTION('',(-0.,-0.,-1.));
#239 = DIRECTION('',(1.,0.,0.));
#240 = ADVANCED_FACE('',(#241),#276,.T.);
#241 = FACE_BOUND('',#242,.T.);
#242 = EDGE_LOOP('',(#243,#251,#252,#253,#254,#262,#270));
#243 = ORIENTED_EDGE('',*,*,#244,.T.);
#244 = EDGE_CURVE('',#245,#196,#247,.T.);
#245 = VERTEX_POINT('',#246);
#246 = CARTESIAN_POINT('',(-17.,6.613092718192E-15,0.));
#247 = LINE('',#248,#249);
#248 = CARTESIAN_POINT('',(-17.,6.613092718192E-15,0.));
#249 = VECTOR('',#250,1.);
#250 = DIRECTION('',(0.,0.,1.));
#251 = ORIENTED_EDGE('',*,*,#195,.F.);
#252 = ORIENTED_EDGE('',*,*,#40,.F.);
#253 = ORIENTED_EDGE('',*,*,#221,.F.);
#254 = ORIENTED_EDGE('',*,*,#255,.F.);
#255 = EDGE_CURVE('',#256,#222,#258,.T.);
#256 = VERTEX_POINT('',#257);
#257 = CARTESIAN_POINT('',(-19.,6.98048675514E-15,0.4));
#258 = LINE('',#259,#260);
#259 = CARTESIAN_POINT('',(-19.,6.98048675514E-15,0.4));
#260 = VECTOR('',#261,1.);
#261 = DIRECTION('',(1.,0.,0.));
#262 = ORIENTED_EDGE('',*,*,#263,.F.);
#263 = EDGE_CURVE('',#264,#256,#266,.T.);
#264 = VERTEX_POINT('',#265);
#265 = CARTESIAN_POINT('',(-19.,6.98048675514E-15,0.));
#266 = LINE('',#267,#268);
#267 = CARTESIAN_POINT('',(-19.,6.98048675514E-15,0.));
#268 = VECTOR('',#269,1.);
#269 = DIRECTION('',(0.,0.,1.));
#270 = ORIENTED_EDGE('',*,*,#271,.T.);
#271 = EDGE_CURVE('',#264,#245,#272,.T.);
#272 = LINE('',#273,#274);
#273 = CARTESIAN_POINT('',(-19.,6.98048675514E-15,0.));
#274 = VECTOR('',#275,1.);
#275 = DIRECTION('',(1.,0.,0.));
#276 = PLANE('',#277);
#277 = AXIS2_PLACEMENT_3D('',#278,#279,#280);
#278 = CARTESIAN_POINT('',(-17.92857142857,6.77710791191E-15,
    0.328571428571));
#279 = DIRECTION('',(-0.,-1.,-5.511995638638E-16));
#280 = DIRECTION('',(0.,5.511995638638E-16,-1.));
#281 = ADVANCED_FACE('',(#282),#294,.F.);
#282 = FACE_BOUND('',#283,.T.);
#283 = EDGE_LOOP('',(#284,#285,#292,#293));
#284 = ORIENTED_EDGE('',*,*,#244,.F.);
#285 = ORIENTED_EDGE('',*,*,#286,.F.);
#286 = EDGE_CURVE('',#148,#245,#287,.T.);
#287 = CIRCLE('',#288,17.);
#288 = AXIS2_PLACEMENT_3D('',#289,#290,#291);
#289 = CARTESIAN_POINT('',(0.,0.,0.));
#290 = DIRECTION('',(0.,0.,1.));
#291 = DIRECTION('',(1.,0.,0.));
#292 = ORIENTED_EDGE('',*,*,#147,.T.);
#293 = ORIENTED_EDGE('',*,*,#204,.T.);
#294 = CYLINDRICAL_SURFACE('',#295,17.);
#295 = AXIS2_PLACEMENT_3D('',#296,#297,#298);
#296 = CARTESIAN_POINT('',(0.,0.,0.));
#297 = DIRECTION('',(-0.,-0.,-1.));
#298 = DIRECTION('',(1.,0.,0.));
#299 = ADVANCED_FACE('',(#300),#312,.T.);
#300 = FACE_BOUND('',#301,.T.);
#301 = EDGE_LOOP('',(#302,#303,#304,#311));
#302 = ORIENTED_EDGE('',*,*,#229,.F.);
#303 = ORIENTED_EDGE('',*,*,#171,.T.);
#304 = ORIENTED_EDGE('',*,*,#305,.T.);
#305 = EDGE_CURVE('',#164,#256,#306,.T.);
#306 = CIRCLE('',#307,19.);
#307 = AXIS2_PLACEMENT_3D('',#308,#309,#310);
#308 = CARTESIAN_POINT('',(0.,0.,0.4));
#309 = DIRECTION('',(0.,0.,1.));
#310 = DIRECTION('',(1.,0.,0.));
#311 = ORIENTED_EDGE('',*,*,#255,.T.);
#312 = PLANE('',#313);
#313 = AXIS2_PLACEMENT_3D('',#314,#315,#316);
#314 = CARTESIAN_POINT('',(0.544289126752,0.130672258132,0.4));
#315 = DIRECTION('',(0.,0.,1.));
#316 = DIRECTION('',(1.,0.,0.));
#317 = ADVANCED_FACE('',(#318),#330,.F.);
#318 = FACE_BOUND('',#319,.F.);
#319 = EDGE_LOOP('',(#320,#321,#328,#329));
#320 = ORIENTED_EDGE('',*,*,#155,.T.);
#321 = ORIENTED_EDGE('',*,*,#322,.T.);
#322 = EDGE_CURVE('',#156,#264,#323,.T.);
#323 = CIRCLE('',#324,19.);
#324 = AXIS2_PLACEMENT_3D('',#325,#326,#327);
#325 = CARTESIAN_POINT('',(0.,0.,0.));
#326 = DIRECTION('',(0.,0.,1.));
#327 = DIRECTION('',(1.,0.,0.));
#328 = ORIENTED_EDGE('',*,*,#271,.T.);
#329 = ORIENTED_EDGE('',*,*,#286,.F.);
#330 = PLANE('',#331);
#331 = AXIS2_PLACEMENT_3D('',#332,#333,#334);
#332 = CARTESIAN_POINT('',(0.544289126752,0.130672258132,0.));
#333 = DIRECTION('',(0.,0.,1.));
#334 = DIRECTION('',(1.,0.,0.));
#335 = ADVANCED_FACE('',(#336),#342,.T.);
#336 = FACE_BOUND('',#337,.F.);
#337 = EDGE_LOOP('',(#338,#339,#340,#341));
#338 = ORIENTED_EDGE('',*,*,#163,.T.);
#339 = ORIENTED_EDGE('',*,*,#305,.T.);
#340 = ORIENTED_EDGE('',*,*,#263,.F.);
#341 = ORIENTED_EDGE('',*,*,#322,.F.);
#342 = CYLINDRICAL_SURFACE('',#343,19.);
#343 = AXIS2_PLACEMENT_3D('',#344,#345,#346);
#344 = CARTESIAN_POINT('',(0.,0.,0.));
#345 = DIRECTION('',(-0.,-0.,-1.));
#346 = DIRECTION('',(1.,0.,0.));
#347 = ( GEOMETRIC_REPRESENTATION_CONTEXT(3) 
GLOBAL_UNCERTAINTY_ASSIGNED_CONTEXT((#351)) GLOBAL_UNIT_ASSIGNED_CONTEXT
((#348,#349,#350)) REPRESENTATION_CONTEXT('Context #1',
  '3D Context with UNIT and UNCERTAINTY') );
#348 = ( LENGTH_UNIT() NAMED_UNIT(*) SI_UNIT(.MILLI.,.METRE.) );
#349 = ( NAMED_UNIT(*) PLANE_ANGLE_UNIT() SI_UNIT($,.RADIAN.) );
#350 = ( NAMED_UNIT(*) SI_UNIT($,.STERADIAN.) SOLID_ANGLE_UNIT() );
#351 = UNCERTAINTY_MEASURE_WITH_UNIT(LENGTH_MEASURE(1.E-07),#348,
  'distance_accuracy_value','confusion accuracy');
#352 = PRODUCT_RELATED_PRODUCT_CATEGORY('part',$,(#7));
#353 = MECHANICAL_DESIGN_GEOMETRIC_PRESENTATION_REPRESENTATION('',(#354)
  ,#347);
#354 = STYLED_ITEM('color',(#355),#15);
#355 = PRESENTATION_STYLE_ASSIGNMENT((#356,#362));
#356 = SURFACE_STYLE_USAGE(.BOTH.,#357);
#357 = SURFACE_SIDE_STYLE('',(#358));
#358 = SURFACE_STYLE_FILL_AREA(#359);
#359 = FILL_AREA_STYLE('',(#360));
#360 = FILL_AREA_STYLE_COLOUR('',#361);
#361 = COLOUR_RGB('',0.447058818107,0.474509808674,0.501960817233);
#362 = CURVE_STYLE('',#363,POSITIVE_LENGTH_MEASURE(0.1),#364);
#363 = DRAUGHTING_PRE_DEFINED_CURVE_FONT('continuous');
#364 = COLOUR_RGB('',9.803921802644E-02,9.803921802644E-02,
  9.803921802644E-02);
ENDSEC;
END-ISO-10303-21;
